<?xml version="1.0" standalone="no"?>
<!DOCTYPE svg PUBLIC "-//W3C//DTD SVG 1.1//EN" "http://www.w3.org/Graphics/SVG/1.1/DTD/svg11.dtd" >
<svg>
<metadata>
Created by FontForge 20090622 at Sat Feb 23 04:52:17 2019
 By ffonts
Copyright (c) 2016 by Zetafonts. All rights reserved.
</metadata>
<defs>
<font id="AristotelicaDisplayTrial-Bold" horiz-adv-x="480" >
  <font-face 
    font-family="Aristotelica Display Trial"
    font-weight="700"
    font-stretch="normal"
    units-per-em="2000"
    panose-1="2 0 5 6 2 0 0 2 0 4"
    ascent="1600"
    descent="-400"
    x-height="930"
    cap-height="1280"
    bbox="-256 -688 2420 1826"
    underline-thickness="100"
    underline-position="-100"
    unicode-range="U+000D-U+FB06"
  />
<missing-glyph horiz-adv-x="450" 
 />
    <glyph glyph-name=".notdef" horiz-adv-x="450" 
 />
    <glyph glyph-name="A" unicode="A" horiz-adv-x="1146" 
d="M839 220h-530l-58 -142q-11 -26 -30 -43.5t-42.5 -26t-50.5 -8t-52 11.5q-26 11 -43 29.5t-24.5 41.5t-6 48.5t12.5 51.5l439 1018q17 38 47.5 58.5t71.5 20.5q38 0 69.5 -20.5t47.5 -57.5l442 -1019q11 -25 12.5 -50.5t-5.5 -48.5t-23.5 -42t-41.5 -30t-51 -11.5
t-50 8.5t-43 26.5t-31 42.5zM414 480h318l-158 384z" />
    <glyph glyph-name="AE" unicode="&#xc6;" horiz-adv-x="1715" 
d="M1555 1280q28 0 52.5 -10.5t42.5 -28.5t28.5 -42.5t10.5 -52.5t-10.5 -52.5t-28.5 -42.5t-42.5 -28.5t-52.5 -10.5h-424v-264h318q28 1 52 -9.5t42 -28.5t28 -42t10 -52t-10 -52.5t-28 -42.5t-42 -28.5t-52 -10.5l-318 -2v-213l424 -1q28 0 52.5 -10.5t42.5 -28.5
t28.5 -42.5t10.5 -52.5t-10.5 -52.5t-28.5 -42.5t-42.5 -28t-52.5 -9h-553h-5h-6q-27 1 -50 11.5t-40.5 28.5t-27.5 41.5t-10 50.5v84h-444l-136 -168q-18 -22 -41 -34.5t-48.5 -15.5t-51 4t-47.5 24t-35 40t-16 48t4 50.5t25 47.5l818 1016l5 6q19 21 45 33.5t56 12.5h558z
M863 482v283l-228 -282z" />
    <glyph glyph-name="AEacute" unicode="&#x1fc;" horiz-adv-x="1715" 
d="M1555 1280q28 0 52.5 -10.5t42.5 -28.5t28.5 -42.5t10.5 -52.5t-10.5 -52.5t-28.5 -42.5t-42.5 -28.5t-52.5 -10.5h-424v-264h318q28 1 52 -9.5t42 -28.5t28 -42t10 -52t-10 -52.5t-28 -42.5t-42 -28.5t-52 -10.5l-318 -2v-213l424 -1q28 0 52.5 -10.5t42.5 -28.5
t28.5 -42.5t10.5 -52.5t-10.5 -52.5t-28.5 -42.5t-42.5 -28t-52.5 -9h-553h-5h-6q-27 1 -50 11.5t-40.5 28.5t-27.5 41.5t-10 50.5v84h-444l-136 -168q-18 -22 -41 -34.5t-48.5 -15.5t-51 4t-47.5 24t-35 40t-16 48t4 50.5t25 47.5l818 1016l5 6q19 21 45 33.5t56 12.5h558z
M863 482v283l-228 -282zM1365 1424q-20 -20 -44 -29.5t-49 -9.5t-48.5 9.5t-42.5 29.5q-20 19 -29.5 43.5t-9.5 49.5t9.5 49t29.5 44l108 108q19 19 43.5 28.5t50 9.5t49.5 -9.5t43 -28.5q20 -20 29.5 -44t9.5 -49t-10 -48.5t-29 -42.5z" />
    <glyph glyph-name="Aacute" unicode="&#xc1;" horiz-adv-x="1146" 
d="M839 220h-530l-58 -142q-11 -26 -30 -43.5t-42.5 -26t-50.5 -8t-52 11.5q-26 11 -43 29.5t-24.5 41.5t-6 48.5t12.5 51.5l439 1018q17 38 47.5 58.5t71.5 20.5q38 0 69.5 -20.5t47.5 -57.5l442 -1019q11 -25 12.5 -50.5t-5.5 -48.5t-23.5 -42t-41.5 -30t-51 -11.5
t-50 8.5t-43 26.5t-31 42.5zM414 480h318l-158 384zM718 1402q-20 -20 -44 -29.5t-49 -9.5t-48.5 9.5t-42.5 29.5q-20 19 -29.5 43.5t-9.5 49.5t9.5 49t29.5 44l108 108q19 19 43.5 28.5t50 9.5t49.5 -9.5t43 -28.5q20 -20 29.5 -44t9.5 -49t-10 -48.5t-29 -42.5z" />
    <glyph glyph-name="Aacutesmall" unicode="&#xf7e1;" horiz-adv-x="876" 
d="M576 1106q-20 -20 -44 -29.5t-49 -9.5t-48.5 9.5t-42.5 29.5q-20 19 -29.5 43.5t-9.5 49.5t9.5 49t29.5 44l108 108q19 19 43.5 28.5t50 9.5t49.5 -9.5t43 -28.5q20 -20 29.5 -44t9.5 -49t-10 -48.5t-29 -42.5zM439 570l-71 191q-10 26 -17.5 52t-8 48.5t9 40.5t34.5 29
q32 15 69 10q1 0 1 -0.5t1 -0.5q4 0 12 -2q13 -3 23 -7q5 -2 9 -4.5t8 -5.5q32 -20 49 -58l306 -685q11 -26 10.5 -52t-10.5 -49t-28 -42t-42 -29q-25 -11 -50.5 -10.5t-49 9.5t-42.5 27t-30 44l-25 68h-318l-25 -68q-11 -26 -29.5 -44t-41.5 -27.5t-48.5 -9.5t-50.5 11
q-26 10 -44.5 29t-28 42t-10 49t10.5 52l306 685q17 41 55 62t82 16q1 0 1 -0.5t1 -0.5q4 0 12 -2q21 -5 40 -17q17 -12 22.5 -30t4 -39.5t-9 -44.5t-16.5 -46zM439 570l67 -181h-135z" />
    <glyph glyph-name="Abreve" unicode="&#x102;" horiz-adv-x="1146" 
d="M839 220h-530l-58 -142q-11 -26 -30 -43.5t-42.5 -26t-50.5 -8t-52 11.5q-26 11 -43 29.5t-24.5 41.5t-6 48.5t12.5 51.5l439 1018q17 38 47.5 58.5t71.5 20.5q38 0 69.5 -20.5t47.5 -57.5l442 -1019q11 -25 12.5 -50.5t-5.5 -48.5t-23.5 -42t-41.5 -30t-51 -11.5
t-50 8.5t-43 26.5t-31 42.5zM414 480h318l-158 384zM640 1603q0 38 25 64t63 26t63 -26t25 -64v-4q-1 -49 -20 -92t-51.5 -75t-76 -50.5t-92.5 -18.5q-50 0 -94 19t-77 51.5t-52 76t-19 93.5q0 19 7 35.5t19 28.5t28 19t34 7q38 0 64 -26t26 -64v-4q2 -24 20 -42t44 -18
t45 19t19 45z" />
    <glyph glyph-name="Abreve.small" horiz-adv-x="876" 
d="M515 1299q0 38 25 64t63 26t63 -26t25 -64v-4q-1 -49 -20 -92t-51.5 -75t-76 -50.5t-92.5 -18.5q-50 0 -94 19t-77 51.5t-52 76t-19 93.5q0 19 7 35.5t19 28.5t28 19t34 7q38 0 64 -26t26 -64v-4q2 -24 20 -42t44 -18t45 19t19 45zM439 570l-71 191q-10 26 -17.5 52
t-8 48.5t9 40.5t34.5 29q32 15 69 10q1 0 1 -0.5t1 -0.5q4 0 12 -2q13 -3 23 -7q5 -2 9 -4.5t8 -5.5q32 -20 49 -58l306 -685q11 -26 10.5 -52t-10.5 -49t-28 -42t-42 -29q-25 -11 -50.5 -10.5t-49 9.5t-42.5 27t-30 44l-25 68h-318l-25 -68q-11 -26 -29.5 -44t-41.5 -27.5
t-48.5 -9.5t-50.5 11q-26 10 -44.5 29t-28 42t-10 49t10.5 52l306 685q17 41 55 62t82 16q1 0 1 -0.5t1 -0.5q4 0 12 -2q21 -5 40 -17q17 -12 22.5 -30t4 -39.5t-9 -44.5t-16.5 -46zM439 570l67 -181h-135z" />
    <glyph glyph-name="Acircumflex" unicode="&#xc2;" horiz-adv-x="1146" 
d="M839 220h-530l-58 -142q-11 -26 -30 -43.5t-42.5 -26t-50.5 -8t-52 11.5q-26 11 -43 29.5t-24.5 41.5t-6 48.5t12.5 51.5l439 1018q17 38 47.5 58.5t71.5 20.5q38 0 69.5 -20.5t47.5 -57.5l442 -1019q11 -25 12.5 -50.5t-5.5 -48.5t-23.5 -42t-41.5 -30t-51 -11.5
t-50 8.5t-43 26.5t-31 42.5zM414 480h318l-158 384zM648 1742.07q-12 10.999 -24 17.998q-26 15.999 -55 14q-26 0 -49 -14q-13 -7.99902 -23 -17.998l-200 -201.988q-24 -23.998 -29.5 -50.9971q-5.5 -26.998 3 -51.4971q8.5 -24.498 27.5 -43.4971t43.5 -27.498t51.5 -3.5
q27 5 52 28.998l127 125.993l128 -125.993q24 -23.998 51.5 -28.998q27.5 -4.99902 52 3.5t43.5 27.498t27.5 43.4971q8.5 24.499 3 51.4971q-5.5 26.999 -29.5 50.9971z" />
    <glyph glyph-name="Adieresis" unicode="&#xc4;" horiz-adv-x="1146" 
d="M839 220h-530l-58 -142q-11 -26 -30 -43.5t-42.5 -26t-50.5 -8t-52 11.5q-26 11 -43 29.5t-24.5 41.5t-6 48.5t12.5 51.5l439 1018q17 38 47.5 58.5t71.5 20.5q38 0 69.5 -20.5t47.5 -57.5l442 -1019q11 -25 12.5 -50.5t-5.5 -48.5t-23.5 -42t-41.5 -30t-51 -11.5
t-50 8.5t-43 26.5t-31 42.5zM414 480h318l-158 384zM628 1517q0 28 11 53.5t30.5 45t44.5 30.5t54 11t54.5 -11t44.5 -30.5t30 -45t11 -53.5q0 -29 -11 -54.5t-30 -44.5t-44.5 -30t-54.5 -11t-54 11t-44.5 30t-30.5 44.5t-11 54.5zM228 1517q0 28 11 53.5t30 45t44.5 30.5
t54.5 11q28 0 53.5 -11t45 -30.5t30.5 -45t11 -53.5q0 -29 -11 -54.5t-30.5 -44.5t-45 -30t-53.5 -11q-29 0 -54.5 11t-44.5 30t-30 44.5t-11 54.5z" />
    <glyph glyph-name="Agrave" unicode="&#xc0;" horiz-adv-x="1146" 
d="M839 220h-530l-58 -142q-11 -26 -30 -43.5t-42.5 -26t-50.5 -8t-52 11.5q-26 11 -43 29.5t-24.5 41.5t-6 48.5t12.5 51.5l439 1018q17 38 47.5 58.5t71.5 20.5q38 0 69.5 -20.5t47.5 -57.5l442 -1019q11 -25 12.5 -50.5t-5.5 -48.5t-23.5 -42t-41.5 -30t-51 -11.5
t-50 8.5t-43 26.5t-31 42.5zM414 480h318l-158 384zM492.017 1417q19.999 -20 43.9971 -29.5q23.999 -9.5 48.9971 -9.5q24.999 0 48.4971 9.5q23.499 9.5 42.4971 29.5q19.999 19 29.499 43.5q9.49902 24.5 9.49902 49.5t-9.49902 49q-9.5 24 -29.499 44l-107.993 108
q-18.999 19 -43.4971 28.5q-24.499 9.5 -49.9971 9.5t-49.4971 -9.5q-23.998 -9.5 -42.9971 -28.5q-19.999 -20 -29.498 -44q-9.5 -24 -9.5 -49t10 -48.5q9.99902 -23.5 28.998 -42.5z" />
    <glyph glyph-name="Alpha" unicode="&#x391;" horiz-adv-x="1146" 
d="M839 220h-530l-58 -142q-11 -26 -30 -43.5t-42.5 -26t-50.5 -8t-52 11.5q-26 11 -43 29.5t-24.5 41.5t-6 48.5t12.5 51.5l439 1018q17 38 47.5 58.5t71.5 20.5q38 0 69.5 -20.5t47.5 -57.5l442 -1019q11 -25 12.5 -50.5t-5.5 -48.5t-23.5 -42t-41.5 -30t-51 -11.5
t-50 8.5t-43 26.5t-31 42.5zM414 480h318l-158 384z" />
    <glyph glyph-name="Alphatonos" unicode="&#x386;" horiz-adv-x="1146" 
d="M839 220h-530l-58 -142q-11 -26 -30 -43.5t-42.5 -26t-50.5 -8t-52 11.5q-26 11 -43 29.5t-24.5 41.5t-6 48.5t12.5 51.5l439 1018q17 38 47.5 58.5t71.5 20.5q38 0 69.5 -20.5t47.5 -57.5l442 -1019q11 -25 12.5 -50.5t-5.5 -48.5t-23.5 -42t-41.5 -30t-51 -11.5
t-50 8.5t-43 26.5t-31 42.5zM414 480h318l-158 384zM232 948q0 -27 -10 -50.5t-27.5 -40.5t-41 -27t-49.5 -10q-27 0 -50.5 10t-41.5 27t-28 40.5t-10 50.5v202q0 27 10 50.5t28 41.5t41.5 28t50.5 10t50.5 -10t40.5 -28t27 -41.5t10 -50.5v-202z" />
    <glyph glyph-name="Amacron" unicode="&#x100;" horiz-adv-x="1146" 
d="M839 220h-530l-58 -142q-11 -26 -30 -43.5t-42.5 -26t-50.5 -8t-52 11.5q-26 11 -43 29.5t-24.5 41.5t-6 48.5t12.5 51.5l439 1018q17 38 47.5 58.5t71.5 20.5q38 0 69.5 -20.5t47.5 -57.5l442 -1019q11 -25 12.5 -50.5t-5.5 -48.5t-23.5 -42t-41.5 -30t-51 -11.5
t-50 8.5t-43 26.5t-31 42.5zM414 480h318l-158 384zM764 1578q24 0 44.5 -9t35.5 -24t24 -35t9 -42q0 -24 -9 -45t-24 -36.5t-35.5 -25t-44.5 -9.5h-374q-24 0 -44 9.5t-35 25t-23.5 36.5t-8.5 45q0 47 31.5 78.5t79.5 31.5h374z" />
    <glyph glyph-name="Aogonek" unicode="&#x104;" horiz-adv-x="1146" 
d="M839 220h-530l-58 -142q-11 -26 -30 -43.5t-42.5 -26t-50.5 -8t-52 11.5q-26 11 -43 29.5t-24.5 41.5t-6 48.5t12.5 51.5l439 1018q17 38 47.5 58.5t71.5 20.5q38 0 69.5 -20.5t47.5 -57.5l442 -1019q11 -25 12.5 -50.5t-5.5 -48.5t-23.5 -42t-41.5 -30t-51 -11.5
t-50 8.5t-43 26.5t-31 42.5zM414 480h318l-158 384zM994 149q10 10 25 11.5t31.5 -2t32 -11.5t25.5 -18q20 -20 20 -47.5t-20 -48.5l-146 -144q-2 0 -2 -2q-11 -9 -17.5 -23t-6.5 -29q0 -29 20.5 -49.5t49.5 -20.5t48.5 19.5t21.5 46.5v3q0 34 24.5 58t61.5 24q34 0 58 -24
t24 -58v-1q0 -48 -18.5 -91t-50.5 -75t-75 -50.5t-91 -18.5t-90.5 18.5t-74 50.5t-49.5 75t-18 91q0 52 19 95.5t52 74.5z" />
    <glyph glyph-name="Aring" unicode="&#xc5;" horiz-adv-x="1146" 
d="M839 220h-530l-58 -142q-11 -26 -30 -43.5t-42.5 -26t-50.5 -8t-52 11.5q-26 11 -43 29.5t-24.5 41.5t-6 48.5t12.5 51.5l439 1018q17 38 47.5 58.5t71.5 20.5q38 0 69.5 -20.5t47.5 -57.5l442 -1019q11 -25 12.5 -50.5t-5.5 -48.5t-23.5 -42t-41.5 -30t-51 -11.5
t-50 8.5t-43 26.5t-31 42.5zM414 480h318l-158 384zM508 1554q0 -28 19.5 -48t48.5 -20t48.5 20t19.5 48q0 29 -19.5 49t-48.5 20t-48.5 -20t-19.5 -49zM330 1554q0 51 19.5 96t53 78.5t78.5 52.5t95 19q51 0 96 -19t78.5 -52.5t52.5 -78.5t19 -96q0 -50 -19 -95t-52.5 -79
t-78.5 -54t-96 -20q-50 0 -95 20t-78.5 54t-53 79t-19.5 95z" />
    <glyph glyph-name="Asmall" unicode="&#xf761;" horiz-adv-x="876" 
d="M439 570l-71 191q-10 26 -17.5 52t-8 48.5t9 40.5t34.5 29q32 15 69 10q1 0 1 -0.5t1 -0.5q4 0 12 -2q13 -3 23 -7q5 -2 9 -4.5t8 -5.5q32 -20 49 -58l306 -685q11 -26 10.5 -52t-10.5 -49t-28 -42t-42 -29q-25 -11 -50.5 -10.5t-49 9.5t-42.5 27t-30 44l-25 68h-318
l-25 -68q-11 -26 -29.5 -44t-41.5 -27.5t-48.5 -9.5t-50.5 11q-26 10 -44.5 29t-28 42t-10 49t10.5 52l306 685q17 41 55 62t82 16q1 0 1 -0.5t1 -0.5q4 0 12 -2q21 -5 40 -17q17 -12 22.5 -30t4 -39.5t-9 -44.5t-16.5 -46zM439 570l67 -181h-135z" />
    <glyph glyph-name="Atilde" unicode="&#xc3;" horiz-adv-x="1146" 
d="M839 220h-530l-58 -142q-11 -26 -30 -43.5t-42.5 -26t-50.5 -8t-52 11.5q-26 11 -43 29.5t-24.5 41.5t-6 48.5t12.5 51.5l439 1018q17 38 47.5 58.5t71.5 20.5q38 0 69.5 -20.5t47.5 -57.5l442 -1019q11 -25 12.5 -50.5t-5.5 -48.5t-23.5 -42t-41.5 -30t-51 -11.5
t-50 8.5t-43 26.5t-31 42.5zM414 480h318l-158 384zM239 1563l28.5 26t47 36.5t63 32.5t75.5 14q43 0 75.5 -14t64.5 -38l13.5 -11t18 -13.5t20.5 -11t22 -4.5t29.5 9.5t43.5 35.5q2 1 2.5 2t2.5 3q15 15 34 22.5t39 7.5t39 -7.5t34 -22.5q15 -16 22.5 -35t7.5 -38.5
t-7.5 -39t-22.5 -35.5l-3 -3l-27 -26t-47 -36.5t-64 -32.5t-77 -14q-42 0 -75 15.5t-65 38.5q-5 3 -12.5 9.5t-17 13t-20.5 11t-22 4.5q-13 0 -31.5 -9.5t-41.5 -34.5q-1 -2 -5 -6q-15 -15 -34.5 -22.5t-39.5 -7.5t-39.5 7.5t-34.5 22.5t-22.5 34.5t-7.5 39.5t7.5 39.5
t22.5 34.5z" />
    <glyph glyph-name="B" unicode="B" horiz-adv-x="1149" 
d="M240 0q-27 0 -50.5 10t-41.5 27t-28 40.5t-10 50.5v1024q0 27 10 50.5t28 40.5t41.5 27t50.5 10h457q76 0 143 -28.5t116.5 -78t78 -116.5t28.5 -143q0 -66 -21.5 -126t-59.5 -111q57 -56 90.5 -130.5t33.5 -159.5q0 -81 -31 -151.5t-84 -123t-125 -82.5t-153 -30h-473z
M370 528v-268h333q28 0 53.5 12.5t45.5 32.5t32 46.5t12 54.5t-12 51t-32 38.5t-45.5 24t-53.5 8.5h-333zM370 1020v-232h316q24 1 45 10.5t36.5 26t25 37.5t9.5 44q0 24 -10.5 45t-27.5 36.5t-38.5 24t-44.5 8.5h-311z" />
    <glyph glyph-name="B.alt" horiz-adv-x="1132" 
d="M244 1278h5h445q79 0 148 -30.5t120.5 -83t81.5 -122t30 -148.5q0 -69 -23.5 -131t-65.5 -111q48 -52 74.5 -118.5t26.5 -141.5q0 -81 -31 -152.5t-84 -124.5t-124 -84t-151 -31h-15h-5h-427h-5h-2q-5 0 -10.5 0.5t-10.5 1.5q-3 0 -5 1q-39 8 -64 33l-12 13l-6 9
q-11 16 -17.5 35t-6.5 41v1010v8t1 8q3 24 13.5 45.5t27.5 37t39 25t47 10.5h4h2zM545 648q0 28 10.5 52.5t28.5 42.5t42 28.5t52 10.5h5h13q24 0 44.5 9t35.5 24t23.5 35.5t8.5 43.5q0 28 -10 49.5t-27.5 36t-40.5 22t-49 8.5h-5h-298v-742h318q24 0 45 10t37 27t25 39.5
t9 47.5q0 24 -9 46t-25 39.5t-37 27.5t-45 10h-13h-5q-28 0 -52 10.5t-42 28.5t-28.5 42t-10.5 52z" />
    <glyph glyph-name="Bsmall" unicode="&#xf762;" horiz-adv-x="899" 
d="M238 0q-27 0 -50.5 10t-40.5 27t-27 40t-10 49v678q0 27 10 50t27.5 40t41 26.5t49.5 9.5h304q54 0 106.5 -17t93.5 -50.5t66.5 -83.5t25.5 -117q0 -51 -22 -93t-58 -74q57 -35 89.5 -89t32.5 -120q0 -65 -24 -117.5t-66 -90t-98.5 -58t-121.5 -20.5h-324h-4zM370 371
v-122h202q32 0 50 14.5t18 42.5t-17.5 46.5t-50.5 18.5h-202zM370 688v-126h164q10 0 21.5 3t21 10t15.5 19.5t6 30.5t-6 30.5t-15 19.5t-20 10t-21 3h-166z" />
    <glyph glyph-name="C" unicode="C" horiz-adv-x="1251" 
d="M1150 1097q19 -18 28 -41.5t9 -48t-9 -48t-28 -42.5t-43 -28.5t-49 -10t-49 8.5t-42 27q-59 59 -130.5 87t-148.5 28q-78 0 -148.5 -30t-124 -82.5t-84.5 -124t-31 -153.5q0 -78 29 -149t80.5 -124.5t122 -85.5t152.5 -33q78 -1 147.5 26.5t132.5 88.5q18 18 42 26.5
t49 8.5t49 -8.5t42 -25.5q19 -19 28.5 -43t9.5 -49t-9 -49t-27 -42q-98 -97 -217.5 -145t-247.5 -48q-132 0 -249 51t-204.5 139.5t-138.5 207t-51 252.5q0 85 22 167t62.5 154t98.5 133t130 105t157 68.5t179 24.5q126 0 245 -47.5t216 -144.5z" />
    <glyph glyph-name="Cacute" unicode="&#x106;" horiz-adv-x="1251" 
d="M1150 1097q19 -18 28 -41.5t9 -48t-9 -48t-28 -42.5t-43 -28.5t-49 -10t-49 8.5t-42 27q-59 59 -130.5 87t-148.5 28q-78 0 -148.5 -30t-124 -82.5t-84.5 -124t-31 -153.5q0 -78 29 -149t80.5 -124.5t122 -85.5t152.5 -33q78 -1 147.5 26.5t132.5 88.5q18 18 42 26.5
t49 8.5t49 -8.5t42 -25.5q19 -19 28.5 -43t9.5 -49t-9 -49t-27 -42q-98 -97 -217.5 -145t-247.5 -48q-132 0 -249 51t-204.5 139.5t-138.5 207t-51 252.5q0 85 22 167t62.5 154t98.5 133t130 105t157 68.5t179 24.5q126 0 245 -47.5t216 -144.5zM880 1435q-20 -20 -44 -29.5
t-49 -9.5t-48.5 9.5t-42.5 29.5q-20 19 -29.5 43.5t-9.5 49.5t9.5 49t29.5 44l108 108q19 19 43.5 28.5t50 9.5t49.5 -9.5t43 -28.5q20 -20 29.5 -44t9.5 -49t-10 -48.5t-29 -42.5z" />
    <glyph glyph-name="Ccaron" unicode="&#x10c;" horiz-adv-x="1251" 
d="M1150 1097q19 -18 28 -41.5t9 -48t-9 -48t-28 -42.5t-43 -28.5t-49 -10t-49 8.5t-42 27q-59 59 -130.5 87t-148.5 28q-78 0 -148.5 -30t-124 -82.5t-84.5 -124t-31 -153.5q0 -78 29 -149t80.5 -124.5t122 -85.5t152.5 -33q78 -1 147.5 26.5t132.5 88.5q18 18 42 26.5
t49 8.5t49 -8.5t42 -25.5q19 -19 28.5 -43t9.5 -49t-9 -49t-27 -42q-98 -97 -217.5 -145t-247.5 -48q-132 0 -249 51t-204.5 139.5t-138.5 207t-51 252.5q0 85 22 167t62.5 154t98.5 133t130 105t157 68.5t179 24.5q126 0 245 -47.5t216 -144.5zM777 1418q-12 -11 -24 -18
q-26 -16 -55 -14q-26 0 -49 14q-13 8 -23 18l-200 202q-24 24 -29.5 51t3 51.5t27.5 43.5t43.5 27.5t51.5 3.5t52 -29l127 -126l128 126q24 24 51.5 29t52 -3.5t43.5 -27.5t27.5 -43.5t3 -51.5t-29.5 -51z" />
    <glyph glyph-name="Ccedilla" unicode="&#xc7;" horiz-adv-x="1251" 
d="M1150 1097q19 -18 28 -41.5t9 -48t-9 -48t-28 -42.5t-43 -28.5t-49 -10t-49 8.5t-42 27q-59 59 -130.5 87t-148.5 28q-78 0 -148.5 -30t-124 -82.5t-84.5 -124t-31 -153.5q0 -78 29 -149t80.5 -124.5t122 -85.5t152.5 -33q78 -1 147.5 26.5t132.5 88.5q18 18 42 26.5
t49 8.5t49 -8.5t42 -25.5q19 -19 28.5 -43t9.5 -49t-9 -49t-27 -42q-98 -97 -217.5 -145t-247.5 -48q-132 0 -249 51t-204.5 139.5t-138.5 207t-51 252.5q0 85 22 167t62.5 154t98.5 133t130 105t157 68.5t179 24.5q126 0 245 -47.5t216 -144.5zM775 -84q39 -8 71.5 -29
t56 -51t36.5 -68t13 -80q0 -48 -18.5 -90t-50 -73.5t-74 -49.5t-90.5 -18t-90.5 18t-74 49.5t-50 73.5t-18.5 90q0 35 24.5 59.5t59.5 24.5q33 0 57 -24.5t24 -59.5v-3q2 -27 22.5 -46t47.5 -19q29 0 49.5 20.5t20.5 49.5q0 32 -21 51t-65 20h-5q-50 0 -70.5 19t-20.5 48
v210q0 14 7.5 26.5t19.5 21.5t26.5 14.5t28.5 5.5t29 -5.5t27 -14.5t20 -21.5t8 -26.5v-122z" />
    <glyph glyph-name="Ccircumflex" unicode="&#x108;" horiz-adv-x="1251" 
d="M1150 1097q19 -18 28 -41.5t9 -48t-9 -48t-28 -42.5t-43 -28.5t-49 -10t-49 8.5t-42 27q-59 59 -130.5 87t-148.5 28q-78 0 -148.5 -30t-124 -82.5t-84.5 -124t-31 -153.5q0 -78 29 -149t80.5 -124.5t122 -85.5t152.5 -33q78 -1 147.5 26.5t132.5 88.5q18 18 42 26.5
t49 8.5t49 -8.5t42 -25.5q19 -19 28.5 -43t9.5 -49t-9 -49t-27 -42q-98 -97 -217.5 -145t-247.5 -48q-132 0 -249 51t-204.5 139.5t-138.5 207t-51 252.5q0 85 22 167t62.5 154t98.5 133t130 105t157 68.5t179 24.5q126 0 245 -47.5t216 -144.5zM771 1762.07
q-12 10.999 -24 17.998q-26 15.999 -55 14q-26 0 -49 -14q-13 -7.99902 -23 -17.998l-200 -201.988q-24 -23.998 -29.5 -50.9971q-5.5 -26.998 3 -51.4971q8.5 -24.498 27.5 -43.4971t43.5 -27.498t51.5 -3.5q27 5 52 28.998l127 125.993l128 -125.993
q24 -23.998 51.5 -28.998q27.5 -4.99902 52 3.5t43.5 27.498t27.5 43.4971q8.5 24.499 3 51.4971q-5.5 26.999 -29.5 50.9971z" />
    <glyph glyph-name="Cdotaccent" unicode="&#x10a;" horiz-adv-x="1251" 
d="M1150 1097q19 -18 28 -41.5t9 -48t-9 -48t-28 -42.5t-43 -28.5t-49 -10t-49 8.5t-42 27q-59 59 -130.5 87t-148.5 28q-78 0 -148.5 -30t-124 -82.5t-84.5 -124t-31 -153.5q0 -78 29 -149t80.5 -124.5t122 -85.5t152.5 -33q78 -1 147.5 26.5t132.5 88.5q18 18 42 26.5
t49 8.5t49 -8.5t42 -25.5q19 -19 28.5 -43t9.5 -49t-9 -49t-27 -42q-98 -97 -217.5 -145t-247.5 -48q-132 0 -249 51t-204.5 139.5t-138.5 207t-51 252.5q0 85 22 167t62.5 154t98.5 133t130 105t157 68.5t179 24.5q126 0 245 -47.5t216 -144.5zM541 1526q0 31 12 58
t32.5 47.5t47.5 32.5t58 12t58 -12t47.5 -32.5t32.5 -47.5t12 -58t-12 -58t-32.5 -47.5t-47.5 -32.5t-58 -12t-58 12t-47.5 32.5t-32.5 47.5t-12 58z" />
    <glyph glyph-name="Csmall" unicode="&#xf763;" horiz-adv-x="937" 
d="M503 681q-44 0 -83.5 -16.5t-69.5 -46t-48 -69t-18 -85.5q0 -39 16 -77.5t44.5 -69t69 -49t89.5 -18.5q22 0 42 2.5t39 8.5t38.5 17t41.5 28q14 11 28.5 21t30.5 18t33.5 12t36 2.5t38.5 -10.5t41 -27t31.5 -42.5t10 -51.5t-12 -54t-34.5 -50q-33 -33 -74 -58.5
t-87 -42.5t-96 -26t-99 -9q-104 0 -193 37t-154.5 103t-103 157t-37.5 199q0 95 40.5 178.5t108.5 145.5t156 98t183 36q49 0 99 -9t96.5 -26t87.5 -42.5t73 -58.5q23 -24 34.5 -51t12 -53.5t-10 -51t-31.5 -42.5t-41 -27t-38.5 -10.5t-36 2.5t-33.5 12t-30.5 18t-28.5 21
q-21 17 -39.5 28t-37.5 17.5t-39 9t-45 2.5z" />
    <glyph glyph-name="D" unicode="D" horiz-adv-x="1274" 
d="M110 1152q0 27 10 50.5t28 40.5t41.5 27t50.5 10h1h342q88 0 170.5 -23t155 -65t132.5 -101t103 -130t67 -153t24 -170q0 -132 -52.5 -248t-141.5 -203t-207.5 -137t-250.5 -50h-338h-5q-27 0 -50.5 10t-41.5 27t-28 40.5t-10 50.5v1024zM370 1020v-760h220q77 0 147 30
t123 81.5t84 120t31 144.5q0 77 -31 146.5t-84 122.5t-123 84t-147 31h-220z" />
    <glyph glyph-name="Dcaron" unicode="&#x10e;" horiz-adv-x="1274" 
d="M110 1152q0 27 10 50.5t28 40.5t41.5 27t50.5 10h1h342q88 0 170.5 -23t155 -65t132.5 -101t103 -130t67 -153t24 -170q0 -132 -52.5 -248t-141.5 -203t-207.5 -137t-250.5 -50h-338h-5q-27 0 -50.5 10t-41.5 27t-28 40.5t-10 50.5v1024zM370 1020v-760h220q77 0 147 30
t123 81.5t84 120t31 144.5q0 77 -31 146.5t-84 122.5t-123 84t-147 31h-220zM580 1406q-12 -11 -24 -18q-26 -16 -55 -14q-26 0 -49 14q-13 8 -23 18l-200 202q-24 24 -29.5 51t3 51.5t27.5 43.5t43.5 27.5t51.5 3.5t52 -29l127 -126l128 126q24 24 51.5 29t52 -3.5
t43.5 -27.5t27.5 -43.5t3 -51.5t-29.5 -51z" />
    <glyph glyph-name="Dcroat" unicode="&#x110;" horiz-adv-x="1247" 
d="M-58 644q0 46 31 77t77 31h60v400q0 27 10 50.5t28 40.5t41.5 27t50.5 10h342q88 0 169.5 -23t152.5 -65t130 -101t100.5 -130t64.5 -153t23 -170q0 -132 -50.5 -248t-137.5 -203t-203.5 -137t-248.5 -50h-337h-5q-27 0 -50.5 10t-41.5 27t-28 40.5t-10 50.5v402h-60
q-23 0 -42.5 9t-34 24.5t-23 36.5t-8.5 44zM462 752q23 0 43.5 -8.5t35.5 -23.5t23.5 -34.5t8.5 -41.5q0 -23 -8.5 -44t-23.5 -36.5t-35.5 -24.5t-43.5 -9h-92v-266h219q77 0 146 29.5t120.5 80.5t81.5 118.5t30 143.5q0 77 -30 146t-81.5 121.5t-120.5 83.5t-146 31h-219
v-266h92z" />
    <glyph glyph-name="Delta" unicode="&#x394;" horiz-adv-x="1146" 
d="M571 828l-111 264q-11 25 -13 51.5t5 50.5t23 43.5t41 30.5q5 2 10 3.5t10 3.5q10 3 19.5 4t20.5 1l15.5 -2t15.5 -3h1q28 -8 51 -26.5t35 -46.5l427 -1014q17 -41 9 -80q0 -2 -0.5 -2.5t-0.5 -1.5q-2 -8 -4 -14q0 -1 -0.5 -2t-0.5 -3q-9 -23 -27 -42.5t-44 -30.5
q-25 -11 -50 -11.5t-47 8.5t-40 27t-29 44l-76 180h187q28 0 52.5 -9.5t42.5 -26.5t28.5 -40.5t10.5 -51.5q0 -6 -0.5 -12t-1.5 -12q-1 -2 -1 -4q-2 -8 -4 -14q0 -1 -0.5 -2t-0.5 -3q-14 -38 -48.5 -62t-77.5 -23h-858q-28 0 -52 10.5t-42 28.5q-29 28 -36.5 68.5t9.5 80.5
l431 1014q12 29 34.5 47t51.5 26q10 3 19.5 4t20.5 1l15.5 -2t15.5 -3h1q11 -3 20 -7q25 -11 41 -30.5t23 -43.5t5 -50.5t-13 -51.5zM571 828l240 -568h-482z" />
    <glyph glyph-name="E" unicode="E" horiz-adv-x="1094" 
d="M230 0q-51 5 -85.5 40t-34.5 88v1022q0 27 10 50.5t27.5 41.5t41.5 28t51 10h673q27 0 50.5 -10t40.5 -28t27 -41.5t10 -50.5t-10 -50.5t-27 -41.5t-40.5 -28t-50.5 -10h-543v-232h432q27 1 50.5 -9.5t41.5 -28.5t28 -42.5t10 -51.5t-10 -50t-28 -40.5t-41.5 -27
t-50.5 -9.5h-432v-269h543q27 0 50.5 -10.5t40.5 -28.5t27 -42t10 -51t-10 -50.5t-27 -41t-40.5 -27.5t-50.5 -9h-683z" />
    <glyph glyph-name="Eacute" unicode="&#xc9;" horiz-adv-x="1094" 
d="M230 0q-51 5 -85.5 40t-34.5 88v1022q0 27 10 50.5t27.5 41.5t41.5 28t51 10h673q27 0 50.5 -10t40.5 -28t27 -41.5t10 -50.5t-10 -50.5t-27 -41.5t-40.5 -28t-50.5 -10h-543v-232h432q27 1 50.5 -9.5t41.5 -28.5t28 -42.5t10 -51.5t-10 -50t-28 -40.5t-41.5 -27
t-50.5 -9.5h-432v-269h543q27 0 50.5 -10.5t40.5 -28.5t27 -42t10 -51t-10 -50.5t-27 -41t-40.5 -27.5t-50.5 -9h-683zM666 1423q-20 -20 -44 -29.5t-49 -9.5t-48.5 9.5t-42.5 29.5q-20 19 -29.5 43.5t-9.5 49.5t9.5 49t29.5 44l108 108q19 19 43.5 28.5t50 9.5t49.5 -9.5
t43 -28.5q20 -20 29.5 -44t9.5 -49t-10 -48.5t-29 -42.5z" />
    <glyph glyph-name="Ebreve" unicode="&#x114;" horiz-adv-x="1094" 
d="M230 0q-51 5 -85.5 40t-34.5 88v1022q0 27 10 50.5t27.5 41.5t41.5 28t51 10h673q27 0 50.5 -10t40.5 -28t27 -41.5t10 -50.5t-10 -50.5t-27 -41.5t-40.5 -28t-50.5 -10h-543v-232h432q27 1 50.5 -9.5t41.5 -28.5t28 -42.5t10 -51.5t-10 -50t-28 -40.5t-41.5 -27
t-50.5 -9.5h-432v-269h543q27 0 50.5 -10.5t40.5 -28.5t27 -42t10 -51t-10 -50.5t-27 -41t-40.5 -27.5t-50.5 -9h-683zM648 1618q0 38 25 64t63 26t63 -26t25 -64v-4q-1 -49 -20 -92t-51.5 -75t-76 -50.5t-92.5 -18.5q-50 0 -94 19t-77 51.5t-52 76t-19 93.5q0 19 7 35.5
t19 28.5t28 19t34 7q38 0 64 -26t26 -64v-4q2 -24 20 -42t44 -18t45 19t19 45z" />
    <glyph glyph-name="Ecaron" unicode="&#x11a;" horiz-adv-x="1094" 
d="M230 0q-51 5 -85.5 40t-34.5 88v1022q0 27 10 50.5t27.5 41.5t41.5 28t51 10h673q27 0 50.5 -10t40.5 -28t27 -41.5t10 -50.5t-10 -50.5t-27 -41.5t-40.5 -28t-50.5 -10h-543v-232h432q27 1 50.5 -9.5t41.5 -28.5t28 -42.5t10 -51.5t-10 -50t-28 -40.5t-41.5 -27
t-50.5 -9.5h-432v-269h543q27 0 50.5 -10.5t40.5 -28.5t27 -42t10 -51t-10 -50.5t-27 -41t-40.5 -27.5t-50.5 -9h-683zM679 1408q-12 -11 -24 -18q-26 -16 -55 -14q-26 0 -49 14q-13 8 -23 18l-200 202q-24 24 -29.5 51t3 51.5t27.5 43.5t43.5 27.5t51.5 3.5t52 -29
l127 -126l128 126q24 24 51.5 29t52 -3.5t43.5 -27.5t27.5 -43.5t3 -51.5t-29.5 -51z" />
    <glyph glyph-name="Ecircumflex" unicode="&#xca;" horiz-adv-x="1094" 
d="M230 0q-51 5 -85.5 40t-34.5 88v1022q0 27 10 50.5t27.5 41.5t41.5 28t51 10h673q27 0 50.5 -10t40.5 -28t27 -41.5t10 -50.5t-10 -50.5t-27 -41.5t-40.5 -28t-50.5 -10h-543v-232h432q27 1 50.5 -9.5t41.5 -28.5t28 -42.5t10 -51.5t-10 -50t-28 -40.5t-41.5 -27
t-50.5 -9.5h-432v-269h543q27 0 50.5 -10.5t40.5 -28.5t27 -42t10 -51t-10 -50.5t-27 -41t-40.5 -27.5t-50.5 -9h-683zM655 1760.07q-12 10.999 -24 17.998q-26 15.999 -55 14q-26 0 -49 -14q-13 -7.99902 -23 -17.998l-200 -201.988q-24 -23.998 -29.5 -50.9971
q-5.5 -26.998 3 -51.4971q8.5 -24.498 27.5 -43.4971t43.5 -27.498t51.5 -3.5q27 5 52 28.998l127 125.993l128 -125.993q24 -23.998 51.5 -28.998q27.5 -4.99902 52 3.5t43.5 27.498t27.5 43.4971q8.5 24.499 3 51.4971q-5.5 26.999 -29.5 50.9971z" />
    <glyph glyph-name="Edieresis" unicode="&#xcb;" horiz-adv-x="1094" 
d="M230 0q-51 5 -85.5 40t-34.5 88v1022q0 27 10 50.5t27.5 41.5t41.5 28t51 10h673q27 0 50.5 -10t40.5 -28t27 -41.5t10 -50.5t-10 -50.5t-27 -41.5t-40.5 -28t-50.5 -10h-543v-232h432q27 1 50.5 -9.5t41.5 -28.5t28 -42.5t10 -51.5t-10 -50t-28 -40.5t-41.5 -27
t-50.5 -9.5h-432v-269h543q27 0 50.5 -10.5t40.5 -28.5t27 -42t10 -51t-10 -50.5t-27 -41t-40.5 -27.5t-50.5 -9h-683zM625 1530q0 28 11 53.5t30.5 45t44.5 30.5t54 11t54.5 -11t44.5 -30.5t30 -45t11 -53.5q0 -29 -11 -54.5t-30 -44.5t-44.5 -30t-54.5 -11t-54 11
t-44.5 30t-30.5 44.5t-11 54.5zM225 1530q0 28 11 53.5t30 45t44.5 30.5t54.5 11q28 0 53.5 -11t45 -30.5t30.5 -45t11 -53.5q0 -29 -11 -54.5t-30.5 -44.5t-45 -30t-53.5 -11q-29 0 -54.5 11t-44.5 30t-30 44.5t-11 54.5z" />
    <glyph glyph-name="Edotaccent" unicode="&#x116;" horiz-adv-x="1094" 
d="M230 0q-51 5 -85.5 40t-34.5 88v1022q0 27 10 50.5t27.5 41.5t41.5 28t51 10h673q27 0 50.5 -10t40.5 -28t27 -41.5t10 -50.5t-10 -50.5t-27 -41.5t-40.5 -28t-50.5 -10h-543v-232h432q27 1 50.5 -9.5t41.5 -28.5t28 -42.5t10 -51.5t-10 -50t-28 -40.5t-41.5 -27
t-50.5 -9.5h-432v-269h543q27 0 50.5 -10.5t40.5 -28.5t27 -42t10 -51t-10 -50.5t-27 -41t-40.5 -27.5t-50.5 -9h-683zM434 1540q0 31 12 58t32.5 47.5t47.5 32.5t58 12t58 -12t47.5 -32.5t32.5 -47.5t12 -58t-12 -58t-32.5 -47.5t-47.5 -32.5t-58 -12t-58 12t-47.5 32.5
t-32.5 47.5t-12 58z" />
    <glyph glyph-name="Egrave" unicode="&#xc8;" horiz-adv-x="1094" 
d="M230 0q-51 5 -85.5 40t-34.5 88v1022q0 27 10 50.5t27.5 41.5t41.5 28t51 10h673q27 0 50.5 -10t40.5 -28t27 -41.5t10 -50.5t-10 -50.5t-27 -41.5t-40.5 -28t-50.5 -10h-543v-232h432q27 1 50.5 -9.5t41.5 -28.5t28 -42.5t10 -51.5t-10 -50t-28 -40.5t-41.5 -27
t-50.5 -9.5h-432v-269h543q27 0 50.5 -10.5t40.5 -28.5t27 -42t10 -51t-10 -50.5t-27 -41t-40.5 -27.5t-50.5 -9h-683zM530.017 1422q19.999 -20 43.9971 -29.5q23.999 -9.5 48.9971 -9.5q24.999 0 48.4971 9.5q23.499 9.5 42.4971 29.5q19.999 19 29.499 43.5
q9.49902 24.5 9.49902 49.5t-9.49902 49q-9.5 24 -29.499 44l-107.993 108q-18.999 19 -43.4971 28.5q-24.499 9.5 -49.9971 9.5t-49.4971 -9.5q-23.998 -9.5 -42.9971 -28.5q-19.999 -20 -29.498 -44q-9.5 -24 -9.5 -49t10 -48.5q9.99902 -23.5 28.998 -42.5z" />
    <glyph glyph-name="Emacron" unicode="&#x112;" horiz-adv-x="1094" 
d="M230 0q-51 5 -85.5 40t-34.5 88v1022q0 27 10 50.5t27.5 41.5t41.5 28t51 10h673q27 0 50.5 -10t40.5 -28t27 -41.5t10 -50.5t-10 -50.5t-27 -41.5t-40.5 -28t-50.5 -10h-543v-232h432q27 1 50.5 -9.5t41.5 -28.5t28 -42.5t10 -51.5t-10 -50t-28 -40.5t-41.5 -27
t-50.5 -9.5h-432v-269h543q27 0 50.5 -10.5t40.5 -28.5t27 -42t10 -51t-10 -50.5t-27 -41t-40.5 -27.5t-50.5 -9h-683zM741 1591q24 0 44.5 -9t35.5 -24t24 -35t9 -42q0 -24 -9 -45t-24 -36.5t-35.5 -25t-44.5 -9.5h-374q-24 0 -44 9.5t-35 25t-23.5 36.5t-8.5 45
q0 47 31.5 78.5t79.5 31.5h374z" />
    <glyph glyph-name="Eng" unicode="&#x14a;" horiz-adv-x="1359" 
d="M686 -174q0 26 9.5 49.5t26.5 41t40.5 27.5t51.5 10h5q42 2 69.5 20t29.5 52v6v51l-548 700v-651q0 -28 -9.5 -52t-26 -42t-39.5 -28t-51 -10t-52.5 10t-42.5 28t-28.5 42t-10.5 52v1012q0 42 23 74q10 18 29 34q22 17 47 24t50.5 4t49 -15.5t41.5 -34.5l568 -725v639
q0 28 9.5 52t26.5 42t40.5 28t51.5 10t52 -10t42 -28t28 -42t10 -52v-1112q0 -69 -28 -129.5t-75.5 -106t-110.5 -72t-132 -26.5h-18q-56 0 -92 36t-36 92z" />
    <glyph glyph-name="Eogonek" unicode="&#x118;" horiz-adv-x="1094" 
d="M230 0q-51 5 -85.5 40t-34.5 88v1022q0 27 10 50.5t27.5 41.5t41.5 28t51 10h673q27 0 50.5 -10t40.5 -28t27 -41.5t10 -50.5t-10 -50.5t-27 -41.5t-40.5 -28t-50.5 -10h-543v-232h432q27 1 50.5 -9.5t41.5 -28.5t28 -42.5t10 -51.5t-10 -50t-28 -40.5t-41.5 -27
t-50.5 -9.5h-432v-269h543q27 0 50.5 -10.5t40.5 -28.5t27 -42t10 -51t-10 -50.5t-27 -41t-40.5 -27.5t-50.5 -9h-683zM887 149q10 10 25 11.5t31.5 -2t32 -11.5t25.5 -18q20 -20 20 -47.5t-20 -48.5l-146 -144q-2 0 -2 -2q-11 -9 -17.5 -23t-6.5 -29q0 -29 20.5 -49.5
t49.5 -20.5t48.5 19.5t21.5 46.5v3q0 34 24.5 58t61.5 24q34 0 58 -24t24 -58v-1q0 -48 -18.5 -91t-50.5 -75t-75 -50.5t-91 -18.5t-90.5 18.5t-74 50.5t-49.5 75t-18 91q0 52 19 95.5t52 74.5z" />
    <glyph glyph-name="Epsilon" unicode="&#x395;" horiz-adv-x="1094" 
d="M230 0q-51 5 -85.5 40t-34.5 88v1022q0 27 10 50.5t27.5 41.5t41.5 28t51 10h673q27 0 50.5 -10t40.5 -28t27 -41.5t10 -50.5t-10 -50.5t-27 -41.5t-40.5 -28t-50.5 -10h-543v-232h432q27 1 50.5 -9.5t41.5 -28.5t28 -42.5t10 -51.5t-10 -50t-28 -40.5t-41.5 -27
t-50.5 -9.5h-432v-269h543q27 0 50.5 -10.5t40.5 -28.5t27 -42t10 -51t-10 -50.5t-27 -41t-40.5 -27.5t-50.5 -9h-683z" />
    <glyph glyph-name="Epsilontonos" unicode="&#x388;" horiz-adv-x="1094" 
d="M230 0q-51 5 -85.5 40t-34.5 88v1022q0 27 10 50.5t27.5 41.5t41.5 28t51 10h673q27 0 50.5 -10t40.5 -28t27 -41.5t10 -50.5t-10 -50.5t-27 -41.5t-40.5 -28t-50.5 -10h-543v-232h432q27 1 50.5 -9.5t41.5 -28.5t28 -42.5t10 -51.5t-10 -50t-28 -40.5t-41.5 -27
t-50.5 -9.5h-432v-269h543q27 0 50.5 -10.5t40.5 -28.5t27 -42t10 -51t-10 -50.5t-27 -41t-40.5 -27.5t-50.5 -9h-683zM28 948q0 -27 -10 -50.5t-27.5 -40.5t-41 -27t-49.5 -10q-27 0 -50.5 10t-41.5 27t-28 40.5t-10 50.5v202q0 27 10 50.5t28 41.5t41.5 28t50.5 10
t50.5 -10t40.5 -28t27 -41.5t10 -50.5v-202z" />
    <glyph glyph-name="Eta" unicode="&#x397;" horiz-adv-x="1359" 
d="M370 768h619v384q0 27 10.5 50.5t28.5 40.5t42 27t51 10t50.5 -10t40.5 -27t27 -40.5t10 -50.5v-1024q0 -27 -10 -50.5t-28 -40.5t-41.5 -27t-50.5 -10t-50.5 10t-41.5 27t-28 40.5t-10 50.5v380h-619v-380q0 -27 -10 -50.5t-28 -40.5t-41.5 -27t-50.5 -10t-50.5 10
t-41.5 27t-28 40.5t-10 50.5v1024q0 27 10 50.5t28 40.5t41.5 27t50.5 10t50.5 -10t41.5 -27t28 -40.5t10 -50.5v-384z" />
    <glyph glyph-name="Etatonos" unicode="&#x389;" horiz-adv-x="1359" 
d="M370 768h619v384q0 27 10.5 50.5t28.5 40.5t42 27t51 10t50.5 -10t40.5 -27t27 -40.5t10 -50.5v-1024q0 -27 -10 -50.5t-28 -40.5t-41.5 -27t-50.5 -10t-50.5 10t-41.5 27t-28 40.5t-10 50.5v380h-619v-380q0 -27 -10 -50.5t-28 -40.5t-41.5 -27t-50.5 -10t-50.5 10
t-41.5 27t-28 40.5t-10 50.5v1024q0 27 10 50.5t28 40.5t41.5 27t50.5 10t50.5 -10t41.5 -27t28 -40.5t10 -50.5v-384zM32 948q0 -27 -10 -50.5t-27.5 -40.5t-41 -27t-49.5 -10q-27 0 -50.5 10t-41.5 27t-28 40.5t-10 50.5v202q0 27 10 50.5t28 41.5t41.5 28t50.5 10
t50.5 -10t40.5 -28t27 -41.5t10 -50.5v-202z" />
    <glyph glyph-name="Eth" unicode="&#xd0;" horiz-adv-x="1247" 
d="M-58 644q0 46 31 77t77 31h60v400q0 27 10 50.5t28 40.5t41.5 27t50.5 10h342q88 0 169.5 -23t152.5 -65t130 -101t100.5 -130t64.5 -153t23 -170q0 -132 -50.5 -248t-137.5 -203t-203.5 -137t-248.5 -50h-337h-5q-27 0 -50.5 10t-41.5 27t-28 40.5t-10 50.5v402h-60
q-23 0 -42.5 9t-34 24.5t-23 36.5t-8.5 44zM462 752q23 0 43.5 -8.5t35.5 -23.5t23.5 -34.5t8.5 -41.5q0 -23 -8.5 -44t-23.5 -36.5t-35.5 -24.5t-43.5 -9h-92v-266h219q77 0 146 29.5t120.5 80.5t81.5 118.5t30 143.5q0 77 -30 146t-81.5 121.5t-120.5 83.5t-146 31h-219
v-266h92z" />
    <glyph glyph-name="Euro" unicode="&#x20ac;" horiz-adv-x="1042" 
d="M129 841q10 95 54 176.5t112.5 141.5t156 94t186.5 34q116 0 207.5 -48.5t144.5 -129.5q16 -26 23.5 -53t4.5 -53.5t-16 -50.5t-36 -43q-24 -18 -50 -24.5t-51.5 -2t-48.5 19t-40 37.5l-33.5 36.5t-31 25.5t-38 15t-55.5 5q-38 0 -74 -13.5t-66 -37.5t-52 -57t-32 -72
h220q21 0 38 -9.5t29 -23.5t18.5 -32t6.5 -34q0 -17 -6.5 -34t-18.5 -31t-29.5 -23t-39.5 -9h-508q-20 0 -35.5 9.5t-27 23.5t-17.5 31.5t-6 34.5q0 16 6 33t17 31t26.5 23.5t34.5 9.5h27zM616 600q20 0 36.5 -9.5t28.5 -23.5t18.5 -32t6.5 -34q0 -17 -6.5 -34t-18.5 -31
t-28.5 -23t-37.5 -9h-210q13 -33 35 -61t50.5 -47.5t61 -30.5t66.5 -11t55.5 5t38 15t31 25.5l33.5 36.5q17 24 40 38.5t48.5 19t51.5 -2t50 -25.5q23 -18 36 -42t15.5 -50.5t-4.5 -53.5t-23 -52q-54 -81 -145 -130.5t-207 -49.5q-95 0 -180 31t-152 86.5t-112.5 132
t-60.5 166.5h-27q-20 0 -36.5 9.5t-28 23.5t-17.5 31.5t-6 34.5q0 16 6 33t17.5 31t28 23.5t36.5 9.5h510z" />
    <glyph glyph-name="F" unicode="F" horiz-adv-x="1031" 
d="M890 1280q27 0 50.5 -10t40.5 -28t27 -41.5t10 -50.5t-10 -50.5t-27 -41.5t-40.5 -28t-50.5 -10h-520v-288h390q27 0 50.5 -11t41.5 -29t28 -42.5t10 -51.5t-10 -50t-28 -40t-41.5 -26.5t-50.5 -9.5h-390v-344q0 -27 -10 -50.5t-28 -40.5t-41.5 -27t-50.5 -10t-51 10
t-41.5 27.5t-27.5 40.5t-10 50v1027q1 21 8 43t22 40t39.5 30t60.5 12h650z" />
    <glyph glyph-name="G" unicode="G" horiz-adv-x="1291" 
d="M1149 1096q19 -18 28 -41.5t9 -48t-9 -48t-28 -42.5t-42.5 -28.5t-48.5 -10.5t-49 8t-43 28q-60 58 -131.5 87t-148.5 29q-78 0 -148 -30.5t-123 -83t-84 -124t-31 -153.5q0 -78 29.5 -148.5t81 -124t122 -85.5t152.5 -32q69 -1 131 15.5t121 61.5v102h-106
q-27 0 -50.5 10.5t-40.5 28.5t-27 42t-10 51q0 26 10 49.5t27 41t40.5 27.5t50.5 10h236q27 0 51 -10t41.5 -27.5t28 -40.5t10.5 -50v-292q0 -30 -12 -53t-31 -43q-113 -98 -232.5 -141t-245.5 -42q-85 0 -165.5 23.5t-151.5 65.5t-130 101t-101 131t-65.5 154.5
t-23.5 172.5q0 89 22.5 172t64 155.5t99.5 132.5t129.5 103t154.5 66.5t173 23.5q137 0 253 -48.5t213 -144.5z" />
    <glyph glyph-name="G.alt" horiz-adv-x="1246" 
d="M1143 1096q19 -18 28 -41.5t9 -48t-9 -48t-28 -42.5t-42.5 -28.5t-48.5 -10.5t-49 8t-43 28q-60 58 -131.5 87t-148.5 29q-78 0 -148 -30.5t-123 -83t-84 -124t-31 -153.5q0 -78 29.5 -148.5t81 -124t122 -85.5t152.5 -32q69 -1 131 15.5t121 61.5v228q0 22 7 46
t22.5 43.5t40 32t60.5 12.5q27 0 51 -10t41.5 -27t28 -40.5t10.5 -50.5v-292q0 -30 -12 -53t-31 -43q-113 -98 -232.5 -141t-245.5 -42q-85 0 -165.5 23.5t-151.5 65.5t-130 101t-101 131t-65.5 154.5t-23.5 172.5q0 89 22.5 172t64 155.5t99.5 132.5t129.5 103t154.5 66.5
t173 23.5q137 0 253 -48.5t213 -144.5z" />
    <glyph glyph-name="Gamma" unicode="&#x393;" horiz-adv-x="1013" 
d="M249 1280h638q28 0 52 -10.5t42 -28.5t28 -42.5t10 -52.5t-10 -51t-28 -39.5t-42 -26t-52 -9.5h-517v-888q0 -28 -9.5 -52.5t-26 -42.5t-39.5 -28.5t-51 -10.5t-52.5 10.5t-42.5 28.5t-28.5 42.5t-10.5 52.5v1008v6q0 45 25.5 79t65.5 48q2 0 3 0.5t2 0.5q5 2 10.5 3
l10.5 2q5 0 8.5 0.5t8.5 0.5h5z" />
    <glyph glyph-name="Gbreve" unicode="&#x11e;" horiz-adv-x="1291" 
d="M1149 1096q19 -18 28 -41.5t9 -48t-9 -48t-28 -42.5t-42.5 -28.5t-48.5 -10.5t-49 8t-43 28q-60 58 -131.5 87t-148.5 29q-78 0 -148 -30.5t-123 -83t-84 -124t-31 -153.5q0 -78 29.5 -148.5t81 -124t122 -85.5t152.5 -32q69 -1 131 15.5t121 61.5v102h-106
q-27 0 -50.5 10.5t-40.5 28.5t-27 42t-10 51q0 26 10 49.5t27 41t40.5 27.5t50.5 10h236q27 0 51 -10t41.5 -27.5t28 -40.5t10.5 -50v-292q0 -30 -12 -53t-31 -43q-113 -98 -232.5 -141t-245.5 -42q-85 0 -165.5 23.5t-151.5 65.5t-130 101t-101 131t-65.5 154.5
t-23.5 172.5q0 89 22.5 172t64 155.5t99.5 132.5t129.5 103t154.5 66.5t173 23.5q137 0 253 -48.5t213 -144.5zM770 1616q0 38 25 64t63 26t63 -26t25 -64v-4q-1 -49 -20 -92t-51.5 -75t-76 -50.5t-92.5 -18.5q-50 0 -94 19t-77 51.5t-52 76t-19 93.5q0 19 7 35.5t19 28.5
t28 19t34 7q38 0 64 -26t26 -64v-4q2 -24 20 -42t44 -18t45 19t19 45z" />
    <glyph glyph-name="Gcircumflex" unicode="&#x11c;" horiz-adv-x="1291" 
d="M1149 1096q19 -18 28 -41.5t9 -48t-9 -48t-28 -42.5t-42.5 -28.5t-48.5 -10.5t-49 8t-43 28q-60 58 -131.5 87t-148.5 29q-78 0 -148 -30.5t-123 -83t-84 -124t-31 -153.5q0 -78 29.5 -148.5t81 -124t122 -85.5t152.5 -32q69 -1 131 15.5t121 61.5v102h-106
q-27 0 -50.5 10.5t-40.5 28.5t-27 42t-10 51q0 26 10 49.5t27 41t40.5 27.5t50.5 10h236q27 0 51 -10t41.5 -27.5t28 -40.5t10.5 -50v-292q0 -30 -12 -53t-31 -43q-113 -98 -232.5 -141t-245.5 -42q-85 0 -165.5 23.5t-151.5 65.5t-130 101t-101 131t-65.5 154.5
t-23.5 172.5q0 89 22.5 172t64 155.5t99.5 132.5t129.5 103t154.5 66.5t173 23.5q137 0 253 -48.5t213 -144.5zM762 1762.07q-12 10.999 -24 17.998q-26 15.999 -55 14q-26 0 -49 -14q-13 -7.99902 -23 -17.998l-200 -201.988q-24 -23.998 -29.5 -50.9971
q-5.5 -26.998 3 -51.4971q8.5 -24.498 27.5 -43.4971t43.5 -27.498t51.5 -3.5q27 5 52 28.998l127 125.993l128 -125.993q24 -23.998 51.5 -28.998q27.5 -4.99902 52 3.5t43.5 27.498t27.5 43.4971q8.5 24.499 3 51.4971q-5.5 26.999 -29.5 50.9971z" />
    <glyph glyph-name="Gcommaaccent" unicode="&#x122;" horiz-adv-x="1291" 
d="M1149 1096q19 -18 28 -41.5t9 -48t-9 -48t-28 -42.5t-42.5 -28.5t-48.5 -10.5t-49 8t-43 28q-60 58 -131.5 87t-148.5 29q-78 0 -148 -30.5t-123 -83t-84 -124t-31 -153.5q0 -78 29.5 -148.5t81 -124t122 -85.5t152.5 -32q69 -1 131 15.5t121 61.5v102h-106
q-27 0 -50.5 10.5t-40.5 28.5t-27 42t-10 51q0 26 10 49.5t27 41t40.5 27.5t50.5 10h236q27 0 51 -10t41.5 -27.5t28 -40.5t10.5 -50v-292q0 -30 -12 -53t-31 -43q-113 -98 -232.5 -141t-245.5 -42q-85 0 -165.5 23.5t-151.5 65.5t-130 101t-101 131t-65.5 154.5
t-23.5 172.5q0 89 22.5 172t64 155.5t99.5 132.5t129.5 103t154.5 66.5t173 23.5q137 0 253 -48.5t213 -144.5zM795 -496q0 -27 -10 -50.5t-27 -40.5t-40.5 -27t-50.5 -10t-50.5 10t-41.5 27t-28 40.5t-10 50.5v260q0 27 10.5 50.5t28.5 40.5t42 27t51 10q26 0 49 -10
t40 -27t27 -40.5t10 -50.5v-260z" />
    <glyph glyph-name="Gdotaccent" unicode="&#x120;" horiz-adv-x="1291" 
d="M1149 1096q19 -18 28 -41.5t9 -48t-9 -48t-28 -42.5t-42.5 -28.5t-48.5 -10.5t-49 8t-43 28q-60 58 -131.5 87t-148.5 29q-78 0 -148 -30.5t-123 -83t-84 -124t-31 -153.5q0 -78 29.5 -148.5t81 -124t122 -85.5t152.5 -32q69 -1 131 15.5t121 61.5v102h-106
q-27 0 -50.5 10.5t-40.5 28.5t-27 42t-10 51q0 26 10 49.5t27 41t40.5 27.5t50.5 10h236q27 0 51 -10t41.5 -27.5t28 -40.5t10.5 -50v-292q0 -30 -12 -53t-31 -43q-113 -98 -232.5 -141t-245.5 -42q-85 0 -165.5 23.5t-151.5 65.5t-130 101t-101 131t-65.5 154.5
t-23.5 172.5q0 89 22.5 172t64 155.5t99.5 132.5t129.5 103t154.5 66.5t173 23.5q137 0 253 -48.5t213 -144.5zM545 1547q0 31 12 58t32.5 47.5t47.5 32.5t58 12t58 -12t47.5 -32.5t32.5 -47.5t12 -58t-12 -58t-32.5 -47.5t-47.5 -32.5t-58 -12t-58 12t-47.5 32.5
t-32.5 47.5t-12 58z" />
    <glyph glyph-name="H" unicode="H" horiz-adv-x="1359" 
d="M370 768h619v384q0 27 10.5 50.5t28.5 40.5t42 27t51 10t50.5 -10t40.5 -27t27 -40.5t10 -50.5v-1024q0 -27 -10 -50.5t-28 -40.5t-41.5 -27t-50.5 -10t-50.5 10t-41.5 27t-28 40.5t-10 50.5v380h-619v-380q0 -27 -10 -50.5t-28 -40.5t-41.5 -27t-50.5 -10t-50.5 10
t-41.5 27t-28 40.5t-10 50.5v1024q0 27 10 50.5t28 40.5t41.5 27t50.5 10t50.5 -10t41.5 -27t28 -40.5t10 -50.5v-384z" />
    <glyph glyph-name="Hbar" unicode="&#x126;" horiz-adv-x="1359" 
d="M320 1102q-25 0 -47 -9t-38.5 -25t-26.5 -37.5t-10 -46.5q0 -26 10 -47t26.5 -36t38.5 -23.5t47 -8.5h703q25 0 47 8t38.5 22.5t26.5 35t10 46.5q0 25 -10 46.5t-26.5 37.5t-38.5 25.5t-47 9.5zM370 768h619v384q0 27 10.5 50.5t28.5 40.5t42 27t51 10t50.5 -10t40.5 -27
t27 -40.5t10 -50.5v-1024q0 -27 -10 -50.5t-28 -40.5t-41.5 -27t-50.5 -10t-50.5 10t-41.5 27t-28 40.5t-10 50.5v380h-619v-380q0 -27 -10 -50.5t-28 -40.5t-41.5 -27t-50.5 -10t-50.5 10t-41.5 27t-28 40.5t-10 50.5v1024q0 27 10 50.5t28 40.5t41.5 27t50.5 10t50.5 -10
t41.5 -27t28 -40.5t10 -50.5v-384z" />
    <glyph glyph-name="Hcircumflex" unicode="&#x124;" horiz-adv-x="1359" 
d="M370 768h619v384q0 27 10.5 50.5t28.5 40.5t42 27t51 10t50.5 -10t40.5 -27t27 -40.5t10 -50.5v-1024q0 -27 -10 -50.5t-28 -40.5t-41.5 -27t-50.5 -10t-50.5 10t-41.5 27t-28 40.5t-10 50.5v380h-619v-380q0 -27 -10 -50.5t-28 -40.5t-41.5 -27t-50.5 -10t-50.5 10
t-41.5 27t-28 40.5t-10 50.5v1024q0 27 10 50.5t28 40.5t41.5 27t50.5 10t50.5 -10t41.5 -27t28 -40.5t10 -50.5v-384zM773 1760.07q-12 10.999 -24 17.998q-26 15.999 -55 14q-26 0 -49 -14q-13 -7.99902 -23 -17.998l-200 -201.988q-24 -23.998 -29.5 -50.9971
q-5.5 -26.998 3 -51.4971q8.5 -24.498 27.5 -43.4971t43.5 -27.498t51.5 -3.5q27 5 52 28.998l127 125.993l128 -125.993q24 -23.998 51.5 -28.998q27.5 -4.99902 52 3.5t43.5 27.498t27.5 43.4971q8.5 24.499 3 51.4971q-5.5 26.999 -29.5 50.9971z" />
    <glyph glyph-name="I" unicode="I" 
d="M370 128q0 -27 -10 -50.5t-28 -40.5t-41.5 -27t-50.5 -10t-50.5 10t-41.5 27t-28 40.5t-10 50.5v1024q0 27 10 50.5t28 40.5t41.5 27t50.5 10t50.5 -10t41.5 -27t28 -40.5t10 -50.5v-1024z" />
    <glyph glyph-name="IJ" unicode="&#x132;" horiz-adv-x="1002" 
d="M370 128q0 -27 -10 -50.5t-28 -40.5t-41.5 -27t-50.5 -10t-50.5 10t-41.5 27t-28 40.5t-10 50.5v1024q0 27 10 50.5t28 40.5t41.5 27t50.5 10t50.5 -10t41.5 -27t28 -40.5t10 -50.5v-1024zM447 -357q-45 0 -75.5 18.5t-46 47t-16 61.5t14 62t44 49t73.5 22
q39 2 73.5 17.5t60.5 41.5t41 60.5t15 73.5v1050q0 28 10 52.5t27.5 42.5t41 28.5t51.5 10.5t52 -10.5t41.5 -28.5t27.5 -42.5t10 -52.5v-1060q0 -91 -35 -171.5t-95.5 -141t-141.5 -95.5t-173 -35z" />
    <glyph glyph-name="Iacute" unicode="&#xcd;" 
d="M370 128q0 -27 -10 -50.5t-28 -40.5t-41.5 -27t-50.5 -10t-50.5 10t-41.5 27t-28 40.5t-10 50.5v1024q0 27 10 50.5t28 40.5t41.5 27t50.5 10t50.5 -10t41.5 -27t28 -40.5t10 -50.5v-1024zM347 1420q-20 -20 -44 -29.5t-49 -9.5t-48.5 9.5t-42.5 29.5q-20 19 -29.5 43.5
t-9.5 49.5t9.5 49t29.5 44l108 108q19 19 43.5 28.5t50 9.5t49.5 -9.5t43 -28.5q20 -20 29.5 -44t9.5 -49t-10 -48.5t-29 -42.5z" />
    <glyph glyph-name="Ibreve" unicode="&#x12c;" 
d="M370 128q0 -27 -10 -50.5t-28 -40.5t-41.5 -27t-50.5 -10t-50.5 10t-41.5 27t-28 40.5t-10 50.5v1024q0 27 10 50.5t28 40.5t41.5 27t50.5 10t50.5 -10t41.5 -27t28 -40.5t10 -50.5v-1024zM302 1621q0 38 25 64t63 26t63 -26t25 -64v-4q-1 -49 -20 -92t-51.5 -75
t-76 -50.5t-92.5 -18.5q-50 0 -94 19t-77 51.5t-52 76t-19 93.5q0 19 7 35.5t19 28.5t28 19t34 7q38 0 64 -26t26 -64v-4q2 -24 20 -42t44 -18t45 19t19 45z" />
    <glyph glyph-name="Icircumflex" unicode="&#xce;" 
d="M370 128q0 -27 -10 -50.5t-28 -40.5t-41.5 -27t-50.5 -10t-50.5 10t-41.5 27t-28 40.5t-10 50.5v1024q0 27 10 50.5t28 40.5t41.5 27t50.5 10t50.5 -10t41.5 -27t28 -40.5t10 -50.5v-1024zM319 1750.07q-12 10.999 -24 17.998q-26 15.999 -55 14q-26 0 -49 -14
q-13 -7.99902 -23 -17.998l-200 -201.988q-24 -23.998 -29.5 -50.9971q-5.5 -26.998 3 -51.4971q8.5 -24.498 27.5 -43.4971t43.5 -27.498t51.5 -3.5q27 5 52 28.998l127 125.993l128 -125.993q24 -23.998 51.5 -28.998q27.5 -4.99902 52 3.5t43.5 27.498t27.5 43.4971
q8.5 24.499 3 51.4971q-5.5 26.999 -29.5 50.9971z" />
    <glyph glyph-name="Idieresis" unicode="&#xcf;" 
d="M370 128q0 -27 -10 -50.5t-28 -40.5t-41.5 -27t-50.5 -10t-50.5 10t-41.5 27t-28 40.5t-10 50.5v1024q0 27 10 50.5t28 40.5t41.5 27t50.5 10t50.5 -10t41.5 -27t28 -40.5t10 -50.5v-1024zM306 1524q0 28 11 53.5t30.5 45t44.5 30.5t54 11t54.5 -11t44.5 -30.5t30 -45
t11 -53.5q0 -29 -11 -54.5t-30 -44.5t-44.5 -30t-54.5 -11t-54 11t-44.5 30t-30.5 44.5t-11 54.5zM-94 1524q0 28 11 53.5t30 45t44.5 30.5t54.5 11q28 0 53.5 -11t45 -30.5t30.5 -45t11 -53.5q0 -29 -11 -54.5t-30.5 -44.5t-45 -30t-53.5 -11q-29 0 -54.5 11t-44.5 30
t-30 44.5t-11 54.5z" />
    <glyph glyph-name="Idotaccent" unicode="&#x130;" 
d="M370 128q0 -27 -10 -50.5t-28 -40.5t-41.5 -27t-50.5 -10t-50.5 10t-41.5 27t-28 40.5t-10 50.5v1024q0 27 10 50.5t28 40.5t41.5 27t50.5 10t50.5 -10t41.5 -27t28 -40.5t10 -50.5v-1024zM91 1532q0 31 12 58t32.5 47.5t47.5 32.5t58 12t58 -12t47.5 -32.5t32.5 -47.5
t12 -58t-12 -58t-32.5 -47.5t-47.5 -32.5t-58 -12t-58 12t-47.5 32.5t-32.5 47.5t-12 58z" />
    <glyph glyph-name="Igrave" unicode="&#xcc;" 
d="M370 128q0 -27 -10 -50.5t-28 -40.5t-41.5 -27t-50.5 -10t-50.5 10t-41.5 27t-28 40.5t-10 50.5v1024q0 27 10 50.5t28 40.5t41.5 27t50.5 10t50.5 -10t41.5 -27t28 -40.5t10 -50.5v-1024zM171.017 1415q19.999 -20 43.9971 -29.5q23.999 -9.5 48.9971 -9.5
q24.999 0 48.4971 9.5q23.499 9.5 42.4971 29.5q19.999 19 29.499 43.5q9.49902 24.5 9.49902 49.5t-9.49902 49q-9.5 24 -29.499 44l-107.993 108q-18.999 19 -43.4971 28.5q-24.499 9.5 -49.9971 9.5t-49.4971 -9.5q-23.998 -9.5 -42.9971 -28.5q-19.999 -20 -29.498 -44
q-9.5 -24 -9.5 -49t10 -48.5q9.99902 -23.5 28.998 -42.5z" />
    <glyph glyph-name="Imacron" unicode="&#x12a;" 
d="M370 128q0 -27 -10 -50.5t-28 -40.5t-41.5 -27t-50.5 -10t-50.5 10t-41.5 27t-28 40.5t-10 50.5v1024q0 27 10 50.5t28 40.5t41.5 27t50.5 10t50.5 -10t41.5 -27t28 -40.5t10 -50.5v-1024zM427 1585q24 0 44.5 -9t35.5 -24t24 -35t9 -42q0 -24 -9 -45t-24 -36.5
t-35.5 -25t-44.5 -9.5h-374q-24 0 -44 9.5t-35 25t-23.5 36.5t-8.5 45q0 47 31.5 78.5t79.5 31.5h374z" />
    <glyph glyph-name="Iogonek" unicode="&#x12e;" 
d="M370 128q0 -27 -10 -50.5t-28 -40.5t-41.5 -27t-50.5 -10t-50.5 10t-41.5 27t-28 40.5t-10 50.5v1024q0 27 10 50.5t28 40.5t41.5 27t50.5 10t50.5 -10t41.5 -27t28 -40.5t10 -50.5v-1024zM218 155q10 10 25 11.5t31.5 -2t32 -11.5t25.5 -18q20 -20 20 -47.5t-20 -48.5
l-146 -144q-2 0 -2 -2q-11 -9 -17.5 -23t-6.5 -29q0 -29 20.5 -49.5t49.5 -20.5t48.5 19.5t21.5 46.5v3q0 34 24.5 58t61.5 24q34 0 58 -24t24 -58v-1q0 -48 -18.5 -91t-50.5 -75t-75 -50.5t-91 -18.5t-90.5 18.5t-74 50.5t-49.5 75t-18 91q0 52 19 95.5t52 74.5z" />
    <glyph glyph-name="Iotatonos" unicode="&#x38a;" 
d="M370 128q0 -27 -10 -50.5t-28 -40.5t-41.5 -27t-50.5 -10t-50.5 10t-41.5 27t-28 40.5t-10 50.5v1024q0 27 10 50.5t28 40.5t41.5 27t50.5 10t50.5 -10t41.5 -27t28 -40.5t10 -50.5v-1024zM57 948q0 -27 -10 -50.5t-27.5 -40.5t-41 -27t-49.5 -10q-27 0 -50.5 10
t-41.5 27t-28 40.5t-10 50.5v202q0 27 10 50.5t28 41.5t41.5 28t50.5 10t50.5 -10t40.5 -28t27 -41.5t10 -50.5v-202z" />
    <glyph glyph-name="Itilde" unicode="&#x128;" 
d="M370 128q0 -27 -10 -50.5t-28 -40.5t-41.5 -27t-50.5 -10t-50.5 10t-41.5 27t-28 40.5t-10 50.5v1024q0 27 10 50.5t28 40.5t41.5 27t50.5 10t50.5 -10t41.5 -27t28 -40.5t10 -50.5v-1024zM-88 1565l28.5 26t47 36.5t63 32.5t75.5 14q43 0 75.5 -14t64.5 -38l13.5 -11
t18 -13.5t20.5 -11t22 -4.5t29.5 9.5t43.5 35.5q2 1 2.5 2t2.5 3q15 15 34 22.5t39 7.5t39 -7.5t34 -22.5q15 -16 22.5 -35t7.5 -38.5t-7.5 -39t-22.5 -35.5l-3 -3l-27 -26t-47 -36.5t-64 -32.5t-77 -14q-42 0 -75 15.5t-65 38.5q-5 3 -12.5 9.5t-17 13t-20.5 11t-22 4.5
q-13 0 -31.5 -9.5t-41.5 -34.5q-1 -2 -5 -6q-15 -15 -34.5 -22.5t-39.5 -7.5t-39.5 7.5t-34.5 22.5t-22.5 34.5t-7.5 39.5t7.5 39.5t22.5 34.5z" />
    <glyph glyph-name="J" unicode="J" horiz-adv-x="481" 
d="M-74 -357q-45 0 -75.5 18.5t-46 47t-16 61.5t14 62t44 49t73.5 22q39 2 73.5 17.5t60.5 41.5t41 60.5t15 73.5v1050q0 28 10 52.5t27.5 42.5t41 28.5t51.5 10.5t52 -10.5t41.5 -28.5t27.5 -42.5t10 -52.5v-1060q0 -91 -35 -171.5t-95.5 -141t-141.5 -95.5t-173 -35z" />
    <glyph glyph-name="Jcircumflex" unicode="&#x134;" horiz-adv-x="481" 
d="M-74 -357q-45 0 -75.5 18.5t-46 47t-16 61.5t14 62t44 49t73.5 22q39 2 73.5 17.5t60.5 41.5t41 60.5t15 73.5v1050q0 28 10 52.5t27.5 42.5t41 28.5t51.5 10.5t52 -10.5t41.5 -28.5t27.5 -42.5t10 -52.5v-1060q0 -91 -35 -171.5t-95.5 -141t-141.5 -95.5t-173 -35z
M311 1754.07q-12 10.999 -24 17.998q-26 15.999 -55 14q-26 0 -49 -14q-13 -7.99902 -23 -17.998l-200 -201.988q-24 -23.998 -29.5 -50.9971q-5.5 -26.998 3 -51.4971q8.5 -24.498 27.5 -43.4971t43.5 -27.498t51.5 -3.5q27 5 52 28.998l127 125.993l128 -125.993
q24 -23.998 51.5 -28.998q27.5 -4.99902 52 3.5t43.5 27.498t27.5 43.4971q8.5 24.499 3 51.4971q-5.5 26.999 -29.5 50.9971z" />
    <glyph glyph-name="K" unicode="K" horiz-adv-x="1218" 
d="M370 683l584 561q20 19 44 28t48.5 8t48.5 -11.5t43 -30.5q18 -19 26 -42.5t6.5 -48.5t-12.5 -49t-31 -43l-418 -399l424 -434q19 -20 28.5 -44.5t9 -49.5t-10.5 -48.5t-29 -42.5t-42 -28t-46.5 -9t-46 9.5t-41.5 29.5l-431 440l-154 -148v-203q0 -27 -10 -50.5
t-28 -40.5t-41.5 -27t-50.5 -10t-50.5 10t-41.5 27t-28 40.5t-10 50.5v1024q0 27 10 50.5t28 40.5t41.5 27t50.5 10t50.5 -10t41.5 -27t28 -40.5t10 -50.5v-469z" />
    <glyph glyph-name="Kcommaaccent" unicode="&#x136;" horiz-adv-x="1218" 
d="M370 683l584 561q20 19 44 28t48.5 8t48.5 -11.5t43 -30.5q18 -19 26 -42.5t6.5 -48.5t-12.5 -49t-31 -43l-418 -399l424 -434q19 -20 28.5 -44.5t9 -49.5t-10.5 -48.5t-29 -42.5t-42 -28t-46.5 -9t-46 9.5t-41.5 29.5l-431 440l-154 -148v-203q0 -27 -10 -50.5
t-28 -40.5t-41.5 -27t-50.5 -10t-50.5 10t-41.5 27t-28 40.5t-10 50.5v1024q0 27 10 50.5t28 40.5t41.5 27t50.5 10t50.5 -10t41.5 -27t28 -40.5t10 -50.5v-469zM730 -412q0 -27 -10 -50.5t-27 -40.5t-40.5 -27t-50.5 -10t-50.5 10t-41.5 27t-28 40.5t-10 50.5v260
q0 27 10.5 50.5t28.5 40.5t42 27t51 10q26 0 49 -10t40 -27t27 -40.5t10 -50.5v-260z" />
    <glyph glyph-name="L" unicode="L" horiz-adv-x="1035" 
d="M370 260l503 -1q27 0 50.5 -10.5t41 -28t27.5 -41.5t10 -51t-10 -50.5t-27.5 -41t-41 -27.5t-50.5 -9h-633h-6q-10 0 -15 1q-2 1 -6 1q-45 9 -74 43.5t-29 82.5v2v5v1017q0 27 10 50.5t28 40.5t41.5 27t50.5 10t50.5 -10t41.5 -27t28 -40.5t10 -50.5v-892z" />
    <glyph glyph-name="Lacute" unicode="&#x139;" horiz-adv-x="1035" 
d="M370 260l503 -1q27 0 50.5 -10.5t41 -28t27.5 -41.5t10 -51t-10 -50.5t-27.5 -41t-41 -27.5t-50.5 -9h-633h-6q-10 0 -15 1q-2 1 -6 1q-45 9 -74 43.5t-29 82.5v2v5v1017q0 27 10 50.5t28 40.5t41.5 27t50.5 10t50.5 -10t41.5 -27t28 -40.5t10 -50.5v-892zM375 1419
q-20 -20 -44 -29.5t-49 -9.5t-48.5 9.5t-42.5 29.5q-20 19 -29.5 43.5t-9.5 49.5t9.5 49t29.5 44l108 108q19 19 43.5 28.5t50 9.5t49.5 -9.5t43 -28.5q20 -20 29.5 -44t9.5 -49t-10 -48.5t-29 -42.5z" />
    <glyph glyph-name="Lambda" unicode="&#x39b;" horiz-adv-x="1134" 
d="M571 828l-111 264q-11 25 -13 51.5t5 50.5t23 43.5t41 30.5q5 2 10 3.5t10 3.5q10 3 19.5 4t20.5 1l15.5 -2t15.5 -3h1q28 -8 51 -26.5t35 -46.5l427 -1014q11 -26 11.5 -52t-8.5 -50t-27 -43.5t-44 -30.5q-25 -11 -50 -11.5t-47 8.5t-40 27t-29 44l-316 748l-318 -748
q-11 -26 -29 -44t-40 -27t-47 -8.5t-50 11.5q-26 11 -44 30.5t-27 43.5t-8.5 50t11.5 52l431 1014q12 29 34.5 47t51.5 26q10 3 19.5 4t20.5 1l15.5 -2t15.5 -3h1q11 -3 20 -7q25 -11 41 -30.5t23 -43.5t5 -50.5t-13 -51.5z" />
    <glyph glyph-name="Lcaron" unicode="&#x13d;" horiz-adv-x="1035" 
d="M370 260l503 -1q27 0 50.5 -10.5t41 -28t27.5 -41.5t10 -51t-10 -50.5t-27.5 -41t-41 -27.5t-50.5 -9h-633h-6q-10 0 -15 1q-2 1 -6 1q-45 9 -74 43.5t-29 82.5v2v5v1017q0 27 10 50.5t28 40.5t41.5 27t50.5 10t50.5 -10t41.5 -27t28 -40.5t10 -50.5v-892zM333 1418
q-12 -11 -24 -18q-26 -16 -55 -14q-26 0 -49 14q-13 8 -23 18l-200 202q-24 24 -29.5 51t3 51.5t27.5 43.5t43.5 27.5t51.5 3.5t52 -29l127 -126l128 126q24 24 51.5 29t52 -3.5t43.5 -27.5t27.5 -43.5t3 -51.5t-29.5 -51z" />
    <glyph glyph-name="Lcommaaccent" unicode="&#x13b;" horiz-adv-x="1035" 
d="M370 260l503 -1q27 0 50.5 -10.5t41 -28t27.5 -41.5t10 -51t-10 -50.5t-27.5 -41t-41 -27.5t-50.5 -9h-633h-6q-10 0 -15 1q-2 1 -6 1q-45 9 -74 43.5t-29 82.5v2v5v1017q0 27 10 50.5t28 40.5t41.5 27t50.5 10t50.5 -10t41.5 -27t28 -40.5t10 -50.5v-892zM632 -448
q0 -27 -10 -50.5t-27 -40.5t-40.5 -27t-50.5 -10t-50.5 10t-41.5 27t-28 40.5t-10 50.5v260q0 27 10.5 50.5t28.5 40.5t42 27t51 10q26 0 49 -10t40 -27t27 -40.5t10 -50.5v-260z" />
    <glyph glyph-name="Ldot" unicode="&#x13f;" horiz-adv-x="1035" 
d="M370 260l503 -1q27 0 50.5 -10.5t41 -28t27.5 -41.5t10 -51t-10 -50.5t-27.5 -41t-41 -27.5t-50.5 -9h-633h-6q-10 0 -15 1q-2 1 -6 1q-45 9 -74 43.5t-29 82.5v2v5v1017q0 27 10 50.5t28 40.5t41.5 27t50.5 10t50.5 -10t41.5 -27t28 -40.5t10 -50.5v-892zM504 634
q0 31 12 58t32.5 47.5t47.5 32.5t58 12t58 -12t47.5 -32.5t32.5 -47.5t12 -58t-12 -58t-32.5 -47.5t-47.5 -32.5t-58 -12t-58 12t-47.5 32.5t-32.5 47.5t-12 58z" />
    <glyph glyph-name="Lslash" unicode="&#x141;" horiz-adv-x="1043" 
d="M378 773l42 16q35 12 67 -2.5t45 -47.5q6 -17 5 -33.5t-8 -31.5t-19 -26.5t-28 -17.5l-104 -39v-324l494 -1q28 0 52 -10.5t42 -28.5t28 -42.5t10 -52.5t-10 -52.5t-28 -42.5t-42 -28t-52 -9h-628q-28 0 -52.5 10t-42.5 28t-28.5 42t-10.5 52v2v5v353l-23 -8
q-34 -14 -66.5 0.5t-44.5 47.5q-13 33 2 64.5t48 44.5l84 31v476q0 28 10.5 52t28.5 42t42.5 28t52.5 10t52.5 -10t42.5 -28t28.5 -42t10.5 -52v-375z" />
    <glyph glyph-name="M" unicode="M" horiz-adv-x="1480" 
d="M1369 128q0 -27 -10 -50.5t-28 -40.5t-41.5 -27t-50.5 -10t-50.5 10t-41 27t-28 40.5t-10.5 50.5v683l-269 -313q-8 -11 -15 -18l-7 -7t-7 -5l-6 -5l-14 -9q-35 -19 -70 -12.5t-64 37.5q-5 4 -8.5 8.5l-7.5 9.5l-271 315v-684q0 -27 -10 -50.5t-28 -40.5t-41.5 -27
t-50.5 -10t-50.5 10t-41.5 27t-28 40.5t-10 50.5v1024q0 24 8.5 45.5t23.5 38.5t35 28t44 14q29 5 58.5 -4t53.5 -31l407 -475l406 475q18 17 39.5 25.5t44.5 10.5q1 0 1.5 0.5t2.5 0.5h5q27 0 50.5 -10t41.5 -27t28 -40.5t10 -50.5v-1024z" />
    <glyph glyph-name="M.alt" horiz-adv-x="1564" 
d="M378 132q0 -28 -10.5 -52t-28.5 -42t-42.5 -28t-52.5 -10t-52.5 10t-42.5 28t-28.5 42t-10.5 52v728v5v5q0 83 31.5 156.5t85.5 128t127.5 86t157.5 31.5q78 0 147 -28.5t123 -77.5q54 49 122 77.5t146 28.5q84 0 157.5 -31.5t128.5 -86t86.5 -128t31.5 -156.5v-5v-5
v-728q0 -28 -10.5 -52t-28.5 -42t-42.5 -28t-52.5 -10t-52.5 10t-42.5 28t-28.5 42t-10.5 52v726v2v3q-1 28 -12.5 52t-30 41.5t-43 27.5t-52.5 10t-52 -10t-41.5 -28t-27.5 -42t-11 -52v-172q0 -28 -10.5 -52.5t-28.5 -42.5t-42.5 -28.5t-52.5 -10.5t-52.5 10.5t-42.5 28.5
t-28.5 42.5t-10.5 52.5v168q0 28 -10 53t-28 43.5t-42.5 29t-53.5 10.5q-28 0 -52 -10t-42.5 -27.5t-29.5 -41.5t-12 -52v-3v-728z" />
    <glyph glyph-name="N" unicode="N" horiz-adv-x="1359" 
d="M370 809v-681q0 -27 -10 -50.5t-28 -40.5t-41.5 -27t-50.5 -10t-50.5 10t-41.5 27t-28 40.5t-10 50.5v1020q0 25 8.5 46.5t23.5 38.5q16 21 40 34t58 13q29 0 55.5 -12.5t47.5 -36.5l641 -750v671q0 27 10.5 50.5t28.5 40.5t42 27t51 10t50.5 -10t40.5 -27t27 -40.5
t10 -50.5v-1024q0 -30 -12.5 -55.5t-34.5 -43.5q-14 -14 -33.5 -21.5t-44.5 -7.5h-5h-11q-26 2 -45.5 14.5t-36.5 35.5z" />
    <glyph glyph-name="N.alt" horiz-adv-x="1190" 
d="M378 132q0 -28 -10.5 -52t-28.5 -42t-42.5 -28t-52.5 -10t-52.5 10t-42.5 28t-28.5 42t-10.5 52v654q0 100 38 188.5t104 154.5t154.5 104.5t189.5 38.5q100 0 188.5 -38.5t154 -104.5t103.5 -154.5t38 -188.5v-9v-5v-640q0 -28 -10.5 -52t-28.5 -42t-42.5 -28t-52.5 -10
t-52.5 10t-42.5 28t-28.5 42t-10.5 52v650q0 46 -15.5 86t-44 70t-67.5 47t-85 17q-47 0 -87.5 -17t-70.5 -47t-47 -70t-17 -86v-5v-5v-640z" />
    <glyph glyph-name="Nacute" unicode="&#x143;" horiz-adv-x="1359" 
d="M370 809v-681q0 -27 -10 -50.5t-28 -40.5t-41.5 -27t-50.5 -10t-50.5 10t-41.5 27t-28 40.5t-10 50.5v1020q0 25 8.5 46.5t23.5 38.5q16 21 40 34t58 13q29 0 55.5 -12.5t47.5 -36.5l641 -750v671q0 27 10.5 50.5t28.5 40.5t42 27t51 10t50.5 -10t40.5 -27t27 -40.5
t10 -50.5v-1024q0 -30 -12.5 -55.5t-34.5 -43.5q-14 -14 -33.5 -21.5t-44.5 -7.5h-5h-11q-26 2 -45.5 14.5t-36.5 35.5zM771 1416q-20 -20 -44 -29.5t-49 -9.5t-48.5 9.5t-42.5 29.5q-20 19 -29.5 43.5t-9.5 49.5t9.5 49t29.5 44l108 108q19 19 43.5 28.5t50 9.5t49.5 -9.5
t43 -28.5q20 -20 29.5 -44t9.5 -49t-10 -48.5t-29 -42.5z" />
    <glyph glyph-name="Ncaron" unicode="&#x147;" horiz-adv-x="1359" 
d="M370 809v-681q0 -27 -10 -50.5t-28 -40.5t-41.5 -27t-50.5 -10t-50.5 10t-41.5 27t-28 40.5t-10 50.5v1020q0 25 8.5 46.5t23.5 38.5q16 21 40 34t58 13q29 0 55.5 -12.5t47.5 -36.5l641 -750v671q0 27 10.5 50.5t28.5 40.5t42 27t51 10t50.5 -10t40.5 -27t27 -40.5
t10 -50.5v-1024q0 -30 -12.5 -55.5t-34.5 -43.5q-14 -14 -33.5 -21.5t-44.5 -7.5h-5h-11q-26 2 -45.5 14.5t-36.5 35.5zM762 1387q-12 -11 -24 -18q-26 -16 -55 -14q-26 0 -49 14q-13 8 -23 18l-200 202q-24 24 -29.5 51t3 51.5t27.5 43.5t43.5 27.5t51.5 3.5t52 -29
l127 -126l128 126q24 24 51.5 29t52 -3.5t43.5 -27.5t27.5 -43.5t3 -51.5t-29.5 -51z" />
    <glyph glyph-name="Ncommaaccent" unicode="&#x145;" horiz-adv-x="1359" 
d="M370 809v-681q0 -27 -10 -50.5t-28 -40.5t-41.5 -27t-50.5 -10t-50.5 10t-41.5 27t-28 40.5t-10 50.5v1020q0 25 8.5 46.5t23.5 38.5q16 21 40 34t58 13q29 0 55.5 -12.5t47.5 -36.5l641 -750v671q0 27 10.5 50.5t28.5 40.5t42 27t51 10t50.5 -10t40.5 -27t27 -40.5
t10 -50.5v-1024q0 -30 -12.5 -55.5t-34.5 -43.5q-14 -14 -33.5 -21.5t-44.5 -7.5h-5h-11q-26 2 -45.5 14.5t-36.5 35.5zM779 -380q0 -27 -10 -50.5t-27 -40.5t-40.5 -27t-50.5 -10t-50.5 10t-41.5 27t-28 40.5t-10 50.5v260q0 27 10.5 50.5t28.5 40.5t42 27t51 10
q26 0 49 -10t40 -27t27 -40.5t10 -50.5v-260z" />
    <glyph glyph-name="Ntilde" unicode="&#xd1;" horiz-adv-x="1359" 
d="M370 809v-681q0 -27 -10 -50.5t-28 -40.5t-41.5 -27t-50.5 -10t-50.5 10t-41.5 27t-28 40.5t-10 50.5v1020q0 25 8.5 46.5t23.5 38.5q16 21 40 34t58 13q29 0 55.5 -12.5t47.5 -36.5l641 -750v671q0 27 10.5 50.5t28.5 40.5t42 27t51 10t50.5 -10t40.5 -27t27 -40.5
t10 -50.5v-1024q0 -30 -12.5 -55.5t-34.5 -43.5q-14 -14 -33.5 -21.5t-44.5 -7.5h-5h-11q-26 2 -45.5 14.5t-36.5 35.5zM339 1563l28.5 26t47 36.5t63 32.5t75.5 14q43 0 75.5 -14t64.5 -38l13.5 -11t18 -13.5t20.5 -11t22 -4.5t29.5 9.5t43.5 35.5q2 1 2.5 2t2.5 3
q15 15 34 22.5t39 7.5t39 -7.5t34 -22.5q15 -16 22.5 -35t7.5 -38.5t-7.5 -39t-22.5 -35.5l-3 -3l-27 -26t-47 -36.5t-64 -32.5t-77 -14q-42 0 -75 15.5t-65 38.5q-5 3 -12.5 9.5t-17 13t-20.5 11t-22 4.5q-13 0 -31.5 -9.5t-41.5 -34.5q-1 -2 -5 -6q-15 -15 -34.5 -22.5
t-39.5 -7.5t-39.5 7.5t-34.5 22.5t-22.5 34.5t-7.5 39.5t7.5 39.5t22.5 34.5z" />
    <glyph glyph-name="O" unicode="O" horiz-adv-x="1420" 
d="M708 1289q90 0 173 -23.5t155.5 -65.5t132 -101.5t102 -132t66 -155.5t23.5 -173q0 -135 -51.5 -253t-140 -206.5t-207 -139.5t-253.5 -51t-253.5 51t-206 139.5t-138 206.5t-50.5 253q0 90 23 173t65 155.5t101 132t131 101.5t155 65.5t173 23.5zM709 1029
q-81 0 -152 -31t-123.5 -84t-83 -124t-30.5 -152q0 -82 30.5 -153.5t83 -124t123.5 -82.5t152 -30t152.5 30t124.5 82.5t83.5 124t30.5 153.5q0 81 -30.5 152t-83.5 124t-124.5 84t-152.5 31z" />
    <glyph glyph-name="OE" unicode="&#x152;" horiz-adv-x="2032" 
d="M1198 0q-51 5 -85.5 40t-34.5 88v1022q0 27 10 50.5t27.5 41.5t41.5 28t51 10h673q27 0 50.5 -10t40.5 -28t27 -41.5t10 -50.5t-10 -50.5t-27 -41.5t-40.5 -28t-50.5 -10h-543v-232h432q27 1 50.5 -9.5t41.5 -28.5t28 -42.5t10 -51.5t-10 -50t-28 -40.5t-41.5 -27
t-50.5 -9.5h-432v-269h543q27 0 50.5 -10.5t40.5 -28.5t27 -42t10 -51t-10 -50.5t-27 -41t-40.5 -27.5t-50.5 -9h-683zM671 1289q90 0 173 -23.5t155.5 -65.5t132 -101.5t102 -132t66 -155.5t23.5 -173q0 -135 -51.5 -253t-140 -206.5t-207 -139.5t-253.5 -51t-253.5 51
t-206 139.5t-138 206.5t-50.5 253q0 90 23 173t65 155.5t101 132t131 101.5t155 65.5t173 23.5zM672 1029q-81 0 -152 -31t-123.5 -84t-83 -124t-30.5 -152q0 -82 30.5 -153.5t83 -124t123.5 -82.5t152 -30t152.5 30t124.5 82.5t83.5 124t30.5 153.5q0 81 -30.5 152
t-83.5 124t-124.5 84t-152.5 31z" />
    <glyph glyph-name="Oacute" unicode="&#xd3;" horiz-adv-x="1420" 
d="M708 1289q90 0 173 -23.5t155.5 -65.5t132 -101.5t102 -132t66 -155.5t23.5 -173q0 -135 -51.5 -253t-140 -206.5t-207 -139.5t-253.5 -51t-253.5 51t-206 139.5t-138 206.5t-50.5 253q0 90 23 173t65 155.5t101 132t131 101.5t155 65.5t173 23.5zM709 1029
q-81 0 -152 -31t-123.5 -84t-83 -124t-30.5 -152q0 -82 30.5 -153.5t83 -124t123.5 -82.5t152 -30t152.5 30t124.5 82.5t83.5 124t30.5 153.5q0 81 -30.5 152t-83.5 124t-124.5 84t-152.5 31zM888 1430q-20 -20 -44 -29.5t-49 -9.5t-48.5 9.5t-42.5 29.5q-20 19 -29.5 43.5
t-9.5 49.5t9.5 49t29.5 44l108 108q19 19 43.5 28.5t50 9.5t49.5 -9.5t43 -28.5q20 -20 29.5 -44t9.5 -49t-10 -48.5t-29 -42.5z" />
    <glyph glyph-name="Obreve" unicode="&#x14e;" horiz-adv-x="1420" 
d="M708 1289q90 0 173 -23.5t155.5 -65.5t132 -101.5t102 -132t66 -155.5t23.5 -173q0 -135 -51.5 -253t-140 -206.5t-207 -139.5t-253.5 -51t-253.5 51t-206 139.5t-138 206.5t-50.5 253q0 90 23 173t65 155.5t101 132t131 101.5t155 65.5t173 23.5zM709 1029
q-81 0 -152 -31t-123.5 -84t-83 -124t-30.5 -152q0 -82 30.5 -153.5t83 -124t123.5 -82.5t152 -30t152.5 30t124.5 82.5t83.5 124t30.5 153.5q0 81 -30.5 152t-83.5 124t-124.5 84t-152.5 31zM784 1626q0 38 25 64t63 26t63 -26t25 -64v-4q-1 -49 -20 -92t-51.5 -75
t-76 -50.5t-92.5 -18.5q-50 0 -94 19t-77 51.5t-52 76t-19 93.5q0 19 7 35.5t19 28.5t28 19t34 7q38 0 64 -26t26 -64v-4q2 -24 20 -42t44 -18t45 19t19 45z" />
    <glyph glyph-name="Ocircumflex" unicode="&#xd4;" horiz-adv-x="1420" 
d="M708 1289q90 0 173 -23.5t155.5 -65.5t132 -101.5t102 -132t66 -155.5t23.5 -173q0 -135 -51.5 -253t-140 -206.5t-207 -139.5t-253.5 -51t-253.5 51t-206 139.5t-138 206.5t-50.5 253q0 90 23 173t65 155.5t101 132t131 101.5t155 65.5t173 23.5zM709 1029
q-81 0 -152 -31t-123.5 -84t-83 -124t-30.5 -152q0 -82 30.5 -153.5t83 -124t123.5 -82.5t152 -30t152.5 30t124.5 82.5t83.5 124t30.5 153.5q0 81 -30.5 152t-83.5 124t-124.5 84t-152.5 31zM791 1760.07q-12 10.999 -24 17.998q-26 15.999 -55 14q-26 0 -49 -14
q-13 -7.99902 -23 -17.998l-200 -201.988q-24 -23.998 -29.5 -50.9971q-5.5 -26.998 3 -51.4971q8.5 -24.498 27.5 -43.4971t43.5 -27.498t51.5 -3.5q27 5 52 28.998l127 125.993l128 -125.993q24 -23.998 51.5 -28.998q27.5 -4.99902 52 3.5t43.5 27.498t27.5 43.4971
q8.5 24.499 3 51.4971q-5.5 26.999 -29.5 50.9971z" />
    <glyph glyph-name="Odieresis" unicode="&#xd6;" horiz-adv-x="1420" 
d="M708 1289q90 0 173 -23.5t155.5 -65.5t132 -101.5t102 -132t66 -155.5t23.5 -173q0 -135 -51.5 -253t-140 -206.5t-207 -139.5t-253.5 -51t-253.5 51t-206 139.5t-138 206.5t-50.5 253q0 90 23 173t65 155.5t101 132t131 101.5t155 65.5t173 23.5zM709 1029
q-81 0 -152 -31t-123.5 -84t-83 -124t-30.5 -152q0 -82 30.5 -153.5t83 -124t123.5 -82.5t152 -30t152.5 30t124.5 82.5t83.5 124t30.5 153.5q0 81 -30.5 152t-83.5 124t-124.5 84t-152.5 31zM758 1518q0 28 11 53.5t30.5 45t44.5 30.5t54 11t54.5 -11t44.5 -30.5t30 -45
t11 -53.5q0 -29 -11 -54.5t-30 -44.5t-44.5 -30t-54.5 -11t-54 11t-44.5 30t-30.5 44.5t-11 54.5zM358 1518q0 28 11 53.5t30 45t44.5 30.5t54.5 11q28 0 53.5 -11t45 -30.5t30.5 -45t11 -53.5q0 -29 -11 -54.5t-30.5 -44.5t-45 -30t-53.5 -11q-29 0 -54.5 11t-44.5 30
t-30 44.5t-11 54.5z" />
    <glyph glyph-name="Ograve" unicode="&#xd2;" horiz-adv-x="1420" 
d="M708 1289q90 0 173 -23.5t155.5 -65.5t132 -101.5t102 -132t66 -155.5t23.5 -173q0 -135 -51.5 -253t-140 -206.5t-207 -139.5t-253.5 -51t-253.5 51t-206 139.5t-138 206.5t-50.5 253q0 90 23 173t65 155.5t101 132t131 101.5t155 65.5t173 23.5zM709 1029
q-81 0 -152 -31t-123.5 -84t-83 -124t-30.5 -152q0 -82 30.5 -153.5t83 -124t123.5 -82.5t152 -30t152.5 30t124.5 82.5t83.5 124t30.5 153.5q0 81 -30.5 152t-83.5 124t-124.5 84t-152.5 31zM632.017 1415q19.999 -20 43.9971 -29.5q23.999 -9.5 48.9971 -9.5
q24.999 0 48.4971 9.5q23.499 9.5 42.4971 29.5q19.999 19 29.499 43.5q9.49902 24.5 9.49902 49.5t-9.49902 49q-9.5 24 -29.499 44l-107.993 108q-18.999 19 -43.4971 28.5q-24.499 9.5 -49.9971 9.5t-49.4971 -9.5q-23.998 -9.5 -42.9971 -28.5q-19.999 -20 -29.498 -44
q-9.5 -24 -9.5 -49t10 -48.5q9.99902 -23.5 28.998 -42.5z" />
    <glyph glyph-name="Ohungarumlaut" unicode="&#x150;" horiz-adv-x="1420" 
d="M708 1289q90 0 173 -23.5t155.5 -65.5t132 -101.5t102 -132t66 -155.5t23.5 -173q0 -135 -51.5 -253t-140 -206.5t-207 -139.5t-253.5 -51t-253.5 51t-206 139.5t-138 206.5t-50.5 253q0 90 23 173t65 155.5t101 132t131 101.5t155 65.5t173 23.5zM709 1029
q-81 0 -152 -31t-123.5 -84t-83 -124t-30.5 -152q0 -82 30.5 -153.5t83 -124t123.5 -82.5t152 -30t152.5 30t124.5 82.5t83.5 124t30.5 153.5q0 81 -30.5 152t-83.5 124t-124.5 84t-152.5 31zM625 1387q-17 -17 -37.5 -25.5t-42 -8.5t-42 8.5t-36.5 25.5q-17 16 -25 37
t-8 42.5t8 42t25 37.5l93 93q17 16 38 24.5t42.5 8.5t42 -8.5t36.5 -24.5q17 -17 25.5 -38t8.5 -42t-9 -41.5t-25 -36.5zM979 1387q-17 -17 -37.5 -25.5t-42 -8.5t-42 8.5t-36.5 25.5q-17 16 -25 37t-8 42.5t8 42t25 37.5l93 93q17 16 38 24.5t42.5 8.5t42 -8.5t36.5 -24.5
q17 -17 25.5 -38t8.5 -42t-9 -41.5t-25 -36.5z" />
    <glyph glyph-name="Omacron" unicode="&#x14c;" horiz-adv-x="1420" 
d="M708 1289q90 0 173 -23.5t155.5 -65.5t132 -101.5t102 -132t66 -155.5t23.5 -173q0 -135 -51.5 -253t-140 -206.5t-207 -139.5t-253.5 -51t-253.5 51t-206 139.5t-138 206.5t-50.5 253q0 90 23 173t65 155.5t101 132t131 101.5t155 65.5t173 23.5zM709 1029
q-81 0 -152 -31t-123.5 -84t-83 -124t-30.5 -152q0 -82 30.5 -153.5t83 -124t123.5 -82.5t152 -30t152.5 30t124.5 82.5t83.5 124t30.5 153.5q0 81 -30.5 152t-83.5 124t-124.5 84t-152.5 31zM901 1594q24 0 44.5 -9t35.5 -24t24 -35t9 -42q0 -24 -9 -45t-24 -36.5
t-35.5 -25t-44.5 -9.5h-374q-24 0 -44 9.5t-35 25t-23.5 36.5t-8.5 45q0 47 31.5 78.5t79.5 31.5h374z" />
    <glyph glyph-name="Omega" unicode="&#x3a9;" horiz-adv-x="1168" 
d="M932 274l-20 -14h20v-128q0 -27 -9 -50.5t-25 -41.5t-38 -28.5t-49 -11.5h-6h-5h-6.5t-6.5 1q-3 0 -5 1q-2 0 -4 0.5t-4 0.5q-5 1 -15 5q-1 0 -2 1q-6 2 -10 4q-34 16 -54.5 47.5t-20.5 71.5v242q0 43 19.5 73t50.5 46q67 30 106.5 90t39.5 159q0 49 -22.5 100.5
t-62.5 92.5t-95 67.5t-119 26.5t-119.5 -26t-97 -67t-65.5 -92t-24 -102q0 -48 11 -86.5t30 -68.5t44 -52t53 -37q37 -14 58 -46.5t21 -77.5v-235v-5v-2q0 -28 -10.5 -52t-28.5 -42t-42.5 -28t-52.5 -10h-167q-28 -1 -52 9.5t-42 29t-28 43t-10 52.5q0 27 10 50.5t28 40.5
t42 26t52 9h41v18q-50 39 -90 88t-68 105.5t-43.5 120t-15.5 131.5q0 118 44.5 221t121 179.5t179.5 121t221 44.5q117 0 219 -44.5t177.5 -121t119 -179.5t43.5 -221q0 -138 -58 -254.5t-158 -194.5v-14h40q28 0 52.5 -9t42.5 -25.5t28.5 -39.5t10.5 -50q0 -28 -10.5 -53
t-28.5 -43.5t-42.5 -29.5t-52.5 -10h-161h-5h-6h-6.5t-6.5 1q-3 0 -5 1q-2 0 -4 0.5t-4 0.5q-5 1 -15 5q-1 0 -2 1q-6 2 -10 4q-33 16 -53.5 48.5t-20.5 72.5q0 47 27 78.5t69 42.5l-27 238q30 15 66 15q28 0 50.5 -10.5t39 -28.5t25.5 -42.5t9 -52.5v-100zM769 255
q9 2 17.5 3.5t18.5 1.5h107q-31 -22 -65 -39t-70 -30z" />
    <glyph glyph-name="Omegatonos" unicode="&#x38f;" horiz-adv-x="1254" 
d="M1022 274l-20 -14h20v-128q0 -27 -9 -50.5t-25 -41.5t-38 -28.5t-49 -11.5h-6h-5h-6.5t-6.5 1q-3 0 -5 1q-2 0 -4 0.5t-4 0.5q-5 1 -15 5q-1 0 -2 1q-6 2 -10 4q-34 16 -54.5 47.5t-20.5 71.5v242q0 43 19.5 73t50.5 46q67 30 106.5 90t39.5 159q0 49 -22.5 100.5
t-62.5 92.5t-95 67.5t-119 26.5t-119.5 -26t-97 -67t-65.5 -92t-24 -102q0 -48 11 -86.5t30 -68.5t44 -52t53 -37q37 -14 58 -46.5t21 -77.5v-235v-5v-2q0 -28 -10.5 -52t-28.5 -42t-42.5 -28t-52.5 -10h-167q-28 -1 -52 9.5t-42 29t-28 43t-10 52.5q0 27 10 50.5t28 40.5
t42 26t52 9h41v18q-50 39 -90 88t-68 105.5t-43.5 120t-15.5 131.5q0 118 44.5 221t121 179.5t179.5 121t221 44.5q117 0 219 -44.5t177.5 -121t119 -179.5t43.5 -221q0 -138 -58 -254.5t-158 -194.5v-14h40q28 0 52.5 -9t42.5 -25.5t28.5 -39.5t10.5 -50q0 -28 -10.5 -53
t-28.5 -43.5t-42.5 -29.5t-52.5 -10h-161h-5h-6h-6.5t-6.5 1q-3 0 -5 1q-2 0 -4 0.5t-4 0.5q-5 1 -15 5q-1 0 -2 1q-6 2 -10 4q-33 16 -53.5 48.5t-20.5 72.5q0 47 27 78.5t69 42.5l-27 238q30 15 66 15q28 0 50.5 -10.5t39 -28.5t25.5 -42.5t9 -52.5v-100zM859 255
q9 2 17.5 3.5t18.5 1.5h107q-31 -22 -65 -39t-70 -30zM110 957q0 -27 -10 -50.5t-27.5 -40.5t-41 -27t-49.5 -10q-27 0 -50.5 10t-41.5 27t-28 40.5t-10 50.5v202q0 27 10 50.5t28 41.5t41.5 28t50.5 10t50.5 -10t40.5 -28t27 -41.5t10 -50.5v-202z" />
    <glyph glyph-name="Omicron" unicode="&#x39f;" horiz-adv-x="1420" 
d="M708 1289q90 0 173 -23.5t155.5 -65.5t132 -101.5t102 -132t66 -155.5t23.5 -173q0 -135 -51.5 -253t-140 -206.5t-207 -139.5t-253.5 -51t-253.5 51t-206 139.5t-138 206.5t-50.5 253q0 90 23 173t65 155.5t101 132t131 101.5t155 65.5t173 23.5zM709 1029
q-81 0 -152 -31t-123.5 -84t-83 -124t-30.5 -152q0 -82 30.5 -153.5t83 -124t123.5 -82.5t152 -30t152.5 30t124.5 82.5t83.5 124t30.5 153.5q0 81 -30.5 152t-83.5 124t-124.5 84t-152.5 31z" />
    <glyph glyph-name="Omicrontonos" unicode="&#x38c;" horiz-adv-x="1420" 
d="M708 1289q90 0 173 -23.5t155.5 -65.5t132 -101.5t102 -132t66 -155.5t23.5 -173q0 -135 -51.5 -253t-140 -206.5t-207 -139.5t-253.5 -51t-253.5 51t-206 139.5t-138 206.5t-50.5 253q0 90 23 173t65 155.5t101 132t131 101.5t155 65.5t173 23.5zM709 1029
q-81 0 -152 -31t-123.5 -84t-83 -124t-30.5 -152q0 -82 30.5 -153.5t83 -124t123.5 -82.5t152 -30t152.5 30t124.5 82.5t83.5 124t30.5 153.5q0 81 -30.5 152t-83.5 124t-124.5 84t-152.5 31zM40 948q0 -27 -10 -50.5t-27.5 -40.5t-41 -27t-49.5 -10q-27 0 -50.5 10
t-41.5 27t-28 40.5t-10 50.5v202q0 27 10 50.5t28 41.5t41.5 28t50.5 10t50.5 -10t40.5 -28t27 -41.5t10 -50.5v-202z" />
    <glyph glyph-name="Oslash" unicode="&#xd8;" horiz-adv-x="1420" 
d="M710 1288q96 0 183.5 -26.5t162.5 -74.5l44 47q18 21 41.5 32.5t49 13.5t50.5 -6t47 -26q20 -17 31.5 -40t13 -47.5t-6 -49t-24.5 -45.5l-57 -61q54 -79 83.5 -171.5t29.5 -195.5q0 -135 -51 -253t-138.5 -206.5t-205.5 -139.5t-253 -51q-92 0 -176 23.5t-157 67.5
l-33 -35q-17 -21 -40.5 -32.5t-48.5 -14t-49.5 5t-45.5 25.5t-33 41t-14.5 48.5t5.5 50.5t26 46l39 42q-58 81 -90.5 177.5t-32.5 204.5q0 90 23 173t65 155t101.5 131.5t131.5 102t155.5 65.5t173.5 23zM710 1018q-80 0 -149.5 -29.5t-121.5 -81t-81.5 -121t-29.5 -148.5
q0 -81 29.5 -150.5t81.5 -121t121.5 -81t149.5 -29.5t149.5 29.5t120.5 81t80.5 121t29.5 150.5q0 79 -29.5 148.5t-80.5 121t-120.5 81t-149.5 29.5z" />
    <glyph glyph-name="Otilde" unicode="&#xd5;" horiz-adv-x="1420" 
d="M708 1289q90 0 173 -23.5t155.5 -65.5t132 -101.5t102 -132t66 -155.5t23.5 -173q0 -135 -51.5 -253t-140 -206.5t-207 -139.5t-253.5 -51t-253.5 51t-206 139.5t-138 206.5t-50.5 253q0 90 23 173t65 155.5t101 132t131 101.5t155 65.5t173 23.5zM709 1029
q-81 0 -152 -31t-123.5 -84t-83 -124t-30.5 -152q0 -82 30.5 -153.5t83 -124t123.5 -82.5t152 -30t152.5 30t124.5 82.5t83.5 124t30.5 153.5q0 81 -30.5 152t-83.5 124t-124.5 84t-152.5 31zM414 1619l28.5 26t47 36.5t63 32.5t75.5 14q43 0 75.5 -14t64.5 -38l13.5 -11
t18 -13.5t20.5 -11t22 -4.5t29.5 9.5t43.5 35.5q2 1 2.5 2t2.5 3q15 15 34 22.5t39 7.5t39 -7.5t34 -22.5q15 -16 22.5 -35t7.5 -38.5t-7.5 -39t-22.5 -35.5l-3 -3l-27 -26t-47 -36.5t-64 -32.5t-77 -14q-42 0 -75 15.5t-65 38.5q-5 3 -12.5 9.5t-17 13t-20.5 11t-22 4.5
q-13 0 -31.5 -9.5t-41.5 -34.5q-1 -2 -5 -6q-15 -15 -34.5 -22.5t-39.5 -7.5t-39.5 7.5t-34.5 22.5t-22.5 34.5t-7.5 39.5t7.5 39.5t22.5 34.5z" />
    <glyph glyph-name="P" unicode="P" horiz-adv-x="1136" 
d="M606 1280q101 0 189.5 -38t154.5 -103.5t104.5 -154t38.5 -189.5q0 -100 -38.5 -188t-104.5 -153t-154.5 -103t-189.5 -38h-236v-185q0 -27 -10 -50.5t-28 -40.5t-41.5 -27t-50.5 -10t-50.5 10t-41.5 27t-28 40.5t-10 50.5v1022q0 27 10 50.5t28 41.5t41.5 28t50.5 10
h366zM370 1020v-447h240q45 0 85.5 18t71 49t48.5 71t18 84q0 45 -18.5 85.5t-49 71.5t-71 49.5t-84.5 18.5h-240z" />
    <glyph glyph-name="Phi" unicode="&#x3a6;" horiz-adv-x="1175" 
d="M716 1141q97 -17 182 -58.5t148 -104.5t99.5 -147t36.5 -185q0 -102 -36.5 -185.5t-99.5 -146.5t-148 -104.5t-182 -58.5v-19q0 -28 -10.5 -52t-28.5 -42t-42.5 -28t-52.5 -10t-52.5 10t-42.5 28t-28.5 42t-10.5 52v21q-95 18 -178 59.5t-145 104.5t-97.5 146t-35.5 183
t35.5 182.5t97.5 145.5t145 105t178 60v9q0 28 10.5 52t28.5 42t42.5 28t52.5 10t52.5 -10t42.5 -28t28.5 -42t10.5 -52v-7zM922 646q0 46 -16 83.5t-44 66t-65.5 48.5t-80.5 31v-459q43 11 80.5 30.5t65.5 48t44 66.5t16 85zM252 646q0 -46 15 -82.5t41.5 -64.5t62.5 -48
t77 -32v453q-41 -12 -77 -32t-62.5 -48t-41.5 -64.5t-15 -81.5z" />
    <glyph glyph-name="Pi" unicode="&#x3a0;" horiz-adv-x="1288" 
d="M1044 1280h2q28 0 52 -10.5t42 -28.5t28 -42.5t10 -52.5v-6v-1008q0 -28 -10.5 -52t-28.5 -42t-42.5 -28t-52.5 -10t-51 10t-39.5 28t-26 42t-9.5 52v888h-548v-888q0 -28 -9.5 -52t-26 -42t-39.5 -28t-51 -10t-52.5 10t-42.5 28t-28.5 42t-10.5 52v1008v6q0 28 10 52.5
t28 42.5t42 28.5t52 10.5h796h6z" />
    <glyph glyph-name="Psi" unicode="&#x3a8;" horiz-adv-x="1260" 
d="M327 835q0 -37 14 -70t37.5 -58.5t55 -42.5t66.5 -22v506q0 28 11 52t29.5 42t43 28t52.5 10t50.5 -10t39 -28t25.5 -42t9 -52v-507q39 5 71 24t54 47.5t34 65t12 77.5v294q0 28 9.5 52t26 41.5t39.5 27.5t50 10q28 0 53 -10t43 -27.5t28.5 -41.5t10.5 -52v-308
q0 -92 -33.5 -173.5t-91.5 -143.5t-137 -100.5t-169 -43.5v-248q0 -28 -9.5 -52t-26 -42t-39.5 -28t-51 -10t-52.5 10t-42.5 28t-28.5 42t-10.5 52v248q-92 5 -171 43t-137 100.5t-91.5 144t-33.5 173.5v308q0 28 10.5 52t29 41.5t43 27.5t51.5 10q28 0 51.5 -10t40 -27.5
t25.5 -41.5t9 -52v-314z" />
    <glyph glyph-name="Q" unicode="Q" horiz-adv-x="1420" 
d="M708 1289q90 0 173 -23.5t155.5 -65.5t132 -101.5t102 -132t66 -155.5t23.5 -173q0 -118 -39.5 -223.5t-109.5 -190t-165 -142.5t-206 -81v-122q0 -27 -10 -50.5t-27.5 -41t-41 -27.5t-50.5 -10t-51 10t-41.5 27.5t-28 41t-10.5 50.5v121q-112 22 -207.5 80.5t-165 142.5
t-108.5 190t-39 225q0 90 23 173t65 155.5t101 132t131 101.5t155 65.5t173 23.5zM709 1029q-81 0 -152 -31t-123.5 -84t-83 -124t-30.5 -152q0 -65 19 -123.5t53.5 -106.5t82.5 -83.5t105 -55.5v63q0 27 10.5 50.5t28 41t41.5 27.5t51 10t50.5 -10t41 -27.5t27.5 -41
t10 -50.5v-62q57 20 104.5 55.5t82 83.5t54 106t19.5 123q0 81 -30.5 152t-83.5 124t-124.5 84t-152.5 31z" />
    <glyph glyph-name="Q.alt" horiz-adv-x="1374" 
d="M671 1289q90 0 173 -23.5t155.5 -65.5t132 -101.5t102 -132t66 -155.5t23.5 -173q0 -124 -43 -232.5t-119 -195.5q4 1 7.5 2.5l8.5 3.5q37 12 71.5 5t59 -28t36 -54t3.5 -73q-9 -44 -36 -69t-59 -37t-62.5 -14.5t-48.5 -3.5q-64 -2 -118 26t-94 73q-60 -26 -124.5 -39.5
t-133.5 -13.5q-135 0 -253.5 51t-206 139.5t-138 206.5t-50.5 253q0 90 23 173t65 155.5t101 132t131 101.5t155 65.5t173 23.5zM672 1026q-81 0 -152 -30.5t-123.5 -83t-82.5 -123t-30 -151.5q0 -94 39 -172.5t105 -132.5q12 55 40.5 101.5t70 80.5t93.5 53.5t109 19.5
q85 0 155 -40t114 -106q24 43 37.5 92.5t13.5 103.5q0 81 -30.5 151.5t-83 123t-123.5 83t-152 30.5zM669 266v-8t1 -9h2q72 0 139 25q-11 21 -30.5 35.5t-39.5 14.5q-38 0 -55 -19t-17 -39z" />
    <glyph glyph-name="R" unicode="R" horiz-adv-x="1136" 
d="M110 1150q0 27 10 50.5t28 41.5t41.5 28t50.5 10h366q101 0 189.5 -36t154.5 -100t104.5 -150.5t38.5 -187.5q0 -66 -16.5 -126t-47.5 -111.5t-74 -94t-95 -73.5l155 -179q19 -19 28.5 -43t9.5 -49t-9.5 -48.5t-28.5 -42.5q-38 -38 -86 -39t-86 37l-265 297h-208v-206
q0 -27 -10 -50.5t-28 -40.5t-41.5 -27t-50.5 -10t-50.5 10t-41.5 27t-28 40.5t-10 50.5v1022zM370 1020v-426h240q45 0 85.5 16.5t71 45.5t48.5 67.5t18 82.5q0 45 -18.5 84t-49 68t-71 45.5t-84.5 16.5h-240z" />
    <glyph glyph-name="Racute" unicode="&#x154;" horiz-adv-x="1136" 
d="M110 1150q0 27 10 50.5t28 41.5t41.5 28t50.5 10h366q101 0 189.5 -36t154.5 -100t104.5 -150.5t38.5 -187.5q0 -66 -16.5 -126t-47.5 -111.5t-74 -94t-95 -73.5l155 -179q19 -19 28.5 -43t9.5 -49t-9.5 -48.5t-28.5 -42.5q-38 -38 -86 -39t-86 37l-265 297h-208v-206
q0 -27 -10 -50.5t-28 -40.5t-41.5 -27t-50.5 -10t-50.5 10t-41.5 27t-28 40.5t-10 50.5v1022zM370 1020v-426h240q45 0 85.5 16.5t71 45.5t48.5 67.5t18 82.5q0 45 -18.5 84t-49 68t-71 45.5t-84.5 16.5h-240zM595 1419q-20 -20 -44 -29.5t-49 -9.5t-48.5 9.5t-42.5 29.5
q-20 19 -29.5 43.5t-9.5 49.5t9.5 49t29.5 44l108 108q19 19 43.5 28.5t50 9.5t49.5 -9.5t43 -28.5q20 -20 29.5 -44t9.5 -49t-10 -48.5t-29 -42.5z" />
    <glyph glyph-name="Rcaron" unicode="&#x158;" horiz-adv-x="1136" 
d="M110 1150q0 27 10 50.5t28 41.5t41.5 28t50.5 10h366q101 0 189.5 -36t154.5 -100t104.5 -150.5t38.5 -187.5q0 -66 -16.5 -126t-47.5 -111.5t-74 -94t-95 -73.5l155 -179q19 -19 28.5 -43t9.5 -49t-9.5 -48.5t-28.5 -42.5q-38 -38 -86 -39t-86 37l-265 297h-208v-206
q0 -27 -10 -50.5t-28 -40.5t-41.5 -27t-50.5 -10t-50.5 10t-41.5 27t-28 40.5t-10 50.5v1022zM370 1020v-426h240q45 0 85.5 16.5t71 45.5t48.5 67.5t18 82.5q0 45 -18.5 84t-49 68t-71 45.5t-84.5 16.5h-240zM592 1421q-12 -11 -24 -18q-26 -16 -55 -14q-26 0 -49 14
q-13 8 -23 18l-200 202q-24 24 -29.5 51t3 51.5t27.5 43.5t43.5 27.5t51.5 3.5t52 -29l127 -126l128 126q24 24 51.5 29t52 -3.5t43.5 -27.5t27.5 -43.5t3 -51.5t-29.5 -51z" />
    <glyph glyph-name="Rcommaaccent" unicode="&#x156;" horiz-adv-x="1136" 
d="M110 1150q0 27 10 50.5t28 41.5t41.5 28t50.5 10h366q101 0 189.5 -36t154.5 -100t104.5 -150.5t38.5 -187.5q0 -66 -16.5 -126t-47.5 -111.5t-74 -94t-95 -73.5l155 -179q19 -19 28.5 -43t9.5 -49t-9.5 -48.5t-28.5 -42.5q-38 -38 -86 -39t-86 37l-265 297h-208v-206
q0 -27 -10 -50.5t-28 -40.5t-41.5 -27t-50.5 -10t-50.5 10t-41.5 27t-28 40.5t-10 50.5v1022zM370 1020v-426h240q45 0 85.5 16.5t71 45.5t48.5 67.5t18 82.5q0 45 -18.5 84t-49 68t-71 45.5t-84.5 16.5h-240zM664 -366q0 -27 -10 -50.5t-27 -40.5t-40.5 -27t-50.5 -10
t-50.5 10t-41.5 27t-28 40.5t-10 50.5v260q0 27 10.5 50.5t28.5 40.5t42 27t51 10q26 0 49 -10t40 -27t27 -40.5t10 -50.5v-260z" />
    <glyph glyph-name="S" unicode="S" horiz-adv-x="996" 
d="M510 498q-107 18 -192 50t-144.5 80.5t-91.5 114t-32 150.5q0 86 35.5 158.5t96 125.5t141 82.5t170.5 29.5q60 0 118.5 -12t111 -35.5t95 -59t70.5 -82.5q11 -18 13 -37t-2 -37t-13 -34t-21 -27q-13 -13 -32 -22t-41 -11t-45 3t-44 20l-47.5 31.5t-42 23t-49 14.5
t-67.5 5q-44 0 -78.5 -10.5t-58.5 -28.5t-37 -42.5t-13 -52.5q0 -36 18.5 -58.5t54.5 -38t88.5 -27t120.5 -24.5q67 -15 132 -40.5t116 -67.5t82 -103.5t31 -146.5q0 -83 -35 -156t-96.5 -127.5t-147 -86t-185.5 -31.5q-78 0 -148.5 20t-129 54t-102.5 79.5t-68 96.5
q-15 31 -17 59t6 50.5t24 40t37 28.5q49 26 91.5 11t87.5 -71q42 -54 96.5 -81t132.5 -27q36 0 71 8.5t62.5 25t44 39.5t16.5 53q0 38 -17 60t-43.5 34.5t-59 18.5t-63.5 11z" />
    <glyph glyph-name="Sacute" unicode="&#x15a;" horiz-adv-x="996" 
d="M510 498q-107 18 -192 50t-144.5 80.5t-91.5 114t-32 150.5q0 86 35.5 158.5t96 125.5t141 82.5t170.5 29.5q60 0 118.5 -12t111 -35.5t95 -59t70.5 -82.5q11 -18 13 -37t-2 -37t-13 -34t-21 -27q-13 -13 -32 -22t-41 -11t-45 3t-44 20l-47.5 31.5t-42 23t-49 14.5
t-67.5 5q-44 0 -78.5 -10.5t-58.5 -28.5t-37 -42.5t-13 -52.5q0 -36 18.5 -58.5t54.5 -38t88.5 -27t120.5 -24.5q67 -15 132 -40.5t116 -67.5t82 -103.5t31 -146.5q0 -83 -35 -156t-96.5 -127.5t-147 -86t-185.5 -31.5q-78 0 -148.5 20t-129 54t-102.5 79.5t-68 96.5
q-15 31 -17 59t6 50.5t24 40t37 28.5q49 26 91.5 11t87.5 -71q42 -54 96.5 -81t132.5 -27q36 0 71 8.5t62.5 25t44 39.5t16.5 53q0 38 -17 60t-43.5 34.5t-59 18.5t-63.5 11zM634 1418q-20 -20 -44 -29.5t-49 -9.5t-48.5 9.5t-42.5 29.5q-20 19 -29.5 43.5t-9.5 49.5t9.5 49
t29.5 44l108 108q19 19 43.5 28.5t50 9.5t49.5 -9.5t43 -28.5q20 -20 29.5 -44t9.5 -49t-10 -48.5t-29 -42.5z" />
    <glyph glyph-name="Scaron" unicode="&#x160;" horiz-adv-x="996" 
d="M510 498q-107 18 -192 50t-144.5 80.5t-91.5 114t-32 150.5q0 86 35.5 158.5t96 125.5t141 82.5t170.5 29.5q60 0 118.5 -12t111 -35.5t95 -59t70.5 -82.5q11 -18 13 -37t-2 -37t-13 -34t-21 -27q-13 -13 -32 -22t-41 -11t-45 3t-44 20l-47.5 31.5t-42 23t-49 14.5
t-67.5 5q-44 0 -78.5 -10.5t-58.5 -28.5t-37 -42.5t-13 -52.5q0 -36 18.5 -58.5t54.5 -38t88.5 -27t120.5 -24.5q67 -15 132 -40.5t116 -67.5t82 -103.5t31 -146.5q0 -83 -35 -156t-96.5 -127.5t-147 -86t-185.5 -31.5q-78 0 -148.5 20t-129 54t-102.5 79.5t-68 96.5
q-15 31 -17 59t6 50.5t24 40t37 28.5q49 26 91.5 11t87.5 -71q42 -54 96.5 -81t132.5 -27q36 0 71 8.5t62.5 25t44 39.5t16.5 53q0 38 -17 60t-43.5 34.5t-59 18.5t-63.5 11zM593 1403q-12 -11 -24 -18q-26 -16 -55 -14q-26 0 -49 14q-13 8 -23 18l-200 202q-24 24 -29.5 51
t3 51.5t27.5 43.5t43.5 27.5t51.5 3.5t52 -29l127 -126l128 126q24 24 51.5 29t52 -3.5t43.5 -27.5t27.5 -43.5t3 -51.5t-29.5 -51z" />
    <glyph glyph-name="Scedilla" unicode="&#x15e;" horiz-adv-x="996" 
d="M510 498q-107 18 -192 50t-144.5 80.5t-91.5 114t-32 150.5q0 86 35.5 158.5t96 125.5t141 82.5t170.5 29.5q60 0 118.5 -12t111 -35.5t95 -59t70.5 -82.5q11 -18 13 -37t-2 -37t-13 -34t-21 -27q-13 -13 -32 -22t-41 -11t-45 3t-44 20l-47.5 31.5t-42 23t-49 14.5
t-67.5 5q-44 0 -78.5 -10.5t-58.5 -28.5t-37 -42.5t-13 -52.5q0 -36 18.5 -58.5t54.5 -38t88.5 -27t120.5 -24.5q67 -15 132 -40.5t116 -67.5t82 -103.5t31 -146.5q0 -83 -35 -156t-96.5 -127.5t-147 -86t-185.5 -31.5q-78 0 -148.5 20t-129 54t-102.5 79.5t-68 96.5
q-15 31 -17 59t6 50.5t24 40t37 28.5q49 26 91.5 11t87.5 -71q42 -54 96.5 -81t132.5 -27q36 0 71 8.5t62.5 25t44 39.5t16.5 53q0 38 -17 60t-43.5 34.5t-59 18.5t-63.5 11zM599 -54q39 -8 71.5 -29t56 -51t36.5 -68t13 -80q0 -48 -18.5 -90t-50 -73.5t-74 -49.5t-90.5 -18
t-90.5 18t-74 49.5t-50 73.5t-18.5 90q0 35 24.5 59.5t59.5 24.5q33 0 57 -24.5t24 -59.5v-3q2 -27 22.5 -46t47.5 -19q29 0 49.5 20.5t20.5 49.5q0 32 -21 51t-65 20h-5q-50 0 -70.5 19t-20.5 48v210q0 14 7.5 26.5t19.5 21.5t26.5 14.5t28.5 5.5t29 -5.5t27 -14.5
t20 -21.5t8 -26.5v-122z" />
    <glyph glyph-name="Scircumflex" unicode="&#x15c;" horiz-adv-x="996" 
d="M510 498q-107 18 -192 50t-144.5 80.5t-91.5 114t-32 150.5q0 86 35.5 158.5t96 125.5t141 82.5t170.5 29.5q60 0 118.5 -12t111 -35.5t95 -59t70.5 -82.5q11 -18 13 -37t-2 -37t-13 -34t-21 -27q-13 -13 -32 -22t-41 -11t-45 3t-44 20l-47.5 31.5t-42 23t-49 14.5
t-67.5 5q-44 0 -78.5 -10.5t-58.5 -28.5t-37 -42.5t-13 -52.5q0 -36 18.5 -58.5t54.5 -38t88.5 -27t120.5 -24.5q67 -15 132 -40.5t116 -67.5t82 -103.5t31 -146.5q0 -83 -35 -156t-96.5 -127.5t-147 -86t-185.5 -31.5q-78 0 -148.5 20t-129 54t-102.5 79.5t-68 96.5
q-15 31 -17 59t6 50.5t24 40t37 28.5q49 26 91.5 11t87.5 -71q42 -54 96.5 -81t132.5 -27q36 0 71 8.5t62.5 25t44 39.5t16.5 53q0 38 -17 60t-43.5 34.5t-59 18.5t-63.5 11zM579 1767.07q-12 10.999 -24 17.998q-26 15.999 -55 14q-26 0 -49 -14q-13 -7.99902 -23 -17.998
l-200 -201.988q-24 -23.998 -29.5 -50.9971q-5.5 -26.998 3 -51.4971q8.5 -24.498 27.5 -43.4971t43.5 -27.498t51.5 -3.5q27 5 52 28.998l127 125.993l128 -125.993q24 -23.998 51.5 -28.998q27.5 -4.99902 52 3.5t43.5 27.498t27.5 43.4971q8.5 24.499 3 51.4971
q-5.5 26.999 -29.5 50.9971z" />
    <glyph glyph-name="Sigma" unicode="&#x3a3;" horiz-adv-x="998" 
d="M412 260h431q28 0 52 -9.5t42 -26t28 -39.5t10 -51t-10 -52.5t-28 -42.5t-42 -28.5t-52 -10.5h-682q-29 0 -58 13q-24 9 -44 29t-28.5 43.5t-7 48.5t12 50t27.5 48l322 411l-319 407q-17 22 -27.5 47t-13 50t5.5 49t28 44q21 20 45.5 30t50.5 9q3 1 11 1h677
q28 0 52 -10.5t42 -28.5t28 -42.5t10 -52.5q0 -56 -33.5 -91t-89.5 -35h-438l217 -278q26 -35 35 -74q2 -6 2 -12t1 -12q2 -39 -17 -69q-4 -8 -9 -16l-10 -16z" />
    <glyph glyph-name="T" unicode="T" horiz-adv-x="1097" 
d="M675 1020v-892q0 -27 -10.5 -50.5t-28 -40.5t-41.5 -27t-51 -10t-50.5 10t-41 27t-27.5 40.5t-10 50.5v892h-263q-27 0 -50.5 10.5t-41 28t-27.5 41.5t-10 51t10 50.5t27.5 41t41 27.5t50.5 10h786q27 0 50.5 -10.5t41.5 -28t28 -41.5t10 -51t-10 -50.5t-28 -41
t-41.5 -27.5t-50.5 -10h-263z" />
    <glyph glyph-name="Tbar" unicode="&#x166;" horiz-adv-x="980" 
d="M753 706q24 0 45.5 -9t37 -24.5t24.5 -36t9 -43.5q0 -24 -9 -45.5t-24.5 -37.5t-37 -25.5t-45.5 -9.5h-560q-24 0 -44.5 9.5t-36 25.5t-24 37.5t-8.5 45.5t8.5 44.5t24 36t36 24t44.5 8.5h560zM620 1020v-892q0 -27 -10.5 -50.5t-28 -40.5t-41.5 -27t-51 -10t-50.5 10
t-41 27t-27.5 40.5t-10 50.5v892h-263q-27 0 -50.5 10.5t-41 28t-27.5 41.5t-10 51t10 50.5t27.5 41t41 27.5t50.5 10h786q27 0 50.5 -10.5t41.5 -28t28 -41.5t10 -51t-10 -50.5t-28 -41t-41.5 -27.5t-50.5 -10h-263z" />
    <glyph glyph-name="Tcaron" unicode="&#x164;" horiz-adv-x="980" 
d="M620 1020v-892q0 -27 -10.5 -50.5t-28 -40.5t-41.5 -27t-51 -10t-50.5 10t-41 27t-27.5 40.5t-10 50.5v892h-263q-27 0 -50.5 10.5t-41 28t-27.5 41.5t-10 51t10 50.5t27.5 41t41 27.5t50.5 10h786q27 0 50.5 -10.5t41.5 -28t28 -41.5t10 -51t-10 -50.5t-28 -41
t-41.5 -27.5t-50.5 -10h-263zM562 1422q-12 -11 -24 -18q-26 -16 -55 -14q-26 0 -49 14q-13 8 -23 18l-200 202q-24 24 -29.5 51t3 51.5t27.5 43.5t43.5 27.5t51.5 3.5t52 -29l127 -126l128 126q24 24 51.5 29t52 -3.5t43.5 -27.5t27.5 -43.5t3 -51.5t-29.5 -51z" />
    <glyph glyph-name="Tcommaaccent" unicode="&#x162;" horiz-adv-x="980" 
d="M620 1020v-892q0 -27 -10.5 -50.5t-28 -40.5t-41.5 -27t-51 -10t-50.5 10t-41 27t-27.5 40.5t-10 50.5v892h-263q-27 0 -50.5 10.5t-41 28t-27.5 41.5t-10 51t10 50.5t27.5 41t41 27.5t50.5 10h786q27 0 50.5 -10.5t41.5 -28t28 -41.5t10 -51t-10 -50.5t-28 -41
t-41.5 -27.5t-50.5 -10h-263zM617 -497q0 -27 -10 -50.5t-27 -40.5t-40.5 -27t-50.5 -10t-50.5 10t-41.5 27t-28 40.5t-10 50.5v260q0 27 10.5 50.5t28.5 40.5t42 27t51 10q26 0 49 -10t40 -27t27 -40.5t10 -50.5v-260z" />
    <glyph glyph-name="Theta" unicode="&#x398;" horiz-adv-x="1420" 
d="M878 772q28 0 52.5 -10.5t42.5 -28.5t28.5 -42.5t10.5 -52.5t-10.5 -51t-28.5 -39.5t-42.5 -26t-52.5 -9.5h-340q-28 0 -52 9.5t-42 26t-28 39.5t-10 51t10 52.5t28 42.5t42 28.5t52 10.5h340zM708 1289q90 0 173 -23.5t155.5 -65.5t132 -101.5t102 -132t66 -155.5
t23.5 -173q0 -135 -51.5 -253t-140 -206.5t-207 -139.5t-253.5 -51t-253.5 51t-206 139.5t-138 206.5t-50.5 253q0 90 23 173t65 155.5t101 132t131 101.5t155 65.5t173 23.5zM709 1029q-81 0 -152 -31t-123.5 -84t-83 -124t-30.5 -152q0 -82 30.5 -153.5t83 -124
t123.5 -82.5t152 -30t152.5 30t124.5 82.5t83.5 124t30.5 153.5q0 81 -30.5 152t-83.5 124t-124.5 84t-152.5 31z" />
    <glyph glyph-name="Thorn" unicode="&#xde;" horiz-adv-x="1056" 
d="M370 1109h176q101 0 189.5 -35t154.5 -97t104.5 -147t38.5 -186q0 -100 -38.5 -185t-104.5 -146.5t-154.5 -96t-189.5 -34.5h-176v-54q0 -27 -10 -50.5t-28 -40.5t-41.5 -27t-50.5 -10t-50.5 10t-41.5 27t-28 40.5t-10 50.5v1024q0 27 10 50.5t28 40.5t41.5 27t50.5 10
t50.5 -10t41.5 -27t28 -40.5t10 -50.5v-43zM370 849v-407h180q45 0 85.5 15t70.5 42t48 64t18 81q0 45 -18 82.5t-48.5 64.5t-71 42.5t-84.5 15.5h-180z" />
    <glyph glyph-name="U" unicode="U" horiz-adv-x="1347" 
d="M350 568v-6q0 -66 27.5 -123.5t74 -99.5t107 -66.5t125.5 -24.5q66 0 123 24.5t99 66.5t66.5 99.5t24.5 123.5v590q0 27 10 50.5t28 40.5t41.5 27t50.5 10t50.5 -10t41.5 -27t28 -40.5t10 -50.5v-584v-6q0 -79 -20.5 -152t-57.5 -137t-89.5 -116.5t-116 -90t-137 -58
t-152.5 -20.5q-80 0 -154.5 20.5t-140.5 58t-121 90t-94.5 116.5t-61.5 137t-22 152v588q0 27 10 50.5t28 41.5t41.5 28t50.5 10t50.5 -10t41.5 -28t28 -41.5t10 -50.5v-582z" />
    <glyph glyph-name="Uacute" unicode="&#xda;" horiz-adv-x="1347" 
d="M350 568v-6q0 -66 27.5 -123.5t74 -99.5t107 -66.5t125.5 -24.5q66 0 123 24.5t99 66.5t66.5 99.5t24.5 123.5v590q0 27 10 50.5t28 40.5t41.5 27t50.5 10t50.5 -10t41.5 -27t28 -40.5t10 -50.5v-584v-6q0 -79 -20.5 -152t-57.5 -137t-89.5 -116.5t-116 -90t-137 -58
t-152.5 -20.5q-80 0 -154.5 20.5t-140.5 58t-121 90t-94.5 116.5t-61.5 137t-22 152v588q0 27 10 50.5t28 41.5t41.5 28t50.5 10t50.5 -10t41.5 -28t28 -41.5t10 -50.5v-582zM840 1387q-20 -20 -44 -29.5t-49 -9.5t-48.5 9.5t-42.5 29.5q-20 19 -29.5 43.5t-9.5 49.5t9.5 49
t29.5 44l108 108q19 19 43.5 28.5t50 9.5t49.5 -9.5t43 -28.5q20 -20 29.5 -44t9.5 -49t-10 -48.5t-29 -42.5z" />
    <glyph glyph-name="Ubreve" unicode="&#x16c;" horiz-adv-x="1347" 
d="M350 568v-6q0 -66 27.5 -123.5t74 -99.5t107 -66.5t125.5 -24.5q66 0 123 24.5t99 66.5t66.5 99.5t24.5 123.5v590q0 27 10 50.5t28 40.5t41.5 27t50.5 10t50.5 -10t41.5 -27t28 -40.5t10 -50.5v-584v-6q0 -79 -20.5 -152t-57.5 -137t-89.5 -116.5t-116 -90t-137 -58
t-152.5 -20.5q-80 0 -154.5 20.5t-140.5 58t-121 90t-94.5 116.5t-61.5 137t-22 152v588q0 27 10 50.5t28 41.5t41.5 28t50.5 10t50.5 -10t41.5 -28t28 -41.5t10 -50.5v-582zM751 1585q0 38 25 64t63 26t63 -26t25 -64v-4q-1 -49 -20 -92t-51.5 -75t-76 -50.5t-92.5 -18.5
q-50 0 -94 19t-77 51.5t-52 76t-19 93.5q0 19 7 35.5t19 28.5t28 19t34 7q38 0 64 -26t26 -64v-4q2 -24 20 -42t44 -18t45 19t19 45z" />
    <glyph glyph-name="Ucircumflex" unicode="&#xdb;" horiz-adv-x="1347" 
d="M350 568v-6q0 -66 27.5 -123.5t74 -99.5t107 -66.5t125.5 -24.5q66 0 123 24.5t99 66.5t66.5 99.5t24.5 123.5v590q0 27 10 50.5t28 40.5t41.5 27t50.5 10t50.5 -10t41.5 -27t28 -40.5t10 -50.5v-584v-6q0 -79 -20.5 -152t-57.5 -137t-89.5 -116.5t-116 -90t-137 -58
t-152.5 -20.5q-80 0 -154.5 20.5t-140.5 58t-121 90t-94.5 116.5t-61.5 137t-22 152v588q0 27 10 50.5t28 41.5t41.5 28t50.5 10t50.5 -10t41.5 -28t28 -41.5t10 -50.5v-582zM765 1738.07q-12 10.999 -24 17.998q-26 15.999 -55 14q-26 0 -49 -14q-13 -7.99902 -23 -17.998
l-200 -201.988q-24 -23.998 -29.5 -50.9971q-5.5 -26.998 3 -51.4971q8.5 -24.498 27.5 -43.4971t43.5 -27.498t51.5 -3.5q27 5 52 28.998l127 125.993l128 -125.993q24 -23.998 51.5 -28.998q27.5 -4.99902 52 3.5t43.5 27.498t27.5 43.4971q8.5 24.499 3 51.4971
q-5.5 26.999 -29.5 50.9971z" />
    <glyph glyph-name="Udieresis" unicode="&#xdc;" horiz-adv-x="1347" 
d="M350 568v-6q0 -66 27.5 -123.5t74 -99.5t107 -66.5t125.5 -24.5q66 0 123 24.5t99 66.5t66.5 99.5t24.5 123.5v590q0 27 10 50.5t28 40.5t41.5 27t50.5 10t50.5 -10t41.5 -27t28 -40.5t10 -50.5v-584v-6q0 -79 -20.5 -152t-57.5 -137t-89.5 -116.5t-116 -90t-137 -58
t-152.5 -20.5q-80 0 -154.5 20.5t-140.5 58t-121 90t-94.5 116.5t-61.5 137t-22 152v588q0 27 10 50.5t28 41.5t41.5 28t50.5 10t50.5 -10t41.5 -28t28 -41.5t10 -50.5v-582zM735 1505q0 28 11 53.5t30.5 45t44.5 30.5t54 11t54.5 -11t44.5 -30.5t30 -45t11 -53.5
q0 -29 -11 -54.5t-30 -44.5t-44.5 -30t-54.5 -11t-54 11t-44.5 30t-30.5 44.5t-11 54.5zM335 1505q0 28 11 53.5t30 45t44.5 30.5t54.5 11q28 0 53.5 -11t45 -30.5t30.5 -45t11 -53.5q0 -29 -11 -54.5t-30.5 -44.5t-45 -30t-53.5 -11q-29 0 -54.5 11t-44.5 30t-30 44.5
t-11 54.5z" />
    <glyph glyph-name="Ugrave" unicode="&#xd9;" horiz-adv-x="1347" 
d="M350 568v-6q0 -66 27.5 -123.5t74 -99.5t107 -66.5t125.5 -24.5q66 0 123 24.5t99 66.5t66.5 99.5t24.5 123.5v590q0 27 10 50.5t28 40.5t41.5 27t50.5 10t50.5 -10t41.5 -27t28 -40.5t10 -50.5v-584v-6q0 -79 -20.5 -152t-57.5 -137t-89.5 -116.5t-116 -90t-137 -58
t-152.5 -20.5q-80 0 -154.5 20.5t-140.5 58t-121 90t-94.5 116.5t-61.5 137t-22 152v588q0 27 10 50.5t28 41.5t41.5 28t50.5 10t50.5 -10t41.5 -28t28 -41.5t10 -50.5v-582zM631.017 1395q19.999 -20 43.9971 -29.5q23.999 -9.5 48.9971 -9.5q24.999 0 48.4971 9.5
q23.499 9.5 42.4971 29.5q19.999 19 29.499 43.5q9.49902 24.5 9.49902 49.5t-9.49902 49q-9.5 24 -29.499 44l-107.993 108q-18.999 19 -43.4971 28.5q-24.499 9.5 -49.9971 9.5t-49.4971 -9.5q-23.998 -9.5 -42.9971 -28.5q-19.999 -20 -29.498 -44q-9.5 -24 -9.5 -49
t10 -48.5q9.99902 -23.5 28.998 -42.5z" />
    <glyph glyph-name="Uhungarumlaut" unicode="&#x170;" horiz-adv-x="1347" 
d="M350 568v-6q0 -66 27.5 -123.5t74 -99.5t107 -66.5t125.5 -24.5q66 0 123 24.5t99 66.5t66.5 99.5t24.5 123.5v590q0 27 10 50.5t28 40.5t41.5 27t50.5 10t50.5 -10t41.5 -27t28 -40.5t10 -50.5v-584v-6q0 -79 -20.5 -152t-57.5 -137t-89.5 -116.5t-116 -90t-137 -58
t-152.5 -20.5q-80 0 -154.5 20.5t-140.5 58t-121 90t-94.5 116.5t-61.5 137t-22 152v588q0 27 10 50.5t28 41.5t41.5 28t50.5 10t50.5 -10t41.5 -28t28 -41.5t10 -50.5v-582zM555 1351q-17 -17 -37.5 -25.5t-42 -8.5t-42 8.5t-36.5 25.5q-17 16 -25 37t-8 42.5t8 42t25 37.5
l93 93q17 16 38 24.5t42.5 8.5t42 -8.5t36.5 -24.5q17 -17 25.5 -38t8.5 -42t-9 -41.5t-25 -36.5zM909 1351q-17 -17 -37.5 -25.5t-42 -8.5t-42 8.5t-36.5 25.5q-17 16 -25 37t-8 42.5t8 42t25 37.5l93 93q17 16 38 24.5t42.5 8.5t42 -8.5t36.5 -24.5q17 -17 25.5 -38
t8.5 -42t-9 -41.5t-25 -36.5z" />
    <glyph glyph-name="Umacron" unicode="&#x16a;" horiz-adv-x="1347" 
d="M350 568v-6q0 -66 27.5 -123.5t74 -99.5t107 -66.5t125.5 -24.5q66 0 123 24.5t99 66.5t66.5 99.5t24.5 123.5v590q0 27 10 50.5t28 40.5t41.5 27t50.5 10t50.5 -10t41.5 -27t28 -40.5t10 -50.5v-584v-6q0 -79 -20.5 -152t-57.5 -137t-89.5 -116.5t-116 -90t-137 -58
t-152.5 -20.5q-80 0 -154.5 20.5t-140.5 58t-121 90t-94.5 116.5t-61.5 137t-22 152v588q0 27 10 50.5t28 41.5t41.5 28t50.5 10t50.5 -10t41.5 -28t28 -41.5t10 -50.5v-582zM866 1589q24 0 44.5 -9t35.5 -24t24 -35t9 -42q0 -24 -9 -45t-24 -36.5t-35.5 -25t-44.5 -9.5
h-374q-24 0 -44 9.5t-35 25t-23.5 36.5t-8.5 45q0 47 31.5 78.5t79.5 31.5h374z" />
    <glyph glyph-name="Uogonek" unicode="&#x172;" horiz-adv-x="1347" 
d="M350 568v-6q0 -66 27.5 -123.5t74 -99.5t107 -66.5t125.5 -24.5q66 0 123 24.5t99 66.5t66.5 99.5t24.5 123.5v590q0 27 10 50.5t28 40.5t41.5 27t50.5 10t50.5 -10t41.5 -27t28 -40.5t10 -50.5v-584v-6q0 -79 -20.5 -152t-57.5 -137t-89.5 -116.5t-116 -90t-137 -58
t-152.5 -20.5q-80 0 -154.5 20.5t-140.5 58t-121 90t-94.5 116.5t-61.5 137t-22 152v588q0 27 10 50.5t28 41.5t41.5 28t50.5 10t50.5 -10t41.5 -28t28 -41.5t10 -50.5v-582zM957 254q10 10 25 11.5t31.5 -2t32 -11.5t25.5 -18q20 -20 20 -47.5t-20 -48.5l-146 -144
q-2 0 -2 -2q-11 -9 -17.5 -23t-6.5 -29q0 -29 20.5 -49.5t49.5 -20.5t48.5 19.5t21.5 46.5v3q0 34 24.5 58t61.5 24q34 0 58 -24t24 -58v-1q0 -48 -18.5 -91t-50.5 -75t-75 -50.5t-91 -18.5t-90.5 18.5t-74 50.5t-49.5 75t-18 91q0 52 19 95.5t52 74.5z" />
    <glyph glyph-name="Uring" unicode="&#x16e;" horiz-adv-x="1347" 
d="M350 568v-6q0 -66 27.5 -123.5t74 -99.5t107 -66.5t125.5 -24.5q66 0 123 24.5t99 66.5t66.5 99.5t24.5 123.5v590q0 27 10 50.5t28 40.5t41.5 27t50.5 10t50.5 -10t41.5 -27t28 -40.5t10 -50.5v-584v-6q0 -79 -20.5 -152t-57.5 -137t-89.5 -116.5t-116 -90t-137 -58
t-152.5 -20.5q-80 0 -154.5 20.5t-140.5 58t-121 90t-94.5 116.5t-61.5 137t-22 152v588q0 27 10 50.5t28 41.5t41.5 28t50.5 10t50.5 -10t41.5 -28t28 -41.5t10 -50.5v-582zM612 1514q0 -28 19.5 -48t48.5 -20t48.5 20t19.5 48q0 29 -19.5 49t-48.5 20t-48.5 -20t-19.5 -49
zM434 1514q0 51 19.5 96t53 78.5t78.5 52.5t95 19q51 0 96 -19t78.5 -52.5t52.5 -78.5t19 -96q0 -50 -19 -95t-52.5 -79t-78.5 -54t-96 -20q-50 0 -95 20t-78.5 54t-53 79t-19.5 95z" />
    <glyph glyph-name="Utilde" unicode="&#x168;" horiz-adv-x="1347" 
d="M350 568v-6q0 -66 27.5 -123.5t74 -99.5t107 -66.5t125.5 -24.5q66 0 123 24.5t99 66.5t66.5 99.5t24.5 123.5v590q0 27 10 50.5t28 40.5t41.5 27t50.5 10t50.5 -10t41.5 -27t28 -40.5t10 -50.5v-584v-6q0 -79 -20.5 -152t-57.5 -137t-89.5 -116.5t-116 -90t-137 -58
t-152.5 -20.5q-80 0 -154.5 20.5t-140.5 58t-121 90t-94.5 116.5t-61.5 137t-22 152v588q0 27 10 50.5t28 41.5t41.5 28t50.5 10t50.5 -10t41.5 -28t28 -41.5t10 -50.5v-582zM368 1562l28.5 26t47 36.5t63 32.5t75.5 14q43 0 75.5 -14t64.5 -38l13.5 -11t18 -13.5t20.5 -11
t22 -4.5t29.5 9.5t43.5 35.5q2 1 2.5 2t2.5 3q15 15 34 22.5t39 7.5t39 -7.5t34 -22.5q15 -16 22.5 -35t7.5 -38.5t-7.5 -39t-22.5 -35.5l-3 -3l-27 -26t-47 -36.5t-64 -32.5t-77 -14q-42 0 -75 15.5t-65 38.5q-5 3 -12.5 9.5t-17 13t-20.5 11t-22 4.5q-13 0 -31.5 -9.5
t-41.5 -34.5q-1 -2 -5 -6q-15 -15 -34.5 -22.5t-39.5 -7.5t-39.5 7.5t-34.5 22.5t-22.5 34.5t-7.5 39.5t7.5 39.5t22.5 34.5z" />
    <glyph glyph-name="V" unicode="V" horiz-adv-x="1117" 
d="M2 1101q-11 25 -10.5 51t10 48.5t28 41t44.5 28.5q24 10 49 9.5t47.5 -10t40.5 -27t29 -42.5l320 -748l318 748q10 24 28.5 42t41 27.5t47.5 10t50 -9.5t43 -28t27.5 -41t10 -49t-10.5 -51l-436 -1021q-16 -38 -48 -58.5t-70 -21.5h-10l-13 2q-32 5 -58.5 25t-40.5 53z
" />
    <glyph glyph-name="Vsmall" unicode="&#xf776;" horiz-adv-x="904" 
d="M452 415l198 447q11 25 30 43t42.5 27.5t49 9.5t50.5 -10q25 -11 43 -29.5t27.5 -41.5t9.5 -49.5t-10 -51.5l-318 -680q-17 -40 -52 -61t-75 -19q-38 1 -70 21.5t-47 58.5l-318 680q-11 25 -10.5 51.5t10.5 49.5t28 41.5t44 29.5q25 10 50.5 10t48.5 -9.5t41.5 -27.5
t29.5 -43z" />
    <glyph glyph-name="W" unicode="W" horiz-adv-x="1668" 
d="M975 763l133 -311l320 749q10 25 28 42.5t40.5 27t47.5 10t50 -9.5t44 -28t28.5 -41t10 -49t-10.5 -51l-437 -1022q-16 -37 -47.5 -58t-68.5 -22q-41 -2 -76.5 19t-52.5 61l-150 351l-150 -351q-17 -40 -52.5 -61t-76.5 -19q-37 1 -68.5 21.5t-47.5 58.5l-437 1022
q-11 25 -10.5 51t10 48.5t28 41t44.5 28.5q24 10 49 9.5t47 -10t40 -27t29 -42.5l320 -750l322 750q10 24 28.5 42t41.5 27.5t48.5 10t50.5 -9.5t43 -28t27.5 -41t10 -49t-10.5 -51z" />
    <glyph glyph-name="W.alt" horiz-adv-x="1564" 
d="M378 1140.01q0 27.998 -10.5 51.9971t-28.5 41.9971q-18 17.999 -42.5 27.999q-24.5 9.99902 -52.5 9.99902t-52.5 -9.99902q-24.5 -10 -42.5 -27.999q-18 -17.998 -28.5 -41.9971t-10.5 -51.9971v-727.955v-5v-5q0 -82.9941 31.5 -156.49q31.5 -73.4951 85.5 -127.992
q54 -54.4961 127.5 -85.9941t157.5 -31.498q78 0 147 28.498t123 77.4951q54 -48.9971 122 -77.4951t146 -28.498q84 0 157.5 31.498t128.5 85.9941q55 54.4971 86.5 127.992q31.5 73.4961 31.5 156.49v5v5v727.955q0 27.998 -10.5 51.9971t-28.5 41.9971
q-18 17.999 -42.5 27.999q-24.5 9.99902 -52.5 9.99902t-52.5 -9.99902q-24.5 -10 -42.5 -27.999q-18 -17.998 -28.5 -41.9971t-10.5 -51.9971v-725.955v-2v-3q-1 -27.998 -12.5 -51.9971q-11.5 -23.998 -30 -41.4971t-43 -27.498q-24.5 -10 -52.5 -10t-52 10
q-24 9.99902 -41.5 27.998t-27.5 41.9971q-10 23.999 -11 51.9971v171.989q0 27.998 -10.5 52.4971q-10.5 24.498 -28.5 42.4971t-42.5 28.498q-24.5 10.5 -52.5 10.5t-52.5 -10.5q-24.5 -10.499 -42.5 -28.498t-28.5 -42.4971q-10.5 -24.499 -10.5 -52.4971v-167.989
q0 -27.999 -10 -52.9971q-10 -24.999 -28 -43.4971q-18 -18.499 -42.5 -28.998q-24.5 -10.5 -53.5 -10.5q-28 0 -52 10q-24 9.99902 -42.5 27.498t-29.5 41.4971q-11 23.999 -12 51.9971v3v727.955z" />
    <glyph glyph-name="Wacute" unicode="&#x1e82;" horiz-adv-x="1668" 
d="M975 763l133 -311l320 749q10 25 28 42.5t40.5 27t47.5 10t50 -9.5t44 -28t28.5 -41t10 -49t-10.5 -51l-437 -1022q-16 -37 -47.5 -58t-68.5 -22q-41 -2 -76.5 19t-52.5 61l-150 351l-150 -351q-17 -40 -52.5 -61t-76.5 -19q-37 1 -68.5 21.5t-47.5 58.5l-437 1022
q-11 25 -10.5 51t10 48.5t28 41t44.5 28.5q24 10 49 9.5t47 -10t40 -27t29 -42.5l320 -750l322 750q10 24 28.5 42t41.5 27.5t48.5 10t50.5 -9.5t43 -28t27.5 -41t10 -49t-10.5 -51zM1033 1418q-20 -20 -44 -29.5t-49 -9.5t-48.5 9.5t-42.5 29.5q-20 19 -29.5 43.5
t-9.5 49.5t9.5 49t29.5 44l108 108q19 19 43.5 28.5t50 9.5t49.5 -9.5t43 -28.5q20 -20 29.5 -44t9.5 -49t-10 -48.5t-29 -42.5z" />
    <glyph glyph-name="Wcircumflex" unicode="&#x174;" horiz-adv-x="1668" 
d="M975 763l133 -311l320 749q10 25 28 42.5t40.5 27t47.5 10t50 -9.5t44 -28t28.5 -41t10 -49t-10.5 -51l-437 -1022q-16 -37 -47.5 -58t-68.5 -22q-41 -2 -76.5 19t-52.5 61l-150 351l-150 -351q-17 -40 -52.5 -61t-76.5 -19q-37 1 -68.5 21.5t-47.5 58.5l-437 1022
q-11 25 -10.5 51t10 48.5t28 41t44.5 28.5q24 10 49 9.5t47 -10t40 -27t29 -42.5l320 -750l322 750q10 24 28.5 42t41.5 27.5t48.5 10t50.5 -9.5t43 -28t27.5 -41t10 -49t-10.5 -51zM981 1755.07q-12 10.999 -24 17.998q-26 15.999 -55 14q-26 0 -49 -14
q-13 -7.99902 -23 -17.998l-200 -201.988q-24 -23.998 -29.5 -50.9971q-5.5 -26.998 3 -51.4971q8.5 -24.498 27.5 -43.4971t43.5 -27.498t51.5 -3.5q27 5 52 28.998l127 125.993l128 -125.993q24 -23.998 51.5 -28.998q27.5 -4.99902 52 3.5t43.5 27.498t27.5 43.4971
q8.5 24.499 3 51.4971q-5.5 26.999 -29.5 50.9971z" />
    <glyph glyph-name="Wdieresis" unicode="&#x1e84;" horiz-adv-x="1668" 
d="M975 763l133 -311l320 749q10 25 28 42.5t40.5 27t47.5 10t50 -9.5t44 -28t28.5 -41t10 -49t-10.5 -51l-437 -1022q-16 -37 -47.5 -58t-68.5 -22q-41 -2 -76.5 19t-52.5 61l-150 351l-150 -351q-17 -40 -52.5 -61t-76.5 -19q-37 1 -68.5 21.5t-47.5 58.5l-437 1022
q-11 25 -10.5 51t10 48.5t28 41t44.5 28.5q24 10 49 9.5t47 -10t40 -27t29 -42.5l320 -750l322 750q10 24 28.5 42t41.5 27.5t48.5 10t50.5 -9.5t43 -28t27.5 -41t10 -49t-10.5 -51zM975 1529q0 28 11 53.5t30.5 45t44.5 30.5t54 11t54.5 -11t44.5 -30.5t30 -45t11 -53.5
q0 -29 -11 -54.5t-30 -44.5t-44.5 -30t-54.5 -11t-54 11t-44.5 30t-30.5 44.5t-11 54.5zM575 1529q0 28 11 53.5t30 45t44.5 30.5t54.5 11q28 0 53.5 -11t45 -30.5t30.5 -45t11 -53.5q0 -29 -11 -54.5t-30.5 -44.5t-45 -30t-53.5 -11q-29 0 -54.5 11t-44.5 30t-30 44.5
t-11 54.5z" />
    <glyph glyph-name="Wgrave" unicode="&#x1e80;" horiz-adv-x="1668" 
d="M975 763l133 -311l320 749q10 25 28 42.5t40.5 27t47.5 10t50 -9.5t44 -28t28.5 -41t10 -49t-10.5 -51l-437 -1022q-16 -37 -47.5 -58t-68.5 -22q-41 -2 -76.5 19t-52.5 61l-150 351l-150 -351q-17 -40 -52.5 -61t-76.5 -19q-37 1 -68.5 21.5t-47.5 58.5l-437 1022
q-11 25 -10.5 51t10 48.5t28 41t44.5 28.5q24 10 49 9.5t47 -10t40 -27t29 -42.5l320 -750l322 750q10 24 28.5 42t41.5 27.5t48.5 10t50.5 -9.5t43 -28t27.5 -41t10 -49t-10.5 -51zM850.017 1426q19.999 -20 43.9971 -29.5q23.999 -9.5 48.9971 -9.5q24.999 0 48.4971 9.5
q23.499 9.5 42.4971 29.5q19.999 19 29.499 43.5q9.49902 24.5 9.49902 49.5t-9.49902 49q-9.5 24 -29.499 44l-107.993 108q-18.999 19 -43.4971 28.5q-24.499 9.5 -49.9971 9.5t-49.4971 -9.5q-23.998 -9.5 -42.9971 -28.5q-19.999 -20 -29.498 -44q-9.5 -24 -9.5 -49
t10 -48.5q9.99902 -23.5 28.998 -42.5z" />
    <glyph glyph-name="X" unicode="X" horiz-adv-x="1215" 
d="M608 825l367 410q17 20 39 31t45 13t46 -6t43 -26t31 -41.5t13 -48.5t-6 -50t-26 -45l-382 -428l374 -418q19 -21 28 -45.5t9 -49.5t-10 -47.5t-30 -40.5q-21 -18 -45 -26.5t-49 -7t-48 12.5t-41 31l-359 400l-357 -400q-18 -20 -41.5 -31t-48 -12.5t-49 7t-44.5 26.5
t-30 41t-10 47.5t9 49t28 45.5l373 418l-382 428q-18 20 -26 45t-6 50t13 48.5t31 41.5t43 26t46.5 6t45.5 -13t40 -31z" />
    <glyph glyph-name="Xi" unicode="&#x39e;" horiz-adv-x="956" 
d="M147 0q-28 0 -50.5 10.5t-39 28.5t-25.5 42.5t-9 52.5q0 56 34 91t90 35h654q28 0 52 -9.5t42 -26.5t28 -40.5t10 -51.5t-10 -52.5t-28 -42.5t-42 -28t-52 -9h-654zM670 788q28 1 52.5 -9.5t42.5 -28.5t28.5 -42t10.5 -52t-10.5 -51.5t-28.5 -40.5t-42.5 -26.5
t-52.5 -9.5h-385q-28 0 -52 9.5t-42 26t-28 39.5t-10 51t10 52.5t28 42.5t42 28.5t52 10.5h385zM801 1280q28 0 52 -10.5t42 -28.5t28 -42.5t10 -52.5t-10 -51t-28 -39.5t-42 -26t-52 -9.5h-644q-28 0 -52.5 9t-42.5 25.5t-28.5 39.5t-10.5 52q0 27 10.5 51.5t28.5 42.5
t42.5 29t52.5 11h644z" />
    <glyph glyph-name="Y" unicode="Y" horiz-adv-x="1152" 
d="M577 721l366 515q18 20 41 31t47.5 12.5t49 -6t44.5 -25.5q39 -34 45.5 -84.5t-31.5 -100.5l-431 -569v-366q0 -27 -10 -50.5t-28 -40.5t-41.5 -27t-50.5 -10t-50.5 10t-41.5 27t-28 40.5t-10 50.5v365l-435 568q-17 20 -25 44.5t-6 49.5t13 49t32 42q20 18 44.5 26.5
t50 7t48.5 -12.5t40 -33z" />
    <glyph glyph-name="Yacute" unicode="&#xdd;" horiz-adv-x="1152" 
d="M577 721l366 515q18 20 41 31t47.5 12.5t49 -6t44.5 -25.5q39 -34 45.5 -84.5t-31.5 -100.5l-431 -569v-366q0 -27 -10 -50.5t-28 -40.5t-41.5 -27t-50.5 -10t-50.5 10t-41.5 27t-28 40.5t-10 50.5v365l-435 568q-17 20 -25 44.5t-6 49.5t13 49t32 42q20 18 44.5 26.5
t50 7t48.5 -12.5t40 -33zM731 1400q-20 -20 -44 -29.5t-49 -9.5t-48.5 9.5t-42.5 29.5q-20 19 -29.5 43.5t-9.5 49.5t9.5 49t29.5 44l108 108q19 19 43.5 28.5t50 9.5t49.5 -9.5t43 -28.5q20 -20 29.5 -44t9.5 -49t-10 -48.5t-29 -42.5z" />
    <glyph glyph-name="Ycircumflex" unicode="&#x176;" horiz-adv-x="1152" 
d="M577 721l366 515q18 20 41 31t47.5 12.5t49 -6t44.5 -25.5q39 -34 45.5 -84.5t-31.5 -100.5l-431 -569v-366q0 -27 -10 -50.5t-28 -40.5t-41.5 -27t-50.5 -10t-50.5 10t-41.5 27t-28 40.5t-10 50.5v365l-435 568q-17 20 -25 44.5t-6 49.5t13 49t32 42q20 18 44.5 26.5
t50 7t48.5 -12.5t40 -33zM685 1740.07q-12 10.999 -24 17.998q-26 15.999 -55 14q-26 0 -49 -14q-13 -7.99902 -23 -17.998l-200 -201.988q-24 -23.998 -29.5 -50.9971q-5.5 -26.998 3 -51.4971q8.5 -24.498 27.5 -43.4971t43.5 -27.498t51.5 -3.5q27 5 52 28.998
l127 125.993l128 -125.993q24 -23.998 51.5 -28.998q27.5 -4.99902 52 3.5t43.5 27.498t27.5 43.4971q8.5 24.499 3 51.4971q-5.5 26.999 -29.5 50.9971z" />
    <glyph glyph-name="Ydieresis" unicode="&#x178;" horiz-adv-x="1152" 
d="M577 721l366 515q18 20 41 31t47.5 12.5t49 -6t44.5 -25.5q39 -34 45.5 -84.5t-31.5 -100.5l-431 -569v-366q0 -27 -10 -50.5t-28 -40.5t-41.5 -27t-50.5 -10t-50.5 10t-41.5 27t-28 40.5t-10 50.5v365l-435 568q-17 20 -25 44.5t-6 49.5t13 49t32 42q20 18 44.5 26.5
t50 7t48.5 -12.5t40 -33zM660 1474q0 28 11 53.5t30.5 45t44.5 30.5t54 11t54.5 -11t44.5 -30.5t30 -45t11 -53.5q0 -29 -11 -54.5t-30 -44.5t-44.5 -30t-54.5 -11t-54 11t-44.5 30t-30.5 44.5t-11 54.5zM260 1474q0 28 11 53.5t30 45t44.5 30.5t54.5 11q28 0 53.5 -11
t45 -30.5t30.5 -45t11 -53.5q0 -29 -11 -54.5t-30.5 -44.5t-45 -30t-53.5 -11q-29 0 -54.5 11t-44.5 30t-30 44.5t-11 54.5z" />
    <glyph glyph-name="Ygrave" unicode="&#x1ef2;" horiz-adv-x="1152" 
d="M577 721l366 515q18 20 41 31t47.5 12.5t49 -6t44.5 -25.5q39 -34 45.5 -84.5t-31.5 -100.5l-431 -569v-366q0 -27 -10 -50.5t-28 -40.5t-41.5 -27t-50.5 -10t-50.5 10t-41.5 27t-28 40.5t-10 50.5v365l-435 568q-17 20 -25 44.5t-6 49.5t13 49t32 42q20 18 44.5 26.5
t50 7t48.5 -12.5t40 -33zM494.017 1408q19.999 -20 43.9971 -29.5q23.999 -9.5 48.9971 -9.5q24.999 0 48.4971 9.5q23.499 9.5 42.4971 29.5q19.999 19 29.499 43.5q9.49902 24.5 9.49902 49.5t-9.49902 49q-9.5 24 -29.499 44l-107.993 108q-18.999 19 -43.4971 28.5
q-24.499 9.5 -49.9971 9.5t-49.4971 -9.5q-23.998 -9.5 -42.9971 -28.5q-19.999 -20 -29.498 -44q-9.5 -24 -9.5 -49t10 -48.5q9.99902 -23.5 28.998 -42.5z" />
    <glyph glyph-name="Z" unicode="Z" horiz-adv-x="1204" 
d="M176 0q-26 -2 -51.5 5.5t-46.5 27.5q-22 20 -33.5 45t-9.5 52q0 5 0.5 10t1.5 10q2 11 5.5 21t8.5 19q8 15 18 26l685 804h-585q-27 0 -50.5 10t-41 28t-27.5 41.5t-10 50.5t10.5 50.5t28.5 41.5t42.5 28t51.5 10h851q37 -1 69 -22q5 -3 9 -6l9 -7q20 -18 31 -41
t12.5 -47.5t-6 -49t-25.5 -45.5l-680 -802h600q27 0 50.5 -10t40.5 -28t27 -41.5t10 -50.5t-10 -50.5t-27 -41.5t-40.5 -28t-50.5 -10h-867z" />
    <glyph glyph-name="Zacute" unicode="&#x179;" horiz-adv-x="1204" 
d="M176 0q-26 -2 -51.5 5.5t-46.5 27.5q-22 20 -33.5 45t-9.5 52q0 5 0.5 10t1.5 10q2 11 5.5 21t8.5 19q8 15 18 26l685 804h-585q-27 0 -50.5 10t-41 28t-27.5 41.5t-10 50.5t10.5 50.5t28.5 41.5t42.5 28t51.5 10h851q37 -1 69 -22q5 -3 9 -6l9 -7q20 -18 31 -41
t12.5 -47.5t-6 -49t-25.5 -45.5l-680 -802h600q27 0 50.5 -10t40.5 -28t27 -41.5t10 -50.5t-10 -50.5t-27 -41.5t-40.5 -28t-50.5 -10h-867zM737 1432q-20 -20 -44 -29.5t-49 -9.5t-48.5 9.5t-42.5 29.5q-20 19 -29.5 43.5t-9.5 49.5t9.5 49t29.5 44l108 108
q19 19 43.5 28.5t50 9.5t49.5 -9.5t43 -28.5q20 -20 29.5 -44t9.5 -49t-10 -48.5t-29 -42.5z" />
    <glyph glyph-name="Zcaron" unicode="&#x17d;" horiz-adv-x="1204" 
d="M176 0q-26 -2 -51.5 5.5t-46.5 27.5q-22 20 -33.5 45t-9.5 52q0 5 0.5 10t1.5 10q2 11 5.5 21t8.5 19q8 15 18 26l685 804h-585q-27 0 -50.5 10t-41 28t-27.5 41.5t-10 50.5t10.5 50.5t28.5 41.5t42.5 28t51.5 10h851q37 -1 69 -22q5 -3 9 -6l9 -7q20 -18 31 -41
t12.5 -47.5t-6 -49t-25.5 -45.5l-680 -802h600q27 0 50.5 -10t40.5 -28t27 -41.5t10 -50.5t-10 -50.5t-27 -41.5t-40.5 -28t-50.5 -10h-867zM728 1426q-12 -11 -24 -18q-26 -16 -55 -14q-26 0 -49 14q-13 8 -23 18l-200 202q-24 24 -29.5 51t3 51.5t27.5 43.5t43.5 27.5
t51.5 3.5t52 -29l127 -126l128 126q24 24 51.5 29t52 -3.5t43.5 -27.5t27.5 -43.5t3 -51.5t-29.5 -51z" />
    <glyph glyph-name="Zdotaccent" unicode="&#x17b;" horiz-adv-x="1204" 
d="M176 0q-26 -2 -51.5 5.5t-46.5 27.5q-22 20 -33.5 45t-9.5 52q0 5 0.5 10t1.5 10q2 11 5.5 21t8.5 19q8 15 18 26l685 804h-585q-27 0 -50.5 10t-41 28t-27.5 41.5t-10 50.5t10.5 50.5t28.5 41.5t42.5 28t51.5 10h851q37 -1 69 -22q5 -3 9 -6l9 -7q20 -18 31 -41
t12.5 -47.5t-6 -49t-25.5 -45.5l-680 -802h600q27 0 50.5 -10t40.5 -28t27 -41.5t10 -50.5t-10 -50.5t-27 -41.5t-40.5 -28t-50.5 -10h-867zM471 1522q0 31 12 58t32.5 47.5t47.5 32.5t58 12t58 -12t47.5 -32.5t32.5 -47.5t12 -58t-12 -58t-32.5 -47.5t-47.5 -32.5t-58 -12
t-58 12t-47.5 32.5t-32.5 47.5t-12 58z" />
    <glyph glyph-name="aacute" unicode="&#xe1;" horiz-adv-x="1082" 
d="M39 465q0 99 38 185.5t103 151.5t151.5 102.5t184.5 37.5q97 0 183 -37t150.5 -100.5t102.5 -149.5t40 -183v-2v-5v-332q0 -27 -10.5 -51.5t-28.5 -42.5t-42 -28.5t-52 -10.5q-37 0 -65 17t-44 46q-52 -35 -111 -55t-123 -20q-98 0 -184.5 37.5t-151.5 102.5t-103 152
t-38 185zM299 465q0 -45 17.5 -84.5t47 -69t69 -46.5t83.5 -17q45 0 84.5 17t68.5 46.5t46 69t17 84.5t-17 84.5t-46 69t-68.5 46.5t-84.5 17q-44 0 -83.5 -17t-69 -46.5t-47 -69t-17.5 -84.5zM693 1108q-20 -20 -44 -29.5t-49 -9.5t-48.5 9.5t-42.5 29.5q-20 19 -29.5 43.5
t-9.5 49.5t9.5 49t29.5 44l108 108q19 19 43.5 28.5t50 9.5t49.5 -9.5t43 -28.5q20 -20 29.5 -44t9.5 -49t-10 -48.5t-29 -42.5z" />
    <glyph glyph-name="abreve" unicode="&#x103;" horiz-adv-x="1082" 
d="M39 465q0 99 38 185.5t103 151.5t151.5 102.5t184.5 37.5q97 0 183 -37t150.5 -100.5t102.5 -149.5t40 -183v-2v-5v-332q0 -27 -10.5 -51.5t-28.5 -42.5t-42 -28.5t-52 -10.5q-37 0 -65 17t-44 46q-52 -35 -111 -55t-123 -20q-98 0 -184.5 37.5t-151.5 102.5t-103 152
t-38 185zM299 465q0 -45 17.5 -84.5t47 -69t69 -46.5t83.5 -17q45 0 84.5 17t68.5 46.5t46 69t17 84.5t-17 84.5t-46 69t-68.5 46.5t-84.5 17q-44 0 -83.5 -17t-69 -46.5t-47 -69t-17.5 -84.5zM614 1308q0 38 25 64t63 26t63 -26t25 -64v-4q-1 -49 -20 -92t-51.5 -75
t-76 -50.5t-92.5 -18.5q-50 0 -94 19t-77 51.5t-52 76t-19 93.5q0 19 7 35.5t19 28.5t28 19t34 7q38 0 64 -26t26 -64v-4q2 -24 20 -42t44 -18t45 19t19 45z" />
    <glyph glyph-name="acircumflex" unicode="&#xe2;" horiz-adv-x="1082" 
d="M39 465q0 99 38 185.5t103 151.5t151.5 102.5t184.5 37.5q97 0 183 -37t150.5 -100.5t102.5 -149.5t40 -183v-2v-5v-332q0 -27 -10.5 -51.5t-28.5 -42.5t-42 -28.5t-52 -10.5q-37 0 -65 17t-44 46q-52 -35 -111 -55t-123 -20q-98 0 -184.5 37.5t-151.5 102.5t-103 152
t-38 185zM299 465q0 -45 17.5 -84.5t47 -69t69 -46.5t83.5 -17q45 0 84.5 17t68.5 46.5t46 69t17 84.5t-17 84.5t-46 69t-68.5 46.5t-84.5 17q-44 0 -83.5 -17t-69 -46.5t-47 -69t-17.5 -84.5zM593 1439.07q-12 10.999 -24 17.998q-26 15.999 -55 14q-26 0 -49 -14
q-13 -7.99902 -23 -17.998l-200 -201.988q-24 -23.998 -29.5 -50.9971q-5.5 -26.998 3 -51.4971q8.5 -24.498 27.5 -43.4971t43.5 -27.498t51.5 -3.5q27 5 52 28.998l127 125.993l128 -125.993q24 -23.998 51.5 -28.998q27.5 -4.99902 52 3.5t43.5 27.498t27.5 43.4971
q8.5 24.499 3 51.4971q-5.5 26.999 -29.5 50.9971z" />
    <glyph glyph-name="acute" unicode="&#xb4;" horiz-adv-x="458" 
d="M270 1494q-20 -20 -44 -29.5t-49 -9.5t-48.5 9.5t-42.5 29.5q-20 19 -29.5 43.5t-9.5 49.5t9.5 49t29.5 44l108 108q19 19 43.5 28.5t50 9.5t49.5 -9.5t43 -28.5q20 -20 29.5 -44t9.5 -49t-10 -48.5t-29 -42.5z" />
    <glyph glyph-name="adieresis" unicode="&#xe4;" horiz-adv-x="1082" 
d="M39 465q0 99 38 185.5t103 151.5t151.5 102.5t184.5 37.5q97 0 183 -37t150.5 -100.5t102.5 -149.5t40 -183v-2v-5v-332q0 -27 -10.5 -51.5t-28.5 -42.5t-42 -28.5t-52 -10.5q-37 0 -65 17t-44 46q-52 -35 -111 -55t-123 -20q-98 0 -184.5 37.5t-151.5 102.5t-103 152
t-38 185zM299 465q0 -45 17.5 -84.5t47 -69t69 -46.5t83.5 -17q45 0 84.5 17t68.5 46.5t46 69t17 84.5t-17 84.5t-46 69t-68.5 46.5t-84.5 17q-44 0 -83.5 -17t-69 -46.5t-47 -69t-17.5 -84.5zM576 1212q0 28 11 53.5t30.5 45t44.5 30.5t54 11t54.5 -11t44.5 -30.5t30 -45
t11 -53.5q0 -29 -11 -54.5t-30 -44.5t-44.5 -30t-54.5 -11t-54 11t-44.5 30t-30.5 44.5t-11 54.5zM176 1212q0 28 11 53.5t30 45t44.5 30.5t54.5 11q28 0 53.5 -11t45 -30.5t30.5 -45t11 -53.5q0 -29 -11 -54.5t-30.5 -44.5t-45 -30t-53.5 -11q-29 0 -54.5 11t-44.5 30
t-30 44.5t-11 54.5z" />
    <glyph glyph-name="ae" unicode="&#xe6;" horiz-adv-x="1734" 
d="M1023 349q31 -51 80.5 -76.5t109.5 -25.5q40 0 68.5 6.5t50.5 21.5q36 25 68.5 30t61.5 -6q20 -8 36.5 -22.5t27.5 -33.5t16 -41.5t2 -45t-15 -44t-34 -39.5q-19 -15 -44.5 -30.5t-59 -27.5t-77.5 -19.5t-101 -7.5q-68 0 -130 17.5t-116 49.5q-18 -25 -46 -40t-62 -15
q-37 0 -65 17t-44 46q-52 -35 -111 -55t-123 -20q-98 0 -184.5 37.5t-151.5 102.5t-103 152t-38 185q0 99 38 185.5t103 151.5t151.5 102.5t184.5 37.5q103 0 192 -40.5t155 -110.5q66 70 156.5 110.5t193.5 40.5q97 0 184 -36.5t152 -100.5t103.5 -149.5t40.5 -183.5
q0 -55 -35.5 -89t-92.5 -34h-542zM299 465q0 -45 17.5 -84.5t47 -69t69 -46.5t83.5 -17q45 0 84.5 17t68.5 46.5t46 69t17 84.5t-17 84.5t-46 69t-68.5 46.5t-84.5 17q-44 0 -83.5 -17t-69 -46.5t-47 -69t-17.5 -84.5zM1426 565q-27 60 -81.5 88.5t-126.5 28.5t-124.5 -30.5
t-78.5 -86.5h411z" />
    <glyph glyph-name="aeacute" unicode="&#x1fd;" horiz-adv-x="1734" 
d="M1010 1063q-20 -20 -44 -29.5t-49 -9.5t-48.5 9.5t-42.5 29.5q-20 19 -29.5 43.5t-9.5 49.5t9.5 49t29.5 44l108 108q19 19 43.5 28.5t50 9.5t49.5 -9.5t43 -28.5q20 -20 29.5 -44t9.5 -49t-10 -48.5t-29 -42.5zM1023 349q31 -51 80.5 -76.5t109.5 -25.5q40 0 68.5 6.5
t50.5 21.5q36 25 68.5 30t61.5 -6q20 -8 36.5 -22.5t27.5 -33.5t16 -41.5t2 -45t-15 -44t-34 -39.5q-19 -15 -44.5 -30.5t-59 -27.5t-77.5 -19.5t-101 -7.5q-68 0 -130 17.5t-116 49.5q-18 -25 -46 -40t-62 -15q-37 0 -65 17t-44 46q-52 -35 -111 -55t-123 -20
q-98 0 -184.5 37.5t-151.5 102.5t-103 152t-38 185q0 99 38 185.5t103 151.5t151.5 102.5t184.5 37.5q103 0 192 -40.5t155 -110.5q66 70 156.5 110.5t193.5 40.5q97 0 184 -36.5t152 -100.5t103.5 -149.5t40.5 -183.5q0 -55 -35.5 -89t-92.5 -34h-542zM299 465
q0 -45 17.5 -84.5t47 -69t69 -46.5t83.5 -17q45 0 84.5 17t68.5 46.5t46 69t17 84.5t-17 84.5t-46 69t-68.5 46.5t-84.5 17q-44 0 -83.5 -17t-69 -46.5t-47 -69t-17.5 -84.5zM1426 565q-27 60 -81.5 88.5t-126.5 28.5t-124.5 -30.5t-78.5 -86.5h411z" />
    <glyph glyph-name="afii10018" unicode="&#x411;" horiz-adv-x="1149" 
d="M244 0q-28 0 -52.5 10t-42.5 28t-28.5 42t-10.5 52v1014q0 31 13 57.5t36 44.5q17 14 37.5 22.5t43.5 9.5h4h2h5h587q28 0 52 -10t42 -28t28 -41.5t10 -50.5q0 -28 -10 -51.5t-28 -41t-42 -27.5t-52 -10h-468v-233h304q82 0 153.5 -32t124.5 -86.5t83.5 -127t30.5 -153.5
t-30.5 -152t-83.5 -123.5t-124.5 -82.5t-153.5 -30h-430zM370 527v-267h300q27 0 51.5 11t43.5 30t30 45t11 56t-11 53.5t-30 39t-43.5 24t-51.5 8.5h-300z" />
    <glyph glyph-name="afii10021" unicode="&#x414;" horiz-adv-x="1312" 
d="M160 260q0 2 1 2l16 -2h303q-17 -96 -64 -158t-136 -86v-16h-128q-27 0 -50.5 10t-41.5 27.5t-28.5 40.5t-11.5 50v4q0 27 10.5 50.5t28.5 41.5t42.5 28t52.5 10h7q17 0 29.5 13.5t21.5 33.5t13.5 44t5.5 45v748q0 44 25 78q9 14 22 24t28 18l12 6l7 2l17 4h5q8 2 13 2h5
h5h632h4h1q27 0 50.5 -10.5t41 -28t27.5 -41t10 -50.5v-889q4 1 12 1q24 0 46 -8.5t39 -23t28 -34.5t15 -43q1 -4 1.5 -7.5t0.5 -8.5v-5v-6v-290q0 -27 -10 -50.5t-28 -41.5t-41.5 -28t-50.5 -10q-28 0 -51.5 10t-41 28t-27.5 41.5t-10 50.5v164h-7h-5h-726v-164
q0 -27 -10 -50.5t-27 -41.5t-40.5 -28t-50.5 -10t-51 10t-42 28t-28.5 41.5t-10.5 50.5v292v6q0 27 10 50t28 40t42 26.5t52 9.5h8zM491 392q-1 -36 -3.5 -69t-7.5 -63h396v760h-385v-622v-6zM161 2q-5 0 -7.5 17.5t-3 44.5t0 59t2 60.5t3.5 49.5t4 27h17q45 -8 74 -44
t29 -84v-116q-26 -8 -55.5 -11t-63.5 -3z" />
    <glyph glyph-name="afii10024" unicode="&#x416;" horiz-adv-x="1758" 
d="M1607 1280q28 0 52 -10t42 -28t28 -41.5t10 -50.5q0 -28 -10 -51.5t-28 -41t-42 -27.5t-52 -10h-55l-308 -342l407 -452q20 -20 29.5 -45t9 -50.5t-10.5 -50.5t-30 -44q-19 -19 -41.5 -27t-45.5 -6.5t-45.5 12t-41.5 30.5l-474 524v-435q0 -28 -9.5 -52.5t-26 -42.5
t-39.5 -28.5t-51 -10.5t-52.5 10t-42.5 28t-28.5 42t-10.5 52v437l-469 -529q-19 -20 -41 -30t-45 -11t-45.5 7.5t-41.5 27.5q-20 20 -30 45t-10 51t9 51t29 45l404 456l-306 338h-46q-27 0 -50.5 10t-41.5 28t-28 41.5t-10 50.5t10 50.5t28 41.5t41.5 28t50.5 10h112
q7 0 10 -1q24 -1 45.5 -10t37.5 -27q6 -7 11 -14l309 -358h67v275q0 28 10.5 52t28.5 42t42.5 28t52.5 10t51 -10t39.5 -27.5t26 -41t9.5 -51.5v-275h78l309 352q11 16 24 26q21 18 46 24q18 6 39 6h110z" />
    <glyph glyph-name="afii10025" unicode="&#x417;" horiz-adv-x="923" 
d="M465 769h5h9q24 0 45 10.5t37 28t25 40.5t9 48q0 24 -10 46t-27 39t-39 27.5t-45 11.5h-316q-28 0 -52.5 9.5t-42.5 26t-28.5 39.5t-10.5 51t10.5 52.5t28.5 42.5t42.5 28.5t52.5 10.5h304h5h7q79 0 148.5 -30t121.5 -82.5t82 -123t30 -150.5q0 -75 -24.5 -139.5
t-69.5 -115.5q45 -51 69.5 -115.5t24.5 -139.5q0 -80 -30 -149.5t-82 -122t-121.5 -82.5t-148.5 -30h-316q-28 0 -52.5 10.5t-42.5 28.5t-28.5 42.5t-10.5 52.5t10.5 51t28.5 39.5t42.5 26t52.5 9.5h318q25 0 46.5 10.5t38 28t26 40t9.5 47.5t-9 47t-25 38.5t-37.5 26.5
t-46.5 10h-158q-28 0 -55.5 10t-49.5 27.5t-35.5 41t-13.5 51.5t10.5 52t28.5 41.5t42.5 27.5t52.5 10h165z" />
    <glyph glyph-name="afii10029" unicode="&#x41b;" horiz-adv-x="1337" 
d="M-1 128q0 28 10.5 51.5t28.5 40.5t42 26.5t51 9.5h5q38 0 63.5 8t41.5 25t23 43.5t7 65.5v748q0 27 10 51.5t27 42.5t40.5 28.5t50.5 11.5h4h2h5h695h6q19 0 37 -6q2 0 3 -0.5t2 -0.5q40 -14 66 -48t26 -79v-1014q0 -28 -10.5 -52.5t-28.5 -42.5t-42.5 -28.5t-52.5 -10.5
t-51 10.5t-39.5 28.5t-26 42.5t-9.5 52.5v888h-454v-622q0 -94 -26.5 -168t-77 -125.5t-123.5 -79.5t-166 -29h-2h-5q-27 0 -51 10.5t-42 28.5t-28.5 42t-10.5 51z" />
    <glyph glyph-name="afii10031" unicode="&#x41d;" horiz-adv-x="1359" 
d="M370 768h619v384q0 27 10.5 50.5t28.5 40.5t42 27t51 10t50.5 -10t40.5 -27t27 -40.5t10 -50.5v-1024q0 -27 -10 -50.5t-28 -40.5t-41.5 -27t-50.5 -10t-50.5 10t-41.5 27t-28 40.5t-10 50.5v380h-619v-380q0 -27 -10 -50.5t-28 -40.5t-41.5 -27t-50.5 -10t-50.5 10
t-41.5 27t-28 40.5t-10 50.5v1024q0 27 10 50.5t28 40.5t41.5 27t50.5 10t50.5 -10t41.5 -27t28 -40.5t10 -50.5v-384z" />
    <glyph glyph-name="afii10033" unicode="&#x41f;" horiz-adv-x="1288" 
d="M1044 1280h2q28 0 52 -10.5t42 -28.5t28 -42.5t10 -52.5v-6v-1008q0 -28 -10.5 -52t-28.5 -42t-42.5 -28t-52.5 -10t-51 10t-39.5 28t-26 42t-9.5 52v888h-548v-888q0 -28 -9.5 -52t-26 -42t-39.5 -28t-51 -10t-52.5 10t-42.5 28t-28.5 42t-10.5 52v1008v6q0 28 10 52.5
t28 42.5t42 28.5t52 10.5h796h6z" />
    <glyph glyph-name="afii10037" unicode="&#x423;" horiz-adv-x="966" 
d="M484 727l209 473q11 25 30 43t42.5 27.5t49 9.5t50.5 -10q25 -11 43 -29.5t27.5 -41.5t9.5 -49.5t-10 -51.5l-316 -679l-20 -45q-47 -100 -88.5 -171t-87.5 -117.5t-101 -69.5t-129 -27q-4 -1 -8 -1h-9q-27 0 -51 8t-42 23t-28.5 36.5t-10.5 48.5q0 28 10.5 52.5
t28.5 42.5t42 28.5t51 10.5h5q38 0 61 9t38.5 27t28.5 44.5l31 62.5l12 31l-319 686q-11 25 -10.5 51.5t10.5 49.5t28 41.5t44 29.5q25 10 50.5 10t48.5 -9.5t41.5 -27.5t29.5 -43z" />
    <glyph glyph-name="afii10038" unicode="&#x424;" horiz-adv-x="1190" 
d="M716 1141q97 -17 182 -58.5t148 -104.5t99.5 -147t36.5 -185q0 -102 -36.5 -185.5t-99.5 -146.5t-148 -104.5t-182 -58.5v-19q0 -28 -10.5 -52t-28.5 -42t-42.5 -28t-52.5 -10t-52.5 10t-42.5 28t-28.5 42t-10.5 52v21q-95 18 -178 59.5t-145 104.5t-97.5 146t-35.5 183
t35.5 182.5t97.5 145.5t145 105t178 60v9q0 28 10.5 52t28.5 42t42.5 28t52.5 10t52.5 -10t42.5 -28t28.5 -42t10.5 -52v-7zM922 646q0 46 -16 83.5t-44 66t-65.5 48.5t-80.5 31v-459q43 11 80.5 30.5t65.5 48t44 66.5t16 85zM252 646q0 -46 15 -82.5t41.5 -64.5t62.5 -48
t77 -32v453q-41 -12 -77 -32t-62.5 -48t-41.5 -64.5t-15 -81.5z" />
    <glyph glyph-name="afii10040" unicode="&#x426;" horiz-adv-x="1356" 
d="M370 260h563v886q0 28 9.5 52.5t26 42.5t39.5 28.5t51 10.5t52.5 -10.5t42.5 -28.5t28.5 -42.5t10.5 -52.5v-886h7q45 0 78.5 -23.5t46.5 -61.5q1 -1 1 -2t1 -3q2 -6 3 -12t1 -13q0 -2 0.5 -3t0.5 -3v-5v-6v-240q0 -28 -10 -52t-28 -42t-41.5 -28t-50.5 -10
q-28 0 -51.5 10t-41 28t-27.5 42t-10 52v112h-13h-6h-807h-2q-28 0 -52.5 10t-42.5 28t-28.5 42.5t-10.5 53.5v1012q0 28 10.5 52.5t28.5 42.5t42.5 28.5t52.5 10.5t51 -10.5t39.5 -28.5t26 -42.5t9.5 -52.5v-886z" />
    <glyph glyph-name="afii10041" unicode="&#x427;" horiz-adv-x="1173" 
d="M67 1152q0 27 9.5 50.5t27 40.5t41 27t50.5 10t51 -10t42 -27t28.5 -40.5t10.5 -50.5v-352v-6q0 -47 17.5 -88.5t48 -72.5t72 -49t88.5 -18t92 18t80 49t56 72.5t21 88.5v354q0 27 10 50.5t27.5 41.5t41 28t50.5 10q28 0 52 -10t42 -28t28 -41.5t10 -50.5v-1018
q0 -28 -10.5 -52t-28.5 -42t-42 -28t-51 -10t-50.5 10t-41 28t-27.5 42t-10 52v253q-60 -36 -123.5 -55.5t-125.5 -19.5q-101 0 -189.5 38t-154.5 104t-104 154.5t-38 189.5v4v2v352z" />
    <glyph glyph-name="afii10042" unicode="&#x428;" horiz-adv-x="1734" 
d="M370 260h380v888q0 28 9.5 52t26.5 42t40.5 28t51.5 10t52 -10t42 -28t28 -42t10 -52v-888h354v881q0 28 9.5 53t26 44t39.5 30.5t51 11.5t52.5 -10t42.5 -28t28.5 -42t10.5 -52v-1016q0 -28 -10.5 -52t-29.5 -42q-18 -19 -42 -29t-52 -9h-614h-6h-621h-5h-6q-7 0 -11 1
q-25 3 -46.5 14t-37 28.5t-24.5 40t-9 48.5v2v5v1009q0 28 10.5 52t28.5 42t42.5 28t52.5 10t51 -10t39.5 -28t26 -42t9.5 -52v-888z" />
    <glyph glyph-name="afii10043" unicode="&#x429;" horiz-adv-x="1761" 
d="M1624 260q15 -2 30 -6q40 -11 65.5 -43.5t26.5 -77.5v-1v-6v-238q0 -28 -10 -52t-28 -42t-41.5 -28t-50.5 -10q-28 0 -52 10t-42 28t-28 42t-10 52v112h-603h-5h-6h-626h-6q-27 1 -50 11.5t-40.5 28.5t-27.5 41.5t-10 50.5v2v5v1009q0 28 10.5 52t28.5 42t42.5 28
t52.5 10t51 -10t39.5 -28t26 -42t9.5 -52v-888h380v888q0 28 9.5 52t26.5 42t40.5 28t51.5 10t52 -10t42 -28t28 -42t10 -52v-888h354v881q0 28 9.5 53t26 44t39.5 30.5t51 11.5t52.5 -10t42.5 -28t28.5 -42t10.5 -52v-888z" />
    <glyph glyph-name="afii10044" unicode="&#x42a;" horiz-adv-x="1232" 
d="M420 1280h6q56 0 91 -35t35 -91v-8v-6v-368h284q79 0 149 -31.5t122.5 -85.5t82.5 -125t30 -150q0 -80 -30 -149t-82.5 -120.5t-122.5 -81t-149 -29.5h-410q-28 0 -52.5 10t-42.5 28t-28.5 42t-10.5 52v888h-158q-28 0 -52.5 9.5t-42.5 26t-28.5 39.5t-10.5 51t10.5 52.5
t28.5 42.5t42.5 28.5t52.5 10.5h286zM552 512v-252h279q24 0 47 11.5t41.5 30.5t29.5 42.5t11 47.5q0 25 -11 46.5t-29.5 38t-41.5 26t-47 9.5h-279z" />
    <glyph glyph-name="afii10045" unicode="&#x42b;" horiz-adv-x="1586" 
d="M244 0q-28 0 -52.5 10t-42.5 28t-28.5 42t-10.5 52v1014q0 28 10.5 52.5t28.5 42.5t42.5 28.5t52.5 10.5q56 0 91 -35t35 -91v-382h284q79 0 149 -31.5t122.5 -85.5t82.5 -125t30 -150q0 -80 -30 -149t-82.5 -120.5t-122.5 -81t-149 -29.5h-410zM1214 1144q0 27 10 50.5
t28 41.5t41.5 28t50.5 10t51 -10t42 -28t28.5 -41.5t10.5 -50.5v-1012q0 -27 -10.5 -50.5t-28.5 -41.5t-42.5 -28t-52.5 -10q-27 0 -50.5 10t-40.5 28t-27 41.5t-10 50.5v1012zM370 512v-252h282q24 0 47 11.5t41.5 30.5t29.5 42.5t11 47.5q0 25 -11 46.5t-29.5 38t-41.5 26
t-47 9.5h-282z" />
    <glyph glyph-name="afii10046" unicode="&#x42c;" horiz-adv-x="1061" 
d="M244 0q-28 0 -52.5 10t-42.5 28t-28.5 42t-10.5 52v1014q0 28 10.5 52.5t28.5 42.5t42.5 28.5t52.5 10.5q56 0 91 -35t35 -91v-382h284q79 0 149 -31.5t122.5 -85.5t82.5 -125t30 -150q0 -80 -30 -149t-82.5 -120.5t-122.5 -81t-149 -29.5h-410zM370 512v-252h282
q24 0 47 11.5t41.5 30.5t29.5 42.5t11 47.5q0 25 -11 46.5t-29.5 38t-41.5 26t-47 9.5h-282z" />
    <glyph glyph-name="afii10047" unicode="&#x42d;" horiz-adv-x="1195" 
d="M253 366q60 -60 129.5 -89.5t145.5 -28.5q64 0 121.5 21t105 57t82.5 84.5t54 105.5h-360q-28 0 -52 10t-42 28t-28 41.5t-10 50.5t10 50.5t28 41.5t42 28t52 10h355q-22 55 -59 101.5t-84.5 80t-103.5 52.5t-115 19q-75 0 -146 -32t-128 -89q-19 -19 -43.5 -28.5t-50 -9
t-50.5 10.5t-44 30q-19 19 -28.5 43.5t-9.5 49.5t9.5 49t28.5 43q97 97 216 145t245 48q90 0 173.5 -24.5t155.5 -68.5t131 -105t101 -133.5t65 -154.5t23 -167q0 -89 -24 -172t-67 -155t-102.5 -131t-131 -101t-152.5 -65.5t-166 -23.5q-127 -1 -247.5 46.5t-217.5 144.5
q-19 19 -29 43t-10 49t9.5 49t29.5 43q19 18 43.5 27.5t50.5 10t51 -8t44 -26.5z" />
    <glyph glyph-name="afii10048" unicode="&#x42e;" horiz-adv-x="1869" 
d="M1144 1289q90 0 173 -23.5t155 -65.5t131 -101.5t101 -132t65 -155.5t23 -173q0 -135 -51 -253t-138.5 -206.5t-205.5 -139.5t-253 -51q-119 0 -224.5 39.5t-190 108.5t-142.5 164t-80 206h-137v-374q0 -28 -9.5 -52.5t-26 -42.5t-39.5 -28.5t-51 -10.5t-52.5 10.5
t-42.5 28.5t-28.5 42.5t-10.5 52.5v498v6v5v503q0 28 10.5 52.5t28.5 42.5t42.5 28.5t52.5 10.5t51 -10.5t39.5 -28.5t26 -42.5t9.5 -52.5v-378h136q22 112 80 207.5t142.5 165.5t190.5 110t225 40zM1144 1029q-80 0 -151 -31.5t-124 -85t-84 -124.5t-31 -150q0 -81 31 -152
t84 -124t124 -83.5t151 -30.5t150.5 30.5t123.5 83.5t83.5 124t30.5 152q0 79 -30.5 150t-83.5 124.5t-123.5 85t-150.5 31.5z" />
    <glyph glyph-name="afii10050" unicode="&#x490;" horiz-adv-x="877" 
d="M249 1280h357v146q0 27 10.5 50.5t28.5 41.5t42.5 28t52.5 10q27 0 50 -10t40 -28t26.5 -41.5t9.5 -50.5v-275v-5v-2q0 -33 -14.5 -59t-38.5 -42l-6 -3l-6 -4q-30 -16 -67 -16h-364v-888q0 -28 -9.5 -52.5t-26 -42.5t-39.5 -28.5t-51 -10.5t-52.5 10.5t-42.5 28.5
t-28.5 42.5t-10.5 52.5v1008v6v5q1 26 11.5 49t27.5 40.5t40 28t49 11.5h6h5z" />
    <glyph glyph-name="afii10051" unicode="&#x402;" horiz-adv-x="1086" 
d="M611 0q-27 0 -51 10.5t-42 28.5t-28.5 42t-10.5 51t10.5 51t28.5 42t42 28.5t51 10.5h5q38 0 65 7t44.5 23t25.5 42.5t8 65.5v75v3q1 26 12 48t28.5 38t40.5 25t49 9q25 0 47.5 -8.5t40.5 -24t29 -37t13 -46.5v-2v-5q-1 -26 -12 -42t-28.5 -25t-40.5 -12t-49 -3
t-49.5 2.5t-41.5 11t-28.5 24.5t-10.5 42v5q-1 42 -14.5 79t-37.5 64.5t-58.5 43t-76.5 15.5t-78 -14t-63 -39t-43.5 -60t-17.5 -76v-364q0 -27 -10 -50.5t-27.5 -41t-41 -27.5t-50.5 -10t-51 10t-42 27.5t-28 41t-10 50.5v849h-14q-27 0 -50 8.5t-40.5 24.5t-27.5 37.5
t-10 48.5t10 48.5t27.5 36.5t40.5 23t50 8h31q17 30 47 48.5t67 18.5q36 0 65.5 -18.5t46.5 -48.5h206q26 0 49 -8.5t40 -24t27 -37t10 -48.5t-10 -48.5t-27 -37t-40 -24t-49 -7.5h-189v-101q45 31 96 48t106 17q94 0 175.5 -35t141 -96.5t94 -145.5t36.5 -181v-2v-1v-81
q0 -94 -28 -167.5t-79.5 -125t-126 -79t-167.5 -28.5h-2h-5zM759 475v2l260 4v-4z" />
    <glyph glyph-name="afii10052" unicode="&#x403;" horiz-adv-x="1010" 
d="M250 1280h638q28 0 52 -10.5t42 -28.5t28 -42.5t10 -52.5t-10 -51t-28 -39.5t-42 -26t-52 -9.5h-517v-888q0 -28 -9.5 -52.5t-26 -42.5t-39.5 -28.5t-51 -10.5t-52.5 10.5t-42.5 28.5t-28.5 42.5t-10.5 52.5v1008v6q0 45 25.5 79t65.5 48q2 0 3 0.5t2 0.5q5 2 10.5 3
l10.5 2q5 0 8.5 0.5t8.5 0.5h5zM697 1418q-20 -20 -44 -29.5t-49 -9.5t-48.5 9.5t-42.5 29.5q-20 19 -29.5 43.5t-9.5 49.5t9.5 49t29.5 44l108 108q19 19 43.5 28.5t50 9.5t49.5 -9.5t43 -28.5q20 -20 29.5 -44t9.5 -49t-10 -48.5t-29 -42.5z" />
    <glyph glyph-name="afii10053" unicode="&#x404;" horiz-adv-x="1195" 
d="M1121 1096q19 -19 28.5 -43t9.5 -49t-9.5 -49.5t-28.5 -43.5q-20 -20 -44.5 -30t-50 -10.5t-50 9t-43.5 28.5q-57 57 -128 89t-146 32q-60 0 -116 -19t-103.5 -52.5t-84.5 -80t-58 -101.5h355q28 0 52 -10t42 -28t28 -41.5t10 -50.5t-10 -50.5t-28 -41.5t-42 -28t-52 -10
h-361q19 -57 54.5 -105.5t82.5 -84.5t105 -57t122 -21q76 -1 145.5 28.5t129.5 89.5q19 18 44 26.5t51 8t50.5 -10t43.5 -27.5q19 -19 29 -43t10 -49t-10 -49t-29 -43q-97 -97 -217.5 -144.5t-247.5 -46.5q-85 0 -166 23.5t-152.5 65.5t-131 101t-102.5 131t-67 154.5
t-24 172.5q0 85 23 167t65 154.5t101 133.5t131 105t155.5 68.5t173.5 24.5q126 0 245 -48t216 -145z" />
    <glyph glyph-name="afii10057" unicode="&#x408;" 
d="M-80 6q-27 0 -51 10.5t-42 28.5t-28.5 42t-10.5 51q0 28 10.5 52.5t28.5 42.5t42 28.5t51 10.5h6q39 1 72.5 17t58 42t39 61t14.5 74v680q0 28 10.5 52.5t28.5 42.5t42.5 28.5t52.5 10.5t51 -10.5t39.5 -28.5t26 -42.5t9.5 -52.5v-682v-6v-2q-2 -92 -36.5 -173.5
t-94 -142.5t-139.5 -97t-172 -37h-2h-6v0z" />
    <glyph glyph-name="afii10058" unicode="&#x409;" horiz-adv-x="1947" 
d="M28 128q0 28 10.5 52.5t28.5 42.5t42 28.5t51 10.5h5q38 0 63.5 7t41.5 22.5t23 41.5t7 65v748v8t1 8q3 24 13.5 45.5t27.5 37t39 25t47 10.5h6h5h691h5q3 0 6 -0.5t5 -0.5l10.5 -2t10.5 -3q2 0 3 -0.5t2 -0.5q40 -14 66 -48t26 -79v-6v-368h276q79 0 149 -31.5
t122.5 -85.5t82.5 -125t30 -150q0 -80 -30 -149t-82.5 -120.5t-122.5 -81t-149 -29.5h-405h-5q-28 0 -51 10t-39.5 28t-26 42t-9.5 52v888h-444v-622v-6v-2q-1 -92 -28 -164.5t-77.5 -123t-123 -78t-164.5 -28.5h-2h-5q-27 0 -51 10.5t-42 28.5t-28.5 42t-10.5 51zM1264 512
v-252h278q24 0 46 11.5t39 30.5t27 42.5t10 47.5q0 25 -10 46.5t-27 38t-39 26t-46 9.5h-278z" />
    <glyph glyph-name="afii10059" unicode="&#x40a;" horiz-adv-x="1809" 
d="M370 770h496v376q0 28 9.5 52.5t26 42.5t39.5 28.5t51 10.5t52.5 -10.5t42.5 -28.5t28.5 -42.5t10.5 -52.5v-374h276q79 0 149 -31.5t122.5 -85.5t82.5 -125t30 -150q0 -80 -30 -149t-82.5 -120.5t-122.5 -81t-149 -29.5h-410q-28 0 -51 10t-39.5 28t-26 42t-9.5 52v378
h-496v-378q0 -28 -9.5 -52t-26 -42t-39.5 -28t-51 -10t-52.5 10t-42.5 28t-28.5 42t-10.5 52v1014q0 28 11 52.5t29.5 42.5t43 28.5t52.5 10.5t50.5 -10.5t39 -28.5t25.5 -42.5t9 -52.5v-376zM1126 504v-234h274q24 0 46 10t39 27t27 39t10 46q0 25 -10 45.5t-27 35.5
t-39 23t-46 8h-274z" />
    <glyph glyph-name="afii10060" unicode="&#x40b;" horiz-adv-x="1234" 
d="M457 1021v-135q51 27 107 41.5t117 14.5q99 0 187 -37.5t154 -102.5t104.5 -152.5t40.5 -186.5v-7v-326q0 -27 -10 -50.5t-28 -41.5t-41.5 -28t-50.5 -10t-50.5 10t-41.5 28t-28 41.5t-10 50.5v326v5q-1 45 -19.5 85t-49.5 70.5t-71.5 48t-85.5 17.5q-43 0 -83 -21
t-70.5 -55.5t-49.5 -77.5t-21 -88v-310q0 -27 -10 -50.5t-27 -41.5t-40.5 -28t-50.5 -10t-51 10t-42 28t-28.5 41.5t-10.5 50.5v891h-68q-24 0 -45.5 12t-37.5 31t-25 43t-9 48t9 47t25 40t37.5 27.5t45.5 10.5h489q24 0 45 -10.5t36.5 -28.5t24.5 -41t9 -47t-9 -48
t-24.5 -43t-36.5 -30t-45 -11h-161z" />
    <glyph glyph-name="afii10061" unicode="&#x40c;" horiz-adv-x="1218" 
d="M700 1413q-20 -20 -44 -29.5t-49 -9.5t-48.5 9.5t-42.5 29.5q-20 19 -29.5 43.5t-9.5 49.5t9.5 49t29.5 44l108 108q19 19 43.5 28.5t50 9.5t49.5 -9.5t43 -28.5q20 -20 29.5 -44t9.5 -49t-10 -48.5t-29 -42.5zM370 830h66l322 396l8 9l7 9q18 17 41 26q12 5 25 7.5
t27 2.5h110q28 0 52 -10t42 -28t28 -41.5t10 -50.5q0 -28 -10 -51.5t-28 -41t-42 -27.5t-52 -10h-59l-305 -374l408 -420q20 -20 29.5 -45t9 -50.5t-10.5 -50.5t-30 -44q-19 -19 -41.5 -27t-45.5 -6.5t-45.5 12t-41.5 30.5l-474 487v-398q0 -28 -9.5 -52.5t-26 -42.5
t-39.5 -28.5t-51 -10.5t-52.5 10t-42.5 28t-28.5 42t-10.5 52v1016q0 28 10.5 52t28.5 42t42.5 28t52.5 10t51 -10t39.5 -27.5t26 -41t9.5 -51.5v-320z" />
    <glyph glyph-name="afii10062" unicode="&#x40e;" horiz-adv-x="960" 
d="M579 1615q0 38 25 64t63 26t63 -26t25 -64v-4q-1 -49 -20 -92t-51.5 -75t-76 -50.5t-92.5 -18.5q-50 0 -94 19t-77 51.5t-52 76t-19 93.5q0 19 7 35.5t19 28.5t28 19t34 7q38 0 64 -26t26 -64v-4q2 -24 20 -42t44 -18t45 19t19 45zM484 727l209 473q11 25 30 43
t42.5 27.5t49 9.5t50.5 -10q25 -11 43 -29.5t27.5 -41.5t9.5 -49.5t-10 -51.5l-316 -679l-20 -45q-47 -100 -88.5 -171t-87.5 -117.5t-101 -69.5t-129 -27q-4 -1 -8 -1h-9q-27 0 -51 8t-42 23t-28.5 36.5t-10.5 48.5q0 28 10.5 52.5t28.5 42.5t42 28.5t51 10.5h5q38 0 61 9
t38.5 27t28.5 44.5l31 62.5l12 31l-319 686q-11 25 -10.5 51.5t10.5 49.5t28 41.5t44 29.5q25 10 50.5 10t48.5 -9.5t41.5 -27.5t29.5 -43z" />
    <glyph glyph-name="afii10065.small" horiz-adv-x="1042" 
d="M20 465q0 99 38 185.5t103 151.5t151.5 102.5t184.5 37.5q97 0 183 -37t150.5 -100.5t102.5 -149.5t40 -183v-2v-5v-332q0 -27 -10.5 -51.5t-28.5 -42.5t-42 -28.5t-52 -10.5q-37 0 -65 17t-44 46q-52 -35 -111 -55t-123 -20q-98 0 -184.5 37.5t-151.5 102.5t-103 152
t-38 185zM280 465q0 -45 17.5 -84.5t47 -69t69 -46.5t83.5 -17q45 0 84.5 17t68.5 46.5t46 69t17 84.5t-17 84.5t-46 69t-68.5 46.5t-84.5 17q-44 0 -83.5 -17t-69 -46.5t-47 -69t-17.5 -84.5z" />
    <glyph glyph-name="afii10066" unicode="&#x431;" horiz-adv-x="999" 
d="M671 1289q27 0 50.5 -9.5t41.5 -26t28 -39.5t10 -50q0 -28 -10 -52.5t-28 -43t-41.5 -29t-50.5 -10.5h-136q-41 0 -80 -8.5t-72 -25.5t-57.5 -43t-36.5 -60q48 24 101 37t110 13q99 0 185.5 -37.5t151 -102.5t102 -151.5t37.5 -185.5q0 -98 -37.5 -185t-102 -152
t-151 -102.5t-185.5 -37.5q-96 0 -182 36.5t-150.5 100t-103.5 148t-41 180.5v9v358v5v7q0 106 40.5 190.5t110 143.5t162.5 91t199 32h136zM283 462v-6q1 -43 19 -81t47.5 -66t68.5 -44.5t82 -16.5q45 0 84.5 17t68.5 46.5t46 69t17 84.5t-17 84.5t-46 69t-68.5 46.5
t-84.5 17q-43 0 -81.5 -16t-68 -44.5t-47.5 -66.5t-20 -81v-9v-3z" />
    <glyph glyph-name="afii10067" unicode="&#x432;" horiz-adv-x="899" 
d="M238 0q-27 0 -50.5 10t-40.5 27t-27 40t-10 49v678q0 27 10 50t27.5 40t41 26.5t49.5 9.5h304q54 0 106.5 -17t93.5 -50.5t66.5 -83.5t25.5 -117q0 -51 -22 -93t-58 -74q57 -35 89.5 -89t32.5 -120q0 -65 -24 -117.5t-66 -90t-98.5 -58t-121.5 -20.5h-324h-4zM370 371
v-122h202q32 0 50 14.5t18 42.5t-17.5 46.5t-50.5 18.5h-202zM370 688v-126h164q10 0 21.5 3t21 10t15.5 19.5t6 30.5t-6 30.5t-15 19.5t-20 10t-21 3h-166z" />
    <glyph glyph-name="afii10068" unicode="&#x433;" horiz-adv-x="815" 
d="M672 930q28 1 52.5 -9.5t42.5 -28.5t28.5 -42t10.5 -52t-10.5 -51.5t-28.5 -40.5t-42.5 -26.5t-52.5 -9.5h-302v-538q0 -28 -9.5 -52.5t-26 -42.5t-39.5 -28.5t-51 -10.5t-52.5 10.5t-42.5 28.5t-28.5 42.5t-10.5 52.5v658v6v5q1 27 11.5 51t28.5 41t42.5 27t51.5 10h428
z" />
    <glyph glyph-name="afii10069" unicode="&#x434;" horiz-adv-x="1120" 
d="M1084 -74q0 -27 -10 -50.5t-28 -41.5t-41.5 -28t-50.5 -10q-28 0 -51.5 10t-41 28t-27.5 41.5t-10 50.5v74h-536v-74q0 -27 -10 -50.5t-27 -41.5t-40.5 -28t-50.5 -10t-51 10t-42 28t-28.5 41.5t-10.5 50.5v202v6v3q1 38 21.5 68t53.5 44q29 13 59 13q16 0 26 13.5t15 34
t6.5 44t1.5 44.5v398q0 41 24 76q2 4 5 7t6 7l2 2q32 35 80 41q3 0 6 0.5t5 0.5h6h471h4h1q44 -1 76 -26.5t43 -65.5q3 -8 4 -17l2 -18v-3v-2v-536h8q27 0 50.5 -10t41.5 -28t28 -41.5t10 -50.5v-206zM470 387q-1 -70 -17 -127h233v410h-215v-272q0 -3 -0.5 -5.5t-0.5 -5.5z
" />
    <glyph glyph-name="afii10070.small" horiz-adv-x="1018" 
d="M299 349q31 -51 80.5 -76.5t109.5 -25.5q40 0 68.5 6.5t50.5 21.5q36 25 68.5 30t61.5 -6q20 -8 36.5 -22.5t27.5 -33.5t16 -41.5t2 -45t-15 -44t-34 -39.5q-19 -15 -44.5 -30.5t-59 -27.5t-77.5 -19.5t-101 -7.5q-99 0 -186 37.5t-152.5 102.5t-103.5 151.5t-38 185.5
t38 186t103.5 151.5t152.5 102t186 37.5q97 0 184 -36.5t152 -100.5t103.5 -149.5t40.5 -183.5q0 -55 -35.5 -89t-92.5 -34h-542zM702 565q-27 60 -81.5 88.5t-126.5 28.5t-124.5 -30.5t-78.5 -86.5h411z" />
    <glyph glyph-name="afii10072" unicode="&#x436;" horiz-adv-x="1592" 
d="M662 308l-55 45l-287 -313q-39 -41 -88 -41.5t-88 37.5q-20 19 -30 42.5t-10.5 48.5t8.5 49t28 44l271 295l-187 155h-76q-28 0 -52 10t-42 28t-28 41.5t-10 50.5t10 50.5t28 41.5t42 28t52 10h107q24 2 48 -6.5t46 -28.5l313 -258v163q0 27 10 50.5t27 41.5t40.5 28
t50.5 10t51 -10t42 -28t28.5 -41.5t10.5 -50.5v-162l312 257q21 20 45 28.5t49 6.5h107q28 0 52 -10t42 -28t28 -41.5t10 -50.5q0 -28 -10 -51.5t-28 -41t-42 -27.5t-52 -10h-76l-187 -155l272 -295q19 -20 28 -44t8.5 -49t-11 -48.5t-29.5 -42.5q-39 -38 -88 -37.5
t-88 41.5l-288 313l-54 -45v-178q0 -27 -10 -50.5t-28 -41.5t-42 -28t-52 -10q-27 0 -50.5 10t-40.5 28t-27 41.5t-10 50.5v178z" />
    <glyph glyph-name="afii10073" unicode="&#x437;" horiz-adv-x="842" 
d="M64 144q-36 47 -31 99t50 90q16 13 40.5 20t50 5t50.5 -14.5t43 -36.5l5 -7q9 -12 16.5 -20t16 -12.5t19.5 -6t28 -1.5h6h140h3q18 0 32.5 14.5t14.5 37.5q0 22 -14.5 25.5t-32.5 3.5h-89q-28 0 -52.5 9.5t-42.5 26.5t-28.5 40t-10.5 51t10.5 52t28.5 42t42.5 28.5
t52.5 10.5h70h5q17 0 29 6t12 27q0 20 -11 34.5t-31 13.5h-2h-112h-6q-33 -1 -50.5 -10.5t-34.5 -32.5l-4 -6q-18 -25 -42 -38.5t-49.5 -17t-49 2.5t-39.5 20q-23 19 -36 43t-16 50.5t4 53t25 49.5q22 30 51.5 56.5t66.5 46.5t81.5 31.5t98.5 11.5h132h2h5
q61 -2 111.5 -23.5t87.5 -59t57.5 -89t20.5 -112.5q0 -57 -20 -102.5t-55 -77.5q44 -32 69.5 -80.5t25.5 -111.5t-22.5 -115.5t-62.5 -90.5t-94 -59t-117 -21h-9h-5h-140h-6q-52 1 -95 12.5t-79 31t-64 45.5t-50 55z" />
    <glyph glyph-name="afii10074" unicode="&#x438;" horiz-adv-x="1086" 
d="M68 796q0 28 10 52.5t28 42.5t42 28.5t52 10.5t51.5 -10.5t40.5 -28.5t26.5 -42.5t9.5 -52.5v-338l366 420q12 15 32 28q32 24 74 24q28 0 52.5 -10.5t42.5 -28.5t28.5 -42.5t10.5 -52.5v-662q0 -28 -10 -52.5t-28 -42.5t-42 -28.5t-52 -10.5t-51.5 10.5t-40.5 28.5
t-26.5 42.5t-9.5 52.5v336l-366 -418q-17 -21 -43 -36q-29 -16 -63 -16q-28 0 -52.5 10.5t-42.5 28.5t-28.5 42.5t-10.5 52.5v662z" />
    <glyph glyph-name="afii10075" unicode="&#x439;" horiz-adv-x="1086" 
d="M68 796q0 28 10 52.5t28 42.5t42 28.5t52 10.5t51.5 -10.5t40.5 -28.5t26.5 -42.5t9.5 -52.5v-338l366 420q12 15 32 28q32 24 74 24q28 0 52.5 -10.5t42.5 -28.5t28.5 -42.5t10.5 -52.5v-662q0 -28 -10 -52.5t-28 -42.5t-42 -28.5t-52 -10.5t-51.5 10.5t-40.5 28.5
t-26.5 42.5t-9.5 52.5v336l-366 -418q-17 -21 -43 -36q-29 -16 -63 -16q-28 0 -52.5 10.5t-42.5 28.5t-28.5 42.5t-10.5 52.5v662zM607 1283q0 38 25 64t63 26t63 -26t25 -64q0 -50 -19 -93.5t-51.5 -76t-76.5 -51.5t-93 -19q-50 0 -94 19t-77 51.5t-52 76t-19 93.5
q0 19 7 35.5t19 28.5t28 19t34 7q38 0 64 -26t26 -64q0 -26 18.5 -45t45.5 -19q25 0 43.5 18t20.5 42v4z" />
    <glyph glyph-name="afii10076" unicode="&#x43a;" horiz-adv-x="941" 
d="M370 646l299 246q11 11 26 20l9 5l12 5q28 9 55 8h101q28 0 52 -10t42 -28t28 -41.5t10 -50.5q0 -28 -10 -51.5t-28 -41t-42 -27.5t-52 -10h-78l-179 -149l277 -301q19 -20 28 -44t8.5 -49t-11 -48.5t-29.5 -42.5q-39 -38 -88 -37.5t-88 41.5l-293 319l-49 -40v-189
q0 -27 -10 -50.5t-27 -41.5t-40.5 -28t-50.5 -10q-28 0 -52 10t-42 28t-28 41.5t-10 50.5v670q0 27 10.5 50.5t28.5 41.5t42 28t51 10t50.5 -10t40.5 -28t27 -41.5t10 -50.5v-154z" />
    <glyph glyph-name="afii10077" unicode="&#x43b;" horiz-adv-x="1597" 
d="M940 930q29 0 54.5 -11.5t43.5 -31.5q16 -17 25.5 -38.5t10.5 -47.5v-5v-195h210q61 0 114 -26.5t92 -70t61.5 -100t22.5 -116.5t-22.5 -112.5t-61.5 -91.5t-92 -61.5t-114 -22.5h-339h-5q-28 0 -51 10t-39.5 28t-25.5 42t-9 52v538h-283v-250v-2v-16q0 -94 -26.5 -168
t-77 -125.5t-123 -79.5t-165.5 -29h-3h-5q-27 0 -51 10.5t-42 28.5t-28.5 42t-10.5 51q0 28 10.5 52.5t28.5 42.5t42 28.5t51 10.5h5q38 0 64 7t41.5 23t22.5 42.5t7 65.5v10v6v378q0 28 11 52t29.5 42t43 28t52.5 10h2h530zM1074 341v-81h203q11 0 24 9t13 32q0 18 -7.5 29
t-29.5 11h-203z" />
    <glyph glyph-name="afii10078" unicode="&#x43c;" horiz-adv-x="1253" 
d="M370 496v-362q0 -28 -9.5 -52.5t-26 -42.5t-39.5 -28.5t-51 -10.5t-52.5 10.5t-42.5 28.5t-28.5 42.5t-10.5 52.5v661v13q-2 36 33 74q7 9 15 14q19 18 43 26.5t48.5 7.5t48 -10.5t42.5 -28.5l284 -291l289 291q29 29 66 36.5t72 -5.5q25 -8 44 -24t31 -38q10 -16 13 -34
q2 -7 3 -14t1 -15v-665q0 -28 -10.5 -52t-28.5 -42t-42.5 -28t-52.5 -10t-51 10t-39.5 28t-26 42t-9.5 52v369l-166 -174q-31 -31 -71.5 -39t-76.5 11q-26 11 -45 31z" />
    <glyph glyph-name="afii10079" unicode="&#x43d;" horiz-adv-x="992" 
d="M302 608h324v188q0 28 9.5 52.5t26 42.5t39.5 28.5t51 10.5t52.5 -10.5t42.5 -28.5t28.5 -42.5t10.5 -52.5v-664q0 -28 -10.5 -52t-28.5 -42t-42.5 -28t-52.5 -10t-51 10t-39.5 28t-26 42t-9.5 52v216h-324v-216q0 -28 -9.5 -52t-26 -42t-39.5 -28t-51 -10t-52.5 10
t-42.5 28t-28.5 42t-10.5 52v664q0 28 11 52.5t29.5 42.5t43 28.5t52.5 10.5t50.5 -10.5t39 -28.5t25.5 -42.5t9 -52.5v-188z" />
    <glyph glyph-name="afii10082" unicode="&#x440;" horiz-adv-x="1072" 
d="M80 465q0 99 38 185.5t103 151.5t151.5 102.5t184.5 37.5q99 0 185.5 -37.5t151 -102.5t102 -151.5t37.5 -185.5q0 -98 -37.5 -185t-102 -152t-151 -102.5t-185.5 -37.5q-59 0 -113.5 13.5t-103.5 39.5v-243q0 -29 -9 -53.5t-26 -43t-40.5 -29t-51.5 -10.5
q-27 0 -51.5 10.5t-42.5 29t-28.5 43t-10.5 53.5v667zM340 465q0 -45 17.5 -84.5t47 -69t69 -46.5t83.5 -17q45 0 84.5 17t68.5 46.5t46 69t17 84.5t-17 84.5t-46 69t-68.5 46.5t-84.5 17q-44 0 -83.5 -17t-69 -46.5t-47 -69t-17.5 -84.5z" />
    <glyph glyph-name="afii10082.small" horiz-adv-x="1046" 
d="M-8 465q0 99 38 185.5t103 151.5t151.5 102.5t184.5 37.5q99 0 185.5 -37.5t151 -102.5t102 -151.5t37.5 -185.5q0 -98 -37.5 -185t-102 -152t-151 -102.5t-185.5 -37.5q-59 0 -113.5 13.5t-103.5 39.5v-243q0 -29 -9 -53.5t-26 -43t-40.5 -29t-51.5 -10.5
q-27 0 -51.5 10.5t-42.5 29t-28.5 43t-10.5 53.5v667zM252 465q0 -45 17.5 -84.5t47 -69t69 -46.5t83.5 -17q45 0 84.5 17t68.5 46.5t46 69t17 84.5t-17 84.5t-46 69t-68.5 46.5t-84.5 17q-44 0 -83.5 -17t-69 -46.5t-47 -69t-17.5 -84.5z" />
    <glyph glyph-name="afii10083" unicode="&#x441;" horiz-adv-x="911" 
d="M487 682q-42 -2 -79.5 -22t-65 -50.5t-43.5 -68.5t-16 -76q0 -37 16 -74.5t43.5 -68.5t65 -51.5t79.5 -21.5q40 -2 76 8.5t76 41.5q20 15 43 30t48.5 21t54.5 -1t61 -34q21 -18 31.5 -42.5t9.5 -51t-12.5 -53.5t-34.5 -50q-63 -63 -148.5 -96.5t-180.5 -33.5
q-101 0 -190 36.5t-155 100t-104.5 150t-38.5 187.5t38.5 188.5t104.5 152.5t155 102t190 37q96 0 181 -32t148 -95q23 -23 34.5 -50t12.5 -54t-9.5 -51.5t-31.5 -42.5q-32 -28 -61 -34.5t-54.5 0t-48.5 21.5t-43 30q-40 30 -76 40t-76 8z" />
    <glyph glyph-name="afii10085" unicode="&#x443;" horiz-adv-x="1086" 
d="M340 450v-1q0 -43 15.5 -79.5t43 -63.5t65 -42t80.5 -15q42 0 78.5 16t63.5 43.5t43 64.5t17 79v5v1v343q0 27 11 50.5t29 41t42 27.5t51 10t50 -10t40.5 -27.5t27 -41t9.5 -50.5v-343v-2v-4q0 -79 -25 -151t-70 -130.5t-106.5 -101t-133.5 -63.5v-213q0 -28 -10 -52
t-27.5 -41.5t-41 -27.5t-50.5 -10q-28 0 -52 10t-41.5 27.5t-27.5 41.5t-10 52v215q-72 22 -132.5 64.5t-104.5 101t-69 129.5t-25 149v349q0 27 10 50.5t27.5 41t41 27.5t50.5 10t50.5 -10t41.5 -27.5t28.5 -41t10.5 -50.5v-351z" />
    <glyph glyph-name="afii10085.small" horiz-adv-x="1026" 
d="M640 -174q0 -28 -10 -52t-28 -42t-41.5 -28t-50.5 -10t-51 10t-42 28t-28.5 42t-10.5 52v292q0 27 10.5 50.5t28.5 41.5t42.5 28t52.5 10q27 0 50.5 -10t40.5 -28t27 -41.5t10 -50.5v-292zM317 450q0 -43 15.5 -80t43.5 -64t65 -42.5t81 -15.5q43 0 77 15.5t57.5 43.5
t36 65t12.5 81v348q0 27 11 50.5t29 41t42 27.5t51 10t50 -10t40 -27.5t27 -41t10 -50.5v-343q0 -97 -33 -182.5t-91.5 -149.5t-140 -101t-178.5 -37q-96 0 -180.5 36.5t-148 99.5t-100 147.5t-36.5 180.5v349q0 27 10 50.5t27.5 41t41 27.5t50.5 10t50.5 -10t41.5 -27.5
t28.5 -41t10.5 -50.5v-351z" />
    <glyph glyph-name="afii10086" unicode="&#x444;" horiz-adv-x="1692" 
d="M976 -170q0 -27 -10 -50.5t-27 -41.5t-40.5 -28t-50.5 -10q-28 0 -52 10t-42 28t-28 41.5t-10 50.5v183q-32 -11 -65 -17.5t-65 -6.5q-98 0 -184.5 37.5t-151.5 102t-103 151.5t-38 185q0 99 38 185.5t103 151.5t151.5 102.5t184.5 37.5q32 0 64.5 -6.5t65.5 -17.5v230
q0 28 10.5 52t28.5 42t42 28t51 10t50.5 -10t40.5 -28t27 -42t10 -52v-230q33 11 65.5 17.5t64.5 6.5q98 0 184.5 -37.5t151.5 -102.5t103 -151.5t38 -185.5q0 -98 -38 -185t-103 -151.5t-151.5 -102t-184.5 -37.5q-32 0 -65 6.5t-65 17.5v-183zM1106 680q-28 0 -65.5 -10.5
t-64.5 -32.5v-344q23 -20 59.5 -31.5t70.5 -11.5q44 0 83.5 17t69 46t46.5 68t17 84t-17 84t-46.5 68.5t-69 46t-83.5 16.5zM716 637q-27 22 -64.5 32.5t-65.5 10.5q-44 0 -83.5 -16.5t-69 -46t-46.5 -68.5t-17 -84t17 -84t46.5 -68t69 -46t83.5 -17q34 0 70.5 11.5
t59.5 31.5v344z" />
    <glyph glyph-name="afii10087" unicode="&#x445;" horiz-adv-x="1004" 
d="M502 641l254 249q19 19 43 29t49 11t49 -8t43 -28t28 -43t8 -49t-11 -48.5t-28 -42.5l-253 -249l245 -240q19 -19 28.5 -43t9.5 -49.5t-9.5 -49.5t-28.5 -42q-20 -19 -44 -28.5t-48.5 -9t-48.5 10t-42 27.5l-247 242l-248 -243q-19 -19 -42 -28.5t-47.5 -9.5t-48 9.5
t-42.5 28.5q-19 18 -28.5 41.5t-9.5 48t9.5 48t28.5 42.5l246 242l-257 252q-18 18 -27.5 41.5t-9 48.5t10 49t29.5 43q19 19 42.5 28.5t48 9.5t48.5 -9.5t43 -28.5z" />
    <glyph glyph-name="afii10088" unicode="&#x446;" horiz-adv-x="1139" 
d="M977 259h10h5h2q46 0 80 -28t44 -71q0 -3 1 -5q0 -4 1 -7q0 -4 0.5 -8t0.5 -8v-213q0 -27 -10 -49.5t-27.5 -38t-40.5 -24.5t-49 -9q-27 0 -51 10t-42 27t-29 40t-11 50v75h-5h-5h-607h-8.5t-8.5 1q-25 3 -46.5 14t-37 28.5t-24.5 40t-9 48.5v2v5v657q0 28 10.5 52.5
t28.5 42.5t42.5 28.5t52.5 10.5t51 -10.5t39.5 -28.5t26 -42.5t9.5 -52.5v-537h347v537q0 28 10.5 52.5t28.5 42.5t42.5 28.5t52.5 10.5t51 -10.5t39.5 -28.5t26 -42.5t9.5 -52.5v-537z" />
    <glyph glyph-name="afii10089" unicode="&#x447;" horiz-adv-x="985" 
d="M28 798q0 28 10 52t28 42t41.5 28t50.5 10q28 0 51.5 -10t41 -28t27.5 -42t10 -52v-154q0 -46 12 -87t36 -72t58.5 -49t79.5 -18q91 0 137.5 56.5t46.5 164.5v159q0 28 10 52t27 42t40.5 28t50.5 10q28 0 52 -10t42 -28t28 -42t10 -52v-668q0 -27 -10.5 -50.5
t-28.5 -41.5t-42 -28t-51 -10t-50.5 10t-40.5 28t-27 41.5t-10 50.5v76q-40 -23 -85.5 -35.5t-98.5 -12.5q-101 0 -183 38t-140.5 104t-90.5 154.5t-32 189.5v154z" />
    <glyph glyph-name="afii10090" unicode="&#x448;" horiz-adv-x="1474" 
d="M1402 132q0 -5 -0.5 -8.5t-0.5 -8.5q-5 -50 -39.5 -82.5t-85.5 -32.5h-6h-2h-270h-11h-226h-6h-506h-5q-28 0 -52.5 10t-42.5 28t-28.5 42t-10.5 52v2v5v657q0 28 10.5 52.5t28.5 42.5t42.5 28.5t52.5 10.5t51 -10.5t39.5 -28.5t26 -42.5t9.5 -52.5v-536h257v536
q0 28 10.5 52.5t28.5 42.5t42.5 28.5t52.5 10.5t51 -10.5t39.5 -28.5t26 -42.5t9.5 -52.5v-536h255v536q0 28 10.5 52.5t28.5 42.5t42.5 28.5t52.5 10.5t51 -10.5t39.5 -28.5t26 -42.5t9.5 -52.5v-664z" />
    <glyph glyph-name="afii10091" unicode="&#x449;" horiz-adv-x="1566" 
d="M1402 260h10h1h6q46 0 80 -28t44 -72q0 -3 1 -5q0 -4 1 -7q0 -2 0.5 -5t0.5 -6v-5v-6v-207q0 -27 -10 -49.5t-27.5 -38t-40.5 -24.5t-49 -9q-27 0 -51 10t-42 27t-29 40t-11 50v75h-5h-5h-6h-272h-11h-738h-5q-28 0 -52.5 10t-42.5 28t-28.5 42t-10.5 52v2v5v657
q0 28 10.5 52.5t28.5 42.5t42.5 28.5t52.5 10.5t51 -10.5t39.5 -28.5t26 -42.5t9.5 -52.5v-536h257v536q0 28 10.5 52.5t28.5 42.5t42.5 28.5t52.5 10.5t51 -10.5t39.5 -28.5t26 -42.5t9.5 -52.5v-536h255v536q0 28 10.5 52.5t28.5 42.5t42.5 28.5t52.5 10.5t51 -10.5
t39.5 -28.5t26 -42.5t9.5 -52.5v-536z" />
    <glyph glyph-name="afii10092" unicode="&#x44a;" horiz-adv-x="1078" 
d="M400 0q-28 0 -52.5 10t-42.5 28t-28.5 42t-10.5 52v538h-138q-27 0 -50.5 10t-41.5 28t-28 42t-10 52q0 27 10 50.5t28 40.5t41.5 27t50.5 10h266h5h3q56 0 90 -37t34 -93v-6v-193h218q61 0 114 -26.5t92 -70t61.5 -100t22.5 -116.5t-22.5 -112.5t-61.5 -91.5t-92 -61.5
t-114 -22.5h-344zM526 341v-81h211q11 0 24 9t13 32q0 18 -7.5 29t-29.5 11h-211z" />
    <glyph glyph-name="afii10093" unicode="&#x44b;" horiz-adv-x="1368" 
d="M1256 130q0 -27 -10 -50.5t-27 -41.5t-40.5 -28t-50.5 -10t-51 10t-42 28t-28.5 41.5t-10.5 50.5v670q0 27 10.5 50.5t28.5 41.5t42.5 28t52.5 10q27 0 50 -10t40 -28t26.5 -41.5t9.5 -50.5v-670zM244 0q-28 0 -52.5 10t-42.5 28t-28.5 42t-10.5 52v666q0 28 9.5 52
t27 42t41 28t51.5 10t52 -10t41.5 -27.5t27.5 -41t10 -51.5v-199h218q61 0 114 -26.5t92 -70t61.5 -100t22.5 -116.5t-22.5 -112.5t-61.5 -91.5t-92 -61.5t-114 -22.5h-344zM370 341v-81h211q11 0 24 9t13 32q0 18 -7.5 29t-29.5 11h-211z" />
    <glyph glyph-name="afii10094" unicode="&#x44c;" horiz-adv-x="933" 
d="M244 0q-28 0 -52.5 10t-42.5 28t-28.5 42t-10.5 52v666q0 28 9.5 52t27 42t41 28t51.5 10t52 -10t41.5 -27.5t27.5 -41t10 -51.5v-199h218q61 0 114 -26.5t92 -70t61.5 -100t22.5 -116.5t-22.5 -112.5t-61.5 -91.5t-92 -61.5t-114 -22.5h-344zM370 341v-81h211q11 0 24 9
t13 32q0 18 -7.5 29t-29.5 11h-211z" />
    <glyph glyph-name="afii10095" unicode="&#x44d;" horiz-adv-x="911" 
d="M583 591q-29 39 -72 65t-97 26q-32 0 -67 -9t-75 -39q-20 -15 -43 -30t-48.5 -21.5t-54.5 0t-61 34.5q-21 18 -31.5 42.5t-10 51.5t12.5 54t35 50q63 63 148 95t181 32q100 0 189 -37t155 -102t105 -152.5t39 -187.5q0 -101 -38.5 -187.5t-104.5 -150.5t-155 -100.5
t-190 -36.5q-95 0 -180.5 33.5t-148.5 96.5q-23 23 -34.5 50t-12.5 53.5t9.5 51t31.5 42.5q32 27 61 34t54.5 1t48.5 -21t43 -30q40 -31 74.5 -41t77.5 -10q52 0 95 29t71 72h-242q-28 0 -52 9t-42 25.5t-28 39t-10 50.5q0 27 10 49t28 37t42 23.5t52 8.5h235z" />
    <glyph glyph-name="afii10096" unicode="&#x44e;" horiz-adv-x="1467" 
d="M370 614h139q24 71 68 131.5t103.5 104t131 68t150.5 24.5q99 0 185.5 -37.5t151 -102.5t102 -151.5t37.5 -185.5q0 -98 -37.5 -185t-102 -152t-151 -102.5t-185.5 -37.5q-84 0 -159.5 28t-137 77t-105 116t-62.5 145h-128v-224q0 -27 -10 -50.5t-27 -41.5t-40.5 -28
t-50.5 -10t-51 10t-42 28t-28.5 41.5t-10.5 50.5v670q0 27 10.5 50.5t28.5 41.5t42.5 28t52.5 10q27 0 50 -10t40 -28t26.5 -41.5t9.5 -50.5v-186zM745 465q0 -45 17.5 -84.5t47 -69t69 -46.5t83.5 -17q45 0 84.5 17t68.5 46.5t46 69t17 84.5t-17 84.5t-46 69t-68.5 46.5
t-84.5 17q-44 0 -83.5 -17t-69 -46.5t-47 -69t-17.5 -84.5z" />
    <glyph glyph-name="afii10097" unicode="&#x44f;" horiz-adv-x="918" 
d="M128 34q-19 19 -28 42.5t-9 48.5t9.5 49t29.5 44l70 70q-69 46 -110.5 119t-41.5 165q0 76 29 141.5t78.5 113.5t116.5 75.5t144 27.5h252h6q28 0 52.5 -10.5t42.5 -29t28.5 -43t10.5 -52.5v-663q0 -28 -10.5 -52.5t-28.5 -42.5t-42.5 -28.5t-52.5 -10.5t-51 10.5
t-39.5 28.5t-26 42.5t-9.5 52.5v94h-54l-190 -192q-39 -39 -88 -39t-88 39zM308 580q0 -45 29.5 -69.5t74.5 -24.5h136v184h-126q-23 0 -43.5 -5.5t-36 -17t-25 -28.5t-9.5 -39z" />
    <glyph glyph-name="afii10098" unicode="&#x491;" horiz-adv-x="783" 
d="M765 796q0 -28 -10 -51t-28 -39.5t-41.5 -25.5t-50.5 -9h-4h-2l-302 -2v-535q0 -28 -9.5 -52.5t-26 -42.5t-39.5 -28.5t-51 -10.5t-52.5 10.5t-42.5 28.5t-28.5 42.5t-10.5 52.5v656v6v2q0 25 9 48t24.5 40t37 28.5t46.5 14.5q3 0 6 0.5t5 0.5h6h5h299v143q0 28 10 52
t28 42t41.5 28t50.5 10t50.5 -10t41.5 -28t28 -42t10 -52v-277z" />
    <glyph glyph-name="afii10099" unicode="&#x452;" horiz-adv-x="1284" 
d="M1217 -18q0 -88 -29 -158.5t-81 -119.5t-125 -75.5t-160 -26.5h-5q-29 0 -54.5 10.5t-44 29t-29 43t-10.5 53.5t10.5 54t28.5 43.5t43 29.5t54 11q30 0 56 4.5t45 15.5t30 29t11 45v484q0 47 -17.5 88.5t-47.5 72.5t-71 49t-88 18q-46 0 -86.5 -17t-71 -46.5t-48.5 -69.5
t-20 -86v-333q0 -27 -10 -50.5t-27 -41.5t-40.5 -28t-50.5 -10q-28 0 -52 10t-42 28t-28 41.5t-10 50.5v890h-146q-23 0 -43 12.5t-35 32t-24 43.5t-9 47t9 45.5t24 40t35 28.5t43 11h618q23 0 43 -11t35 -28.5t23.5 -40t8.5 -45.5t-8.5 -47.5t-23.5 -44t-35 -32t-43 -11.5
h-212v-135q51 27 107.5 42t118.5 15q100 0 188.5 -38.5t154 -105t103.5 -155.5t38 -189v-472v0z" />
    <glyph glyph-name="afii10100" unicode="&#x453;" horiz-adv-x="970" 
d="M685 1104q-20 -20 -44 -29.5t-49 -9.5t-48.5 9.5t-42.5 29.5q-20 19 -29.5 43.5t-9.5 49.5t9.5 49t29.5 44l108 108q19 19 43.5 28.5t50 9.5t49.5 -9.5t43 -28.5q20 -20 29.5 -44t9.5 -49t-10 -48.5t-29 -42.5zM672 930q28 1 52.5 -9.5t42.5 -28.5t28.5 -42t10.5 -52
t-10.5 -51.5t-28.5 -40.5t-42.5 -26.5t-52.5 -9.5h-302v-538q0 -28 -9.5 -52.5t-26 -42.5t-39.5 -28.5t-51 -10.5t-52.5 10.5t-42.5 28.5t-28.5 42.5t-10.5 52.5v658v6v5q1 27 11.5 51t28.5 41t42.5 27t51.5 10h428z" />
    <glyph glyph-name="afii10101" unicode="&#x454;" horiz-adv-x="911" 
d="M285 349q26 -40 67.5 -67t92.5 -29q40 -2 76 6.5t76 39.5q20 15 43 30t48.5 21t54.5 -1t61 -34q21 -18 31.5 -42.5t9.5 -51t-12.5 -53.5t-34.5 -50q-63 -63 -148.5 -96t-180.5 -33q-101 0 -189.5 36t-155 100t-105 150t-38.5 187t38.5 189t104.5 153t155 102.5t190 37.5
q96 0 181 -33t148 -96q23 -23 34.5 -50t12.5 -54t-9.5 -51.5t-31.5 -42.5q-32 -28 -61 -34.5t-54.5 0t-48.5 21.5t-43 30q-40 30 -76 39t-76 7q-49 -2 -88.5 -27t-66.5 -62h231q28 0 52 -8.5t42 -23.5t28 -37t10 -49q0 -28 -10 -50.5t-28 -39t-42 -25.5t-52 -9h-236z" />
    <glyph glyph-name="afii10103.small" horiz-adv-x="352" 
d="M51 1159q0 29 11 54.5t30 44t44 29.5t54 11q28 0 53.5 -11t45 -29.5t30.5 -44t11 -54.5t-11 -54t-30.5 -44t-45 -30t-53.5 -11q-29 0 -54 11t-44 30t-30 44t-11 54zM321 129q0 -27 -10 -50.5t-27.5 -41t-41 -27.5t-50.5 -10t-50.5 10t-41.5 27.5t-28.5 41t-10.5 50.5v672
q0 27 10.5 50.5t28.5 41t42.5 27.5t51.5 10t50 -10t40.5 -27.5t27 -41t9.5 -50.5v-672z" />
    <glyph glyph-name="afii10104" unicode="&#x457;" 
d="M305 1193q0 28 11 53.5t30.5 45t44.5 30.5t54 11t54.5 -11t44.5 -30.5t30 -45t11 -53.5q0 -29 -11 -54.5t-30 -44.5t-44.5 -30t-54.5 -11t-54 11t-44.5 30t-30.5 44.5t-11 54.5zM-95 1193q0 28 11 53.5t30 45t44.5 30.5t54.5 11q28 0 53.5 -11t45 -30.5t30.5 -45
t11 -53.5q0 -29 -11 -54.5t-30.5 -44.5t-45 -30t-53.5 -11q-29 0 -54.5 11t-44.5 30t-30 44.5t-11 54.5zM370 130q0 -27 -10 -50.5t-27 -41.5t-40.5 -28t-50.5 -10t-51 10t-42 28t-28.5 41.5t-10.5 50.5v670q0 27 10.5 50.5t28.5 41.5t42.5 28t52.5 10q27 0 50 -10t40 -28
t26.5 -41.5t9.5 -50.5v-670z" />
    <glyph glyph-name="afii10105.small" horiz-adv-x="526" 
d="M401 45q0 -8 -1 -11q-3 -68 -29 -126.5t-69.5 -102t-101.5 -69.5t-125 -28q-2 0 -4.5 -0.5t-4.5 -0.5h-1h-1q-27 0 -50.5 10.5t-41 28.5t-27.5 41.5t-10 50.5t10 50.5t27.5 41t41 27.5t50.5 10h1q32 0 54 23t22 55v754q0 27 10.5 51t28.5 42t41.5 28t50.5 10t50.5 -10
t41 -28t27.5 -42t10 -51v-754zM132 1146q0 29 11 54.5t30.5 44t44.5 29.5t54 11q28 0 53 -11t43 -29.5t28.5 -44t10.5 -54.5t-11 -54t-30.5 -44t-45 -30t-53.5 -11q-29 0 -53.5 11t-42.5 30t-28.5 44t-10.5 54z" />
    <glyph glyph-name="afii10106" unicode="&#x459;" horiz-adv-x="1597" 
d="M0 128q0 28 10.5 52.5t28.5 42.5t42 28.5t51 10.5q40 0 66.5 6.5t43 22.5t23.5 42.5t7 66.5v10v6v382q0 28 11 52t29.5 42t43 28t52.5 10h2h530q22 0 42 -7t37 -19l4 -3l12 -10q18 -18 28.5 -42t10.5 -52v-196h210q61 0 114 -23t92 -63.5t61.5 -96t22.5 -120.5
q0 -64 -22.5 -118.5t-61.5 -94.5t-92 -62.5t-114 -22.5h-339h-5q-28 0 -51 10t-39.5 28t-26 42t-9.5 52v538h-282v-254v-2v-16q0 -94 -26.5 -168t-77 -125.5t-123 -79.5t-165.5 -29h-3h-5q-27 0 -51 10.5t-42 28.5t-28.5 42t-10.5 51zM1074 341v-81h203q11 0 24 9t13 32
q0 18 -7.5 29t-29.5 11h-203z" />
    <glyph glyph-name="afii10107" unicode="&#x45a;" horiz-adv-x="1529" 
d="M370 586l345 -2v214q0 28 9.5 52t26.5 42t40.5 28t51.5 10t52 -10t42 -28t28 -42t10 -52v-197h210q61 0 114 -26.5t92 -70t61.5 -100t22.5 -116.5t-22.5 -112.5t-61.5 -91.5t-92 -61.5t-114 -22.5h-339h-5q-28 0 -51 10t-39.5 28t-26 42t-9.5 52v222h-345v-222
q0 -28 -9.5 -52t-26 -42t-39.5 -28t-51 -10t-52.5 10t-42.5 28t-28.5 42t-10.5 52v664q0 28 11 52.5t29.5 42.5t43 28.5t52.5 10.5t50.5 -10.5t39 -28.5t25.5 -42.5t9 -52.5v-210zM975 341v-81h203q11 0 24 9t13 32q0 18 -7.5 29t-29.5 11h-203z" />
    <glyph glyph-name="afii10108" unicode="&#x45b;" horiz-adv-x="1086" 
d="M1019 127q0 -27 -10.5 -50t-28 -40.5t-41 -27t-50.5 -9.5t-50.5 9.5t-41 27t-28 40.5t-10.5 50v346q0 10 1 15q-2 42 -15.5 77.5t-38 61.5t-58.5 40.5t-76 14.5t-78 -13.5t-63 -38t-43.5 -58.5t-17.5 -75v-368q0 -27 -10 -50.5t-27.5 -41t-41 -27.5t-50.5 -10t-51 10
t-42 27.5t-28 41t-10 50.5v889h-38q-27 0 -50.5 10t-41.5 28t-28 41.5t-10 50.5q0 28 10 52t28 42t41.5 28t50.5 10h121q22 9 48 9q24 0 47 -9h225q27 0 50.5 -10.5t41.5 -28.5t28 -42t10 -51t-10 -50.5t-28 -41.5t-41.5 -28t-50.5 -10h-143v-141q45 31 96 48t106 17
q96 0 177.5 -36.5t141.5 -99.5t94 -147t34 -180v-1v-5v-346z" />
    <glyph glyph-name="afii10108.small" horiz-adv-x="1150" 
d="M1152 130q0 -27 -10 -50.5t-28 -41.5t-41.5 -28t-50.5 -10t-51 10t-42 28t-28.5 41.5t-10.5 50.5v244q0 40 -16 76.5t-43.5 64t-64 43.5t-76.5 16t-75 -16t-61.5 -43.5t-42 -64t-15.5 -76.5l-2 -1v-243q0 -27 -10 -50.5t-28 -41.5t-41.5 -28t-50.5 -10t-51 10t-42 28
t-28.5 41.5t-10.5 50.5v760h-82q-27 0 -50.5 10t-41.5 28t-28 41.5t-10 50.5t10 51t28 42t41.5 28.5t50.5 10.5h82q1 27 12 50t29 40t42 26.5t51 9.5q26 0 49 -9.5t40 -26.5t27.5 -40t11.5 -50h70q28 0 52 -10.5t42 -28.5t28 -42.5t10 -52.5q0 -27 -10 -50.5t-28 -40.5
t-42 -27t-52 -10h-70v-121q45 29 94 45t102 16q96 0 180 -36.5t147 -99.5t99 -147t36 -179q0 -9 -19.5 -11.5t-48.5 -1.5t-63 4.5t-63 7l-48.5 6t-19.5 1.5v10q0 27 10.5 50.5t28.5 41.5t42.5 28t52.5 10q27 0 50.5 -10t40.5 -28t27 -41.5t10 -50.5v-254z" />
    <glyph glyph-name="afii10109" unicode="&#x45c;" horiz-adv-x="934" 
d="M598 1077q-20 -20 -44 -29.5t-49 -9.5t-48.5 9.5t-42.5 29.5q-20 19 -29.5 43.5t-9.5 49.5t9.5 49t29.5 44l108 108q19 19 43.5 28.5t50 9.5t49.5 -9.5t43 -28.5q20 -20 29.5 -44t9.5 -49t-10 -48.5t-29 -42.5zM370 646l299 246q11 11 26 20l9 5l12 5q28 9 55 8h101
q28 0 52 -10t42 -28t28 -41.5t10 -50.5q0 -28 -10 -51.5t-28 -41t-42 -27.5t-52 -10h-78l-179 -149l277 -301q19 -20 28 -44t8.5 -49t-11 -48.5t-29.5 -42.5q-39 -38 -88 -37.5t-88 41.5l-293 319l-49 -40v-189q0 -27 -10 -50.5t-27 -41.5t-40.5 -28t-50.5 -10q-28 0 -52 10
t-42 28t-28 41.5t-10 50.5v670q0 27 10.5 50.5t28.5 41.5t42 28t51 10t50.5 -10t40.5 -28t27 -41.5t10 -50.5v-154z" />
    <glyph glyph-name="afii10110" unicode="&#x45e;" horiz-adv-x="1086" 
d="M340 450v-1q0 -43 15.5 -79.5t43 -63.5t65 -42t80.5 -15q42 0 78.5 16t63.5 43.5t43 64.5t17 79v5v1v343q0 27 11 50.5t29 41t42 27.5t51 10t50 -10t40.5 -27.5t27 -41t9.5 -50.5v-343v-2v-4q0 -79 -25 -151t-70 -130.5t-106.5 -101t-133.5 -63.5v-213q0 -28 -10 -52
t-27.5 -41.5t-41 -27.5t-50.5 -10q-28 0 -52 10t-41.5 27.5t-27.5 41.5t-10 52v215q-72 22 -132.5 64.5t-104.5 101t-69 129.5t-25 149v349q0 27 10 50.5t27.5 41t41 27.5t50.5 10t50.5 -10t41.5 -27.5t28.5 -41t10.5 -50.5v-351zM627 1277q0 38 25 64t63 26t63 -26t25 -64
v-4q-1 -49 -20 -92t-51.5 -75t-76 -50.5t-92.5 -18.5q-50 0 -94 19t-77 51.5t-52 76t-19 93.5q0 19 7 35.5t19 28.5t28 19t34 7q38 0 64 -26t26 -64v-4q2 -24 20 -42t44 -18t45 19t19 45z" />
    <glyph glyph-name="afii10145" unicode="&#x40f;" horiz-adv-x="1258" 
d="M110 139v1005q0 28 10.5 52.5t28.5 42.5t42.5 28.5t52.5 10.5t51 -10.5t39.5 -28.5t26 -42.5t9.5 -52.5v-876h520v876q0 28 9 52.5t25.5 42.5t39 28.5t50.5 10.5t52.5 -10.5t42.5 -28.5t28.5 -42.5t10.5 -52.5v-1005v-5q0 -29 -10 -53.5t-28 -42.5t-42 -28t-52 -10h-2h-6
h-242v-172q0 -28 -11 -52t-29.5 -42t-43 -28t-52.5 -10t-52 10t-42 28t-28 42t-10 52v172h-249h-5h-2q-26 0 -48.5 9t-40 24.5t-28.5 37t-14 46.5q-1 5 -1 8.5v8.5v5z" />
    <glyph glyph-name="afii10146" unicode="&#x462;" horiz-adv-x="1128" 
d="M389 1280h6h5h257q27 0 50.5 -10t41.5 -28t28 -41.5t10 -50.5q0 -28 -10 -52t-28 -42t-41.5 -28t-50.5 -10h-128v-296h238q75 0 140.5 -29.5t114.5 -80t77 -117t28 -139.5q0 -74 -28 -139t-77 -113t-114.5 -76t-140.5 -28h-367h-5q-28 0 -52.5 10t-42.5 28t-28.5 42
t-10.5 52v886h-128q-28 0 -52 10.5t-42 28.5t-28 42t-10 51t10 50.5t28 41.5t42 28t52 10h256zM529 472v-218h236q22 0 43 9.5t37.5 25t26 35.5t9.5 42q0 23 -9.5 42.5t-26 33.5t-37.5 22t-43 8h-236z" />
    <glyph glyph-name="afii10147" unicode="&#x472;" horiz-adv-x="1346" 
d="M674 1289q90 0 173 -23.5t155 -65.5t131 -101.5t101.5 -132t65.5 -155.5t23 -173q0 -135 -51 -253t-139.5 -206.5t-207 -139.5t-253.5 -51q-90 0 -173.5 23t-155.5 65.5t-131 102t-101 131.5t-65 155t-23 173t23 173t65.5 155.5t101.5 132t131.5 101.5t156 65.5
t173.5 23.5zM672 249q64 0 121.5 18.5t105 52.5t83.5 80.5t56 103.5h-731q20 -57 55.5 -103.5t83 -80.5t105 -52.5t121.5 -18.5zM672 1026q-64 0 -121.5 -19t-104.5 -52.5t-83 -80.5t-56 -102h730q-20 55 -56 102t-83.5 80.5t-105 52.5t-120.5 19z" />
    <glyph glyph-name="afii10148" unicode="&#x474;" horiz-adv-x="1137" 
d="M12 1101q-11 25 -10.5 51t10 48.5t28 41t44.5 28.5q24 10 49 9.5t47.5 -10t40.5 -27t29 -42.5l320 -748l318 748q10 24 28.5 42t41 27.5t47.5 10t50 -9.5t43 -28t27.5 -41t10 -49t-10.5 -51l-436 -1021q-16 -38 -48 -58.5t-70 -21.5h-10l-13 2q-32 5 -58.5 25t-40.5 53z
" />
    <glyph glyph-name="afii10193" unicode="&#x45f;" horiz-adv-x="1182" 
d="M110 139v669q0 28 10.5 52.5t28.5 42.5t42.5 28.5t52.5 10.5t52.5 -10.5t42.5 -28.5t28.5 -42.5t10.5 -52.5v-540h426v540q0 28 10.5 52.5t28.5 42.5t42.5 28.5t52.5 10.5t52.5 -10.5t42.5 -28.5t28.5 -42.5t10.5 -52.5v-669v-5v-6q-1 -27 -11.5 -50.5t-28.5 -41
t-41.5 -27t-50.5 -9.5h-2h-6h-206v-172q0 -28 -11 -52t-29.5 -42t-43 -28t-52.5 -10t-52 10t-42 28t-28 42t-10 52v172h-209h-5h-6q-25 0 -47 9.5t-39 25t-27.5 37t-13.5 45.5q-1 5 -1 8.5v8.5v5z" />
    <glyph glyph-name="afii10194" unicode="&#x463;" horiz-adv-x="1024" 
d="M332 0q-28 0 -52.5 10t-42.5 28t-28.5 42t-10.5 52v748h-66q-28 0 -52 10.5t-42 28.5t-28 42.5t-10 52.5q0 27 10 50.5t28 40.5t42 27t52 10h66v4q0 28 10.5 52.5t28.5 42.5t42.5 28.5t52.5 10.5t52.5 -10.5t42.5 -28.5t28.5 -42.5t10.5 -52.5v-4h72q28 0 52 -10t42 -28
t28 -41.5t10 -50.5t-10 -51t-28 -42t-42 -28.5t-52 -10.5h-72v-166h146q74 0 139 -29.5t113 -79t76 -115t28 -138.5q0 -74 -28 -138t-76 -111.5t-113 -75t-139 -27.5h-280zM466 452v-186h124q19 0 36 8t30.5 21.5t21.5 30.5t8 36t-8 35.5t-21.5 28.5t-30.5 19t-36 7h-124z
" />
    <glyph glyph-name="afii10195" unicode="&#x473;" horiz-adv-x="999" 
d="M23 465q0 99 38 185.5t102.5 151.5t151 102.5t184.5 37.5q99 0 186 -37.5t151.5 -102.5t102 -151.5t37.5 -185.5q0 -98 -37.5 -185t-102 -151.5t-151.5 -102t-186 -37.5q-98 0 -184.5 37.5t-151 102t-102.5 151.5t-38 185zM499 250q54 0 99 23.5t75 62.5h-346
q30 -39 74.5 -62.5t97.5 -23.5zM499 680q-51 0 -95.5 -22t-73.5 -60h340q-29 38 -73.5 60t-97.5 22z" />
    <glyph glyph-name="afii10196" unicode="&#x475;" horiz-adv-x="899" 
d="M450 416l198 436q11 25 30 42.5t42 26.5t48.5 8.5t50.5 -11.5t42.5 -30t26.5 -42.5t9 -49.5t-12 -51l-315 -667q-19 -40 -52 -58t-61 -20q-46 0 -77.5 21.5t-48.5 56.5l-317 668q-12 25 -12.5 51t8.5 49t27 42.5t42 30.5q25 11 50.5 11.5t48.5 -8.5t42 -26.5t30 -42.5z
" />
    <glyph glyph-name="afii10846" unicode="&#x4d9;" horiz-adv-x="1042" 
d="M721.325 594.1q-29.9326 49.2314 -77.7285 73.8477q-47.7959 24.6152 -105.73 24.6152q-38.623 0 -66.1426 -6.27441q-27.5186 -6.27441 -48.7607 -20.7549q-34.7617 -24.1328 -66.1426 -28.959q-31.3809 -4.82715 -59.3828 5.79102q-19.3115 7.72266 -35.2432 21.7207
q-15.9326 13.9971 -26.5537 32.3379q-10.6211 18.3418 -15.4492 40.0615t-1.93164 43.4404q2.89746 21.7197 14.4844 42.4746q11.5869 20.7539 32.8291 38.1309q18.3467 14.4795 42.9688 29.4424q24.6221 14.9619 56.9688 26.5459t74.832 18.8242t97.5234 7.24023
q95.5918 0 179.597 -36.2002q84.0059 -36.2002 147.251 -98.9463t99.9365 -146.248q36.6924 -83.501 36.6924 -179.068q0 -95.5684 -36.6924 -179.553q-36.6914 -83.9834 -99.9365 -146.247q-63.2451 -62.2646 -147.251 -98.4639q-84.0049 -36.2002 -179.597 -36.2002
q-93.6611 0 -177.666 35.2344q-84.0049 35.2354 -146.768 97.0166t-99.9375 144.316q-37.1748 82.5361 -39.1055 177.139q0 53.0938 34.2773 85.9141q34.2783 32.8223 89.3164 32.8223h523.342zM332.198 385.588q26.0703 -57.9199 78.6943 -85.4326
q52.624 -27.5117 122.146 -27.5117t120.214 29.4424q50.6934 29.4434 75.7979 83.502h-396.852z" />
    <glyph glyph-name="afii61352" unicode="&#x2116;" horiz-adv-x="1910" 
d="M975 125q0 -27 -10 -50t-27 -40.5t-40 -27t-50 -9.5t-51 9.5t-42 27t-28.5 40.5t-10.5 50v350v1q0 43 -14.5 80.5t-40.5 66t-62 45t-79 16.5t-78.5 -15.5t-61 -43t-39.5 -64.5t-14 -80v-356q0 -27 -10 -50t-27 -40.5t-40 -27t-50 -9.5t-51 9.5t-42 27t-29 40.5t-11 50
v356q0 96 35 180t96 147t143.5 99.5t178.5 36.5t179 -36.5t144.5 -99.5t96.5 -147t35 -180v-1v-5v-350zM1104 627q0 73 27.5 135t75.5 107.5t112.5 71.5t138.5 26q73 0 138 -26t113.5 -71.5t76.5 -107.5t28 -135q0 -74 -28 -138.5t-76.5 -113t-113.5 -76.5t-138 -28
q-74 0 -138.5 28t-112.5 76.5t-75.5 113t-27.5 138.5zM1697 231q24 0 45 -9t36.5 -24t24.5 -35.5t9 -43.5q0 -24 -9 -45.5t-24.5 -37.5t-36.5 -25.5t-45 -9.5h-494q-24 0 -44.5 9.5t-36 25.5t-24 37.5t-8.5 45.5t8.5 44.5t24 35.5t36 23.5t44.5 8.5h494zM1303 627
q0 -32 12 -60.5t33 -49.5t49.5 -33t60.5 -12t60.5 12t49.5 33t33 49.5t12 60.5t-12 60t-33 48.5t-49.5 32.5t-60.5 12t-60.5 -12t-49.5 -32.5t-33 -48.5t-12 -60z" />
    <glyph glyph-name="agrave" unicode="&#xe0;" horiz-adv-x="1082" 
d="M39 465q0 99 38 185.5t103 151.5t151.5 102.5t184.5 37.5q97 0 183 -37t150.5 -100.5t102.5 -149.5t40 -183v-2v-5v-332q0 -27 -10.5 -51.5t-28.5 -42.5t-42 -28.5t-52 -10.5q-37 0 -65 17t-44 46q-52 -35 -111 -55t-123 -20q-98 0 -184.5 37.5t-151.5 102.5t-103 152
t-38 185zM299 465q0 -45 17.5 -84.5t47 -69t69 -46.5t83.5 -17q45 0 84.5 17t68.5 46.5t46 69t17 84.5t-17 84.5t-46 69t-68.5 46.5t-84.5 17q-44 0 -83.5 -17t-69 -46.5t-47 -69t-17.5 -84.5zM460.017 1106q19.999 -20 43.9971 -29.5q23.999 -9.5 48.9971 -9.5
q24.999 0 48.4971 9.5q23.499 9.5 42.4971 29.5q19.999 19 29.499 43.5q9.49902 24.5 9.49902 49.5t-9.49902 49q-9.5 24 -29.499 44l-107.993 108q-18.999 19 -43.4971 28.5q-24.499 9.5 -49.9971 9.5t-49.4971 -9.5q-23.998 -9.5 -42.9971 -28.5q-19.999 -20 -29.498 -44
q-9.5 -24 -9.5 -49t10 -48.5q9.99902 -23.5 28.998 -42.5z" />
    <glyph glyph-name="alphatonos" unicode="&#x3ac;" horiz-adv-x="1082" 
d="M39 465q0 99 38 185.5t103 151.5t151.5 102.5t184.5 37.5q97 0 183 -37t150.5 -100.5t102.5 -149.5t40 -183v-2v-5v-332q0 -27 -10.5 -51.5t-28.5 -42.5t-42 -28.5t-52 -10.5q-37 0 -65 17t-44 46q-52 -35 -111 -55t-123 -20q-98 0 -184.5 37.5t-151.5 102.5t-103 152
t-38 185zM299 465q0 -45 17.5 -84.5t47 -69t69 -46.5t83.5 -17q45 0 84.5 17t68.5 46.5t46 69t17 84.5t-17 84.5t-46 69t-68.5 46.5t-84.5 17q-44 0 -83.5 -17t-69 -46.5t-47 -69t-17.5 -84.5zM657 1211q0 -27 -10 -50.5t-27.5 -40.5t-41 -27t-49.5 -10q-27 0 -50.5 10
t-41.5 27t-28 40.5t-10 50.5v202q0 27 10 50.5t28 41.5t41.5 28t50.5 10t50.5 -10t40.5 -28t27 -41.5t10 -50.5v-202z" />
    <glyph glyph-name="amacron" unicode="&#x101;" horiz-adv-x="1082" 
d="M39 465q0 99 38 185.5t103 151.5t151.5 102.5t184.5 37.5q99 0 185.5 -37.5t151 -102.5t102 -151.5t37.5 -185.5v-332q0 -27 -10.5 -51.5t-28.5 -42.5t-42 -28.5t-52 -10.5q-37 0 -65 17t-44 46q-52 -35 -111 -55t-123 -20q-98 0 -184.5 37.5t-151.5 102.5t-103 152
t-38 185zM299 465q0 -45 17.5 -84.5t47 -69t69 -46.5t83.5 -17q45 0 84.5 17t68.5 46.5t46 69t17 84.5t-17 84.5t-46 69t-68.5 46.5t-84.5 17q-44 0 -83.5 -17t-69 -46.5t-47 -69t-17.5 -84.5zM703 1287q24 0 44.5 -9t35.5 -24t24 -35t9 -42q0 -24 -9 -45t-24 -36.5
t-35.5 -25t-44.5 -9.5h-374q-24 0 -44 9.5t-35 25t-23.5 36.5t-8.5 45q0 47 31.5 78.5t79.5 31.5h374z" />
    <glyph glyph-name="ampersand" unicode="&#x26;" horiz-adv-x="1131" 
d="M23 377q0 49 11 91t30.5 77.5t45.5 65.5t55 54l-15 14l-5 4q-21 19 -40 44.5t-34 57t-23.5 67.5t-8.5 77q0 74 28.5 139.5t77.5 114t114.5 77t139.5 28.5t139.5 -28.5t114 -77t77 -114t28.5 -139.5q0 -96 -46 -171.5t-127 -129.5l127 -112l118 133q18 20 41 32t47.5 15
t49 -4t44.5 -25q21 -18 32.5 -41t13.5 -47.5t-6 -49t-26 -45.5l-122 -136l144 -126q53 -47 58.5 -91t-21.5 -79q-39 -49 -88 -55t-92 31l-163 140l-55 -62l-2 -2q-8 -10 -20 -18q-52 -46 -117.5 -71.5t-138.5 -25.5q-80 0 -150 31t-122.5 83.5t-83 123t-30.5 150.5zM399 242
q29 0 59 12.5t53 32.5l40 46l-212 182q-36 -23 -56.5 -55t-20.5 -70q0 -29 10.5 -55.5t29.5 -47t43.5 -33t53.5 -12.5zM404 786q21 9 41.5 25t37.5 34.5t27.5 39t10.5 38.5q0 22 -8.5 42.5t-24 36.5t-36.5 25.5t-45 9.5q-21 0 -40.5 -8.5t-34 -23.5t-23 -34.5t-8.5 -41.5
q0 -16 5.5 -31t13.5 -28t17.5 -23.5t17.5 -17.5q1 -2 5 -4z" />
    <glyph glyph-name="anoteleia" unicode="&#x387;" horiz-adv-x="374" 
d="M304 486q0 -28 -10.5 -52.5t-29 -43t-44 -29.5t-54.5 -11q-28 0 -52.5 11t-42.5 29.5t-28.5 43t-10.5 52.5t10.5 52.5t28.5 43t42.5 29.5t52.5 11q29 0 54.5 -11t44 -29.5t29 -43t10.5 -52.5z" />
    <glyph glyph-name="aogonek" unicode="&#x105;" horiz-adv-x="1082" 
d="M39 465q0 99 38 185.5t103 151.5t151.5 102.5t184.5 37.5q97 0 183 -37t150.5 -100.5t102.5 -149.5t40 -183v-2v-5v-332q0 -27 -10.5 -51.5t-28.5 -42.5t-42 -28.5t-52 -10.5q-37 0 -65 17t-44 46q-52 -35 -111 -55t-123 -20q-98 0 -184.5 37.5t-151.5 102.5t-103 152
t-38 185zM299 465q0 -45 17.5 -84.5t47 -69t69 -46.5t83.5 -17q45 0 84.5 17t68.5 46.5t46 69t17 84.5t-17 84.5t-46 69t-68.5 46.5t-84.5 17q-44 0 -83.5 -17t-69 -46.5t-47 -69t-17.5 -84.5zM842 157q10 10 25 11.5t31.5 -2t32 -11.5t25.5 -18q20 -20 20 -47.5t-20 -48.5
l-146 -144q-2 0 -2 -2q-11 -9 -17.5 -23t-6.5 -29q0 -29 20.5 -49.5t49.5 -20.5t48.5 19.5t21.5 46.5v3q0 34 24.5 58t61.5 24q34 0 58 -24t24 -58v-1q0 -48 -18.5 -91t-50.5 -75t-75 -50.5t-91 -18.5t-90.5 18.5t-74 50.5t-49.5 75t-18 91q0 52 19 95.5t52 74.5z" />
    <glyph glyph-name="aring" unicode="&#xe5;" horiz-adv-x="1082" 
d="M39 465q0 99 38 185.5t103 151.5t151.5 102.5t184.5 37.5q97 0 183 -37t150.5 -100.5t102.5 -149.5t40 -183v-2v-5v-332q0 -27 -10.5 -51.5t-28.5 -42.5t-42 -28.5t-52 -10.5q-37 0 -65 17t-44 46q-52 -35 -111 -55t-123 -20q-98 0 -184.5 37.5t-151.5 102.5t-103 152
t-38 185zM299 465q0 -45 17.5 -84.5t47 -69t69 -46.5t83.5 -17q45 0 84.5 17t68.5 46.5t46 69t17 84.5t-17 84.5t-46 69t-68.5 46.5t-84.5 17q-44 0 -83.5 -17t-69 -46.5t-47 -69t-17.5 -84.5zM450 1239q0 -28 19.5 -48t48.5 -20t48.5 20t19.5 48q0 29 -19.5 49t-48.5 20
t-48.5 -20t-19.5 -49zM272 1239q0 51 19.5 96t53 78.5t78.5 52.5t95 19q51 0 96 -19t78.5 -52.5t52.5 -78.5t19 -96q0 -50 -19 -95t-52.5 -79t-78.5 -54t-96 -20q-50 0 -95 20t-78.5 54t-53 79t-19.5 95z" />
    <glyph glyph-name="asciicircum" unicode="^" horiz-adv-x="1110" 
d="M452 1204q14 21 35.5 32.5t45.5 12.5h1h4q25 1 48 -10t40 -33l398 -574q13 -18 17.5 -38.5t1.5 -40.5t-14 -38t-29 -31q-17 -12 -37.5 -16.5t-40.5 -1.5t-38.5 14t-31.5 30l-313 451l-319 -451q-11 -18 -29 -29t-38 -15t-41.5 0.5t-39.5 17.5q-18 12 -29 30t-14.5 37.5
t1 39.5t18.5 37z" />
    <glyph glyph-name="asciitilde" unicode="~" horiz-adv-x="1000" 
d="M75 650q12 12 37 34.5t59.5 44.5t77.5 38.5t91 16.5q54 0 94 -17.5t80 -47.5q7 -5 17 -13.5t22 -16.5t25.5 -14t27.5 -6q15 0 39.5 13.5t57.5 48.5q18 18 42 27.5t48.5 9.5t48.5 -9t43 -28q19 -20 28 -43.5t9 -48t-9.5 -48.5t-27.5 -44l-31 -30.5t-58.5 -46.5t-82 -43
t-99.5 -19q-52 0 -93.5 19t-80.5 48q-6 4 -15.5 12t-21.5 15.5t-26 13.5t-27 6q-16 0 -38 -11.5t-51 -41.5l-8 -9q-19 -19 -43 -28.5t-49 -9.5t-49 9.5t-43 28.5t-28.5 43t-9.5 49t9.5 49t28.5 43z" />
    <glyph glyph-name="asterisk" unicode="*" horiz-adv-x="698" 
d="M607 1032l5 -2q22 -16 35.5 -38t17.5 -47t-1.5 -51t-21.5 -48q-28 -38 -72 -50t-85 7q-3 -24 -14.5 -45t-29 -36t-39.5 -23.5t-46 -8.5q-25 0 -47.5 8.5t-40 24t-29 36.5t-14.5 46q-21 -11 -43.5 -13t-44.5 3.5t-41 18t-32 32.5q-16 22 -22 48t-2 51t17.5 47t36.5 38l4 2
l-2 2q-24 14 -38 35.5t-18 46.5t2 51t22 49q13 19 32.5 32t41 18.5t44 4t43.5 -11.5q4 24 15.5 45t29 36t40 23.5t48.5 8.5q49 0 84 -31.5t42 -79.5q21 9 43 9.5t43 -5.5t39.5 -18.5t32.5 -30.5q16 -23 21.5 -49t1.5 -51t-18 -46.5t-37 -35.5z" />
    <glyph glyph-name="at" unicode="@" horiz-adv-x="2472" 
d="M1884 704q4 -4 8 -9t6 -9q0 -6 1 -11t1 -11q0 -12 -2 -22q-2 -6 -6 -10t-8 -6q-4 -4 -8 -7t-8 -7q-12 -4 -22 -4q-6 0 -12 1t-10 3q-6 4 -10 7t-8 7q-4 2 -7 6t-3 10q-4 6 -5 11t-1 11q0 10 6 22q0 4 3 9t7 9t8 7t10 5q8 4 22 4q6 0 10 -1l12 -3q4 -2 8 -5t8 -7zM506 686
q0 -2 -4 -8q-2 0 -3 -2t-5 -2q-2 -2 -8 -2h-32v46h32q4 0 8 -2q4 0 5 -1l3 -3l4 -8q2 -2 2 -10q0 -6 -2 -8zM782 704q4 -4 8 -9t6 -9q2 -6 3 -11t1 -11t-1 -11t-3 -11t-6 -10t-8 -6q-2 -4 -6 -7t-10 -7q-4 -2 -10 -3t-12 -1q-12 0 -22 4q-4 4 -9 7t-9 7l-6 6t-6 10t-4 11
t-2 11q0 10 6 22q2 4 6 9t6 9q4 4 9 7t9 5q6 2 12 3t10 1q12 0 22 -4q6 -2 10 -5t6 -7zM1064 716q0 -4 1 -6t1 -4l28 -62h-58l28 62v4v6zM264 712q2 -2 3 -5t3 -5q2 -4 2 -10v-5t-2 -5t-3 -5t-3 -3l-8 -8h-10h-36v52h36q6 0 10 -2q2 0 5 -2zM2420 1066v-572h-2348v572h890
q0 30 5 57t17 53t27 50t37 42q36 38 88 60q28 12 55 17t55 5q32 0 60 -6t52 -18q28 -12 51 -28t41 -34q36 -36 60 -92q20 -52 20 -106h890zM1006 1164q-22 -46 -22 -98q0 -56 22 -102q10 -22 24 -44t30 -40q18 -18 39 -32t45 -24q46 -22 102 -22q28 0 53 4t49 14
q24 12 44 25t38 33q18 18 32 39t26 43q22 50 22 106q0 22 -4 45t-14 43q-12 40 -40 74q-14 16 -30 30t-32 24q-18 10 -37 19t-39 17q-14 4 -31 6t-37 2q-28 0 -54 -5t-50 -17q-48 -18 -84 -56q-16 -18 -29 -40t-23 -44zM288 674q6 10 6 18q0 4 -1 9t-5 11q0 2 -4 6l-6 6
q-2 4 -5 7t-9 3q-4 2 -9 4t-9 2h-52v-150h16v56h36q4 0 9 1t9 3q10 4 14 8q2 4 6 8t4 8zM400 740h-92v-150h92v18h-70v46h58v20h-58v44h70v22zM546 590l-46 64q2 2 5 2t5 4q8 4 10 10q2 2 4 5t4 7v12v10t-2 8q-4 8 -10 14q-4 8 -14 8q-2 2 -7 4t-9 2h-54v-150h22v62h22
l40 -54q2 -4 6 -6q2 -2 4 -2h6h14zM648 616q0 4 1 8t1 8q0 12 -4 20t-12 14q-2 0 -3 2t-5 4h-1t-5 2h-2t-2 4q-6 0 -8 2q-6 0 -8 1l-6 3q-8 2 -8 4q-6 4 -6 6v8v8q2 0 4 2t2 4l3 1t5 1q4 2 6 2h4l2 -1t4 -1q8 0 8 -4q2 -2 4 -2h4q8 0 14 4l4 2q0 2 -2 4l-4 4q-4 2 -6 4t-6 4
q-2 0 -4 1t-6 5q-6 0 -7 1t-5 1t-9 -1t-9 -1q-4 -4 -7 -6t-7 -2q-2 -4 -5 -7t-5 -7t-3 -7t-1 -9v-9t4 -7q2 -4 5 -7t3 -5q4 -2 8 -5t8 -3q4 -2 7 -4t7 -4q2 -2 5 -2h5q6 -2 7 -2t3 -2q4 -2 4 -3t2 -5q2 -2 2 -5v-7v-3t-2 -5q-2 -4 -2 -5t-4 -3q-2 -4 -5 -5t-5 -3h-5h-5h-7
h-5q-2 2 -5 3t-3 5l-2 2q-6 4 -12 4h-4t-4 -2l-6 -2q0 -4 2 -4q0 -4 4 -6q0 -2 2 -4l2 -2h2q8 -8 17 -10t19 -2h9t9 2t9 4t7 6q6 2 9 5t5 9zM818 644q2 6 2 10v10q0 12 -2 20q0 6 -3 10t-5 10q-4 6 -12 14q-4 4 -8 6t-10 8q-2 0 -6 2t-10 6q-6 0 -10 1t-10 1q-4 0 -10 -1
t-10 -1q-6 -4 -10 -6t-8 -2q-4 -6 -8 -8t-8 -6l-7 -7t-5 -7q-4 -6 -5 -10t-3 -10q-2 -8 -2 -20q0 -8 2 -15t4 -15q2 -6 6 -12t10 -14l12 -8t14 -4q12 -6 28 -6h10h10q10 4 16 8q14 6 18 10q6 8 12 18q2 4 5 9t3 9zM974 740h-20v-116q0 2 -1 5l-1 3l-72 102q-4 0 -8 6h-4h-4
h-14v-150h20v126v-4l2 -2v0v-4l86 -116h16v150zM1142 590l-66 150h-22l-64 -150h12q6 0 8 2l3 3t5 3l8 26h78l10 -26q2 -4 6 -6q0 -2 8 -2h14zM1240 608h-64v132h-22v-150h86v18zM1444 740h-20v-90v-10t-2 -8q-2 -8 -10 -12q-2 -2 -5 -4t-5 -6q-6 -2 -9 -2h-7q-10 0 -14 2
q-6 4 -10 6t-4 4q-2 2 -4 5t-6 7q0 4 -1 8t-1 10v90h-20v-90v-11t2 -7q0 -8 4 -14q4 -10 12 -14q2 -2 5 -4t7 -4q2 -2 6 -3t6 -3q6 0 9 -2t9 -2q4 0 7 2t9 2q4 2 7 3t7 3l12 8q4 4 5 7t3 7q2 2 5 6t3 8v18v90zM1560 616q6 8 6 16q0 12 -4 20t-12 14q-6 4 -6 6h-5t-5 2h-3
t-5 4h-2t-4 2q-2 0 -4 1l-6 3q-8 2 -8 4q-4 2 -5 4t-3 2q0 2 -1 3t-1 5t4 8l6 6q2 0 3 1t5 1q0 2 10 2l2 -1t4 -1q2 -2 8 -4q8 -2 10 -2q6 0 8 4l6 2l-4 4l-4 4q0 2 -3 4t-5 4q-4 0 -6 1t-6 5q-4 0 -7 1l-3 1q-6 0 -10 -1t-8 -1q-4 -4 -8 -6t-6 -2q-4 -4 -6 -7t-6 -7
q0 -4 -2 -7t-2 -9t2 -9t2 -7q4 -8 10 -12q4 -2 7 -5t5 -3q6 -2 9 -4t7 -4t6 -2h4q2 -2 5 -2t5 -2t5 -3t3 -5q2 -2 2 -5v-7v-3t-2 -5q-2 -6 -8 -8q-4 -4 -6 -5t-4 -3h-5h-5h-7h-5q-4 2 -10 8v2q-6 4 -12 4h-3t-5 -2l-6 -2q2 -2 2 -3t2 -1q0 -2 1 -3t1 -3l1 -1t1 -3q4 -2 6 -2
q6 -8 15 -10t19 -2h10t10 2l8 4t8 6l5 5t5 9zM1682 740h-92v-150h92v18h-72v46h60v20h-60v44h72v22zM1920 644v10v10v11v9q-4 10 -10 20q-4 6 -12 14q-2 4 -6 6t-8 8q-4 0 -9 2t-9 6q-6 0 -10 1t-10 1t-11 -1t-9 -1q-12 -6 -20 -8q-4 -6 -7 -8t-7 -6l-7 -7l-7 -7
q-2 -6 -4 -10t-2 -10q-4 -8 -4 -20q0 -8 2 -15t4 -15q6 -14 18 -26q4 -4 10 -8t14 -4q12 -6 30 -6h10h10q4 2 9 4t9 4q4 4 8 6t6 4q8 8 12 18q6 8 10 18zM2076 740h-22v-116q0 2 -1 5t-3 3l-72 102l-1 1t-3 5h-5h-5h-16v-150h24v126v-4v-2v-2l2 -2l84 -116h18v150zM2198 608
h-64v132h-22v-150h86v18zM2318 740h-18q-4 0 -8 -4q-8 -4 -8 -8l-34 -46l-2 -2h-2v-2v2l-2 2l-36 46q-2 4 -6 8t-10 4h-16l54 -74l2 -2q0 -2 2 -2v-2v-2q0 -2 2 -2v-2v-64h22v64v2v4q2 0 2 4v2h2zM1160 844q-18 8 -37 19t-33 25h314q-16 -14 -34 -25t-38 -19l-42 -12t-44 -6
q-24 0 -45 6zM1114 914l308 310q28 -38 44 -78t16 -80q0 -22 -3 -43t-11 -41q-8 -18 -18 -35t-22 -33h-314zM1068 906q-26 34 -44 72q-6 20 -10 42t-4 46q0 20 4 40t10 40q6 18 16 35t24 33h312zM1332 1284q20 -8 38 -20l32 -22h-316q36 28 74 42q38 18 86 18t86 -18z
M76 342q-4 4 -5 8t-3 8q-2 6 -3 10t-1 10t4 16q2 4 3 9t5 7l3 9t7 7q0 2 5 5t7 5q6 4 9 5l9 3q2 0 8 1t10 1q8 0 14 -1t14 -5q8 -2 13 -6t9 -8q-2 -2 -4 -2v-4h-2h-2h-4h-6q-4 2 -8 5t-8 3h-7h-9h-10h-8q-8 -4 -12 -7t-8 -5q-4 -6 -7 -10t-5 -8q-4 -6 -4 -12v-8q0 -8 2 -14
l3 -9t1 -7q2 -2 5 -4t5 -6q4 -2 6 -5t6 -3q2 -2 6 -4t8 -2q2 -2 6 -2h6h10t8 2q4 0 9 2t9 4v28h-12h-2l-2 2l-3 3l-3 3l-1 1t-1 3v1v3v0h38v-52l-5 -5l-5 -5q-6 -2 -12 -2q-6 -2 -14 -2h-14h-10h-8q-6 2 -9 4l-9 6q-2 0 -7 3t-5 7q-6 2 -7 6t-3 8zM234 428v-44h54v-14h-54
v-46h66v-16h-82v136h82v-16h-66zM360 308v120h-44v16h104v-16h-46v-120h-14zM520 428v-48h58v-12h-58v-60h-16v136h82v-16h-66zM626 444v-84q0 -4 2 -7t4 -5q2 -6 5 -9t5 -7q0 -2 3 -4t5 -4q6 -2 10 -2h8h7t5 2q6 2 9 4t7 4q0 4 3 7t5 9q4 4 4 12v84h14v-84q0 -6 -1 -10
t-3 -10t-5 -10t-7 -8t-8 -7t-8 -5q-12 -2 -22 -2q-12 0 -24 2q-2 2 -7 5t-9 7q-6 6 -10 18q-2 6 -4 10t-2 10v84h14zM766 444v-120h60v-16h-76v136h16zM856 444v-120h64v-16h-78v136h14zM1044 308l-60 136h8q4 0 8 -2q2 -2 3 -2t3 -4l42 -102v-4q2 -2 2 -6v6l1 2l1 2
q6 14 12 26l12 24q4 16 10 28l12 24q0 4 2 4t2 2q2 2 3 2h5h8q-8 -16 -15 -33t-17 -33q-6 -20 -13 -36l-15 -34h-14zM1144 428v-44h56v-14h-56v-46h66v-16h-82v136h82v-16h-66zM1310 372q-2 -2 -10 -4l46 -60h-10q-2 0 -5 1l-3 1q-2 2 -4 3t-4 5l-38 50h-24v-60h-14v136h50
h5t7 -2q8 -2 14 -8q2 -4 4 -7t4 -7q2 -2 2 -7v-5v-9t-2 -5q0 -4 -2 -8t-4 -6l-4 -4t-8 -4zM1294 380q4 0 6 4q2 0 4 1t4 1l3 6t3 4q0 2 1 4t1 8l-1 2t-1 6l-3 3t-3 5q-2 0 -4 1t-4 3h-6h-36v-48h36zM1418 328q2 2 4 8q2 2 3 6t1 6q0 6 -2 10q-2 0 -3 3t-3 5t-8 4q-4 0 -6 1
l-6 3q-4 0 -8 2t-4 4q-10 0 -14 6q-4 0 -5 4t-3 6v14v9t2 7q0 6 8 10q4 4 6 5t8 3q4 0 6 1t8 1q2 0 5 -1t5 -1t4 -1l6 -3q2 0 4 -2t2 -4q4 -2 5 -4t3 -2l-4 -2q-2 -2 -8 -2h-6q-4 2 -4 4h-2h-2h-2h-3h-1h-2h-8q-8 0 -8 -2q-6 -6 -6 -8q-4 0 -4 -8q0 -6 4 -6q0 -4 2 -6t5 -3
l3 -1q4 -4 6 -4t8 -4h3t3 -2h4t4 -4h2h1h1q2 0 4 -1l2 -1q4 -4 6 -7t6 -5q2 -10 2 -18v-10t-6 -8q0 -6 -8 -12q-2 -2 -6 -4l-8 -4t-8 -2h-10q-10 0 -17 2t-13 8q-2 0 -4 2l-4 4q0 2 -1 4l-1 2l2 2l1 1t5 1h2q2 0 4 -1t4 -3q4 -2 6 -4t6 -2q0 -2 4 -2h6q8 0 10 2q8 0 12 4z
M1488 444v-136h-16v136h16zM1542 328q-12 8 -18 20q-4 14 -4 30v7v9q6 10 8 16q6 8 14 16q6 6 12 10q4 4 9 5t9 3q4 0 8 1t10 1q4 0 9 -1t11 -1q4 -2 8 -3t8 -5l5 -5t7 -5q4 -4 6 -7l6 -9q2 -6 6 -16q2 -4 3 -9t1 -7q0 -8 -2 -15t-6 -15q-2 -6 -5 -11t-9 -9q-6 -6 -11 -9
t-11 -7q-10 -4 -26 -4q-8 0 -15 1t-11 3q-16 4 -22 16zM1542 398q-4 -6 -6 -12t-2 -8q0 -4 1 -8t1 -6q2 -8 8 -16q0 -2 2 -4t4 -6l5 -5t9 -3q2 -2 5 -4t5 -2q4 -2 8 -2h8h7t7 2q2 0 6 2l8 4q2 0 5 3l5 5q2 4 4 6l4 4q2 4 3 7l3 9q0 2 1 6t1 8q0 2 -1 8t-5 12q0 4 -4 8t-6 10
q-4 2 -8 5t-10 7h-9h-11h-12h-10q-4 -4 -9 -7t-9 -5q-2 -6 -5 -10t-3 -8zM1700 308h-16v136h12h5t5 -4l70 -100q2 0 2 -4l2 -2v-2v112h16v-136h-14l-80 112v4h-2v4v-120zM1910 428v-48h56v-12h-56v-60h-14v136h82v-16h-68zM2064 372q-8 -2 -12 -4l44 -60h-12q-4 0 -8 2
q0 2 -1 3t-3 5l-38 50h-24v-60h-16v136h50h6t8 -2t7 -4t5 -4q2 -4 4 -7t6 -7q0 -2 1 -7l1 -5q0 -6 -1 -9t-1 -5l-4 -8t-2 -6zM2052 384q2 0 3 1t3 1q6 8 6 10q2 4 2 12q0 2 -2 8q0 2 -6 8q-2 0 -3 1l-3 3h-8h-34v-48h34q4 0 8 4zM2228 328q-4 -6 -10 -9t-12 -7q-6 -2 -12 -3
t-14 -1t-15 1t-13 3q-12 4 -22 16q-4 4 -8 9t-6 11q-2 8 -5 15t-3 15q0 2 1 7t3 9t3 9t3 7q4 6 7 9t5 7q4 2 8 5t8 5q4 4 8 5t8 3q6 0 9 1t9 1q4 0 9 -1t9 -1l9 -3t7 -5q4 -2 8 -5t6 -5q2 -4 5 -7t5 -9q6 -6 8 -16q2 -4 3 -9t1 -7q0 -8 -1 -15t-5 -15q-2 -6 -6 -11t-10 -9z
M2180 322h7t9 2q2 0 5 2t5 4q2 0 6 3t8 5l3 6t3 4q2 4 3 7t1 9q2 2 2 6v8q0 2 -1 8t-1 12q-2 4 -5 8t-5 10q-6 2 -11 5t-9 7h-10h-10h-11h-11q-6 -4 -9 -7t-7 -5q-6 -6 -8 -10l-4 -8q-2 -6 -2 -12v-8v-14q0 -6 1 -9t5 -7q0 -2 3 -4t5 -6l5 -5t5 -3q2 -2 5 -4t9 -2q2 -2 6 -2
h8zM2402 442q2 2 3 2h3h12v-136h-14v112l-2 -2v0v-2q-4 -8 -6 -17t-6 -15t-7 -12l-7 -14q-2 -8 -4 -14l-4 -12q-4 -6 -7 -11t-5 -13h-14q-10 12 -15 26t-11 26q-4 14 -11 28t-11 28v2l-4 2v-112h-16v136h14q6 0 8 -2l2 -2v-4l48 -106q0 -2 2 -2v-4q0 2 1 4t1 4q0 4 4 8
l42 96q0 4 1 4t3 2zM72 256h154v-20v-4v-4q0 -4 -2 -6l-4 -4l-104 -142h2v2h4h2h102v-36h-162v12q0 10 2 12q0 2 4 8q2 2 2 4t2 4t3 4l3 6l92 126h-100v38zM254 256h136v-38h-98v-48h78v-40h-78v-52h98v-36h-136v214zM558 218h-58v-176h-42v176h-62v38h162v-38zM656 256
l92 -214h-24q-8 0 -16 4q-4 2 -5 6t-5 8l-12 28h-98l-10 -28q-2 -4 -3 -5t-3 -1q0 -4 -1 -5t-5 -3q-2 0 -4 -1t-4 -1q0 -2 -2 -2h-4h-24l92 214h36zM668 126l-26 66q0 2 -1 3t-1 3q0 4 -2 6v-6q0 -2 -2 -3t-2 -3l-26 -66h60zM756 256h136v-38h-98v-54h80v-38h-80v-84h-38
v214zM1106 202q4 -6 6 -12t6 -12q2 -8 2 -15v-13v-16t-2 -14q-4 -6 -6 -13t-6 -13q-4 -4 -8 -10l-8 -12q-8 -4 -12 -9t-10 -7q-6 -6 -13 -8t-13 -4q-8 -2 -15 -3t-15 -1q-10 0 -21 3t-21 5q-12 6 -19 12t-17 12q-14 16 -20 34q-6 12 -8 22t-2 22q0 6 1 13t3 15q4 16 12 24
q4 8 7 13t7 11q8 4 13 8t11 8t12 6t14 6q6 0 13 1t15 1t15 -1t15 -1q6 -4 13 -6t13 -6t10 -8t12 -8q4 -6 8 -11t8 -13zM1078 124q2 6 3 12t1 14q0 12 -4 24q-4 10 -8 15t-10 9q-4 4 -9 8t-11 6q-12 6 -28 6t-28 -6q-4 -2 -9 -6t-11 -8t-9 -9t-7 -15q-4 -4 -4 -11v-13v-14
t4 -12l7 -14t9 -10t11 -8t9 -8q8 -2 14 -4t14 -2t14 2t14 4q6 4 11 8t9 8q6 4 10 10t8 14zM1298 256h38v-214h-36l-100 144q-2 0 -2 1t-2 3q-2 4 -2 6q-4 0 -4 4l-1 1l-3 3v-162h-38v214h34q4 0 8 -1t4 -3l6 -3t4 -3q10 -16 21 -31t21 -33q12 -14 23 -29t25 -29q0 -4 1 -6
t1 -6q0 -2 1 -4t1 -4v152zM1356 256h162v-38h-64v-176h-38v176h-60v38zM1650 146q2 -4 5 -8t5 -8q0 -4 2 -9t2 -13q0 -12 -6 -26l-8 -12t-8 -10q-8 -4 -12 -8t-12 -6t-15 -4t-13 -2q-8 0 -15 2t-17 4q-6 2 -11 6t-13 12q-4 2 -6 5t-4 7q-4 2 -4 12l1 1l3 3q2 0 2 1t2 1t4 1
l2 1h10h3t3 -2q6 0 10 -2q4 -4 8 -6t6 -4q2 0 6 -2t10 -2q2 0 5 1t7 3q6 2 12 6l8 8q2 4 4 6t2 6q0 8 -6 12q-4 6 -8 6q-4 4 -7 5t-5 1q-6 2 -16 8q-4 0 -9 1t-9 5q-8 2 -12 5t-8 7q-6 4 -9 8t-5 8q-6 12 -6 24q0 18 6 26q2 6 6 10t10 8q4 4 9 6t13 6q4 0 10 1t14 1
q4 0 8 -1t10 -1q4 -2 7 -4t9 -4q2 -2 6 -5t8 -7l5 -5t5 -7l-8 -4q-2 -2 -5 -4t-3 -4h-8h-4h-4h-2q-6 0 -6 2l-8 4q-2 0 -3 1l-1 1h-6h-12q-4 0 -5 -1t-5 -3q-2 -2 -4 -8q-2 -2 -2 -8t2 -6q2 -2 3 -4t1 -6q4 0 7 -1t5 -1q6 -2 11 -4t7 -4l10 -2q4 -4 9 -5t11 -7q10 -2 16 -12
zM1714 78q6 0 6 -6q2 0 2 -3v-5q0 -6 -2 -10q0 -4 -6 -8q-4 0 -6 -4q-2 0 -4 -1t-6 -1q-2 0 -4 1t-4 1q-2 2 -4 3t-4 1q-2 2 -3 4t-3 4q-2 4 -2 10v5t2 3q2 4 3 5t3 1q6 6 8 6q2 2 4 3t4 1q4 0 6 -1t4 -3q2 0 6 -6zM1796 198q-8 -8 -16 -24q-2 -4 -4 -11t-2 -13q0 -8 2 -14
l4 -12l7 -14t9 -10q4 -4 9 -8t13 -8q8 -2 14 -4t14 -2q6 0 10 2t10 2q4 2 9 5t9 7q4 0 8 2h6h6t6 -2q6 -2 10 -6l6 -10q-6 -8 -16 -14q-6 -4 -10 -7t-10 -5q-6 -4 -11 -5t-11 -3t-11 -3t-11 -1q-14 0 -24 3t-20 5q-20 10 -34 24q-16 16 -24 34q-2 12 -5 22t-3 22q0 6 1 13
t3 15l4 12t6 12q6 8 9 13t9 11q6 4 11 8t13 8q4 4 10 6t16 6q4 0 12 1t16 1h11t11 -2t11 -4t11 -4t10 -5t10 -7q10 -8 16 -16l-6 -8l-5 -5t-5 -3h-7h-5h-7t-7 2q-4 4 -9 7t-9 5q-6 2 -10 2h-10q-16 0 -28 -6q-8 -2 -13 -6t-9 -8zM2144 202q2 -6 5 -12t5 -12q2 -8 2 -15v-13
v-16t-2 -14t-5 -13t-5 -13q-8 -10 -16 -22q-8 -4 -14 -9t-10 -7q-6 -6 -13 -8t-15 -4q-6 -2 -13 -3t-15 -1q-20 0 -42 8q-8 6 -17 12t-15 12q-8 8 -14 16t-10 18q-4 12 -6 22t-2 22q0 6 1 13t1 15q2 6 6 12t6 12q4 8 8 13t10 11q4 4 10 8l12 8q4 4 11 6t13 6q8 0 15 1t13 1
q8 0 15 -1t13 -1q8 -4 15 -6t13 -6q4 -4 10 -8t14 -8q2 -6 8 -11t8 -13zM2114 124q4 10 4 26q0 6 -1 13t-3 11q-4 10 -7 15t-7 9q-10 10 -24 14q-6 4 -13 5t-15 1q-14 0 -26 -6q-6 -2 -11 -6t-11 -8q-4 -4 -8 -9t-8 -15q-2 -4 -3 -11t-1 -13q0 -8 1 -14t3 -12q8 -16 16 -24
q6 -4 11 -8t11 -8q6 -2 14 -4t12 -2q8 0 15 2t13 4q6 4 13 8t11 8q8 8 14 24zM2376 254l1 1t5 1h38v-214h-38v156q0 -2 -1 -4l-3 -6v-6t-2 -4q-6 -18 -14 -35t-14 -33t-13 -33t-13 -35h-38l-54 136q-2 2 -2 10q-2 4 -3 5t-1 3v-154h-40v214h38q4 0 6 -1l2 -1q4 -2 5 -2t3 -2
l6 -4l4 -4t2 -4q4 -16 11 -31t13 -33q6 -16 13 -32t13 -32v-2v-4v-4q4 0 4 -4v4v4q0 2 1 4l1 2l8 16l44 112q0 2 1 4t1 4q2 2 5 3l3 1q2 2 4 2t4 2z" />
    <glyph glyph-name="atilde" unicode="&#xe3;" horiz-adv-x="1082" 
d="M39 465q0 99 38 185.5t103 151.5t151.5 102.5t184.5 37.5q97 0 183 -37t150.5 -100.5t102.5 -149.5t40 -183v-2v-5v-332q0 -27 -10.5 -51.5t-28.5 -42.5t-42 -28.5t-52 -10.5q-37 0 -65 17t-44 46q-52 -35 -111 -55t-123 -20q-98 0 -184.5 37.5t-151.5 102.5t-103 152
t-38 185zM299 465q0 -45 17.5 -84.5t47 -69t69 -46.5t83.5 -17q45 0 84.5 17t68.5 46.5t46 69t17 84.5t-17 84.5t-46 69t-68.5 46.5t-84.5 17q-44 0 -83.5 -17t-69 -46.5t-47 -69t-17.5 -84.5zM203 1256l28.5 26t47 36.5t63 32.5t75.5 14q43 0 75.5 -14t64.5 -38l13.5 -11
t18 -13.5t20.5 -11t22 -4.5t29.5 9.5t43.5 35.5q2 1 2.5 2t2.5 3q15 15 34 22.5t39 7.5t39 -7.5t34 -22.5q15 -16 22.5 -35t7.5 -38.5t-7.5 -39t-22.5 -35.5l-3 -3l-27 -26t-47 -36.5t-64 -32.5t-77 -14q-42 0 -75 15.5t-65 38.5q-5 3 -12.5 9.5t-17 13t-20.5 11t-22 4.5
q-13 0 -31.5 -9.5t-41.5 -34.5q-1 -2 -5 -6q-15 -15 -34.5 -22.5t-39.5 -7.5t-39.5 7.5t-34.5 22.5t-22.5 34.5t-7.5 39.5t7.5 39.5t22.5 34.5z" />
    <glyph glyph-name="backslash" unicode="\" horiz-adv-x="590" 
d="M-34 1090q-8 25 -6 53.5t13 54t30 45t45 27.5t52.5 6t49 -13.5t40 -31t26.5 -45.5l324 -1014q8 -26 5.5 -52t-14.5 -48.5t-32 -39.5t-45 -26q-26 -8 -52 -5t-48 14.5t-38.5 31t-25.5 45.5z" />
    <glyph glyph-name="bar" unicode="|" 
d="M110 1148q0 28 10 52t27 42t40.5 28t50.5 10q28 0 52 -10t42 -28t28 -42t10 -52v-1274q0 -28 -10.5 -52t-28.5 -42t-42 -28t-51 -10t-50.5 10t-40.5 28t-27 42t-10 52v1274z" />
    <glyph glyph-name="beta" unicode="&#x3b2;" horiz-adv-x="981" 
d="M541 -12q-95 1 -171 38v-229q0 -28 -9.5 -52t-26 -42t-39.5 -28.5t-51 -10.5t-52.5 9t-42.5 25t-28.5 38.5t-10.5 50.5v1072v8t1 8q2 92 33 168t85.5 130t130 84t167.5 30q76 0 145 -27t121 -75t83 -113.5t31 -142.5q0 -81 -26.5 -149t-77.5 -115q73 -46 116 -121.5
t43 -171.5q0 -63 -28.5 -130.5t-83 -124t-132.5 -93t-177 -36.5zM432 641q0 30 11 56t30.5 45.5t45.5 30.5t56 11q25 0 41.5 13t26.5 33t14.5 44t4.5 46q0 24 -10 45.5t-28.5 37t-43.5 24.5t-53 9q-27 0 -55 -7.5t-50.5 -27t-37 -54.5t-14.5 -89v-471q0 -23 9 -48t29.5 -46
t53 -35t79.5 -14h25q32 0 58.5 12.5t45 32.5t29 44t10.5 47q0 30 -10.5 52t-28 37t-38.5 22t-42 7h-9h-6q-30 0 -56 11t-45.5 30.5t-30.5 45.5t-11 56z" />
    <glyph glyph-name="braceleft" unicode="{" horiz-adv-x="838" 
d="M850 -190q0 -56 -36 -92t-92 -36q-107 -11 -202 21.5t-167 96.5t-113.5 153.5t-41.5 194.5v210h-35q-29 0 -54.5 11.5t-44.5 31.5t-30 46.5t-11 56.5q0 29 11 54.5t30 44.5t44.5 30t54.5 11h35v170v9q2 67 22 129t54.5 115t82.5 95t105.5 70t123 40.5t136.5 5.5
q28 0 51.5 -10t40.5 -27.5t26.5 -41t9.5 -51.5q0 -26 -9.5 -49.5t-26.5 -41t-40.5 -27.5t-51.5 -10h-6h-74q-38 0 -71.5 -17t-58.5 -45.5t-39.5 -64.5t-15.5 -74v-5v-2v-664v-2v-6q1 -38 15.5 -73.5t39.5 -64t58.5 -45.5t71.5 -17h74h6q28 0 51.5 -10t40.5 -28t26.5 -41.5
t9.5 -50.5z" />
    <glyph glyph-name="braceright" unicode="}" horiz-adv-x="840" 
d="M606 644h35q29 0 54.5 -11t44.5 -30t30 -44.5t11 -54.5q0 -30 -11 -56.5t-30 -46.5t-44.5 -31.5t-54.5 -11.5h-35v-210v-2v-8q-2 -103 -44.5 -191t-114 -150t-166 -93.5t-199.5 -21.5q-56 0 -92 36t-36 92q0 27 9.5 50.5t26.5 41.5t40.5 28t51.5 10h80q39 0 73 18
t59 47.5t39.5 66.5t13.5 76v664v2v5q-1 38 -16 74t-40 64.5t-58.5 45.5t-70.5 17h-80q-28 0 -51.5 10t-40.5 27.5t-26.5 41t-9.5 49.5q0 28 9.5 51.5t26.5 41t40.5 27.5t51.5 10q105 10 199 -22t165 -94.5t113.5 -150t45.5 -188.5q0 -2 0.5 -4.5t0.5 -4.5v-170z" />
    <glyph glyph-name="bracketleft" unicode="[" horiz-adv-x="607" 
d="M242 -317q-28 0 -52 10.5t-42 28.5t-28 42.5t-10 52.5v6v1319v4q0 28 10 52.5t28 42.5t42 28.5t52 10.5h230q28 0 52 -11t42 -29.5t28 -43t10 -52.5t-10 -50.5t-28 -39t-42 -25.5t-52 -9h-102v-1077h104q28 0 52 -9.5t42 -26t28 -39.5t10 -51t-10 -52.5t-28 -42.5
t-42 -28.5t-52 -10.5h-232z" />
    <glyph glyph-name="bracketright" unicode="]" horiz-adv-x="607" 
d="M91 -317q-28 0 -52 10.5t-42 28.5t-28 42.5t-10 52.5t10 51t28 39.5t42 26t52 9.5h104v1077h-102q-28 0 -52 9t-42 25.5t-28 39t-10 50.5t10 52.5t28 43t42 29.5t52 11h230q28 0 52 -10.5t42 -28.5t28 -42.5t10 -52.5v-4v-1319v-6q0 -28 -10 -52.5t-28 -42.5t-42 -28.5
t-52 -10.5h-232z" />
    <glyph glyph-name="breve" unicode="&#x2d8;" horiz-adv-x="506" 
d="M316 1306q0 38 25 64t63 26t63 -26t25 -64v-4q-1 -49 -20 -92t-51.5 -75t-76 -50.5t-92.5 -18.5q-50 0 -94 19t-77 51.5t-52 76t-19 93.5q0 19 7 35.5t19 28.5t28 19t34 7q38 0 64 -26t26 -64v-4q2 -24 20 -42t44 -18t45 19t19 45z" />
    <glyph glyph-name="brokenbar" unicode="&#xa6;" horiz-adv-x="482" 
d="M110 1150q0 28 10 52t28 42t41.5 28t50.5 10q28 0 52 -10t42 -28t28 -42t10 -52v-456q0 -28 -10.5 -52t-28.5 -42t-42 -28t-51 -10t-50.5 10t-41.5 28t-28 42t-10 52v456zM110 280q0 27 10 50.5t28 41.5t41.5 28t50.5 10q28 0 52 -10t42 -28t28 -41.5t10 -50.5v-458
q0 -27 -10.5 -50.5t-28.5 -41.5t-42 -28t-51 -10t-50.5 10t-41.5 28t-28 41.5t-10 50.5v458z" />
    <glyph glyph-name="bullet" unicode="&#x2022;" horiz-adv-x="476" 
d="M236 278q-43 0 -80.5 16t-65.5 44t-44 65.5t-16 80.5q0 44 17.5 82t46.5 66t66 44t76 16q48 0 87 -19t66 -49t42 -67t15 -73q0 -43 -17 -80.5t-45.5 -65.5t-66.5 -44t-81 -16z" />
    <glyph glyph-name="cacute" unicode="&#x107;" horiz-adv-x="947" 
d="M503 682q-42 -2 -79.5 -22t-65 -50.5t-43.5 -68.5t-16 -76q0 -37 16 -74.5t43.5 -68.5t65 -51.5t79.5 -21.5q40 -2 76 8.5t76 41.5q20 15 43 30t48.5 21t54.5 -1t61 -34q21 -18 31.5 -42.5t9.5 -51t-12.5 -53.5t-34.5 -50q-63 -63 -148.5 -96.5t-180.5 -33.5
q-101 0 -190 36.5t-155 100t-104.5 150t-38.5 187.5t38.5 188.5t104.5 152.5t155 102t190 37q96 0 181 -32t148 -95q23 -23 34.5 -50t12.5 -54t-9.5 -51.5t-31.5 -42.5q-32 -28 -61 -34.5t-54.5 0t-48.5 21.5t-43 30q-40 30 -76 40t-76 8zM662 1107q-20 -20 -44 -29.5
t-49 -9.5t-48.5 9.5t-42.5 29.5q-20 19 -29.5 43.5t-9.5 49.5t9.5 49t29.5 44l108 108q19 19 43.5 28.5t50 9.5t49.5 -9.5t43 -28.5q20 -20 29.5 -44t9.5 -49t-10 -48.5t-29 -42.5z" />
    <glyph glyph-name="caron" unicode="&#x2c7;" horiz-adv-x="688" 
d="M401 1144q-12 -11 -24 -18q-26 -16 -55 -14q-26 0 -49 14q-13 8 -23 18l-200 202q-24 24 -29.5 51t3 51.5t27.5 43.5t43.5 27.5t51.5 3.5t52 -29l127 -126l128 126q24 24 51.5 29t52 -3.5t43.5 -27.5t27.5 -43.5t3 -51.5t-29.5 -51z" />
    <glyph glyph-name="ccaron" unicode="&#x10d;" horiz-adv-x="947" 
d="M503 682q-42 -2 -79.5 -22t-65 -50.5t-43.5 -68.5t-16 -76q0 -37 16 -74.5t43.5 -68.5t65 -51.5t79.5 -21.5q40 -2 76 8.5t76 41.5q20 15 43 30t48.5 21t54.5 -1t61 -34q21 -18 31.5 -42.5t9.5 -51t-12.5 -53.5t-34.5 -50q-63 -63 -148.5 -96.5t-180.5 -33.5
q-101 0 -190 36.5t-155 100t-104.5 150t-38.5 187.5t38.5 188.5t104.5 152.5t155 102t190 37q96 0 181 -32t148 -95q23 -23 34.5 -50t12.5 -54t-9.5 -51.5t-31.5 -42.5q-32 -28 -61 -34.5t-54.5 0t-48.5 21.5t-43 30q-40 30 -76 40t-76 8zM595 1088q-12 -11 -24 -18
q-26 -16 -55 -14q-26 0 -49 14q-13 8 -23 18l-200 202q-24 24 -29.5 51t3 51.5t27.5 43.5t43.5 27.5t51.5 3.5t52 -29l127 -126l128 126q24 24 51.5 29t52 -3.5t43.5 -27.5t27.5 -43.5t3 -51.5t-29.5 -51z" />
    <glyph glyph-name="ccedilla" unicode="&#xe7;" horiz-adv-x="947" 
d="M503 682q-42 -2 -79.5 -22t-65 -50.5t-43.5 -68.5t-16 -76q0 -37 16 -74.5t43.5 -68.5t65 -51.5t79.5 -21.5q40 -2 76 8.5t76 41.5q20 15 43 30t48.5 21t54.5 -1t61 -34q21 -18 31.5 -42.5t9.5 -51t-12.5 -53.5t-34.5 -50q-63 -63 -148.5 -96.5t-180.5 -33.5
q-101 0 -190 36.5t-155 100t-104.5 150t-38.5 187.5t38.5 188.5t104.5 152.5t155 102t190 37q96 0 181 -32t148 -95q23 -23 34.5 -50t12.5 -54t-9.5 -51.5t-31.5 -42.5q-32 -28 -61 -34.5t-54.5 0t-48.5 21.5t-43 30q-40 30 -76 40t-76 8zM616 -72q39 -8 71.5 -29t56 -51
t36.5 -68t13 -80q0 -48 -18.5 -90t-50 -73.5t-74 -49.5t-90.5 -18t-90.5 18t-74 49.5t-50 73.5t-18.5 90q0 35 24.5 59.5t59.5 24.5q33 0 57 -24.5t24 -59.5v-3q2 -27 22.5 -46t47.5 -19q29 0 49.5 20.5t20.5 49.5q0 32 -21 51t-65 20h-5q-50 0 -70.5 19t-20.5 48v210
q0 14 7.5 26.5t19.5 21.5t26.5 14.5t28.5 5.5t29 -5.5t27 -14.5t20 -21.5t8 -26.5v-122z" />
    <glyph glyph-name="ccircumflex" unicode="&#x109;" horiz-adv-x="947" 
d="M503 682q-42 -2 -79.5 -22t-65 -50.5t-43.5 -68.5t-16 -76q0 -37 16 -74.5t43.5 -68.5t65 -51.5t79.5 -21.5q40 -2 76 8.5t76 41.5q20 15 43 30t48.5 21t54.5 -1t61 -34q21 -18 31.5 -42.5t9.5 -51t-12.5 -53.5t-34.5 -50q-63 -63 -148.5 -96.5t-180.5 -33.5
q-101 0 -190 36.5t-155 100t-104.5 150t-38.5 187.5t38.5 188.5t104.5 152.5t155 102t190 37q96 0 181 -32t148 -95q23 -23 34.5 -50t12.5 -54t-9.5 -51.5t-31.5 -42.5q-32 -28 -61 -34.5t-54.5 0t-48.5 21.5t-43 30q-40 30 -76 40t-76 8zM592 1435.07
q-12 10.999 -24 17.998q-26 15.999 -55 14q-26 0 -49 -14q-13 -7.99902 -23 -17.998l-200 -201.988q-24 -23.998 -29.5 -50.9971q-5.5 -26.998 3 -51.4971q8.5 -24.498 27.5 -43.4971t43.5 -27.498t51.5 -3.5q27 5 52 28.998l127 125.993l128 -125.993
q24 -23.998 51.5 -28.998q27.5 -4.99902 52 3.5t43.5 27.498t27.5 43.4971q8.5 24.499 3 51.4971q-5.5 26.999 -29.5 50.9971z" />
    <glyph glyph-name="cdotaccent" unicode="&#x10b;" horiz-adv-x="947" 
d="M503 682q-42 -2 -79.5 -22t-65 -50.5t-43.5 -68.5t-16 -76q0 -37 16 -74.5t43.5 -68.5t65 -51.5t79.5 -21.5q40 -2 76 8.5t76 41.5q20 15 43 30t48.5 21t54.5 -1t61 -34q21 -18 31.5 -42.5t9.5 -51t-12.5 -53.5t-34.5 -50q-63 -63 -148.5 -96.5t-180.5 -33.5
q-101 0 -190 36.5t-155 100t-104.5 150t-38.5 187.5t38.5 188.5t104.5 152.5t155 102t190 37q96 0 181 -32t148 -95q23 -23 34.5 -50t12.5 -54t-9.5 -51.5t-31.5 -42.5q-32 -28 -61 -34.5t-54.5 0t-48.5 21.5t-43 30q-40 30 -76 40t-76 8zM369 1210q0 31 12 58t32.5 47.5
t47.5 32.5t58 12t58 -12t47.5 -32.5t32.5 -47.5t12 -58t-12 -58t-32.5 -47.5t-47.5 -32.5t-58 -12t-58 12t-47.5 32.5t-32.5 47.5t-12 58z" />
    <glyph glyph-name="cedilla" unicode="&#xb8;" horiz-adv-x="430" 
d="M326 -92q39 -8 71.5 -29t56 -51t36.5 -68t13 -80q0 -48 -18.5 -90t-50 -73.5t-74 -49.5t-90.5 -18t-90.5 18t-74 49.5t-50 73.5t-18.5 90q0 35 24.5 59.5t59.5 24.5q33 0 57 -24.5t24 -59.5v-3q2 -27 22.5 -46t47.5 -19q29 0 49.5 20.5t20.5 49.5q0 32 -21 51t-65 20h-5
q-50 0 -70.5 19t-20.5 48v210q0 14 7.5 26.5t19.5 21.5t26.5 14.5t28.5 5.5t29 -5.5t27 -14.5t20 -21.5t8 -26.5v-122z" />
    <glyph glyph-name="cent" unicode="&#xa2;" horiz-adv-x="911" 
d="M630 106v-232q0 -28 -10.5 -52t-28.5 -42t-42 -28t-51 -10t-50.5 10t-41.5 28t-28 42t-10 52v264zM368 888v206q0 28 10 52t28 42t41.5 28t50.5 10q28 0 52 -10t42 -28t28 -42t10 -52v-190zM487 682q-42 -2 -79.5 -22t-65 -50.5t-43.5 -68.5t-16 -76q0 -37 16 -74.5
t43.5 -68.5t65 -51.5t79.5 -21.5q40 -2 76 8.5t76 41.5q20 15 43 30t48.5 21t54.5 -1t61 -34q21 -18 31.5 -42.5t9.5 -51t-12.5 -53.5t-34.5 -50q-63 -63 -148.5 -96.5t-180.5 -33.5q-101 0 -190 36.5t-155 100t-104.5 150t-38.5 187.5t38.5 188.5t104.5 152.5t155 102
t190 37q96 0 181 -32t148 -95q23 -23 34.5 -50t12.5 -54t-9.5 -51.5t-31.5 -42.5q-32 -28 -61 -34.5t-54.5 0t-48.5 21.5t-43 30q-40 30 -76 40t-76 8z" />
    <glyph glyph-name="chi" unicode="&#x3c7;" horiz-adv-x="1010" 
d="M513 102l-247 -348q-15 -23 -37 -37t-46 -18.5t-49.5 1t-47.5 20.5t-36 37t-19.5 46.5t-0.5 50t20 48.5l302 426l-282 398q-15 22 -20 47.5t-0.5 49.5t18.5 46t36 37t48 20.5t50.5 1.5t47 -18t38.5 -36l225 -318l225 318q16 22 38 36t47 18t50.5 -1.5t48.5 -20.5
q22 -15 36 -37t18.5 -46t-0.5 -49.5t-20 -47.5l-282 -398l302 -426q15 -23 20 -48.5t-0.5 -50t-19.5 -46.5t-36 -37q-23 -16 -48 -21t-49.5 -0.5t-46 18.5t-36.5 37z" />
    <glyph glyph-name="circumflex" unicode="&#x2c6;" horiz-adv-x="690" 
d="M401 1494.07q-12 10.999 -24 17.998q-26 15.999 -55 14q-26 0 -49 -14q-13 -7.99902 -23 -17.998l-200 -201.988q-24 -23.998 -29.5 -50.9971q-5.5 -26.998 3 -51.4971q8.5 -24.498 27.5 -43.4971t43.5 -27.498t51.5 -3.5q27 5 52 28.998l127 125.993l128 -125.993
q24 -23.998 51.5 -28.998q27.5 -4.99902 52 3.5t43.5 27.498t27.5 43.4971q8.5 24.499 3 51.4971q-5.5 26.999 -29.5 50.9971z" />
    <glyph glyph-name="colon" unicode=":" horiz-adv-x="481" 
d="M67 790q0 31 12 58.5t33 48.5t48.5 33t58.5 12t58.5 -12t48.5 -33t33 -48.5t12 -58.5t-12 -58.5t-33 -48.5t-48.5 -33t-58.5 -12t-58.5 12t-48.5 33t-33 48.5t-12 58.5zM67 141q0 31 12 58.5t33 48.5t48.5 33t58.5 12t58.5 -12t48.5 -33t33 -48.5t12 -58.5t-12 -58.5
t-33 -48.5t-48.5 -33t-58.5 -12t-58.5 12t-48.5 33t-33 48.5t-12 58.5z" />
    <glyph glyph-name="comma" unicode="," horiz-adv-x="437" 
d="M67 134q0 28 10 53t28 43.5t42 29t52 10.5t52 -10.5t40.5 -29t26 -43.5t9.5 -53v-244q0 -29 -9.5 -53.5t-26 -43t-40.5 -29t-52 -10.5t-52 10.5t-42 29t-28 43t-10 53.5v244z" />
    <glyph glyph-name="copyright" unicode="&#xa9;" horiz-adv-x="1368" 
d="M690 1261q92 0 177.5 -24t160 -67.5t136 -104.5t105 -135.5t67.5 -160t24 -177.5t-24 -177.5t-67.5 -159.5t-105 -135t-136 -104.5t-160 -67.5t-177.5 -24q-93 0 -178.5 24t-159.5 67.5t-134.5 104.5t-103.5 135t-66.5 159.5t-23.5 177.5t23.5 177.5t66.5 160
t103.5 135.5t134.5 104.5t159.5 67.5t178.5 24zM691 990q-84 0 -156.5 -31t-126.5 -85t-85 -126.5t-31 -155.5q0 -84 31 -157t85 -127t126.5 -85t156.5 -31t157 31t127 85t85 127t31 157q0 83 -31 155.5t-85 126.5t-127 85t-157 31zM674 701q-20 -2 -38 -13t-31.5 -27
t-21.5 -34.5t-8 -34.5t8.5 -34t22 -33.5t31 -26.5t37.5 -12q20 -2 37.5 1.5t41.5 20.5q18 13 38.5 26t44 18.5t49 -0.5t53.5 -30q19 -16 28 -37.5t8.5 -45t-11 -47.5t-30.5 -45q-45 -46 -106.5 -69.5t-130.5 -23.5q-72 0 -136 25.5t-111.5 70.5t-75.5 106t-29 133v2v2
q1 72 29 134t75.5 108t111.5 72t136 26q69 0 130.5 -22.5t106.5 -69.5q20 -21 30.5 -44.5t11.5 -47.5t-8.5 -46t-28.5 -38q-29 -25 -54.5 -30.5t-48.5 0t-43.5 18.5t-38.5 26q-24 17 -41.5 20t-37.5 2z" />
    <glyph glyph-name="currency" unicode="&#xa4;" horiz-adv-x="976" 
d="M88 646q0 64 19.5 122t54.5 106l-94 140q-15 22 -19.5 47.5t1 49.5t19.5 46t37 37q22 15 46.5 19.5t48.5 -0.5t45 -19t36 -36l92 -138q50 14 102 14q53 0 104 -14l89 131q15 22 36.5 36t46 18.5t49.5 -0.5t48 -20q22 -15 35 -36.5t17.5 -46t-0.5 -50t-20 -47.5l-89 -132
q35 -48 54.5 -105.5t19.5 -121.5q0 -67 -21.5 -127t-59.5 -109l87 -129q15 -23 19.5 -48t0 -49t-18 -45t-35.5 -36q-23 -15 -48 -20t-49.5 -0.5t-46 18t-36.5 36.5l-89 132q-23 -6 -46 -8.5t-47 -2.5q-25 0 -48.5 3t-46.5 8l-98 -141q-15 -22 -36.5 -36t-45.5 -18.5t-49 0.5
t-47 20t-36 37t-19 46t-0.5 48.5t19.5 46.5l97 140q-37 49 -57.5 108.5t-20.5 125.5zM333 646q0 -30 11 -56.5t30.5 -46t45.5 -31t56 -11.5q31 0 57.5 11.5t46 31t30.5 46t11 56.5t-11 56.5t-30.5 46t-46 31t-57.5 11.5q-30 0 -56 -11.5t-45.5 -31t-30.5 -46t-11 -56.5z" />
    <glyph glyph-name="dagger" unicode="&#x2020;" horiz-adv-x="774" 
d="M254 604h-120q-29 0 -54 11t-43 30.5t-28.5 45.5t-10.5 55q0 28 10.5 52.5t28.5 42.5t43 28.5t54 10.5h120v264q0 28 10 52t28 42t41.5 28t50.5 10q28 0 52 -10t42 -28t28 -42t10 -52v-264h120q29 0 54.5 -11t44 -29t29 -42.5t10.5 -51.5q0 -29 -10.5 -55t-29 -45.5
t-44 -30.5t-54.5 -11h-120v-730q0 -28 -10.5 -52t-28.5 -42t-42 -28t-51 -10t-50.5 10t-41.5 28t-28 42t-10 52v730z" />
    <glyph glyph-name="daggerdbl" unicode="&#x2021;" horiz-adv-x="768" 
d="M262 320h-120q-29 0 -54 11t-43 30.5t-28.5 45.5t-10.5 55q0 28 10.5 52.5t28.5 42.5t43 28.5t54 10.5h120v134h-120q-29 0 -54 11t-43 30.5t-28.5 45.5t-10.5 55q0 28 10.5 52.5t28.5 42.5t43 28.5t54 10.5h120v138q0 28 10 52t28 42t41.5 28t50.5 10q28 0 52 -10
t42 -28t28 -42t10 -52v-138h120q29 0 54.5 -11t44 -29t29 -42.5t10.5 -51.5q0 -29 -10.5 -55t-29 -45.5t-44 -30.5t-54.5 -11h-120v-134h120q29 0 54.5 -11t44 -29t29 -42.5t10.5 -51.5q0 -29 -10.5 -55t-29 -45.5t-44 -30.5t-54.5 -11h-120v-446q0 -28 -10.5 -52t-28.5 -42
t-42 -28t-51 -10t-50.5 10t-41.5 28t-28 42t-10 52v446z" />
    <glyph glyph-name="dcaron" unicode="&#x10f;" horiz-adv-x="1092" 
d="M992 466v-1v-5v-2q-2 -97 -40 -182.5t-103 -149.5t-151 -101t-183 -37q-99 0 -185.5 37.5t-151 102.5t-102 152t-37.5 185q0 99 37.5 185.5t102 151.5t151 102.5t185.5 37.5q59 0 113 -14t104 -39v265q0 28 9.5 53t27 43t41 28.5t51.5 10.5q27 0 51 -10.5t42 -28.5
t28 -43t10 -53v-688zM732 465q0 45 -17.5 84.5t-47 69t-69 46.5t-83.5 17q-45 0 -84.5 -17t-68.5 -46.5t-46 -69t-17 -84.5t17 -84.5t46 -69t68.5 -46.5t84.5 -17q44 0 83.5 17t69 46.5t47 69t17.5 84.5zM1070 1144q0 28 10 53t28 43.5t42 29t52 10.5t52 -10.5t40.5 -29
t26 -43.5t9.5 -53v-244q0 -29 -9.5 -53.5t-26 -43t-40.5 -29t-52 -10.5t-52 10.5t-42 29t-28 43t-10 53.5v244z" />
    <glyph glyph-name="dcroat" unicode="&#x111;" horiz-adv-x="1092" 
d="M1080 1138q19 0 35.5 -7t28.5 -19t19 -28t7 -34q0 -38 -26 -61.5t-64 -23.5h-430q-38 0 -63 23.5t-25 61.5t25 63t63 25h430zM992 466v-1v-5v-2q-2 -97 -40 -182.5t-103 -149.5t-151 -101t-183 -37q-99 0 -185.5 37.5t-151 102.5t-102 152t-37.5 185q0 99 37.5 185.5
t102 151.5t151 102.5t185.5 37.5q59 0 113 -14t104 -39v265q0 28 9.5 53t27 43t41 28.5t51.5 10.5q27 0 51 -10.5t42 -28.5t28 -43t10 -53v-688zM732 465q0 45 -17.5 84.5t-47 69t-69 46.5t-83.5 17q-45 0 -84.5 -17t-68.5 -46.5t-46 -69t-17 -84.5t17 -84.5t46 -69
t68.5 -46.5t84.5 -17q44 0 83.5 17t69 46.5t47 69t17.5 84.5z" />
    <glyph glyph-name="de.alt" horiz-adv-x="1150" 
d="M1122 126v-166q0 -27 -10 -50.5t-28 -41.5t-41.5 -28t-50.5 -10q-28 0 -52 10t-42 28t-28 41.5t-10 50.5v40h-3h-573v-40q0 -27 -10 -50.5t-28 -41.5t-41.5 -28t-50.5 -10t-51 10t-42 28t-28.5 41.5t-10.5 50.5v168v6v3q1 26 11 48.5t27 39t40 26.5t50 11h4h2l206 575
q2 10 6 19q14 37 47 61t75 24h358h4q27 0 50.5 -10t41.5 -28t28 -42t10 -52v-547h8h2q41 0 73 -22.5t47 -57.5l3 -9l2 -5q2 -8 3 -15.5l2 -15.5v-5v-6zM431 262h289v417h-138z" />
    <glyph glyph-name="degree" unicode="&#xb0;" horiz-adv-x="782" 
d="M275 892q0 -29 11 -54.5t30 -45t45 -30.5t55 -11q30 0 55.5 11t44.5 30.5t30 45t11 54.5t-11 55t-30 45t-44.5 30t-55.5 11q-29 0 -55 -11t-45 -30t-30 -45t-11 -55zM61 892q0 74 28.5 138.5t77 112.5t113 76t136.5 28q74 0 139 -28t113 -76t75.5 -112.5t27.5 -138.5
q0 -73 -27.5 -138t-75.5 -114t-113 -78t-139 -29q-72 0 -136.5 29t-113 78t-77 114t-28.5 138z" />
    <glyph glyph-name="delta" unicode="&#x3b4;" horiz-adv-x="1031" 
d="M39 465q0 84 28 160t77 137.5t116.5 104.5t145.5 62l-103 124l-10 10.5t-9 12.5l-4 5q-13 15 -19 35.5t-5 43.5v4q0 52 35.5 84t87.5 32h488q26 0 49 -9.5t40 -26t26.5 -38.5t9.5 -47q0 -26 -9.5 -51t-26.5 -44.5t-40 -31.5t-49 -12h-209l197 -219l12 -14q59 -64 92 -146
t33 -176q0 -98 -37.5 -185t-102 -152t-151 -102.5t-185.5 -37.5q-98 0 -184.5 37.5t-151.5 102.5t-103 152t-38 185zM299 465q0 -45 17.5 -84.5t47 -69t69 -46.5t83.5 -17q45 0 84.5 17t68.5 46.5t46 69t17 84.5t-17 84.5t-46 69t-68.5 46.5t-84.5 17q-44 0 -83.5 -17
t-69 -46.5t-47 -69t-17.5 -84.5z" />
    <glyph glyph-name="dieresis" unicode="&#xa8;" horiz-adv-x="740" 
d="M442 1212q0 28 11 53.5t30.5 45t44.5 30.5t54 11t54.5 -11t44.5 -30.5t30 -45t11 -53.5q0 -29 -11 -54.5t-30 -44.5t-44.5 -30t-54.5 -11t-54 11t-44.5 30t-30.5 44.5t-11 54.5zM42 1212q0 28 11 53.5t30 45t44.5 30.5t54.5 11q28 0 53.5 -11t45 -30.5t30.5 -45t11 -53.5
q0 -29 -11 -54.5t-30.5 -44.5t-45 -30t-53.5 -11q-29 0 -54.5 11t-44.5 30t-30 44.5t-11 54.5z" />
    <glyph glyph-name="dieresistonos" unicode="&#x385;" horiz-adv-x="972" 
d="M684 1202q0 31 12 58t32.5 47.5t47.5 32.5t58 12t58 -12t47.5 -32.5t32.5 -47.5t12 -58t-12 -58t-32.5 -47.5t-47.5 -32.5t-58 -12t-58 12t-47.5 32.5t-32.5 47.5t-12 58zM42 1202q0 31 12 58t32.5 47.5t47.5 32.5t58 12t58 -12t47.5 -32.5t32.5 -47.5t12 -58t-12 -58
t-32.5 -47.5t-47.5 -32.5t-58 -12t-58 12t-47.5 32.5t-32.5 47.5t-12 58zM638 1298q0 -27 -10 -50.5t-27.5 -40.5t-41 -27t-49.5 -10q-27 0 -50.5 10t-41.5 27t-28 40.5t-10 50.5v202q0 27 10 50.5t28 41.5t41.5 28t50.5 10t50.5 -10t40.5 -28t27 -41.5t10 -50.5v-202z" />
    <glyph glyph-name="divide" unicode="&#xf7;" horiz-adv-x="776" 
d="M146 475q-26 0 -48.5 9.5t-39 26t-26 38.5t-9.5 48q0 25 9.5 47.5t26 39t39 26t48.5 9.5h481q26 0 48.5 -9.5t39 -26t26 -39t9.5 -47.5q0 -26 -9.5 -48t-26 -38.5t-39 -26t-48.5 -9.5h-481zM253 948q0 31 12 58t32.5 47.5t47.5 32.5t58 12t58 -12t47.5 -32.5t32.5 -47.5
t12 -58t-12 -58t-32.5 -47.5t-47.5 -32.5t-58 -12t-58 12t-47.5 32.5t-32.5 47.5t-12 58zM249 254q0 31 12 58t32.5 47.5t47.5 32.5t58 12t58 -12t47.5 -32.5t32.5 -47.5t12 -58t-12 -58t-32.5 -47.5t-47.5 -32.5t-58 -12t-58 12t-47.5 32.5t-32.5 47.5t-12 58z" />
    <glyph glyph-name="dollar" unicode="$" horiz-adv-x="991" 
d="M392 1216v130q0 22 9 42t24 35t35.5 24t43.5 9q22 0 42 -9t34.5 -24t23 -35t8.5 -42v-130h-220zM612 70v-150q0 -23 -8.5 -43t-23 -35t-34.5 -23.5t-42 -8.5q-23 0 -43.5 8.5t-35.5 23.5t-24 35t-9 43v150h220zM517 498q-107 18 -192 50t-144.5 80.5t-91.5 114t-32 150.5
q0 86 35.5 158.5t96 125.5t141 82.5t170.5 29.5q60 0 118.5 -12t111 -35.5t95 -59t70.5 -82.5q11 -18 13 -37t-2 -37t-13 -34t-21 -27q-13 -13 -32 -22t-41 -11t-45 3t-44 20l-47.5 31.5t-42 23t-49 14.5t-67.5 5q-44 0 -78.5 -10.5t-58.5 -28.5t-37 -42.5t-13 -52.5
q0 -36 18.5 -58.5t54.5 -38t88.5 -27t120.5 -24.5q67 -15 132 -40.5t116 -67.5t82 -103.5t31 -146.5q0 -83 -35 -156t-96.5 -127.5t-147 -86t-185.5 -31.5q-78 0 -148.5 20t-129 54t-102.5 79.5t-68 96.5q-15 31 -17 59t6 50.5t24 40t37 28.5q49 26 91.5 11t87.5 -71
q42 -54 96.5 -81t132.5 -27q36 0 71 8.5t62.5 25t44 39.5t16.5 53q0 38 -17 60t-43.5 34.5t-59 18.5t-63.5 11z" />
    <glyph glyph-name="dotaccent" unicode="&#x2d9;" horiz-adv-x="342" 
d="M30 1212q0 31 12 58t32.5 47.5t47.5 32.5t58 12t58 -12t47.5 -32.5t32.5 -47.5t12 -58t-12 -58t-32.5 -47.5t-47.5 -32.5t-58 -12t-58 12t-47.5 32.5t-32.5 47.5t-12 58z" />
    <glyph glyph-name="dotlessi" unicode="&#x131;" 
d="M370 130q0 -27 -10 -50.5t-27 -41.5t-40.5 -28t-50.5 -10t-51 10t-42 28t-28.5 41.5t-10.5 50.5v670q0 27 10.5 50.5t28.5 41.5t42.5 28t52.5 10q27 0 50 -10t40 -28t26.5 -41.5t9.5 -50.5v-670z" />
    <glyph glyph-name="eacute" unicode="&#xe9;" horiz-adv-x="1035" 
d="M329 349q31 -51 80.5 -76.5t109.5 -25.5q40 0 68.5 6.5t50.5 21.5q36 25 68.5 30t61.5 -6q20 -8 36.5 -22.5t27.5 -33.5t16 -41.5t2 -45t-15 -44t-34 -39.5q-19 -15 -44.5 -30.5t-59 -27.5t-77.5 -19.5t-101 -7.5q-99 0 -186 37.5t-152.5 102.5t-103.5 151.5t-38 185.5
t38 186t103.5 151.5t152.5 102t186 37.5q97 0 184 -36.5t152 -100.5t103.5 -149.5t40.5 -183.5q0 -55 -35.5 -89t-92.5 -34h-542zM732 565q-27 60 -81.5 88.5t-126.5 28.5t-124.5 -30.5t-78.5 -86.5h411zM680 1099q-20 -20 -44 -29.5t-49 -9.5t-48.5 9.5t-42.5 29.5
q-20 19 -29.5 43.5t-9.5 49.5t9.5 49t29.5 44l108 108q19 19 43.5 28.5t50 9.5t49.5 -9.5t43 -28.5q20 -20 29.5 -44t9.5 -49t-10 -48.5t-29 -42.5z" />
    <glyph glyph-name="ebreve" unicode="&#x115;" horiz-adv-x="1035" 
d="M329 349q31 -51 80.5 -76.5t109.5 -25.5q40 0 68.5 6.5t50.5 21.5q36 25 68.5 30t61.5 -6q20 -8 36.5 -22.5t27.5 -33.5t16 -41.5t2 -45t-15 -44t-34 -39.5q-19 -15 -44.5 -30.5t-59 -27.5t-77.5 -19.5t-101 -7.5q-99 0 -186 37.5t-152.5 102.5t-103.5 151.5t-38 185.5
t38 186t103.5 151.5t152.5 102t186 37.5q97 0 184 -36.5t152 -100.5t103.5 -149.5t40.5 -183.5q0 -55 -35.5 -89t-92.5 -34h-542zM732 565q-27 60 -81.5 88.5t-126.5 28.5t-124.5 -30.5t-78.5 -86.5h411zM623 1297q0 38 25 64t63 26t63 -26t25 -64v-4q-1 -49 -20 -92
t-51.5 -75t-76 -50.5t-92.5 -18.5q-50 0 -94 19t-77 51.5t-52 76t-19 93.5q0 19 7 35.5t19 28.5t28 19t34 7q38 0 64 -26t26 -64v-4q2 -24 20 -42t44 -18t45 19t19 45z" />
    <glyph glyph-name="ecaron" unicode="&#x11b;" horiz-adv-x="1035" 
d="M329 349q31 -51 80.5 -76.5t109.5 -25.5q40 0 68.5 6.5t50.5 21.5q36 25 68.5 30t61.5 -6q20 -8 36.5 -22.5t27.5 -33.5t16 -41.5t2 -45t-15 -44t-34 -39.5q-19 -15 -44.5 -30.5t-59 -27.5t-77.5 -19.5t-101 -7.5q-99 0 -186 37.5t-152.5 102.5t-103.5 151.5t-38 185.5
t38 186t103.5 151.5t152.5 102t186 37.5q97 0 184 -36.5t152 -100.5t103.5 -149.5t40.5 -183.5q0 -55 -35.5 -89t-92.5 -34h-542zM732 565q-27 60 -81.5 88.5t-126.5 28.5t-124.5 -30.5t-78.5 -86.5h411zM619 1101q-12 -11 -24 -18q-26 -16 -55 -14q-26 0 -49 14
q-13 8 -23 18l-200 202q-24 24 -29.5 51t3 51.5t27.5 43.5t43.5 27.5t51.5 3.5t52 -29l127 -126l128 126q24 24 51.5 29t52 -3.5t43.5 -27.5t27.5 -43.5t3 -51.5t-29.5 -51z" />
    <glyph glyph-name="ecircumflex" unicode="&#xea;" horiz-adv-x="1035" 
d="M329 349q31 -51 80.5 -76.5t109.5 -25.5q40 0 68.5 6.5t50.5 21.5q36 25 68.5 30t61.5 -6q20 -8 36.5 -22.5t27.5 -33.5t16 -41.5t2 -45t-15 -44t-34 -39.5q-19 -15 -44.5 -30.5t-59 -27.5t-77.5 -19.5t-101 -7.5q-99 0 -186 37.5t-152.5 102.5t-103.5 151.5t-38 185.5
t38 186t103.5 151.5t152.5 102t186 37.5q97 0 184 -36.5t152 -100.5t103.5 -149.5t40.5 -183.5q0 -55 -35.5 -89t-92.5 -34h-542zM732 565q-27 60 -81.5 88.5t-126.5 28.5t-124.5 -30.5t-78.5 -86.5h411zM627 1442.07q-12 10.999 -24 17.998q-26 15.999 -55 14
q-26 0 -49 -14q-13 -7.99902 -23 -17.998l-200 -201.988q-24 -23.998 -29.5 -50.9971q-5.5 -26.998 3 -51.4971q8.5 -24.498 27.5 -43.4971t43.5 -27.498t51.5 -3.5q27 5 52 28.998l127 125.993l128 -125.993q24 -23.998 51.5 -28.998q27.5 -4.99902 52 3.5t43.5 27.498
t27.5 43.4971q8.5 24.499 3 51.4971q-5.5 26.999 -29.5 50.9971z" />
    <glyph glyph-name="edieresis" unicode="&#xeb;" horiz-adv-x="1035" 
d="M329 349q31 -51 80.5 -76.5t109.5 -25.5q40 0 68.5 6.5t50.5 21.5q36 25 68.5 30t61.5 -6q20 -8 36.5 -22.5t27.5 -33.5t16 -41.5t2 -45t-15 -44t-34 -39.5q-19 -15 -44.5 -30.5t-59 -27.5t-77.5 -19.5t-101 -7.5q-99 0 -186 37.5t-152.5 102.5t-103.5 151.5t-38 185.5
t38 186t103.5 151.5t152.5 102t186 37.5q97 0 184 -36.5t152 -100.5t103.5 -149.5t40.5 -183.5q0 -55 -35.5 -89t-92.5 -34h-542zM732 565q-27 60 -81.5 88.5t-126.5 28.5t-124.5 -30.5t-78.5 -86.5h411zM609 1203q0 28 11 53.5t30.5 45t44.5 30.5t54 11t54.5 -11
t44.5 -30.5t30 -45t11 -53.5q0 -29 -11 -54.5t-30 -44.5t-44.5 -30t-54.5 -11t-54 11t-44.5 30t-30.5 44.5t-11 54.5zM209 1203q0 28 11 53.5t30 45t44.5 30.5t54.5 11q28 0 53.5 -11t45 -30.5t30.5 -45t11 -53.5q0 -29 -11 -54.5t-30.5 -44.5t-45 -30t-53.5 -11
q-29 0 -54.5 11t-44.5 30t-30 44.5t-11 54.5z" />
    <glyph glyph-name="edotaccent" unicode="&#x117;" horiz-adv-x="1035" 
d="M329 349q31 -51 80.5 -76.5t109.5 -25.5q40 0 68.5 6.5t50.5 21.5q36 25 68.5 30t61.5 -6q20 -8 36.5 -22.5t27.5 -33.5t16 -41.5t2 -45t-15 -44t-34 -39.5q-19 -15 -44.5 -30.5t-59 -27.5t-77.5 -19.5t-101 -7.5q-99 0 -186 37.5t-152.5 102.5t-103.5 151.5t-38 185.5
t38 186t103.5 151.5t152.5 102t186 37.5q97 0 184 -36.5t152 -100.5t103.5 -149.5t40.5 -183.5q0 -55 -35.5 -89t-92.5 -34h-542zM732 565q-27 60 -81.5 88.5t-126.5 28.5t-124.5 -30.5t-78.5 -86.5h411zM384 1212q0 31 12 58t32.5 47.5t47.5 32.5t58 12t58 -12t47.5 -32.5
t32.5 -47.5t12 -58t-12 -58t-32.5 -47.5t-47.5 -32.5t-58 -12t-58 12t-47.5 32.5t-32.5 47.5t-12 58z" />
    <glyph glyph-name="egrave" unicode="&#xe8;" horiz-adv-x="1035" 
d="M329 349q31 -51 80.5 -76.5t109.5 -25.5q40 0 68.5 6.5t50.5 21.5q36 25 68.5 30t61.5 -6q20 -8 36.5 -22.5t27.5 -33.5t16 -41.5t2 -45t-15 -44t-34 -39.5q-19 -15 -44.5 -30.5t-59 -27.5t-77.5 -19.5t-101 -7.5q-99 0 -186 37.5t-152.5 102.5t-103.5 151.5t-38 185.5
t38 186t103.5 151.5t152.5 102t186 37.5q97 0 184 -36.5t152 -100.5t103.5 -149.5t40.5 -183.5q0 -55 -35.5 -89t-92.5 -34h-542zM732 565q-27 60 -81.5 88.5t-126.5 28.5t-124.5 -30.5t-78.5 -86.5h411zM459.017 1107q19.999 -20 43.9971 -29.5q23.999 -9.5 48.9971 -9.5
q24.999 0 48.4971 9.5q23.499 9.5 42.4971 29.5q19.999 19 29.499 43.5q9.49902 24.5 9.49902 49.5t-9.49902 49q-9.5 24 -29.499 44l-107.993 108q-18.999 19 -43.4971 28.5q-24.499 9.5 -49.9971 9.5t-49.4971 -9.5q-23.998 -9.5 -42.9971 -28.5q-19.999 -20 -29.498 -44
q-9.5 -24 -9.5 -49t10 -48.5q9.99902 -23.5 28.998 -42.5z" />
    </font>
</defs>
</svg>
