<svg xmlns="http://www.w3.org/2000/svg" xmlns:xlink="http://www.w3.org/1999/xlink" viewBox="0 0 197.34 284.05"><defs><style>.cls-1{fill:#823c84;}.cls-2{fill:url(#Degradado_sin_nombre_11);}.cls-3{fill:#f5bcba;}.cls-4{fill:url(#Degradado_sin_nombre_11-2);}.cls-5{fill:url(#Degradado_sin_nombre_11-3);}.cls-6{fill:url(#Degradado_sin_nombre_11-4);}.cls-7{fill:#525263;}.cls-8{fill:url(#Degradado_sin_nombre_11-5);}.cls-9{fill:#2e2e3f;}.cls-10{fill:url(#Degradado_sin_nombre_11-6);}.cls-11{fill:url(#Degradado_sin_nombre_11-7);}.cls-12{fill:url(#Degradado_sin_nombre_11-8);}.cls-13{fill:url(#Degradado_sin_nombre_11-9);}.cls-14{fill:url(#Degradado_sin_nombre_11-10);}.cls-15{fill:#f2f2f2;}.cls-16{fill:#3d3d54;}.cls-17{fill:none;}.cls-18{fill:url(#Degradado_sin_nombre_11-11);}</style><linearGradient id="Degradado_sin_nombre_11" x1="640.49" y1="-29.94" x2="681.53" y2="-29.31" gradientTransform="matrix(0.77, 0, 0, -0.77, -372.81, 55.05)" gradientUnits="userSpaceOnUse"><stop offset="0.01"/><stop offset="0.13" stop-opacity="0.69"/><stop offset="1" stop-opacity="0"/></linearGradient><linearGradient id="Degradado_sin_nombre_11-2" x1="764.68" y1="10.21" x2="452.43" y2="-315.94" xlink:href="#Degradado_sin_nombre_11"/><linearGradient id="Degradado_sin_nombre_11-3" x1="681.43" y1="-112.14" x2="591.8" y2="-205.77" xlink:href="#Degradado_sin_nombre_11"/><linearGradient id="Degradado_sin_nombre_11-4" x1="550.85" y1="-98.45" x2="671.98" y2="-174.32" xlink:href="#Degradado_sin_nombre_11"/><linearGradient id="Degradado_sin_nombre_11-5" x1="608.34" y1="-139.88" x2="702.64" y2="-139.88" xlink:href="#Degradado_sin_nombre_11"/><linearGradient id="Degradado_sin_nombre_11-6" x1="693.2" y1="-229.19" x2="667.25" y2="-222.53" xlink:href="#Degradado_sin_nombre_11"/><linearGradient id="Degradado_sin_nombre_11-7" x1="681.99" y1="-240.47" x2="708.89" y2="-240.47" xlink:href="#Degradado_sin_nombre_11"/><linearGradient id="Degradado_sin_nombre_11-8" x1="581.77" y1="13.54" x2="609.5" y2="-9.53" gradientTransform="matrix(0.77, 0, 0, -0.77, -329.2, 59.18)" xlink:href="#Degradado_sin_nombre_11"/><linearGradient id="Degradado_sin_nombre_11-9" x1="656.47" y1="9.23" x2="605.22" y2="-11.07" xlink:href="#Degradado_sin_nombre_11"/><linearGradient id="Degradado_sin_nombre_11-10" x1="570.02" y1="-50.16" x2="633.52" y2="-47.96" xlink:href="#Degradado_sin_nombre_11"/><linearGradient id="Degradado_sin_nombre_11-11" x1="623.08" y1="-154.14" x2="694.3" y2="-124.19" xlink:href="#Degradado_sin_nombre_11"/></defs><g id="Capa_2" data-name="Capa 2"><g id="Layer_1" data-name="Layer 1"><path class="cls-1" d="M154.92,85.36a4.41,4.41,0,0,1-.88,1.25,21.34,21.34,0,0,1-10.95,6.18,20,20,0,0,1-4.5.51c-.89-5.73-1.79-11.47-2.49-17.23h0c-.55-4.5-1-9-1.15-13.5-.13-2.83-6.26-12.69-5-15.33,1.39-2.9,11.35,7,12.47,8.93,6.22,10.44,8.45,18.5,12.72,27.47A2.29,2.29,0,0,1,154.92,85.36Z"/><path class="cls-2" d="M144.1,91.74a7.31,7.31,0,0,1-1,1.07,20,20,0,0,1-4.5.51c-.89-5.74-1.79-11.48-2.49-17.23h0q.39-6.8,1.43-13.52c-.29,1.88,2,6,2.64,7.81l2.72,8C144.3,82.58,147.32,87.66,144.1,91.74Z"/><path class="cls-3" d="M140.77,101.55c.62,3.77,1.4,7.59,3.27,10.92,1,1.72,2.38,3.4,4.32,3.7a6.49,6.49,0,0,0,3.17-.47,21.6,21.6,0,0,0,5.81-3,44,44,0,0,0,4.79-4.25,58.54,58.54,0,0,0,6.12-6.76c.86-1.16,1.64-2.38,2.58-3.48,3.86-4.6,10-6.66,14.42-10.77,1.19-1.09,3.58-6.12,3.4-7.72-1.6-.93-4.9,2.8-6.68,3.34s-3.44,1.43-5.22,1.93a12.87,12.87,0,0,1-6.55.08c-.73-.18-1.59-11.64-2.32-11.38a2.81,2.81,0,0,0-1,.68c-1.49,1.55-2.31,14.74-3.56,16.45A28,28,0,0,1,157,96.56c-.21.14-.47.3-.7.18a.67.67,0,0,1-.28-.48c-.61-2.26-1.3-4.51-2.05-6.73-.53-1.54-1.27-3.24-2.82-3.71-1.38-.41-2.82.37-4.06,1.12-1.59,1-3.2,1.94-4.78,2.92-.88.54-1.95,1.06-2.36,2.06-.51,1.2-.08,2.85.06,4.08Q140.32,98.79,140.77,101.55Z"/><path class="cls-1" d="M154.87,206.64c0,2.37-.12,4.69-.32,7A77.44,77.44,0,0,1,0,207.46v-.77a77.44,77.44,0,0,1,154.88-1.55v1.5Z"/><path class="cls-4" d="M154.87,206.64c0,2.37-.12,4.69-.32,7-17.82,12.13-44.05,19.78-73.3,19.78-34,0-63.87-10.33-81.25-26v-.77a77.44,77.44,0,0,1,154.88-1.55v1.55Z"/><path class="cls-5" d="M112.94,176.37c3.09,1.11,6.46,1.91,9,4a17.88,17.88,0,0,1,4.72,7.25,57.84,57.84,0,0,1,3.86,28.59c-.3,2.58-.77,5.24-.1,7.73s3,4.82,5.55,4.51c3.58-7.11,3.66-15.41,3.66-23.36,0-5.81,0-11.75-1.94-17.23-1.59-4.51-4.41-8.5-7.31-12.29-10.6-13.91-23.42-26.88-39.74-33.14a3.25,3.25,0,0,0-2.19-.27c-3.36,1.23-2.81,7.21-1.51,9.62a89.28,89.28,0,0,0,6.19,9.57A42.39,42.39,0,0,0,112.94,176.37Z"/><path class="cls-6" d="M82.38,158.91a19.06,19.06,0,0,1,.4-3.1,2.85,2.85,0,0,1,2.07-2.09,8.81,8.81,0,0,0,1.26-.12c.86-.26,1.23-1.25,1.47-2.11l2.75-9.58a12.07,12.07,0,0,0,.65-5.68c-.63-2.94-3.33-4.93-6-6.36-1.9-1.05-4-2-6.18-1.59-3.29.61-5.2,4-6.43,7.12a33.72,33.72,0,0,0-2.6,10.5c-.22,4.18-.57,14.42,2,18.07C75.41,169.11,81.81,163.54,82.38,158.91Z"/><path class="cls-7" d="M124.06,146.81c7,2.38,14.48,3.37,21.24,6.39a1.23,1.23,0,0,1,.88,1.85,185.09,185.09,0,0,0-9.55,52.54,39.26,39.26,0,0,0,12.24.27,2.62,2.62,0,0,0,1.29-.41,2.87,2.87,0,0,0,.82-1.22q9.79-22,17.6-44.85c.92-2.7,1.83-5.52,1.46-8.35-.53-4.12-3.63-7.36-6.58-10.29l-22.94-22.89a6.28,6.28,0,0,0-2.1-1.54,5.94,5.94,0,0,0-2.84-.14c-9.05,1.12-21.41,1.47-38,.77-2.15-.09,8.5,12.19,9.39,14.54.71,1.87,3,4.28,4.34,5.74A31.42,31.42,0,0,0,124.06,146.81Z"/><path class="cls-8" d="M124.06,146.81c7,2.38,14.48,3.37,21.24,6.39a1.23,1.23,0,0,1,.88,1.85,185.09,185.09,0,0,0-9.55,52.54,39.26,39.26,0,0,0,12.24.27,2.62,2.62,0,0,0,1.29-.41,2.87,2.87,0,0,0,.82-1.22q9.79-22,17.6-44.85c.92-2.7,1.83-5.52,1.46-8.35-.53-4.12-3.63-7.36-6.58-10.29l-22.94-22.89a6.28,6.28,0,0,0-2.1-1.54,5.94,5.94,0,0,0-2.84-.14c-9.05,1.12-21.41,1.47-38,.77-2.15-.09,8.5,12.19,9.39,14.54.71,1.87,3,4.28,4.34,5.74A31.42,31.42,0,0,0,124.06,146.81Z"/><path class="cls-9" d="M135.45,217.74a7.94,7.94,0,0,0-1.12,2.88,45.9,45.9,0,0,0-.91,5.45,6.06,6.06,0,0,0,.6,4.13,6.63,6.63,0,0,0,3.4,2.08,76.39,76.39,0,0,1,9.17,4.51c2,1.09,4.07,2.23,6.34,2.32s4.78-1.16,5.3-3.37a6.47,6.47,0,0,0-.26-3.18,25.2,25.2,0,0,0-7-11.59,10.14,10.14,0,0,0-2-1.49,13.49,13.49,0,0,0-2.12-.87,46.6,46.6,0,0,0-6.33-1.81C138.65,216.5,136.75,215.94,135.45,217.74Z"/><path class="cls-10" d="M135.45,217.74a7.94,7.94,0,0,0-1.12,2.88,45.9,45.9,0,0,0-.91,5.45,6.06,6.06,0,0,0,.6,4.13,6.63,6.63,0,0,0,3.4,2.08,76.39,76.39,0,0,1,9.17,4.51c2,1.09,4.07,2.23,6.34,2.32s4.78-1.16,5.3-3.37a6.47,6.47,0,0,0-.26-3.18,25.2,25.2,0,0,0-7-11.59,10.14,10.14,0,0,0-2-1.49,13.49,13.49,0,0,0-2.12-.87,46.6,46.6,0,0,0-6.33-1.81C138.65,216.5,136.75,215.94,135.45,217.74Z"/><path class="cls-3" d="M137.75,208.17a50.68,50.68,0,0,0-.91,9.28c0,1.36.09,2.88,1.07,3.86a4.44,4.44,0,0,0,3.29.94,12.6,12.6,0,0,0,4.15-.86,1.41,1.41,0,0,0,1.09-1.21,55.33,55.33,0,0,0,1.86-13.55,3.47,3.47,0,0,0-.42-2.07c-.74-1-2.26-1-3.5-.74a28.79,28.79,0,0,0-4.63,1.42C138.33,205.73,138,206.71,137.75,208.17Z"/><path class="cls-3" d="M153,222.7a28.55,28.55,0,0,1,1.36,4.23,7.36,7.36,0,0,0,1.1,3.21,5,5,0,0,0,3.94,1.43,7.89,7.89,0,0,0,3.49-.59,2.73,2.73,0,0,0,1.36-1.17,3.28,3.28,0,0,0,.21-1.67,26.65,26.65,0,0,0-2.86-11.28,43.94,43.94,0,0,0-3.43-5.19,3.25,3.25,0,0,0-1.88-1.55A3.07,3.07,0,0,0,154,211c-1.27,1-4.08,2.56-3.79,4.37C150.6,217.77,152.12,220.41,153,222.7Z"/><path class="cls-9" d="M162.35,225.55a29.24,29.24,0,0,0-2.54,1.6,20.48,20.48,0,0,1-4.17,1.25,1.47,1.47,0,0,0-1.33,1.4,19.5,19.5,0,0,0,.26,6.33q1.06,6.75,2.49,13.45c.39,1.84.86,3.78,2.2,5.1a7.76,7.76,0,0,0,5.27,1.83,11,11,0,0,0,5.18-1,9.74,9.74,0,0,0,5-6.83,15,15,0,0,0-1-8.57,42.11,42.11,0,0,0-2.76-5.34q-2.09-3.59-4.16-7.17C165.69,225.81,164.73,224.54,162.35,225.55Z"/><path class="cls-11" d="M162.35,225.55a29.24,29.24,0,0,0-2.54,1.6,20.48,20.48,0,0,1-4.17,1.25,1.47,1.47,0,0,0-1.33,1.4,19.5,19.5,0,0,0,.26,6.33q1.06,6.75,2.49,13.45c.39,1.84.86,3.78,2.2,5.1a7.76,7.76,0,0,0,5.27,1.83,11,11,0,0,0,5.18-1,9.74,9.74,0,0,0,5-6.83,15,15,0,0,0-1-8.57,42.11,42.11,0,0,0-2.76-5.34q-2.09-3.59-4.16-7.17C165.69,225.81,164.73,224.54,162.35,225.55Z"/><path class="cls-3" d="M68.73,84.12a21.06,21.06,0,0,0-1.35,5.3A127.53,127.53,0,0,0,66,103.63c-.39,9.08.2,18.19-.06,27.27-.26,9.45-1.37,19.25,2,28.07a10.89,10.89,0,0,0,2.61,4.25,5,5,0,0,0,4.64,1.26,5.15,5.15,0,0,0,3.09-3.36,15.39,15.39,0,0,0,.55-4.68L79,147.8c0-.18,0-.38.17-.46a.48.48,0,0,1,.45.08q1,.87,1.89,1.83a1.83,1.83,0,0,0,2.39.19,2,2,0,0,0,.37-1.59c-.37-3.74-3.63-6.44-5.57-9.66-2.8-4.64-2.8-10.48-2.1-15.87a144.74,144.74,0,0,1,4.51-19.91l1.55-5.56C83.8,92.63,85,88,83.25,84A10.8,10.8,0,0,0,75.7,77.8C72.47,77.21,69.9,81.49,68.73,84.12Z"/><path class="cls-1" d="M140.47,119.25c-1,2.68-6.63-.45-9.84,1.16-6.14,3.09-13.14-.09-20,0-7.28.13-12.31,7.3-19.53,8.21a3.87,3.87,0,0,1-1.59,0,3.64,3.64,0,0,1-2-2.22,19.65,19.65,0,0,1-1.33-4.51c-.9-5.13,0-10.63,1-15.85l2.4-13.26Q91,85.06,92.37,77.23a80.58,80.58,0,0,1,2.31-10.18c.19-.58.38-1.14.59-1.7a89.87,89.87,0,0,1,6.48-13.08c1.55-2.68,3.09-5.41,5.48-7.44a19.29,19.29,0,0,1,9.56-3.91,19.41,19.41,0,0,1,9.33.54c1.72.6,2.37,2.43,3.74,3.55a23.4,23.4,0,0,1,4.6,4.51,20.78,20.78,0,0,1,2.82,6.75c4.84,18.84-2.17,39.17,2.44,58.06C140.24,116.55,141.26,117.13,140.47,119.25Z"/><polygon class="cls-12" points="133.88 53.08 134.49 57.02 132.17 55.73 132.17 66.2 129.53 54.58 132.08 50.85 133.88 53.08"/><path class="cls-13" d="M114.26,52.82l1.46.77,2.32,2-6.19,16.58s9-13.81,9.28-20.86a39.2,39.2,0,0,0-1.6-12.83Z"/><path class="cls-14" d="M94.46,100.35a44.7,44.7,0,0,0,0,11.44,35.28,35.28,0,0,1,.66,7.16,2.11,2.11,0,0,1-.42,1.3,2.28,2.28,0,0,1-1.28.5l-7.25,1.17c-.9-5.13,0-10.64,1-15.85l2.4-13.27q1.39-7.72,2.8-15.55a80.47,80.47,0,0,1,2.32-10.17c.19-.58.38-1.15.59-1.7,2.4-1.33,5.73-2.32,7.21-.17,1.54,2.32-.49,7.72-1.09,10C99.17,83.65,95.56,91.68,94.46,100.35Z"/><path class="cls-3" d="M150,33.36a13.22,13.22,0,0,1-.08,2.88A2.14,2.14,0,0,1,148,38c-2.42-.18-4.15,2.13-6.07,3.61a10.2,10.2,0,0,1-10.6,1,1.4,1.4,0,0,0-1.76.78,4,4,0,0,0-.15,2.12L130.3,54c.17,1.63.18,3.62-1.2,4.5s-3,.12-4.16-.88a14,14,0,0,1-3.77-6.31,29.37,29.37,0,0,1,6.27-28.4,17.9,17.9,0,0,1,4.46-3.62,19.1,19.1,0,0,1,5.56-1.87,15.25,15.25,0,0,1,5.3-.3,10.76,10.76,0,0,1,6.14,3.47c1.17,1.28,2.32,5.11,3.55,5.73C151.53,28.66,150.08,30.72,150,33.36Z"/><path class="cls-9" d="M131.65.18a6.65,6.65,0,0,0-3.43.1c-2.18.77-3.4,3.05-4.19,5.22s-1.44,4.54-3.15,6.08c-1.48,1.33-3.57,1.86-4.9,3.33-1.55,1.71-1.69,4.24-1.55,6.53a9.22,9.22,0,0,0,1.4,4.87c.82,1.11,2.08,1.88,2.72,3.09.73,1.38,1,3.52,2.54,3.62a2.62,2.62,0,0,0,1.72-.78,11.8,11.8,0,0,0,3.45-5.09,7.09,7.09,0,0,1,1.46-3.09c.83-.77,2.53-.82,2.91.28a3.46,3.46,0,0,1-.31,2.05c-.2.68-.11,1.6.55,1.83,1.25-1.93,1.95-4.21,3.44-6a8.49,8.49,0,0,1,12-1,8.61,8.61,0,0,1,1.44,1.58c.77,1.11,1.3,2.42,2.38,3.21a6.82,6.82,0,0,0,3.38,1c2.66.26,5.47.36,7.86-.82s4.17-4.05,3.25-6.56c-.73-2-2.8-3.09-4.81-3.72s-4.15-1-5.92-2.08c-2.41-1.55-3.69-4.3-5.09-6.79s-3.29-5.07-6.09-5.65a11,11,0,0,0-3.44,0,13.39,13.39,0,0,1-3.4.26C134.46,1.44,133.12.5,131.65.18Z"/><path class="cls-15" d="M131.65,63.67a99.38,99.38,0,0,1,1.55,27.16c-.61,7.56-2.07,15.06-2,22.64a37.9,37.9,0,0,1-.2,6.39c-.34,2.1-14.43,1.3-16.49,1.28-3.46,0,.93,4.63-1.67,2.38-4.09-3.57-5.91-9.12-6.42-14.52-.72-7.68.86-15.38,2.58-22.91a85.94,85.94,0,0,1,4.59-15.36c2.64-6.06,6.82-13.78,8.16-20.27.2-1-3.09-4.4-1.67-4.35.92,0,.48,1.43.65,2.14a6.79,6.79,0,0,0,1.61,2.89,7.65,7.65,0,0,0,4.16,2.48c1,.19,2.23.14,3,.89.92.89.77,2.64,1,3.86C130.89,60.12,131.29,61.88,131.65,63.67Z"/><path class="cls-1" d="M100.36,40.68a39.66,39.66,0,0,0-10,7.16,83.65,83.65,0,0,0-7.11,7.23c-2,2.32-3.75,4.72-5.82,6.91-2.86,3-6.43,5.91-7,10a12.82,12.82,0,0,0,1.1,6.29,18.14,18.14,0,0,0,3.21,5.51,12.64,12.64,0,0,0,6.64,3.87,6,6,0,0,0,2.45.1,7.58,7.58,0,0,0,3.09-1.73,53,53,0,0,0,5.71-5c1.83-1.89,3.37-4,5.15-6,1.55-1.67,3.19-3.18,4.74-4.82,1.84-2,3.49-4.1,5.14-6.24a87.49,87.49,0,0,0,6.39-9.14,42.93,42.93,0,0,0,3.81-8.9c.59-2,1.54-4.59-.51-6C113,36.88,104.71,38.65,100.36,40.68Z"/><path class="cls-1" d="M100.36,40.68a39.66,39.66,0,0,0-10,7.16,83.65,83.65,0,0,0-7.11,7.23c-2,2.32-3.75,4.72-5.82,6.91-2.86,3-6.43,5.91-7,10a12.82,12.82,0,0,0,1.1,6.29,18.14,18.14,0,0,0,3.21,5.51,12.64,12.64,0,0,0,6.64,3.87,6,6,0,0,0,2.45.1,7.58,7.58,0,0,0,3.09-1.73,53,53,0,0,0,5.71-5c1.83-1.89,3.37-4,5.15-6,1.55-1.67,3.19-3.18,4.74-4.82,1.84-2,3.49-4.1,5.14-6.24a87.49,87.49,0,0,0,6.39-9.14,42.93,42.93,0,0,0,3.81-8.9c.59-2,1.54-4.59-.51-6C113,36.88,104.71,38.65,100.36,40.68Z"/><path class="cls-16" d="M165.14,76a3.8,3.8,0,0,0-1.24,5.15A19,19,0,0,0,169,86.9c1.24,1.33,4,1.55,6.49.1s14.27-7.88,20.17-12.07a3.86,3.86,0,0,0,1-5.37,1,1,0,0,0-.12-.17l-4.94-6.18a3.79,3.79,0,0,0-5-.84Z"/><path class="cls-17" d="M87.78,128.77l-.17-.18"/><path class="cls-7" d="M86.72,142.56a23.29,23.29,0,0,0,4.53,8.73c2.32,2.71,5.47,4.64,8.5,6.48l12.76,7.77a43.79,43.79,0,0,1,5.36,3.62c4.18,3.45,6.95,8.25,9.65,13l18.6,32.43c.95,1.66,2.27,3.54,4.18,3.48a5.45,5.45,0,0,0,2.78-1.24c2.39-1.68,4.95-3.58,5.66-6.42a11.43,11.43,0,0,0-.59-6c-2.86-9.67-7.34-18.77-11.84-27.82Q135.58,155,124.56,133.65c-2-3.79-4.33-9.69-7.56-12.47,0,0-30-1.82-30.77,1.15A37.57,37.57,0,0,0,86.72,142.56Z"/><path class="cls-18" d="M86.72,142.56a23.29,23.29,0,0,0,4.53,8.73c2.32,2.71,5.47,4.64,8.5,6.48l12.76,7.77a43.79,43.79,0,0,1,5.36,3.62c4.18,3.45,6.95,8.25,9.65,13l18.6,32.43c.95,1.66,2.27,3.54,4.18,3.48a5.45,5.45,0,0,0,2.78-1.24c2.39-1.68,4.95-3.58,5.66-6.42a11.43,11.43,0,0,0-.59-6c-2.86-9.67-7.34-18.77-11.84-27.82Q135.58,155,124.56,133.65c-2-3.79-4.33-9.69-7.56-12.47,0,0-30-1.82-30.77,1.15A37.57,37.57,0,0,0,86.72,142.56Z"/><polygon class="cls-1" points="120.47 36.45 116.23 38.12 113.65 52.52 122.21 52.13 120.47 36.45"/><path class="cls-1" d="M129.45,51.79v1.94a7.75,7.75,0,0,0,0,.84,8,8,0,0,0,.19.85l1.07,4.2.44-6.83c1.26.61,2.55,1.17,3.86,1.65a9.8,9.8,0,0,0-.77-3c-.78-2-1.49-4-2.32-5.91a4.85,4.85,0,0,0-.84-1.42,1.8,1.8,0,0,0-1.46-.62c-.78.33-.29,3.22-.28,3.87Z"/><path class="cls-1" d="M192,72.58l-15.7,9.93a1.37,1.37,0,0,1-1.69-.31l-5-5.63a.93.93,0,0,1,0-1.31l.17-.14,15.73-9.92a1.36,1.36,0,0,1,1.69.31l5,5.62a.93.93,0,0,1,0,1.31Z"/></g></g></svg>