<svg xmlns="http://www.w3.org/2000/svg" xmlns:xlink="http://www.w3.org/1999/xlink" viewBox="0 0 36.97 34.76"><defs><style>.cls-1{fill:url(#Degradado_sin_nombre_15);}</style><linearGradient id="Degradado_sin_nombre_15" y1="17.38" x2="36.97" y2="17.38" gradientUnits="userSpaceOnUse"><stop offset="0.2" stop-color="#823c84"/><stop offset="0.8" stop-color="#4b89c7"/></linearGradient></defs><g id="Capa_2" data-name="Capa 2"><g id="Capa_1-2" data-name="Capa 1"><path class="cls-1" d="M5.58,2.74A5.79,5.79,0,0,1,8.84,3.89c2,1.49,4,2.95,6,4.35a4.66,4.66,0,0,0,6-.5c-.65-.29-1.26-.53-1.86-.83A33.23,33.23,0,0,1,16,5.35c-1.53-1-3-2.12-4.5-3.11A7.39,7.39,0,0,0,7.88.87a6.53,6.53,0,0,0-3.62.67A3.52,3.52,0,0,0,2.64,3.46,5.07,5.07,0,0,1,5.58,2.74ZM37,5.71a.27.27,0,0,0,0-.12A7,7,0,0,0,34.05,1.5,13.07,13.07,0,0,0,32.79.79,6.65,6.65,0,0,0,26,1.08c-1,.63-2.07,1.18-3.1,1.77a9.05,9.05,0,0,1-3.26,1.29c-.63.08-1.25.19-1.94.29a4,4,0,0,0,2.63.62,10.7,10.7,0,0,0,4.29-1.47,13.7,13.7,0,0,1,5.63-1.84A5.76,5.76,0,0,1,35,3.34,9.44,9.44,0,0,1,37,5.85.58.58,0,0,0,37,5.71ZM12.56,18.37a2.4,2.4,0,0,1,1.28-1c.23.15.45.32.68.49a11.9,11.9,0,0,0,1.28.86,9.41,9.41,0,0,0,2.22.9,7.3,7.3,0,0,1-2.46.74A3.12,3.12,0,0,1,13,19.64,1.13,1.13,0,0,1,12.56,18.37Zm9.65-2.59a4.37,4.37,0,0,0-.83-.49l-.44-.22c-.53-.27-1-.52-1.52-.8-.29-.17-.56-.34-.83-.52a44.89,44.89,0,0,0,3.13-3.48c.87-1.06,1.65-2.22,2.53-3.27a18.54,18.54,0,0,1,2.16-2.18,4.45,4.45,0,0,1,4.37-1.05,7.81,7.81,0,0,1,5,3.74A10.09,10.09,0,0,1,37,12.94a19.77,19.77,0,0,1-4.69,11.65,33,33,0,0,1-9.38,8.15l-.05,0c-.69.37-1.42.66-2.12,1a7.12,7.12,0,0,1-2.69,1c-.82,0-1.42-.08-1-.73a2,2,0,0,1,.62-.58c1.15-.6,2.3-1.22,3.47-1.79,1.51-.76,4.27-2.2,4.36-4.29-.23.13-.8.56-.8.56s-.92.73-1.39,1.06a54,54,0,0,1-5,2.82,8.74,8.74,0,0,1-1.91.82L16,32.7a2,2,0,0,1-.73,0,1,1,0,0,1-.35-.17,1.07,1.07,0,0,1-.28-1.31c.24-.37.73-.47,1.11-.61s1-.39,1.56-.59a24.37,24.37,0,0,0,3.16-1.45c.59-.34,1.14-.72,1.72-1.06a8.54,8.54,0,0,0,2.22-1.58,3.24,3.24,0,0,0,.44-.67.55.55,0,0,0-.83-.69l-.1.08-1.17.85c-.78.57-1.58,1.12-2.38,1.67s-1.63,1.07-2.46,1.57A11.76,11.76,0,0,1,15.39,30a8.42,8.42,0,0,1-1.12.27,3.61,3.61,0,0,1-1.64,0,1.12,1.12,0,0,1-.79-.79c-.24-.79.87-1.42,1.44-1.68.76-.35,1.53-.65,2.26-1a35.67,35.67,0,0,0,6.85-4.53l.52-.44a.52.52,0,0,0,.14-.19.55.55,0,0,0-.82-.68l-.47.35c-.73.54-1.46,1.08-2.2,1.61-1.44,1-2.94,2-4.46,2.92a9,9,0,0,1-4.82,1.56c-.54,0-1.5-.13-1.6-.82a1.19,1.19,0,0,1,.54-.89l.06,0,.07,0c1-.42,2-.83,2.92-1.26.59-.25,1.17-.53,1.75-.81a54.26,54.26,0,0,0,6.23-3.69,3.72,3.72,0,0,0,2-.92,2,2,0,0,0,.64-2.24,2.27,2.27,0,0,0-.29-.48Zm-.42,2.52a3.14,3.14,0,0,1-2.58.71h0a7.77,7.77,0,0,1-2.93-1A16.41,16.41,0,0,1,14.72,17a4.44,4.44,0,0,0-2.41-1c-2-.07-3.61,1.47-3.31,4.17a15.09,15.09,0,0,0,.9,3.72c.07.17.13.34.19.53-.45.21-.89.39-1.3.62a1.83,1.83,0,0,0-1.08,1.43,1.7,1.7,0,0,0,.16.89,2,2,0,0,0,1.81,1.08c.49,0,1-.08,1.49-.12,0,.14-.09.3-.13.46-.38,1.41.13,2.3,1.42,2.44a9.37,9.37,0,0,0,1.06,0c.14,2.31.46,2.6,2.57,2.43a11,11,0,0,1,0,1.15,11.27,11.27,0,0,1-1.49-.65,27.64,27.64,0,0,1-5.08-3.79,27.21,27.21,0,0,1-4-4.06A37.67,37.67,0,0,1,.67,15.84,11,11,0,0,1,.21,10C1,6.31,4.1,4,7.32,4.69a6.6,6.6,0,0,1,3.85,2.19c1.45,1.71,2.95,3.38,4.35,5.14A12.13,12.13,0,0,0,18,14.38c.34.23.68.45,1,.66.62.36,1.27.67,1.91,1a8.09,8.09,0,0,1,.76.42,1.48,1.48,0,0,1,.48.57A1.14,1.14,0,0,1,21.79,18.3Z"/></g></g></svg>