<svg xmlns="http://www.w3.org/2000/svg" xmlns:xlink="http://www.w3.org/1999/xlink" viewBox="0 0 903.04 169.15"><defs><style>.cls-1{fill:#823c84;}.cls-2{fill:#4b89c7;}.cls-3{fill:url(#Degradado_sin_nombre_15);}</style><linearGradient id="Degradado_sin_nombre_15" x1="435.72" y1="107.48" x2="566.16" y2="107.48" gradientUnits="userSpaceOnUse"><stop offset="0.2" stop-color="#823c84"/><stop offset="0.8" stop-color="#4b89c7"/></linearGradient></defs><g id="Capa_2" data-name="Capa 2"><g id="Capa_1-2" data-name="Capa 1"><path class="cls-1" d="M143.22,25.93a14.57,14.57,0,0,1,3.61,5.36,17.1,17.1,0,0,1,0,12.38,15.65,15.65,0,0,1-3.61,5.49,16.46,16.46,0,0,1-5.55,3.68,18.37,18.37,0,0,1-6.32,1.29A17.07,17.07,0,0,1,125,53a15.16,15.16,0,0,1-5.41-3.48,49,49,0,0,0-16.84-11.23,52.07,52.07,0,0,0-19.16-3.61,48.42,48.42,0,0,0-19.16,3.87,51.28,51.28,0,0,0-16,10.64,50,50,0,0,0-10.9,16,49.19,49.19,0,0,0-4,19.81,50.38,50.38,0,0,0,29.87,46.32,48.41,48.41,0,0,0,19.67,4.25,49.33,49.33,0,0,0,19-3.42,52.47,52.47,0,0,0,17.1-11.41,14.28,14.28,0,0,1,5.42-3.42,18.71,18.71,0,0,1,12.64,0,15.16,15.16,0,0,1,5.42,3.29,16.27,16.27,0,0,1,3.68,5.55,17.15,17.15,0,0,1,1.22,6.32,17.71,17.71,0,0,1-1.16,6.32,15,15,0,0,1-3.48,5.42,84.07,84.07,0,0,1-60,24.9,79.44,79.44,0,0,1-32.12-6.58,83.9,83.9,0,0,1-26.39-18A85.75,85.75,0,0,1,6.58,117.86,81.46,81.46,0,0,1,0,85.28,82.83,82.83,0,0,1,2.84,63.74a85.09,85.09,0,0,1,20.77-37,81.66,81.66,0,0,1,37-22.39,83.27,83.27,0,0,1,23.1-3.16,84.7,84.7,0,0,1,31.61,6.13A82.69,82.69,0,0,1,143.22,25.93Z"/><path class="cls-1" d="M161.28,107.48a58.83,58.83,0,0,1,4.9-23.94A63.46,63.46,0,0,1,179.47,64,62.54,62.54,0,0,1,199,50.77a61.28,61.28,0,0,1,47.74,0A62,62,0,0,1,266.24,64,63.1,63.1,0,0,1,279.4,83.54a61.45,61.45,0,0,1,0,47.81A63,63,0,0,1,266.24,151a61.8,61.8,0,0,1-19.48,13.22,61.28,61.28,0,0,1-47.74,0A62.34,62.34,0,0,1,179.47,151a63.31,63.31,0,0,1-13.29-19.61A59,59,0,0,1,161.28,107.48Zm33.54,0a26.7,26.7,0,0,0,2.26,10.9,29.07,29.07,0,0,0,6.06,8.9,28.21,28.21,0,0,0,8.91,6,26.8,26.8,0,0,0,10.77,2.19,27.57,27.57,0,0,0,19.74-8.19,28.74,28.74,0,0,0,5.94-8.9,28.25,28.25,0,0,0,0-21.81,29,29,0,0,0-5.94-8.9,27.67,27.67,0,0,0-8.84-6,27.32,27.32,0,0,0-10.9-2.19,27,27,0,0,0-10.77,2.19,28.54,28.54,0,0,0-8.91,6,29.31,29.31,0,0,0-6.06,8.9A26.74,26.74,0,0,0,194.82,107.48Z"/><path class="cls-1" d="M416.74,151.34a16,16,0,0,1-1.29,6.46A17.28,17.28,0,0,1,412,163a15.35,15.35,0,0,1-5.16,3.49,16.92,16.92,0,0,1-6.46,1.22,17.89,17.89,0,0,1-6.58-1.22,17,17,0,0,1-5.48-3.49,16.51,16.51,0,0,1-3.74-5.22,15.42,15.42,0,0,1-1.36-6.46v-46a2.84,2.84,0,0,1,.13-.84,27.37,27.37,0,0,0-2.26-9.74,26.28,26.28,0,0,0-5.35-8,24.38,24.38,0,0,0-7.87-5.36A24.64,24.64,0,0,0,358,79.48a25.12,25.12,0,0,0-10.13,2A23.71,23.71,0,0,0,340,87a24.48,24.48,0,0,0-5.1,8.2,28.24,28.24,0,0,0-1.81,10.25v45.93a16,16,0,0,1-1.29,6.46,17.28,17.28,0,0,1-3.48,5.22,15.25,15.25,0,0,1-5.16,3.49,16.87,16.87,0,0,1-6.45,1.22,17.81,17.81,0,0,1-6.58-1.22,16.24,16.24,0,0,1-5.42-3.49A17.87,17.87,0,0,1,301,157.8a14.72,14.72,0,0,1-1.42-6.46V105.41a59.92,59.92,0,0,1,16.9-42.12A57.81,57.81,0,0,1,335,50.58a59.53,59.53,0,0,1,46.13,0,58.33,58.33,0,0,1,31.09,31.61,59.74,59.74,0,0,1,4.52,23.22v45.93Z"/><path class="cls-2" d="M585.13,17.94a17.68,17.68,0,0,1,5.29-12.71,19.08,19.08,0,0,1,5.68-3.81,17.64,17.64,0,0,1,13.87,0,19.7,19.7,0,0,1,5.81,3.81,17.17,17.17,0,0,1,3.93,5.67,17.54,17.54,0,0,1,1.42,7,17,17,0,0,1-1.42,7,18.08,18.08,0,0,1-3.93,5.68A19.3,19.3,0,0,1,610,34.45a17.64,17.64,0,0,1-13.87,0,18.45,18.45,0,0,1-9.55-9.55A17,17,0,0,1,585.13,17.94ZM620,150.83a16.72,16.72,0,0,1-23.16,15.35,17.18,17.18,0,0,1-5.35-3.55,16.71,16.71,0,0,1-3.68-5.29,15.66,15.66,0,0,1-1.36-6.51V64.12a15.66,15.66,0,0,1,1.36-6.51,16.82,16.82,0,0,1,9.16-8.84,17.41,17.41,0,0,1,6.64-1.29A16,16,0,0,1,610,48.77a16.93,16.93,0,0,1,5.23,3.55,15.66,15.66,0,0,1,3.48,5.29A17.14,17.14,0,0,1,620,64.12Z"/><path class="cls-2" d="M762.15,107.35v1A60.44,60.44,0,0,1,757,131.93a62.36,62.36,0,0,1-32.77,32.32,61.22,61.22,0,0,1-47.55-.07A61.69,61.69,0,0,1,657.19,151,63,63,0,0,1,644,131.35a61.45,61.45,0,0,1,0-47.81A63.1,63.1,0,0,1,657.19,64a61.88,61.88,0,0,1,19.48-13.23,59.63,59.63,0,0,1,23.94-4.84,58.13,58.13,0,0,1,14.58,1.81,68,68,0,0,1,13.41,5V18.58a19,19,0,0,1,1.23-6.84,16.15,16.15,0,0,1,3.48-5.55,17.07,17.07,0,0,1,5.29-3.67,16.77,16.77,0,0,1,13.23,0,17.66,17.66,0,0,1,5.42,3.67,16.3,16.3,0,0,1,3.61,5.55,18.24,18.24,0,0,1,1.29,6.84Zm-33.55.13a26.74,26.74,0,0,0-2.25-10.91,29.34,29.34,0,0,0-6.07-8.9,28.5,28.5,0,0,0-8.9-6,27,27,0,0,0-10.77-2.19,27.37,27.37,0,0,0-10.91,2.19,27.73,27.73,0,0,0-8.83,6,28.8,28.8,0,0,0-5.94,8.9,28.25,28.25,0,0,0,0,21.81,28.56,28.56,0,0,0,5.94,8.9,27.52,27.52,0,0,0,19.74,8.19,26.84,26.84,0,0,0,10.77-2.19,28.16,28.16,0,0,0,8.9-6,29.09,29.09,0,0,0,6.07-8.9A26.69,26.69,0,0,0,728.6,107.48Z"/><path class="cls-2" d="M780.08,107.48A59,59,0,0,1,785,83.54,63.46,63.46,0,0,1,798.27,64a62.65,62.65,0,0,1,19.55-13.23,60.84,60.84,0,0,1,47.42-.06,62.81,62.81,0,0,1,19.42,13A62.18,62.18,0,0,1,897.88,83,60.89,60.89,0,0,1,903,106.57v43.74a16.79,16.79,0,0,1-1.35,6.65,17.37,17.37,0,0,1-3.68,5.48,17.57,17.57,0,0,1-5.42,3.68,16.59,16.59,0,0,1-6.71,1.35,15.88,15.88,0,0,1-8.39-2.19,15.64,15.64,0,0,1-5.67-5.94,60,60,0,0,1-14.32,7.1A49.15,49.15,0,0,1,841.63,169a59.15,59.15,0,0,1-23.81-4.84A62.45,62.45,0,0,1,798.27,151,63.31,63.31,0,0,1,785,131.35,59.15,59.15,0,0,1,780.08,107.48Zm33.55,0a26.54,26.54,0,0,0,2.26,10.9,28.89,28.89,0,0,0,6.06,8.9,28.16,28.16,0,0,0,8.9,6,26.85,26.85,0,0,0,10.78,2.19,27.15,27.15,0,0,0,10.9-2.19,27.56,27.56,0,0,0,8.84-6,28.71,28.71,0,0,0,5.93-8.9,28.13,28.13,0,0,0,0-21.81,28.94,28.94,0,0,0-5.93-8.9,27.89,27.89,0,0,0-8.84-6,27.32,27.32,0,0,0-10.9-2.19,27,27,0,0,0-10.78,2.19,28.5,28.5,0,0,0-8.9,6,29.13,29.13,0,0,0-6.06,8.9A26.58,26.58,0,0,0,813.63,107.48Z"/><path class="cls-3" d="M455.39,55.82a20.64,20.64,0,0,1,11.52,4.07c7,5.24,14,10.4,21.07,15.36a16.47,16.47,0,0,0,21.31-1.79c-2.3-1-4.47-1.87-6.57-2.92A108.22,108.22,0,0,1,492.29,65c-5.38-3.47-10.51-7.45-15.87-11-4-2.6-8.18-4.6-12.89-4.84-4.41-.22-8.73.1-12.77,2.37A12.51,12.51,0,0,0,445,58.39,18,18,0,0,1,455.39,55.82ZM566.15,66.31a1.67,1.67,0,0,0-.09-.4c-2-6.1-4.95-11.36-10.2-14.45-1.47-.87-2.93-1.79-4.45-2.51-8.1-3.82-16.07-3.91-23.92,1-3.58,2.24-7.29,4.2-11,6.26s-7.34,4.05-11.48,4.56c-2.22.27-4.42.66-6.85,1A14.08,14.08,0,0,0,507.49,64c5.36-.44,10.32-2.5,15.11-5.16,6.3-3.5,12.85-6,19.89-6.49,6.17-.44,11.89.8,16.73,5.64a33.24,33.24,0,0,1,6.87,8.86A3.89,3.89,0,0,0,566.15,66.31ZM480,111c.79-1.86,2.79-2.69,4.52-3.55.78.53,1.57,1.11,2.39,1.72a39.71,39.71,0,0,0,4.5,3,32.08,32.08,0,0,0,7.85,3.17,26,26,0,0,1-8.69,2.63,11.12,11.12,0,0,1-9.09-2.5C480.23,114.33,479.32,112.69,480,111Zm34-9.15a17.13,17.13,0,0,0-2.91-1.71l-1.58-.79c-1.87-.92-3.63-1.81-5.35-2.81-1-.58-2-1.19-2.93-1.84a162.42,162.42,0,0,0,11-12.26c3.09-3.74,5.81-7.84,8.92-11.54a67.73,67.73,0,0,1,7.62-7.71c4.59-3.95,9.68-5.35,15.44-3.71,7.27,2.09,13.54,5.78,17.71,13.22a35.39,35.39,0,0,1,4.08,19.14c-.68,15.27-6.91,29.4-16.55,41.12-9.23,11.22-20.25,21.77-33.09,28.76l-.18.1c-2.41,1.31-5,2.31-7.49,3.49-2.91,1.37-6.11,3.4-9.46,3.5-2.91.07-5-.31-3.37-2.57a6.67,6.67,0,0,1,2.19-2.05c4.06-2.15,8.12-4.3,12.23-6.34,5.35-2.65,15.06-7.75,15.4-15.11-.81.45-2.84,2-2.84,2s-3.23,2.58-4.88,3.73c-5.61,3.88-11.83,6.72-17.81,10a29.13,29.13,0,0,1-6.74,2.88,11.41,11.41,0,0,1-1.41.3,6.9,6.9,0,0,1-2.6,0,3.34,3.34,0,0,1-1.24-.61,3.78,3.78,0,0,1-1-4.62c.84-1.28,2.57-1.64,3.91-2.12,1.85-.66,3.67-1.39,5.49-2.11a81.08,81.08,0,0,0,11.17-5.12c2.07-1.19,4-2.51,6.08-3.71,2.73-1.62,5.69-3.15,7.8-5.58a10.79,10.79,0,0,0,1.56-2.35,2,2,0,0,0-2.92-2.45l-.36.28-4.12,3c-2.76,2-5.56,4-8.39,5.88s-5.74,3.78-8.68,5.54c-2.79,1.68-5.7,3.55-8.84,4.5a31.78,31.78,0,0,1-3.95.94,12.74,12.74,0,0,1-5.78-.1,4,4,0,0,1-2.8-2.78c-.82-2.8,3.09-5,5.11-5.94,2.66-1.23,5.38-2.29,8-3.67,8.54-4.53,16.86-9.62,24.16-16,.61-.53,1.23-1,1.84-1.56a1.79,1.79,0,0,0,.48-.67,1.94,1.94,0,0,0-2.9-2.38l-1.66,1.21q-3.86,2.86-7.76,5.68A183.86,183.86,0,0,1,489,137.08c-5.22,3-10.85,5.82-17,5.5-1.9-.12-5.29-.47-5.63-2.87a4.08,4.08,0,0,1,1.91-3.15l.22-.12a2.14,2.14,0,0,1,.22-.1c3.45-1.49,6.89-2.92,10.32-4.43,2.08-.91,4.12-1.9,6.18-2.87,7.69-3.67,14.84-8.36,22-13a13,13,0,0,0,7.14-3.23c2.52-2.23,3.39-5.25,2.24-7.89a6.79,6.79,0,0,0-1-1.7Zm-1.47,8.9c-2.7,2.39-5.84,2.88-9.12,2.52h0a27.82,27.82,0,0,1-10.34-3.5,56.4,56.4,0,0,1-5.47-3.76c-2.52-1.82-5.12-3.4-8.48-3.53-7-.25-12.75,5.16-11.69,14.7a52,52,0,0,0,3.19,13.13c.22.6.43,1.21.67,1.88-1.6.74-3.15,1.35-4.59,2.16-1.87,1-3.53,2.49-3.82,5.06a5.89,5.89,0,0,0,.55,3.13,6.93,6.93,0,0,0,6.41,3.81,45.47,45.47,0,0,0,5.24-.43c-.15.51-.3,1.06-.46,1.63-1.34,5,.48,8.14,5,8.61a33.18,33.18,0,0,0,3.73,0c.5,8.12,1.63,9.16,9.06,8.57a39.09,39.09,0,0,1,0,4.05c0,.24-5-2.13-5.28-2.3-6.59-3.55-12.34-8.44-17.9-13.38-5-4.49-10-8.85-14-14.3-8-11-12.89-23.94-17.19-36.72a38.87,38.87,0,0,1-1.62-20.69c2.72-12.94,13.72-21.07,25.07-18.68a23.4,23.4,0,0,1,13.59,7.75c5.12,6,10.4,11.92,15.34,18.13a42.12,42.12,0,0,0,8.87,8.32c1.19.83,2.41,1.61,3.66,2.33,2.2,1.27,4.48,2.37,6.74,3.51a19,19,0,0,1,2.67,1.48,4.93,4.93,0,0,1,1.7,2C514.83,107.93,513.89,109.59,512.6,110.72Z"/></g></g></svg>