<svg xmlns="http://www.w3.org/2000/svg" viewBox="0 0 755.85 141.58"><defs><style>.cls-1{fill:#fff;}</style></defs><g id="Capa_2" data-name="Capa 2"><g id="Capa_1-2" data-name="Capa 1"><path class="cls-1" d="M119.87,21.71a12,12,0,0,1,3,4.48,14.34,14.34,0,0,1,0,10.37,13.12,13.12,0,0,1-3,4.59,13.62,13.62,0,0,1-4.64,3.07,14.83,14.83,0,0,1-5.29,1.08,14.17,14.17,0,0,1-5.29-.91,12.61,12.61,0,0,1-4.54-2.92A41.13,41.13,0,0,0,86,32.07a43.76,43.76,0,0,0-16-3,40.55,40.55,0,0,0-16,3.24A43,43,0,0,0,40.55,41.2a41.85,41.85,0,0,0-9.12,13.39,41.08,41.08,0,0,0-3.35,16.58,42.18,42.18,0,0,0,25,38.77,40.58,40.58,0,0,0,16.47,3.56,41.51,41.51,0,0,0,15.93-2.86,44,44,0,0,0,14.31-9.56,12,12,0,0,1,4.53-2.86,15.7,15.7,0,0,1,10.59,0,12.71,12.71,0,0,1,4.53,2.75,13.68,13.68,0,0,1,3.08,4.65,14.33,14.33,0,0,1,1,5.29,14.91,14.91,0,0,1-1,5.29,12.58,12.58,0,0,1-2.91,4.54,70.38,70.38,0,0,1-50.22,20.84,66.59,66.59,0,0,1-26.89-5.51A70,70,0,0,1,20.47,121a71.8,71.8,0,0,1-15-22.36A68.27,68.27,0,0,1,0,71.38a69,69,0,0,1,2.38-18A71.28,71.28,0,0,1,9.13,36.72,72.1,72.1,0,0,1,19.76,22.35,69,69,0,0,1,70.09,1,70.78,70.78,0,0,1,96.55,6.1,69,69,0,0,1,119.87,21.71Z"/><path class="cls-1" d="M135,90a49.3,49.3,0,0,1,4.1-20,53.17,53.17,0,0,1,11.13-16.36A52.32,52.32,0,0,1,166.58,42.5a51.31,51.31,0,0,1,40,0,51.71,51.71,0,0,1,16.3,11.07,52.69,52.69,0,0,1,11,16.36,51.43,51.43,0,0,1,0,40,52.57,52.57,0,0,1-11,16.41,51.71,51.71,0,0,1-16.3,11.07,51.31,51.31,0,0,1-40,0,52.32,52.32,0,0,1-16.36-11.07,53,53,0,0,1-11.13-16.41A49.47,49.47,0,0,1,135,90Zm28.08,0A22.23,22.23,0,0,0,165,99.08a24.51,24.51,0,0,0,5.07,7.46,23.85,23.85,0,0,0,7.46,5,22.58,22.58,0,0,0,9,1.83,22.94,22.94,0,0,0,9.13-1.83,23.24,23.24,0,0,0,7.4-5,24.2,24.2,0,0,0,5-7.46,23.55,23.55,0,0,0,0-18.25,24.28,24.28,0,0,0-5-7.45,23.24,23.24,0,0,0-7.4-5,23,23,0,0,0-9.13-1.84,22.58,22.58,0,0,0-9,1.84,23.85,23.85,0,0,0-7.46,5A24.58,24.58,0,0,0,165,80.83,22.31,22.31,0,0,0,163.07,90Z"/><path class="cls-1" d="M348.81,126.68a13.42,13.42,0,0,1-1.08,5.4,14.65,14.65,0,0,1-2.91,4.37,12.94,12.94,0,0,1-4.32,2.92,14.11,14.11,0,0,1-5.4,1,14.9,14.9,0,0,1-5.51-1,14.31,14.31,0,0,1-4.59-2.92,14.08,14.08,0,0,1-3.13-4.37,12.81,12.81,0,0,1-1.13-5.4V88.18a2.34,2.34,0,0,1,.1-.71A23,23,0,0,0,319,79.32a21.94,21.94,0,0,0-4.48-6.69,20.35,20.35,0,0,0-6.59-4.49,20.58,20.58,0,0,0-8.2-1.62,20.87,20.87,0,0,0-8.48,1.68,19.88,19.88,0,0,0-6.59,4.59,20.53,20.53,0,0,0-4.26,6.86,23.7,23.7,0,0,0-1.52,8.58v38.45a13.42,13.42,0,0,1-1.08,5.4,14.65,14.65,0,0,1-2.91,4.37,12.94,12.94,0,0,1-4.32,2.92,14.11,14.11,0,0,1-5.4,1,14.94,14.94,0,0,1-5.51-1,13.63,13.63,0,0,1-4.53-2.92,15.35,15.35,0,0,1-3.14-4.37,12.4,12.4,0,0,1-1.18-5.4V88.23A50.24,50.24,0,0,1,264.9,53a48.67,48.67,0,0,1,15.5-10.64,50,50,0,0,1,38.61,0,48.83,48.83,0,0,1,26,26.46,50,50,0,0,1,3.78,19.44v38.45Z"/><path class="cls-1" d="M489.76,15a14.87,14.87,0,0,1,4.43-10.64,16,16,0,0,1,4.75-3.18A14.34,14.34,0,0,1,504.77,0a14.48,14.48,0,0,1,5.78,1.19,16.49,16.49,0,0,1,4.86,3.18,14.34,14.34,0,0,1,3.29,4.76A14.68,14.68,0,0,1,519.89,15a14.34,14.34,0,0,1-1.19,5.83,14.94,14.94,0,0,1-3.29,4.75,15.91,15.91,0,0,1-4.86,3.24,14.75,14.75,0,0,1-11.61,0,15.48,15.48,0,0,1-8-8A14.34,14.34,0,0,1,489.76,15Zm29.16,111.23a14,14,0,0,1-19.39,12.86,14.59,14.59,0,0,1-4.48-3A14.38,14.38,0,0,1,492,131.7a13.31,13.31,0,0,1-1.13-5.46V53.67A13.3,13.3,0,0,1,492,48.22a14.05,14.05,0,0,1,7.67-7.4,14.6,14.6,0,0,1,5.56-1.08,13.35,13.35,0,0,1,5.4,1.08,14,14,0,0,1,4.38,3,13.13,13.13,0,0,1,2.91,4.43,14.29,14.29,0,0,1,1,5.45Z"/><path class="cls-1" d="M637.93,89.85v.86a50.77,50.77,0,0,1-4.32,19.71,52.23,52.23,0,0,1-27.44,27.06,51.24,51.24,0,0,1-39.79-.06,51.75,51.75,0,0,1-16.31-11.07,52.71,52.71,0,0,1-11-16.41,51.43,51.43,0,0,1,0-40,52.84,52.84,0,0,1,11-16.36A51.75,51.75,0,0,1,566.38,42.5a49.8,49.8,0,0,1,20-4A48.4,48.4,0,0,1,598.62,40a57.37,57.37,0,0,1,11.23,4.21V15.55a16.06,16.06,0,0,1,1-5.72,13.56,13.56,0,0,1,2.92-4.65,14.07,14.07,0,0,1,4.43-3.07A13.39,13.39,0,0,1,623.78,1a13.56,13.56,0,0,1,5.51,1.14,14.63,14.63,0,0,1,4.53,3.07,13.82,13.82,0,0,1,3,4.65,15.47,15.47,0,0,1,1.08,5.72ZM609.85,90A22.31,22.31,0,0,0,608,80.83a24.61,24.61,0,0,0-5.08-7.45,23.8,23.8,0,0,0-7.45-5,22.63,22.63,0,0,0-9-1.84,22.87,22.87,0,0,0-9.12,1.84,23.13,23.13,0,0,0-7.4,5,24.13,24.13,0,0,0-5,7.45,23.67,23.67,0,0,0,0,18.25,24.05,24.05,0,0,0,5,7.46,23.13,23.13,0,0,0,7.4,5,22.86,22.86,0,0,0,9.12,1.83,22.62,22.62,0,0,0,9-1.83,23.8,23.8,0,0,0,7.45-5A24.54,24.54,0,0,0,608,99.08,22.23,22.23,0,0,0,609.85,90Z"/><path class="cls-1" d="M652.93,90a49.14,49.14,0,0,1,4.11-20,53,53,0,0,1,11.12-16.36A52.32,52.32,0,0,1,684.52,42.5a51,51,0,0,1,39.69-.06A52.44,52.44,0,0,1,740.46,53.3a51.54,51.54,0,0,1,11.07,16.14,50.85,50.85,0,0,1,4.32,19.76v36.61a14,14,0,0,1-1.13,5.56,14.36,14.36,0,0,1-3.08,4.59A14.53,14.53,0,0,1,747.1,139a13.76,13.76,0,0,1-5.61,1.14,13.27,13.27,0,0,1-7-1.84,13,13,0,0,1-4.75-5,50.39,50.39,0,0,1-12,5.94,41.12,41.12,0,0,1-13.28,2.16,49.56,49.56,0,0,1-19.93-4.05,52.32,52.32,0,0,1-16.36-11.07A52.84,52.84,0,0,1,657,109.94,49.32,49.32,0,0,1,652.93,90ZM681,90a22.23,22.23,0,0,0,1.89,9.12,24.36,24.36,0,0,0,5.08,7.46,23.69,23.69,0,0,0,7.45,5,22.62,22.62,0,0,0,9,1.83,22.86,22.86,0,0,0,9.12-1.83,23.13,23.13,0,0,0,7.4-5,24.23,24.23,0,0,0,5-7.46,23.67,23.67,0,0,0,0-18.25,24.3,24.3,0,0,0-5-7.45,23.13,23.13,0,0,0-7.4-5,22.87,22.87,0,0,0-9.12-1.84,22.63,22.63,0,0,0-9,1.84,23.69,23.69,0,0,0-7.45,5,24.43,24.43,0,0,0-5.08,7.45A22.31,22.31,0,0,0,681,90Z"/><path class="cls-1" d="M439.27,120.92a23.24,23.24,0,0,0-6,4.06,3.5,3.5,0,0,1-.78.72c-5.77,3-11.53,6-17.34,9a10.93,10.93,0,0,1-6.06,1.18,2.93,2.93,0,0,1-2.33-2.9c-.11-1.14.44-1.94,1.77-2.47,4.45-1.79,9-3.2,13.31-5.42,4.83-2.51,9.37-5.74,14-8.67a1.41,1.41,0,0,0,.59-.62c.58-1.49,1.15-3,1.63-4.53.12-.36-.09-.86-.14-1.3a4.09,4.09,0,0,0-1,.39,230,230,0,0,1-23,15.49c-.58.32-1.17.62-1.76.93a11,11,0,0,1-6.27,1.58c-1.85-.2-3.73-.07-5.58-.3-1.61-.2-2-1.17-1.34-2.89a7,7,0,0,1,4.09-3.79c2.23-1,4.52-1.92,6.7-3.08,5.29-2.8,10.57-5.63,15.78-8.63,3-1.76,5.38-4.64,7.6-7.51.95-1.23,1.22-3.15,1.8-4.76l-.22-.18c-.39.29-.79.56-1.17.86a224.9,224.9,0,0,1-23.72,16.57,47.56,47.56,0,0,1-12,5.37,12.53,12.53,0,0,1-6.23-.43c-1-.24-2-.55-2.18-1.93a3.46,3.46,0,0,1,2-2.83c2.89-1.25,5.78-2.45,8.66-3.72,1.75-.76,3.46-1.59,5.19-2.41a38.47,38.47,0,0,0,8.86-5.66c2.34-2.06,4.8-4,7.23-5.88a2,2,0,0,1,1.29-.36,11.1,11.1,0,0,0,6.17-1.06c3.88-2.06,4.63-6.42,1.72-10a6.57,6.57,0,0,0-3-2.1,64.68,64.68,0,0,1-6.89-3c-1.34-.67-1.35-1.22-.31-2.39,2.56-2.89,5.24-5.67,7.71-8.66,2.59-3.14,4.88-6.59,7.49-9.69a56.82,56.82,0,0,1,6.4-6.48c3.85-3.31,8.13-4.49,13-3.11C461,52,466.3,55.08,469.79,61.33a29.71,29.71,0,0,1,3.43,16.07,55.28,55.28,0,0,1-10.52,30.27,102.39,102.39,0,0,1-7,8c-.73.82-1.5,1.6-2.2,2.44-6,7.25-13.38,12.4-20.82,17.43-3.06,2.07-6.58,2.6-9.86,3.91-1.47.59-3,1-4.47,1.57s-2.65-.11-3.78-1a1.53,1.53,0,0,1-.28-2.16,5.78,5.78,0,0,1,1.84-1.72c6.47-3.41,13-6.76,19.46-10.11a7.66,7.66,0,0,0,3.16-3.35A9.14,9.14,0,0,0,439.27,120.92Z"/><path class="cls-1" d="M394.48,110.61c-1.34.63-2.62,1.13-3.83,1.81a5.46,5.46,0,0,0-3.19,4.23,4.87,4.87,0,0,0,.46,2.62,5.75,5.75,0,0,0,5.36,3.19,36.92,36.92,0,0,0,4.38-.36c-.12.43-.26.89-.38,1.36-1.12,4.17.4,6.81,4.2,7.21a29.54,29.54,0,0,0,3.12,0c.42,6.79,1.36,7.67,7.58,7.16v3.44a10.43,10.43,0,0,1-2.29-.71,57.23,57.23,0,0,1-7.05-4.4c-5.17-4.09-10.28-8.28-15.23-12.7-3.34-3-5.84-7-8.22-11a140.12,140.12,0,0,1-12.72-27.09,32.6,32.6,0,0,1-1.35-17.31c2.28-10.81,11.48-17.62,21-15.61A19.62,19.62,0,0,1,397.66,59c4.29,5.05,8.7,10,12.83,15.18A36.41,36.41,0,0,0,421,83.07c2.15,1.24,4.39,2.28,6.58,3.42a9.61,9.61,0,0,1,1.27.75c2.14,1.58,2.23,3.65.19,5.45a9.34,9.34,0,0,1-7.63,2.1A24.13,24.13,0,0,1,411.29,91c-1-.61-1.83-1.47-2.78-2.16-2.29-1.66-4.7-3-7.47-3.11-5.81-.21-10.66,4.32-9.78,12.31a43.86,43.86,0,0,0,2.67,11C394.12,109.54,394.29,110.05,394.48,110.61Z"/><path class="cls-1" d="M372.17,48.89a10.43,10.43,0,0,1,4.81-5.7c3.4-1.9,7-2.17,10.72-2,4,.2,7.49,1.88,10.82,4.06,4.51,3,8.81,6.29,13.33,9.2a92.86,92.86,0,0,0,8.76,4.64c1.76.88,3.58,1.6,5.52,2.45a13.85,13.85,0,0,1-17.9,1.5c-6-4.17-11.85-8.5-17.69-12.9a17.37,17.37,0,0,0-9.67-3.42A15.16,15.16,0,0,0,372.17,48.89Z"/><path class="cls-1" d="M473.82,56a27.94,27.94,0,0,0-5.76-7.44c-4.07-4.06-8.88-5.11-14.05-4.74a40.39,40.39,0,0,0-16.71,5.46,31.43,31.43,0,0,1-12.69,4.32,11.77,11.77,0,0,1-7.8-1.8c2-.32,3.89-.64,5.75-.87,3.48-.43,6.57-2.1,9.65-3.83s6.19-3.37,9.2-5.26c6.59-4.13,13.28-4.05,20.08-.85,1.28.61,2.51,1.38,3.74,2.11,4.41,2.59,6.87,7,8.56,12.13a1.89,1.89,0,0,1,.09.34C473.88,55.61,473.86,55.69,473.82,56Z"/><path class="cls-1" d="M412.8,94.48c-3.44,1.71-6.67,3.29-10.2,3.82-1.87.28-2.85-.33-3.28-2a3.06,3.06,0,0,1,.64-2.68,12.46,12.46,0,0,1,4.92-3.8.83.83,0,0,1,.75.06C408,91.36,410.28,92.86,412.8,94.48Z"/></g></g></svg>