<svg xmlns="http://www.w3.org/2000/svg" xmlns:xlink="http://www.w3.org/1999/xlink" viewBox="0 0 250.62 230.13"><defs><style>.cls-1{fill:url(#Degradado_sin_nombre_15);}.cls-2{fill:url(#Degradado_sin_nombre_15-2);}.cls-3{fill:#ff681c;}.cls-4{fill:#fcbdba;}.cls-5{fill:#473f47;}.cls-6{fill:#4b89c7;}.cls-7{fill:url(#Degradado_sin_nombre_15-3);}.cls-8{fill:url(#Degradado_sin_nombre_15-4);}.cls-9{fill:url(#Degradado_sin_nombre_15-5);}.cls-10{fill:url(#Degradado_sin_nombre_15-6);}.cls-11{fill:url(#Degradado_sin_nombre_15-7);}.cls-12{fill:url(#Degradado_sin_nombre_15-8);}.cls-13{fill:url(#Degradado_sin_nombre_15-9);}.cls-14{fill:#fff;}.cls-15{fill:#fdb9a9;}.cls-16{fill:url(#Degradado_sin_nombre_15-10);}.cls-17{fill:#de9f93;}.cls-18{fill:url(#Degradado_sin_nombre_15-11);}.cls-19{fill:url(#Degradado_sin_nombre_15-12);}.cls-20{fill:url(#Degradado_sin_nombre_15-13);}.cls-21{fill:url(#Degradado_sin_nombre_15-14);}.cls-22{fill:#262836;}.cls-23{fill:url(#Degradado_sin_nombre_15-15);}.cls-24{fill:#a67c52;}.cls-25{fill:#2f3554;}</style><linearGradient id="Degradado_sin_nombre_15" x1="80.68" y1="7.07" x2="82.75" y2="-32.72" gradientTransform="matrix(1.02, 0, 0, -1.02, 18.04, 205.57)" gradientUnits="userSpaceOnUse"><stop offset="0.01"/><stop offset="0.08" stop-opacity="0.69"/><stop offset="0.21" stop-opacity="0.32"/><stop offset="1" stop-opacity="0"/></linearGradient><linearGradient id="Degradado_sin_nombre_15-2" x1="95.66" y1="155.97" x2="104.34" y2="13.67" xlink:href="#Degradado_sin_nombre_15"/><linearGradient id="Degradado_sin_nombre_15-3" x1="-319.5" y1="89.34" x2="-335.06" y2="71.86" gradientTransform="translate(-176.92 278.69) rotate(144.73) scale(1.02)" xlink:href="#Degradado_sin_nombre_15"/><linearGradient id="Degradado_sin_nombre_15-4" x1="924.75" y1="-1634.67" x2="1101.31" y2="-1720.32" gradientTransform="matrix(-0.8, -0.62, -0.62, 0.8, -162.88, 1987.24)" xlink:href="#Degradado_sin_nombre_15"/><linearGradient id="Degradado_sin_nombre_15-5" x1="47.88" y1="182.48" x2="56.88" y2="138.34" xlink:href="#Degradado_sin_nombre_15"/><linearGradient id="Degradado_sin_nombre_15-6" x1="-338.97" y1="65.84" x2="-304.42" y2="63.98" gradientTransform="translate(-176.92 278.69) rotate(144.73) scale(1.02)" xlink:href="#Degradado_sin_nombre_15"/><linearGradient id="Degradado_sin_nombre_15-7" x1="66.7" y1="143.98" x2="65.19" y2="-34.72" xlink:href="#Degradado_sin_nombre_15"/><linearGradient id="Degradado_sin_nombre_15-8" x1="60.33" y1="113.67" x2="-12.44" y2="71.93" xlink:href="#Degradado_sin_nombre_15"/><linearGradient id="Degradado_sin_nombre_15-9" x1="27.81" y1="127.34" x2="-99.83" y2="54.14" gradientTransform="matrix(1.02, 0, 0, -1.02, 53.62, 229.63)" xlink:href="#Degradado_sin_nombre_15"/><linearGradient id="Degradado_sin_nombre_15-10" x1="184.25" y1="174.93" x2="249.5" y2="21.74" xlink:href="#Degradado_sin_nombre_15"/><linearGradient id="Degradado_sin_nombre_15-11" x1="66.25" y1="137.02" x2="303.6" y2="-29.38" xlink:href="#Degradado_sin_nombre_15"/><linearGradient id="Degradado_sin_nombre_15-12" x1="96.04" y1="18.69" x2="140.81" y2="259.42" xlink:href="#Degradado_sin_nombre_15"/><linearGradient id="Degradado_sin_nombre_15-13" x1="68.67" y1="183.31" x2="61.91" y2="-114.02" xlink:href="#Degradado_sin_nombre_15"/><linearGradient id="Degradado_sin_nombre_15-14" x1="41.6" y1="57.89" x2="129.17" y2="-37.28" xlink:href="#Degradado_sin_nombre_15"/><linearGradient id="Degradado_sin_nombre_15-15" x1="60.41" y1="36.32" x2="110.55" y2="-33.87" xlink:href="#Degradado_sin_nombre_15"/></defs><g id="Capa_2" data-name="Capa 2"><g id="Layer_1" data-name="Layer 1"><path class="cls-1" d="M82,224.94c-1.24.39-2.64,1-3,2.25,3.9,2.48,8.74,3.05,13.36,2.93s9.22-.94,13.85-1c6.11,0,13,1.09,17.89-2.61a14.75,14.75,0,0,0-7.26-2.28C117.8,218.56,85.62,223.81,82,224.94Z"/><path class="cls-2" d="M3.57,157.07c-1.65,0-3.93.83-3.52,2.43l75.21,6.11c8.85.72,17.72,1.43,26.61,1.43,13.43,0,26.8-1.65,40.2-2.42,12.61-.72,25.25-.67,37.87-.61,11.69.06,26.07,2.17,37.42-.9,1.71-.46,3.43-1.83,3.32-3.59-.05-.81-.48-1.66-.16-2.41a2,2,0,0,1,.83-.87c2.33-1.44,5.3-.32,8,.27A19.06,19.06,0,0,0,242,154.9a3.87,3.87,0,0,0,1.79-1.48,1.59,1.59,0,0,0-.38-2.1,2.15,2.15,0,0,0-1-.23l-23-1.79a5.35,5.35,0,0,0-2.54.22c-.9.4-.85,1.46-1.58,1.89-1.19.7-3.9.33-5.26.41-3.49.19-7,.39-10.48.56q-10.45.5-20.94.84c-14.24.48-28.56.77-42.83,1-28.24.46-56.48.7-84.7,1.79C35.2,156.62,19.39,156.72,3.57,157.07Z"/><path class="cls-3" d="M61.41.32a5.82,5.82,0,0,0-4.07.1A6.39,6.39,0,0,0,53.59,4a.75.75,0,0,1-.8.71l-.09,0a6,6,0,0,0-4,1.54c-1.28,1.17-1.28,2.61-1.46,4.28a1.53,1.53,0,0,0-1.35,0,4.36,4.36,0,0,0-1.13.82A4.59,4.59,0,0,0,43.44,13c-.41,1.11.05,2.33.07,3.51a.35.35,0,0,1-.09.29.32.32,0,0,1-.27,0c-.31-.06-.6-.22-.91-.25a1.58,1.58,0,0,0-1.55,1.3A5.23,5.23,0,0,0,40.8,20a3.78,3.78,0,0,1-.06,2.16,4.73,4.73,0,0,1-.94,1.24,6.58,6.58,0,0,0-2,3.89,3.16,3.16,0,0,0,.55,2,2.1,2.1,0,0,0,1.88.85c1.69-.22,2.28-2.59,3.89-3.15s3.41-2.45,4.45-3.95c.83-1.2,1.64-2.59,3-3.05a4.77,4.77,0,0,0,1.32-.49,2.52,2.52,0,0,0,.67-.79A10.71,10.71,0,0,0,54.91,16c.5-2,0-4.15.94-6a4.14,4.14,0,0,1,2.66-2.1c.48-.12,1-.15,1.45-.28a5,5,0,0,0,1.55-.75,4.84,4.84,0,0,0,2.36-3.38A3.61,3.61,0,0,0,61.41.32Z"/><path class="cls-3" d="M65.57,2.73A2.29,2.29,0,0,1,67,5.35a3.39,3.39,0,0,1-.76,1.15l-1.84,2L63.61,5.7a2.25,2.25,0,0,0-.74-1.37,1.71,1.71,0,0,0-1.72,0,13.46,13.46,0,0,0-1.49,1c-.14.08-.32.17-.46.09s-.16-.38-.09-.58C60,2.44,63.33,1.77,65.57,2.73Z"/><path class="cls-4" d="M66.82,79.27a5.21,5.21,0,0,0,.91,2.66c.83,1,2.2,1.52,3.34,2.26a.89.89,0,0,1,.47.6.61.61,0,0,1-.42.56,1.68,1.68,0,0,1-.74.05,29.36,29.36,0,0,0-3.51-.33c-.59,0-1.27.06-1.65-.4a1.8,1.8,0,0,1-.23-1.3,18,18,0,0,0-.41-5,3.24,3.24,0,0,1-.13-1.24,1.13,1.13,0,0,1,1.32-.89,1.26,1.26,0,0,1,.52.25C67,77.05,66.74,78.49,66.82,79.27Z"/><path class="cls-4" d="M48,85.57a5.34,5.34,0,0,0,.34,2.79c.6,1.21,1.85,1.93,2.82,2.88a.89.89,0,0,1,.34.69.61.61,0,0,1-.52.45,1.51,1.51,0,0,1-.73-.09,31.18,31.18,0,0,0-3.38-1c-.58-.11-1.26-.21-1.54-.72a1.87,1.87,0,0,1,0-1.32,17.64,17.64,0,0,0,.61-5A3.28,3.28,0,0,1,46.06,83a1.14,1.14,0,0,1,1.48-.6,1.23,1.23,0,0,1,.46.35C48.58,83.42,48.07,84.78,48,85.57Z"/><path class="cls-5" d="M44.29,39.78S54,54.19,60.36,58.49a20.89,20.89,0,0,0,.09,4.33c.33,2.33,1.46,4.37,1.82,6.66l1.22,7.7c0,.35.15.77.49.89a1.09,1.09,0,0,0,.62,0l2.69-.73a123.63,123.63,0,0,1,.29-13.88,30.26,30.26,0,0,0,.14-5.63c-.44-4.07-3.78-7.7-6.1-11-1.39-2-2.89-4.93-4.84-6.42-1.63-1.24-3.93-.65-6-.45a14.09,14.09,0,0,1-4.58-.33A2.06,2.06,0,0,0,44.29,39.78Z"/><path class="cls-5" d="M40.6,39.69s3.78,17,8.14,23.29a21.84,21.84,0,0,0-1.5,4.07,19.56,19.56,0,0,0-.41,3.49L46,84.7a11.3,11.3,0,0,0,4-.51l5-12.48a17.44,17.44,0,0,0,1.64-6.34c0-4.25-4.07-19.78-4.54-20.56-1.07-1.76-3.42-2-5.4-2.6a13.63,13.63,0,0,1-4.14-2C41.86,39.85,41.3,39.47,40.6,39.69Z"/><path class="cls-4" d="M75.45,26.49a12.23,12.23,0,0,0,6.62,1,4.65,4.65,0,0,1,2-.11c-.29.42-.58,1-.16,1.38a1,1,0,0,0,.43.14A3.6,3.6,0,0,0,86,28.75a1.56,1.56,0,0,1,.79-.18,1,1,0,0,1,.69,1.14,2,2,0,0,1-.89,1.16,4.72,4.72,0,0,1-4.76.27c-.43-.24-.83-.53-1.27-.77a10.17,10.17,0,0,0-2.64-.79,54,54,0,0,1-7.87-2.26,2.92,2.92,0,0,1-1.86-1.38c-.52-1.28.44-3.43,2-2.6A45.26,45.26,0,0,0,75.45,26.49Z"/><path class="cls-6" d="M62.81,19.18a28.23,28.23,0,0,0,9.93,4.07.4.4,0,0,1,.38.26.42.42,0,0,1-.07.29,18.34,18.34,0,0,1-2.72,4,1.43,1.43,0,0,1-.44.37,1.3,1.3,0,0,1-1-.13q-3.42-1.36-6.71-3a14.45,14.45,0,0,1-5.09-3.73,5.09,5.09,0,0,1-1.18-3c0-1.2,1.1-3.36,2.62-2.77.68.27,1.28,1.11,1.8,1.59A25.48,25.48,0,0,0,62.81,19.18Z"/><path class="cls-7" d="M62.81,19.18a28.23,28.23,0,0,0,9.93,4.07.4.4,0,0,1,.38.26.42.42,0,0,1-.07.29,18.34,18.34,0,0,1-2.72,4,1.43,1.43,0,0,1-.44.37,1.3,1.3,0,0,1-1-.13q-3.42-1.36-6.71-3a14.45,14.45,0,0,1-5.09-3.73,5.09,5.09,0,0,1-1.18-3c0-1.2,1.1-3.36,2.62-2.77.68.27,1.28,1.11,1.8,1.59A25.48,25.48,0,0,0,62.81,19.18Z"/><path class="cls-6" d="M105.4,13.12a4.35,4.35,0,0,1-4.07,7s-4.81.11-3.72,4.65l9.15,11.66L95.1,45.59c-4.54,1.09-4.65-3.72-4.65-3.72a4.36,4.36,0,1,0-4.94,3.7l.22,0C89.87,47,88.27,51,88.27,51L76.61,60.14,52.91,30.06,64.46,20.9c4.54-1.09,4.65,3.73,4.65,3.73a4.35,4.35,0,1,0,7.73-2,4.42,4.42,0,0,0-3-1.65c-4.1-1.35-2.49-5.42-2.49-5.42L83.07,6.23,92.22,17.9s4.07,1.61,5.4-2.53a4.36,4.36,0,0,1,7.78-2.25Z"/><path class="cls-8" d="M105.4,13.12a4.35,4.35,0,0,1-4.07,7s-4.81.11-3.72,4.65l9.15,11.66L95.1,45.59c-4.54,1.09-4.65-3.72-4.65-3.72a4.36,4.36,0,1,0-4.94,3.7l.22,0C89.87,47,88.27,51,88.27,51L76.61,60.14,52.91,30.06,64.46,20.9c4.54-1.09,4.65,3.73,4.65,3.73a4.35,4.35,0,1,0,7.73-2,4.42,4.42,0,0,0-3-1.65c-4.1-1.35-2.49-5.42-2.49-5.42L83.07,6.23,92.22,17.9s4.07,1.61,5.4-2.53a4.36,4.36,0,0,1,7.78-2.25Z"/><path class="cls-9" d="M66.87,39.65c2.49,2,5.09,4.22,8.14,4.75a4.47,4.47,0,0,0,3.45-.62,1.09,1.09,0,0,0,.53-1c-.11-.5-.73-.68-1.22-.77a16.85,16.85,0,0,1-6.58-2.36,18.2,18.2,0,0,1-2.1-1.73l-5-4.41a.64.64,0,0,0-.5-.24c-.2,0-.32.24-.41.42a8.62,8.62,0,0,0-.69,2c-.16.75,0,.85.64,1.28C64.45,37.78,65.68,38.7,66.87,39.65Z"/><path class="cls-4" d="M69.17,35.93a12,12,0,0,0,6.1,2.85,4.54,4.54,0,0,1,2,.46c-.42.31-.87.85-.55,1.27a.94.94,0,0,0,.37.25,3.57,3.57,0,0,0,1.61.29,1.91,1.91,0,0,1,.82.06.94.94,0,0,1,.33,1.28h0a1.91,1.91,0,0,1-1.18.86A4.68,4.68,0,0,1,74,42.18c-.35-.35-.65-.75-1-1.08a9.81,9.81,0,0,0-2.32-1.5,54,54,0,0,1-6.91-4.37,3,3,0,0,1-1.41-1.84c-.14-1.39,1.38-3.19,2.62-1.95A57.65,57.65,0,0,0,69.17,35.93Z"/><path class="cls-6" d="M40.6,41.87a1.87,1.87,0,0,0,.67.51,26.69,26.69,0,0,0,3.19,1.53,12.74,12.74,0,0,0,8.8-.08,11.37,11.37,0,0,0,3.15-1.72,3.11,3.11,0,0,0,.9-.94,3.43,3.43,0,0,0,.24-2c-.25-3.43-.63-7,0-10.3a14.33,14.33,0,0,1,1-3.32,25.77,25.77,0,0,0,2-4.55,6.77,6.77,0,0,0-1.41-5.53c-1.32-1.69-3.75-3.18-5.88-2.42a13.45,13.45,0,0,0-6.16,4.7,30.69,30.69,0,0,0-4,7.78c-.41,1.09-.81,2.18-1.12,3.3a48,48,0,0,0-1.31,8.25c-.11,1.16-.21,2.32-.33,3.48A1.78,1.78,0,0,0,40.6,41.87Z"/><path class="cls-10" d="M53.26,43.83a11.37,11.37,0,0,0,3.15-1.72,3.11,3.11,0,0,0,.9-.94,3.43,3.43,0,0,0,.24-2c-.25-3.43-.63-7,0-10.3-.41-.41-.86-.77-1.31-1.14-1-.83-2.48-2.48-4-2.37.36,1.56.64,3.14.86,4.73s.13,3.24.38,4.8a29.07,29.07,0,0,1-.19,8.33A2.77,2.77,0,0,0,53.26,43.83Z"/><path class="cls-6" d="M65.64,30.59A.64.64,0,0,1,66,31a.6.6,0,0,1-.17.46,12.67,12.67,0,0,1-3.42,3.31.9.9,0,0,1-.44.18.83.83,0,0,1-.5-.23c-2-1.56-4.07-3.05-6.06-4.68A15.11,15.11,0,0,1,52,26.74a14,14,0,0,1-1.57-3.65c-1.21-3.82,2.45-5.47,4.9-2.68C58.6,24.12,61.55,27.73,65.64,30.59Z"/><path class="cls-5" d="M65.14,84.81a.77.77,0,0,1,.1-.77c.23-.21.59-.11.88,0a9.8,9.8,0,0,0,2,.72,2.88,2.88,0,0,0,2-.21c.34-.2.68-.51,1.07-.48a1.29,1.29,0,0,1,.56.22,7,7,0,0,0,2,.66,1.76,1.76,0,0,1,.8.26.38.38,0,0,1,.15.22c0,.2-.19.35-.38.42-2.12.83-4.49.52-6.75.28a2.42,2.42,0,0,0-.76,0c-.38.07-.84.26-1.15,0A2.7,2.7,0,0,1,65.14,84.81Z"/><path class="cls-5" d="M45.05,90.61a.8.8,0,0,1,.19-.75c.25-.18.6,0,.88.11a11.73,11.73,0,0,0,1.86,1,3,3,0,0,0,2,0c.37-.15.73-.42,1.13-.34a1.59,1.59,0,0,1,.53.28,6.41,6.41,0,0,0,1.84.94,1.84,1.84,0,0,1,.77.37.35.35,0,0,1,.12.22c0,.21-.23.33-.43.38-2.21.56-4.52,0-6.73-.56a2.74,2.74,0,0,0-.76-.11c-.38,0-.85.16-1.14-.18A2.78,2.78,0,0,1,45.05,90.61Z"/><path class="cls-4" d="M63.89,9.71c-.17.56-.35,1.12-.49,1.69a17.71,17.71,0,0,1-.67,2.5A3,3,0,0,1,61,15.69a1.67,1.67,0,0,1-2.09-1c-.48.11-.66.71-.65,1.22A2.2,2.2,0,0,1,58,17.34c-.46.54-1.36.32-2-.07a5.56,5.56,0,0,1-2.33-5.7c.5-2.27.48-5,1.77-6.95A6.21,6.21,0,0,1,57.2,3a4.47,4.47,0,0,1,2-.83,5.72,5.72,0,0,1,1.54.12c2.15.37,4,.69,4,3.16A13.67,13.67,0,0,1,63.89,9.71Z"/><path class="cls-3" d="M61.23,5.71a1.73,1.73,0,0,0-1,.12c-.3.21-.32.67-.5,1-.36.66-1.26.75-1.95,1.1a2.55,2.55,0,0,0-1.34,2.29,1.56,1.56,0,0,0-.21-.85.54.54,0,0,0-.75-.15h0a.7.7,0,0,0-.15.39A1.74,1.74,0,0,0,56,11.17a2.53,2.53,0,0,1-2.33,1.43,1.29,1.29,0,0,1-.84-.28,1.55,1.55,0,0,1-.33-.55c-.58-1.63.31-3.37.52-5.09a6.78,6.78,0,0,1,.3-1.79A3.84,3.84,0,0,1,54,3.78a7.8,7.8,0,0,1,3.62-2.43C59,1,61.73,1.16,62.8,2.24a2.14,2.14,0,0,1-1.57,3.47Z"/><path class="cls-11" d="M60.63,160.16v-19c2.51-5.44,7.44-1.73,7.44-1.73a5.58,5.58,0,1,0,.19-7.9l-.19.19c-4.66,3.05-7.44-1.73-7.44-1.73V110.91h19s4.82-2.78,1.73-7.44a5.58,5.58,0,1,1,7.9-.18l-.19.18s-3.7,4.94,1.73,7.44h19v49.25Z"/><path class="cls-6" d="M24.16,159.15H20.72L55.92,66.2a1.62,1.62,0,0,1,1.5-1h0A1.61,1.61,0,0,1,59,66.78a1.66,1.66,0,0,1-.11.58Z"/><polygon class="cls-6" points="44.78 159.15 41.34 159.15 76.93 65.16 80.37 65.16 44.78 159.15"/><polygon class="cls-6" points="71.38 79.84 53.19 79.84 54.1 77.42 72.29 77.42 71.38 79.84"/><polygon class="cls-6" points="65.78 94.6 47.59 94.6 48.52 92.18 66.71 92.18 65.78 94.6"/><polygon class="cls-6" points="60.2 109.36 42.01 109.36 42.92 106.93 61.11 106.93 60.2 109.36"/><polygon class="cls-6" points="54.61 124.12 36.42 124.12 37.34 121.69 55.53 121.69 54.61 124.12"/><polygon class="cls-6" points="49.02 138.88 30.82 138.88 31.75 136.46 49.93 136.46 49.02 138.88"/><path class="cls-12" d="M54.19,79.84,49.51,92.18H66.74l-.92,2.42H48.63L44,106.93H61.14l-.91,2.42H43l-4.67,12.34H55.55l-.92,2.43H37.43l-4.68,12.34H49.94L49,138.88H31.83l-7.67,20.27H20.72L55.92,66.2a1.62,1.62,0,0,1,2.15-.76,1.6,1.6,0,0,1,.9,1.33,1.63,1.63,0,0,1-.1.57L55.06,77.42H72.24l-.91,2.42Z"/><polygon class="cls-13" points="44.78 159.15 41.34 159.15 76.93 65.16 80.37 65.16 44.78 159.15"/><path class="cls-14" d="M215.39,78.78a4,4,0,0,1-1.77.86,4.19,4.19,0,0,1-1.75-.32L203.4,76.5a3.22,3.22,0,0,0-.69,4.32,6.27,6.27,0,0,0,3.1,1.85l5.81,2.08a10,10,0,0,0,8.56,0c1.73-.58,3.63-1.3,4.47-2.93s.22-3.78.46-5.68a24.24,24.24,0,0,0,.69-3.69c0-1.07-.88-2.67-2.15-2.45-1.1.19-1.83,2.11-2.41,2.91A27.37,27.37,0,0,1,215.39,78.78Z"/><path class="cls-15" d="M202.35,76a2,2,0,0,0-.4-.61.64.64,0,0,0-.67-.14.69.69,0,0,0-.33.66.32.32,0,0,1-.06.27c-.06.06-.17,0-.26,0-1-.19-1.94-.33-2.91-.43a.6.6,0,0,0-.7.46.64.64,0,0,0,0,.34,3,3,0,0,0,.48.9c.5.81.68,1.88,1.48,2.41a2.65,2.65,0,0,0,1.61.34c.56,0,1.1-.14,1.66-.11a1.73,1.73,0,0,0,1.1-.12.93.93,0,0,0,.38-.83,3.26,3.26,0,0,0-.52-1.41C202.93,77.2,202.63,76.61,202.35,76Z"/><path class="cls-15" d="M226,139.74c-3.24-.73-2.61,3.86-3.46,5.57a9,9,0,0,1-2,2.3,4.14,4.14,0,0,0-1.45,2.61,1,1,0,0,0,.11.55,1.16,1.16,0,0,0,.65.39,7.49,7.49,0,0,0,5.55-.55,4.31,4.31,0,0,0,1.9-1.76,6.25,6.25,0,0,0,.49-2.63C227.8,144.31,228.66,140.34,226,139.74Z"/><path class="cls-6" d="M223.08,149.21s-9.22.39-5.31,3.28,9.74-.7,10.31-1.36.1-1.79.1-1.79Z"/><path class="cls-14" d="M227.67,150.48c-.82,1-5.15,2.35-7.07,2.2s-3.64-1-3.45-2.26,3.57-4.13,4.21-4.12,1.14,1.48,2.42,1.79a3.42,3.42,0,0,0,3.13-1.12.84.84,0,0,1,1-.28A4.07,4.07,0,0,1,227.67,150.48Z"/><path class="cls-15" d="M237.07,141.55c-3.24-.75-2.61,3.85-3.46,5.55a9,9,0,0,1-2,2.31,4.12,4.12,0,0,0-1.45,2.6,1,1,0,0,0,.11.56,1.16,1.16,0,0,0,.65.39,7.49,7.49,0,0,0,5.55-.55,4.33,4.33,0,0,0,1.9-1.77,6.2,6.2,0,0,0,.49-2.62C238.92,146.09,239.78,142.13,237.07,141.55Z"/><path class="cls-6" d="M234.2,151s-9.22.38-5.31,3.29,9.74-.71,10.31-1.37.1-1.79.1-1.79Z"/><path class="cls-14" d="M238.79,152.23c-.82,1-5.15,2.36-7.07,2.21s-3.64-1-3.45-2.26,3.57-4.13,4.21-4.07,1.14,1.48,2.42,1.78a3.45,3.45,0,0,0,3.13-1.11.84.84,0,0,1,1-.28A4.07,4.07,0,0,1,238.79,152.23Z"/><path class="cls-5" d="M228.72,99.71l4.33,45.62,6.25-.77c2.47-11.13,1.86-44.43,1.86-44.43Z"/><path class="cls-5" d="M233.05,98.48l-4.33,45.61-6.27-.78c-3.57-28.85-.62-46.8-.62-46.8Z"/><path class="cls-14" d="M222.4,82c-.08-.84-.31-1.67-.39-2.53a19.46,19.46,0,0,1,.09-5.17A20,20,0,0,1,223.74,69c.71-1.44,2-2,3.48-2.78a12.76,12.76,0,0,1,3.94-1.34,10.1,10.1,0,0,1,2.9.17c2.95.56,6.82,2,8.84,4.4,1.51,1.74,1.69,4.24,1.74,6.55.06,3.19,0,6.37-.21,9.56,0,.46-.05.91-.09,1.38a51,51,0,0,1-1.59,10.49,4.18,4.18,0,0,1-1.62,2.69c-2.31,1.34-5.83.6-8.32.25-3.31-.47-6.7-1-9.63-2.56a2.69,2.69,0,0,1-1.38-1.34,3.61,3.61,0,0,1,.27-2.22c1-3.26.23-6.69.23-10,0-.61.07-1.22.07-1.83A2.12,2.12,0,0,0,222.4,82Z"/><path class="cls-16" d="M232.78,87.88a7.73,7.73,0,0,0,2.55,1c2.7.79,5.46,1.2,8.14,2a1,1,0,0,1,.49.24.89.89,0,0,1,.14.57,7.19,7.19,0,0,1-.35,2.31,1.57,1.57,0,0,1-.6.93,1.8,1.8,0,0,1-1.21,0l-10.08-2.14a8.62,8.62,0,0,0-2.21-.26,10.41,10.41,0,0,0-2.57.64,25.78,25.78,0,0,1-4.75,1,36.76,36.76,0,0,1,.7-5.73,7.69,7.69,0,0,1,.63-1.61,7.54,7.54,0,0,1,1.14-1.38c1.63-1.7,2.76-3.83,4.4-5.53a35.09,35.09,0,0,0,2.71-2.42c.31-.39,3-3.71,2.7-4.07.51.63,1.77,0,2.22.65.29.41,0,1-.26,1.38a32.36,32.36,0,0,0-4,10.58C232.35,87,232,87.28,232.78,87.88Z"/><path class="cls-6" d="M224.55,46.11a5.59,5.59,0,0,1-1.91,10.18s-5.78,2.17-2.53,7.2l16,10.22L226,89.77c-5,3.24-7.2-2.53-7.2-2.53a5.58,5.58,0,1,0-4.37,6.56l.23,0c5.59-.11,5.35,5.45,5.35,5.45l-10.18,16L168.27,88.8,178.4,72.89c5-3.23,7.2,2.53,7.2,2.53a5.58,5.58,0,1,0,4.4-6.55l-.26,0c-5.6.11-5.34-5.45-5.34-5.45l10.31-16.22,16.07,10.24s5.56.24,5.45-5.35a5.68,5.68,0,0,1,.71-4.35A5.6,5.6,0,0,1,224.55,46.11Z"/><path class="cls-14" d="M249.33,79a11.94,11.94,0,0,1,1,2.28,10.54,10.54,0,0,1,.1,4.26A7.67,7.67,0,0,1,249,89.37c-1.72,2-4.79,2.23-7.45,2a43,43,0,0,1-8.92-1.79,1.87,1.87,0,0,1-.74-.35,2.09,2.09,0,0,1-.47-.94A13.94,13.94,0,0,1,231,85.7c3.05-.88,6.42-.16,9.61-.63A1.37,1.37,0,0,0,242,83.7a1.32,1.32,0,0,0-.08-.44c-.15-1.79-1.26-3.36-1.78-5.09a8.13,8.13,0,0,1,.12-5.09,4.2,4.2,0,0,1,2.32-2.61c1.27-.42,1.76.58,2.46,1.52A53.1,53.1,0,0,1,249.33,79Z"/><path class="cls-15" d="M229.72,84.56a.8.8,0,0,0-.41-.18.64.64,0,0,0-.54.39,4.73,4.73,0,0,1-.31.64,1.5,1.5,0,0,1-1.22.5,7.84,7.84,0,0,0-1.37,0,1,1,0,0,0-.46.23.85.85,0,0,0-.25.44,2.13,2.13,0,0,0,.54,2,4.48,4.48,0,0,0,1.79,1.1,3.78,3.78,0,0,0,2.18.26,4.27,4.27,0,0,0,1.15-.52l1.49-.82a1,1,0,0,0,.32-.25c.33-.4-.12-1.62-.41-2A10.7,10.7,0,0,0,229.72,84.56Z"/><path class="cls-15" d="M228.73,60.29a25.24,25.24,0,0,1,.16-2.62c.09-.85.2-1.53.34-2.28a1.55,1.55,0,0,1,.6-1.15,7.26,7.26,0,0,1,3.89-1,3.76,3.76,0,0,1,2.84,1,3.72,3.72,0,0,1,.78,2,22.91,22.91,0,0,1-.57,5.72,24.66,24.66,0,0,0-.23,4.46,5.34,5.34,0,0,1-2.41.86,4,4,0,0,1-1.18-.2.94.94,0,0,1-.53-.34.85.85,0,0,1,0-.5,3.69,3.69,0,0,0,0-.47h0a15.16,15.16,0,0,0,0-2.61.3.3,0,0,0-.08-.21.28.28,0,0,0-.18,0h-.24a5.65,5.65,0,0,1-1.3,0,2.18,2.18,0,0,1-1.37-.67A2.81,2.81,0,0,1,228.73,60.29Z"/><path class="cls-5" d="M230.54,54.71c-.31,0-.58.16-.85,0a4.15,4.15,0,0,1-.72-.79,3.38,3.38,0,0,1-.67-2.25,2,2,0,0,1,.34-1,2.18,2.18,0,0,1,.85-.62,4,4,0,0,1,2-.4,4.86,4.86,0,0,1,2.71,1.3,1.58,1.58,0,0,0,.56.36,1.47,1.47,0,0,0,.59,0,5,5,0,0,1,3.57,1.1c.57.5,1,1.14,1.61,1.58s1.17.6,1.47,1.16a1.53,1.53,0,0,1-.17,1.63,2.6,2.6,0,0,1-1.47.85,1.34,1.34,0,0,1-.77,1.72h0a2,2,0,0,0-.67.22c-.14.11-.2.29-.35.4-.33.27-.77.37-.91.83a2.43,2.43,0,0,0,0,.6,1.45,1.45,0,0,1-.35.81c-.13.14-.36.5-.56.54s-.36-.2-.42-.4a3.94,3.94,0,0,1,.17-2.6,2.86,2.86,0,0,0,.43-1.33c0-.46-.68-.83-1-.56s-.37.94-.73.81a2.9,2.9,0,0,0-1.41-3.52,6.86,6.86,0,0,0-2.11-.3,5.05,5.05,0,0,0-1-.11Z"/><path class="cls-17" d="M231.87,63a15.14,15.14,0,0,0,2.95-.87,3.5,3.5,0,0,1-2.41,3.71h0a14.22,14.22,0,0,0,0-2.61.32.32,0,0,0-.08-.21.28.28,0,0,0-.18,0h-.23Z"/><path class="cls-15" d="M200,70.33a1.7,1.7,0,0,1,.21,1.53,5.39,5.39,0,0,1-.76,1.42l-1.6,2.36c-.42.61-1,1.3-1.72,1.24-1.75-.12-2.52-4.66-1.87-6C195,69.2,198.87,68.89,200,70.33Z"/><path class="cls-6" d="M208.26,110.91v49.25H159v-19s2.78-4.83,7.44-1.73a5.58,5.58,0,1,0,.19-7.9l-.19.19s-4.93,3.7-7.44-1.73v-19h19c5.43-2.5,1.73-7.44,1.73-7.44a5.58,5.58,0,1,1,7.9-.18l-.19.18c-3.05,4.66,1.73,7.44,1.73,7.44Z"/><path class="cls-18" d="M208.26,110.91v49.25H159v-19s2.78-4.83,7.44-1.73a5.58,5.58,0,1,0,.19-7.9l-.19.19s-4.93,3.7-7.44-1.73v-19h19c5.43-2.5,1.73-7.44,1.73-7.44a5.58,5.58,0,1,1,7.9-.18l-.19.18c-3.05,4.66,1.73,7.44,1.73,7.44Z"/><path class="cls-6" d="M126.84,86.28a5.59,5.59,0,0,1-9.63,3.86c-4.66-3.06-7.44,1.73-7.44,1.73v19H159V61.66H109.77v19c2.51,5.44,7.44,1.73,7.44,1.73a5.6,5.6,0,0,1,9.63,3.86Z"/><path class="cls-6" d="M130.54,118.35a5.58,5.58,0,1,0,7.89.18l-.18-.18s-3.7-4.94,1.73-7.44H128.8S133.63,113.69,130.54,118.35Z"/><path class="cls-19" d="M109.77,61.66v19c2.51,5.44,7.44,1.73,7.44,1.73a5.59,5.59,0,1,1,.19,7.9l-.19-.18c-4.66-3.06-7.44,1.73-7.44,1.73v19h19s4.82,2.78,1.73,7.44a5.58,5.58,0,1,0,7.89.18l-.18-.18s-3.7-4.94,1.73-7.44h19V61.66Z"/><path class="cls-6" d="M109.77,110.91v49.25H159v-19s2.78-4.83,7.44-1.73a5.58,5.58,0,1,0,.19-7.9l-.19.19s-4.93,3.7-7.44-1.73v-19H140c-5.43,2.5-1.73,7.44-1.73,7.44a5.58,5.58,0,1,1-7.9.18l.19-.18c3-4.66-1.73-7.44-1.73-7.44Z"/><path class="cls-6" d="M60.63,160.16v-19c2.51-5.44,7.44-1.73,7.44-1.73a5.58,5.58,0,1,0,.19-7.9l-.19.19c-4.66,3.05-7.44-1.73-7.44-1.73V110.91h19s4.82-2.78,1.73-7.44a5.58,5.58,0,1,1,7.9-.18l-.19.18s-3.7,4.94,1.73,7.44h19v49.25Z"/><path class="cls-20" d="M60.63,160.16v-19c2.51-5.44,7.44-1.73,7.44-1.73a5.58,5.58,0,1,0,.19-7.9l-.19.19c-4.66,3.05-7.44-1.73-7.44-1.73V110.91h19s4.82-2.78,1.73-7.44a5.58,5.58,0,1,1,7.9-.18l-.19.18s-3.7,4.94,1.73,7.44h19v49.25Z"/><path class="cls-6" d="M126.91,86.29a5.6,5.6,0,0,1-9.64,3.86s-4.93-3.71-7.44,1.73v19h-19c-5.43-2.5-1.73-7.44-1.73-7.44a5.58,5.58,0,1,0-7.9-.18l.19.18c3,4.66-1.73,7.44-1.73,7.44h-19V61.66H79.49c5.43,2.5,1.73,7.44,1.73,7.44a5.58,5.58,0,1,0,7.89.18l-.18-.18c-3.06-4.66,1.73-7.44,1.73-7.44h19.21v19s2.78,4.83,7.44,1.73A5.6,5.6,0,0,1,127,86.29Z"/><path class="cls-6" d="M139,180.93a5.59,5.59,0,0,1-9.57,4s-5-3.64-7.41,1.83l.28,19-19,.28c-5.47-2.42-1.84-7.41-1.84-7.41a5.58,5.58,0,1,0-7.88-.06l.17.17c3.16,4.61-1.62,7.46-1.62,7.46l-19,.27-.72-49.25L91.17,157c5.47,2.42,1.84,7.4,1.84,7.4a5.58,5.58,0,1,0,7.88.06l-.17-.17c-3.17-4.61,1.62-7.45,1.62-7.45l19.21-.28.28,19s2.85,4.78,7.46,1.61a5.68,5.68,0,0,1,4.07-1.79A5.58,5.58,0,0,1,139,180.93Z"/><path class="cls-21" d="M79.21,157.44c-.68.75-1.21,2.41-.13,3.11a2.72,2.72,0,0,0,1.25.34l5.76.71c-.17,0,2.84,33.93,4,41.14.14.85.5,1.92,1.36,2a1.64,1.64,0,0,0,1.29-.75,8.82,8.82,0,0,0,1.38-4.34,247.11,247.11,0,0,0,2-33.4c0-2.21-.08-4.52-1.18-6.44a9,9,0,0,0-6-4C85.67,155.11,81.6,154.77,79.21,157.44Z"/><path class="cls-22" d="M93.07,227.86V228c.24.62,1,.83,1.67.91a16.26,16.26,0,0,0,1.85.08,2.58,2.58,0,0,0,.87-.12,3.63,3.63,0,0,0,.73-.44L100,227.1a8.18,8.18,0,0,0,1.36-1.2,2.47,2.47,0,0,0,.59-1.68,1.5,1.5,0,0,0-1.07-1.33,5.24,5.24,0,0,0-1.12,0,2.15,2.15,0,0,1-2.11-1,1.73,1.73,0,0,0-.51-.86,1.35,1.35,0,0,0-.84-.1,6.19,6.19,0,0,0-1.81.36,2.09,2.09,0,0,0-1.27,1.28,3.29,3.29,0,0,0-.08.83,16.83,16.83,0,0,1,0,1.74,19.91,19.91,0,0,0-.12,2.18A2,2,0,0,0,93.07,227.86Z"/><path class="cls-22" d="M110.33,228.09a30.47,30.47,0,0,1-3.69,1.41,2.35,2.35,0,0,1-1.59.09,1.59,1.59,0,0,1-.84-1,4.53,4.53,0,0,1-.13-1.37,10.82,10.82,0,0,1,.43-2.11c.12-.64.21-1.28.29-1.92.13-.93.25-1.84.36-2.76l3.21.68c.33.08.65,1.37.85,1.64a1.7,1.7,0,0,0,1.29.68,12.8,12.8,0,0,1,1.64-.13,1.65,1.65,0,0,1,1.28,1.57,2.62,2.62,0,0,1-.87,1.92,6.38,6.38,0,0,1-1.83,1.16Z"/><path class="cls-6" d="M110.38,224.51a19.53,19.53,0,0,1-2.61,1.25h-.08c-1.49.58-3.15-1.75-3.15-1.75s-2.09-12.94-2-18.31c.07-3.68-.8-8.93-2.12-18.45-.32,9.72-2,14-1.55,17.48.64,5.3-.13,18.47-.13,18.47s-1.4,2.56-2.94,2.22h-.09a18.46,18.46,0,0,1-2.71-.84s-1.79-18.13-1.79-22.91.2-9.06.2-9.06l-.94-15.14,4-5.8.33-.13.3-.31L99.49,168s0,.75-.08,2l3.43,1.84.33.25.34.08,5.75,1s1.51,23.22,2,28S110.38,224.51,110.38,224.51Z"/><path class="cls-23" d="M110.38,224.51a19.53,19.53,0,0,1-2.61,1.25h-.08c-1.49.58-3.15-1.75-3.15-1.75s-2.09-12.94-2-18.31c.07-3.68-.8-8.93-2.12-18.45-.32,9.72-2,14-1.55,17.48.64,5.3-.13,18.47-.13,18.47s-1.4,2.56-2.94,2.22h-.09a18.46,18.46,0,0,1-2.71-.84s-1.79-18.13-1.79-22.91.2-9.06.2-9.06l-.94-15.14,4-5.8.33-.13.3-.31L99.49,168s0,.75-.08,2l3.43,1.84.33.25.34.08,5.75,1s1.51,23.22,2,28S110.38,224.51,110.38,224.51Z"/><path class="cls-24" d="M137.49,143.55a.41.41,0,0,1,.24-.08c.24,0,.25.37.16.6a6.43,6.43,0,0,1-.91,1.74.74.74,0,0,0-.22.49c0,.18.17.31.29.44a3.63,3.63,0,0,1,.78,3.21,6.3,6.3,0,0,1-1.68,2.94,2.4,2.4,0,0,1-1.61.9c-1.1,0-2.48-1.35-2.91-2.29a2.8,2.8,0,0,1,.53-2.76A14.5,14.5,0,0,1,137.49,143.55Z"/><path class="cls-24" d="M105.61,132.87c.36.36.91.74.75,1.22-.08.25-.35.4-.55.59a2.73,2.73,0,0,0-.76,2,6.54,6.54,0,0,1-.3,2.15,1.59,1.59,0,0,1-1.73,1c-.42-.11-.84-.47-1.24-.3s-.41.51-.57.79a2.23,2.23,0,0,1-2.12,1,6.6,6.6,0,0,1-2.32-.8,1.77,1.77,0,0,1-.76-.59,1.25,1.25,0,0,1-.08-.83,6.55,6.55,0,0,1,1.21-2.27,9.79,9.79,0,0,0,1.53-4.5c.08-1.12,0-2.35.73-3.22,1-1.18,3.32-1.17,4.53-.3S104.49,131.72,105.61,132.87Z"/><path class="cls-25" d="M104.17,127.8a1.76,1.76,0,0,1-.62.68c-.54.32-1,.68-1.51,1a2.29,2.29,0,0,0-1,1.4c-.21,1,.36,2.18,0,3.21-.13.21-.46.08-.6-.13s-.21-.45-.41-.57c-.36-.21-.79.14-.94.51a1.8,1.8,0,0,0,1,2.28c0,.33-.47.46-.81.42a3.46,3.46,0,0,0-1-.13c-.77.14-1,1.23-1.81,1.34a1.72,1.72,0,0,1-1.32-.76l-.92-1a5.17,5.17,0,0,0-.49-.56c-.21-.16-.56-.17-.73-.37s0-.65-.19-.89a.63.63,0,0,0-.31-.19,1.31,1.31,0,0,1-.67-1.5.41.41,0,0,0,0-.22c0-.11-.15-.15-.25-.2a1.41,1.41,0,0,1-.52-1.75,2.92,2.92,0,0,1,.66-.93.92.92,0,0,1,.91-.42l.15-1.33a1.52,1.52,0,0,1,1.5-1.55,1,1,0,0,1,.3,0l-.3-1.1a.41.41,0,0,1,.32-.62,5.07,5.07,0,0,1,1.09-.18,5.34,5.34,0,0,1-.3-1,.26.26,0,0,1,.12-.35.23.23,0,0,1,.2,0,1.41,1.41,0,0,0,.41,0s-.2-.94-.21-1a1.18,1.18,0,0,1,.15-.86,1,1,0,0,1,.91-.33,2.81,2.81,0,0,1,.93.34c0-.35.44-.53.79-.57a4.12,4.12,0,0,1,3.55,1.7,1.93,1.93,0,0,0,.22.28,1.65,1.65,0,0,0,.53.22,2.15,2.15,0,0,1,1.19,1.39,6.36,6.36,0,0,1,.18,1.85,5.19,5.19,0,0,1-.13,1.42A2.18,2.18,0,0,1,104.17,127.8Z"/><path class="cls-14" d="M99.11,139.34a18.82,18.82,0,0,1,2.46,1.23,1.7,1.7,0,0,1,.62.54.86.86,0,0,1,.09.85c-.22.38-.73.25-1.11.1a14.91,14.91,0,0,0-5.58-.77.69.69,0,0,1-.67-.27.94.94,0,0,1,.07-.77C96,138.31,97.53,138.62,99.11,139.34Z"/><path class="cls-14" d="M133.94,154.33a7.42,7.42,0,0,1-1.6,2.45c-.66.75-1.34,1.46-2,2.15a58.6,58.6,0,0,1-5.28,4.55,10.69,10.69,0,0,1-4.36,2.34,3.48,3.48,0,0,1-2-.12,5,5,0,0,1-1.38-1c-.47-.47-5.9-6.73-6-6.73a1.44,1.44,0,0,0-.67.77,15,15,0,0,0-1.44,5.18,16.16,16.16,0,0,0,0,2.41c.22,2.73,1.17,5.55.23,8.14a3.78,3.78,0,0,1-.92,1.44,4.31,4.31,0,0,1-1.35.8,12.91,12.91,0,0,1-2.73.78,10.85,10.85,0,0,1-1.62.17c-2,.08-4-.3-6-.21-1.69.09-3.37.53-5.08.47a1.72,1.72,0,0,1-2-1.36,1.09,1.09,0,0,1,0-.26,63.18,63.18,0,0,1-1-11c0-1.28-.07-2.57-.15-3.86-.07-1.08.22-3.85-1-4.07-3.15-.61-6.43.17-9.61-.28a8.14,8.14,0,0,1,2.47-5.5A13.69,13.69,0,0,1,82.79,150a13.53,13.53,0,0,0,2.61-2.46,22.62,22.62,0,0,1,8-6.28,7.24,7.24,0,0,1,1.56-.55h.13a1,1,0,0,1,.24,0,6.92,6.92,0,0,1,2,.12,116.77,116.77,0,0,1,13.45,3,3.4,3.4,0,0,1,2.5,1.78c1.25,1.88,2.46,3.77,3.71,5.64,1.08,1.61,2.13,3.62,3.72,4.8a43.58,43.58,0,0,0,9.71-5.47c.41-.32.95-.66,1.43-.45a1.27,1.27,0,0,1,.42.31C133.48,151.47,134.51,152.59,133.94,154.33Z"/></g></g></svg>