<svg xmlns="http://www.w3.org/2000/svg" xmlns:xlink="http://www.w3.org/1999/xlink" viewBox="0 0 378.57 195.16"><defs><style>.cls-1{fill:#4b89c7;}.cls-2{fill:url(#Degradado_sin_nombre_11);}.cls-3{fill:url(#Degradado_sin_nombre_11-2);}.cls-4{fill:#fff;}.cls-5{fill:url(#Degradado_sin_nombre_12);}.cls-6{fill:url(#Degradado_sin_nombre_11-3);}.cls-7{fill:#3e3e54;}.cls-8{fill:url(#Degradado_sin_nombre_11-4);}.cls-9{fill:url(#Degradado_sin_nombre_11-5);}.cls-10{fill:url(#Degradado_sin_nombre_11-6);}.cls-11{fill:url(#Degradado_sin_nombre_12-2);}.cls-12{fill:url(#Degradado_sin_nombre_12-3);}.cls-13{fill:url(#Degradado_sin_nombre_12-4);}.cls-14{fill:url(#Degradado_sin_nombre_11-7);}.cls-15{fill:url(#Degradado_sin_nombre_12-5);}</style><linearGradient id="Degradado_sin_nombre_11" x1="114.84" y1="134.33" x2="124.41" y2="58.31" gradientTransform="matrix(1.09, 0, 0, -1.09, 86.5, 203.46)" gradientUnits="userSpaceOnUse"><stop offset="0" stop-opacity="0"/><stop offset="0.99"/></linearGradient><linearGradient id="Degradado_sin_nombre_11-2" x1="141.7" y1="111.61" x2="157.09" y2="121.37" xlink:href="#Degradado_sin_nombre_11"/><linearGradient id="Degradado_sin_nombre_12" x1="-3708.64" y1="772.16" x2="-3693.98" y2="772.16" gradientTransform="matrix(0.86, 0.66, 0.66, -0.86, 2865.96, 3168.98)" gradientUnits="userSpaceOnUse"><stop offset="0" stop-color="#e5c5d5"/><stop offset="0.42" stop-color="#ead4d1"/><stop offset="1" stop-color="#f0e9cb"/></linearGradient><linearGradient id="Degradado_sin_nombre_11-3" x1="98.97" y1="149.68" x2="120.65" y2="131.85" xlink:href="#Degradado_sin_nombre_11"/><linearGradient id="Degradado_sin_nombre_11-4" x1="145.62" y1="112.04" x2="153.79" y2="158.22" gradientTransform="matrix(0.12, 1.08, 1.08, -0.12, 94.86, -75.51)" xlink:href="#Degradado_sin_nombre_11"/><linearGradient id="Degradado_sin_nombre_11-5" x1="14.6" y1="183.09" x2="15.35" y2="209.75" gradientTransform="matrix(1.09, 0, 0, -1.09, 142.03, 280.75)" xlink:href="#Degradado_sin_nombre_11"/><linearGradient id="Degradado_sin_nombre_11-6" x1="-111.38" y1="250.62" x2="-131.65" y2="-98.52" gradientTransform="matrix(1.09, 0, 0, -1.09, 142.03, 280.75)" xlink:href="#Degradado_sin_nombre_11"/><linearGradient id="Degradado_sin_nombre_12-2" x1="139.08" y1="130.43" x2="165.36" y2="130.43" gradientTransform="matrix(1.09, 0, 0, -1.09, 86.5, 203.46)" xlink:href="#Degradado_sin_nombre_12"/><linearGradient id="Degradado_sin_nombre_12-3" x1="-2037.06" y1="824.8" x2="-2000.69" y2="824.8" gradientTransform="matrix(1.01, 0.4, 0.4, -1.01, 1902.68, 1662.27)" xlink:href="#Degradado_sin_nombre_12"/><linearGradient id="Degradado_sin_nombre_12-4" x1="-2002.91" y1="834.53" x2="-2004.69" y2="828.24" gradientTransform="matrix(1.01, 0.4, 0.4, -1.01, 1902.68, 1662.27)" xlink:href="#Degradado_sin_nombre_12"/><linearGradient id="Degradado_sin_nombre_11-7" x1="-1999.86" y1="833.24" x2="-2013.28" y2="825.97" gradientTransform="matrix(1.01, 0.4, 0.4, -1.01, 1902.68, 1662.27)" xlink:href="#Degradado_sin_nombre_11"/><linearGradient id="Degradado_sin_nombre_12-5" x1="57.74" y1="120.19" x2="79.91" y2="120.19" gradientTransform="matrix(1.09, 0, 0, -1.09, 86.5, 203.46)" xlink:href="#Degradado_sin_nombre_12"/></defs><g id="Capa_2" data-name="Capa 2"><g id="Layer_1" data-name="Layer 1"><path class="cls-1" d="M227.57,42.74C234.18,45,238.9,51,245.19,54a12.66,12.66,0,0,1,2.5,1.37,8.61,8.61,0,0,1,1.74,2c3.76,5.5,5.18,12.31,5.29,19,.06,3.87-.58,8.28-3.78,10.46s-7.14,1.27-10.76,1.93a2.66,2.66,0,0,0-1.34.56,2.71,2.71,0,0,0-.59,1.23c-1,3.86-.32,8.12-2,11.73a12.85,12.85,0,0,1-5,5.33c-5,3.12-11,3.73-16.91,4.08a275.3,275.3,0,0,1-28.44.22c-2.76-.11-5.79-.39-7.72-2.36a8.79,8.79,0,0,1-1.87-3.26c-1.61-4.7-1.3-9.84-.77-14.78,1.09-9.77-4.22-19.55-2.4-29.24,1-5.43,9.56-11.54,14.28-14.43,2.83-1.72,6.24-2,9.23-3.25s4.92-1.21,8.28-1.4C212.42,42.6,220.23,40.2,227.57,42.74Z"/><path class="cls-2" d="M227.57,42.74C234.18,45,238.9,51,245.19,54a12.66,12.66,0,0,1,2.5,1.37,8.61,8.61,0,0,1,1.74,2c3.76,5.5,5.18,12.31,5.29,19,.06,3.87-.58,8.28-3.78,10.46s-7.14,1.27-10.76,1.93a2.66,2.66,0,0,0-1.34.56,2.71,2.71,0,0,0-.59,1.23c-1,3.86-.32,8.12-2,11.73a12.85,12.85,0,0,1-5,5.33c-5,3.12-11,3.73-16.91,4.08a275.3,275.3,0,0,1-28.44.22c-2.76-.11-5.79-.39-7.72-2.36a8.79,8.79,0,0,1-1.87-3.26c-1.61-4.7-1.3-9.84-.77-14.78,1.09-9.77-2.69-19-.87-28.74,1-5.43,3.63-5.67,8.35-8.56,2.83-1.73,10.64-8.34,13.63-9.67s4.92-1.2,8.28-1.4C212.42,42.6,220.23,40.2,227.57,42.74Z"/><path class="cls-3" d="M254.48,78.92c.16,9.17-8.1,9.63-13.69,10a3.83,3.83,0,0,1-1.83-.33c-2.69-1.08-4.84-5-6.15-8a39.17,39.17,0,0,1-1.41-3.7S254.29,69.74,254.48,78.92Z"/><rect class="cls-4" x="31.21" y="93.66" width="320.93" height="28.72"/><rect class="cls-4" x="31.21" y="122.7" width="286.41" height="26.33"/><rect class="cls-4" x="23.75" y="147.57" width="325.56" height="26.33"/><rect class="cls-4" x="22.83" y="168.78" width="355.74" height="26.33"/><path class="cls-5" d="M205.89,40.46c.78,3.49,1.54,7.24.17,10.54a9,9,0,0,1-9.78,5.21A5.22,5.22,0,0,1,193,54.38a5.66,5.66,0,0,1-.89-2A13.39,13.39,0,0,1,200.7,36c1.09-.37,2.88-1.08,3.9-.26S205.64,39.35,205.89,40.46Z"/><path class="cls-6" d="M204.41,36.39s-.41,15.6-7.54,17-6.62-6.52-6.62-6.52Z"/><path class="cls-7" d="M167.14,24.78a14.54,14.54,0,0,0,6.6,9.7,3.72,3.72,0,0,0,1-3.19,24.41,24.41,0,0,0-.84-3.37c-.92-3.67-.27-7.52-.15-11.3,0-1.09-.08-2.35-1-2.92C167.74,10.57,166.7,22.27,167.14,24.78Z"/><rect class="cls-1" x="60.74" y="71.84" width="60.94" height="21.81"/><rect class="cls-1" x="5" y="71.84" width="51.88" height="21.81"/><rect class="cls-1" x="5" y="121.99" width="51.88" height="21.81"/><rect class="cls-1" x="5" y="172.12" width="51.88" height="21.81"/><rect class="cls-1" x="94.17" y="97.52" width="60.94" height="21.81"/><rect class="cls-1" x="28.54" y="97.52" width="60.94" height="21.81"/><rect class="cls-1" x="158.58" y="97.52" width="60.94" height="21.81"/><rect class="cls-1" x="223.81" y="97.52" width="60.94" height="21.81"/><rect class="cls-1" x="236.06" y="38.19" width="21.81" height="60.94" transform="translate(150.79 306.26) rotate(-83.5)"/><rect class="cls-8" x="236.06" y="38.19" width="21.81" height="60.94" transform="translate(150.79 306.26) rotate(-83.5)"/><rect class="cls-1" x="288.22" y="97.52" width="60.94" height="21.81"/><rect class="cls-1" x="94.17" y="147.05" width="60.94" height="21.81"/><rect class="cls-1" x="28.54" y="147.05" width="60.94" height="21.81"/><rect class="cls-1" x="158.58" y="147.05" width="60.94" height="21.81"/><rect class="cls-1" x="223.81" y="147.05" width="60.94" height="21.81"/><rect class="cls-1" x="288.22" y="147.05" width="60.94" height="21.81"/><rect class="cls-1" x="127.39" y="71.84" width="60.94" height="21.81"/><rect class="cls-9" x="127.39" y="71.84" width="60.94" height="21.81"/><rect class="cls-1" x="60.74" y="122.59" width="60.94" height="21.81"/><rect class="cls-1" x="125.25" y="122.59" width="60.94" height="21.81"/><rect class="cls-1" x="189.46" y="122.59" width="60.94" height="21.81"/><rect class="cls-1" x="253.37" y="122.59" width="60.94" height="21.81"/><rect class="cls-1" x="60.74" y="173.35" width="60.94" height="21.81"/><rect class="cls-1" x="125.25" y="173.35" width="60.94" height="21.81"/><rect class="cls-1" x="189.46" y="173.35" width="60.94" height="21.81"/><rect class="cls-1" x="253.37" y="173.35" width="60.94" height="21.81"/><rect class="cls-1" x="317.57" y="173.35" width="60.94" height="21.81"/><rect class="cls-1" x="282.31" y="71.84" width="60.94" height="21.81"/><rect class="cls-1" y="22.31" width="30.58" height="172.05"/><rect class="cls-10" y="22.31" width="30.58" height="172.05"/><path class="cls-11" d="M249.2,50.18a20.77,20.77,0,0,1,13.71,4.11,8.31,8.31,0,0,1,2.31,2.38,7.88,7.88,0,0,1,.84,4.24,13.65,13.65,0,0,1-5.75,10.86c-3.55,2.34-8.69,2.38-11.94-.35s-4.1-7-5.88-10.78a5.19,5.19,0,0,0-1.74-2.27c-3.09-1.95-5.14-1.94-.71-5A18.45,18.45,0,0,1,249.2,50.18Z"/><path class="cls-12" d="M181.81,48.53c2.53,2.45,4,3.79,7.51,3.73,6.32-.1,13.69-7.81,14.78-12.46a26.34,26.34,0,0,0,.38-8.81c-.65-6.28-2.77-12.61-7.11-17.2S186.2,6.68,180.15,8.54C161.11,14.39,172.6,39.65,181.81,48.53Z"/><path class="cls-7" d="M180.83,0a16,16,0,0,0-5.19.78c-3.59,1.23-6.39,4-9,6.75-1.08,1.14-2.32,2.58-1.95,4.14A4.17,4.17,0,0,0,165.3,13a9.22,9.22,0,0,0,5,4.19,11,11,0,0,0,4,.07L186.62,16c3.26-.34,8.77-.58,9.63,3.57a30.49,30.49,0,0,1,.11,4.68,7.66,7.66,0,0,0,1.3,4,5.32,5.32,0,0,0,3.48,2.17,3.14,3.14,0,0,0,1.91-.27A5.84,5.84,0,0,0,205.34,27a12.65,12.65,0,0,0,0-5.27A34.93,34.93,0,0,0,201.83,10c-.93-1.72-2.26-2.18-3.84-3.13s-3.06-2.41-4.74-3.43A23.85,23.85,0,0,0,180.83,0Z"/><path class="cls-13" d="M202,28.79a12.28,12.28,0,0,1,1-3,3.34,3.34,0,0,1,1.44-1.84,2.38,2.38,0,0,1,2.56.43,3.9,3.9,0,0,1,1.16,2.42,9.29,9.29,0,0,1-1.18,5.26,4.54,4.54,0,0,1-1.08,1.59A1.79,1.79,0,0,1,204,34a2.71,2.71,0,0,1-1.08-1.39,5.84,5.84,0,0,1-.86-3.8"/><path class="cls-14" d="M204,30.44a1.68,1.68,0,0,0,.69-.73c.16-.5-.19-1.08-.21-1.57a2,2,0,0,1,.39-1.14c.24-.37.64-.74,1.09-.61a1.08,1.08,0,0,1,.58.64,4.92,4.92,0,0,1-.22,4,2.69,2.69,0,0,1-.93,1.2.74.74,0,0,1-.43.17,1.17,1.17,0,0,1-.45-.13c-.37-.17-1-.43-1.14-.83C203.11,30.88,203.54,30.75,204,30.44Z"/><path class="cls-15" d="M153.6,77.81a9.1,9.1,0,0,0,4,1.43,13.49,13.49,0,0,0,3.7,0c4.52-.63,8.46-3.55,11.29-7.13a3.38,3.38,0,0,0,.67-1.2c.35-1.49-1.35-2.62-2.81-3.1-5-1.61-10.4-1.36-15.65-1.09a11.73,11.73,0,0,0-4,.7c-1.75.76-1.74,1.37-1.3,3.07C150.14,73.22,151.13,76.13,153.6,77.81Z"/></g></g></svg>