<?xml version="1.0" encoding="utf-8"?>
<!-- Generator: Adobe Illustrator 25.4.1, SVG Export Plug-In . SVG Version: 6.00 Build 0)  -->
<svg version="1.1" id="Layer_1" xmlns="http://www.w3.org/2000/svg" xmlns:xlink="http://www.w3.org/1999/xlink" x="0px" y="0px"
	 viewBox="0 0 406 306" style="enable-background:new 0 0 406 306;" xml:space="preserve">
<style type="text/css">
	.st0{fill:url(#SVGID_1_);}
	.st1{fill:url(#SVGID_00000030472242607287943890000005596818113755495331_);}
	.st2{fill:url(#SVGID_00000021818914273599472570000006194360544438462105_);}
	.st3{fill:url(#SVGID_00000078733092931562980630000005231727551575923102_);}
	.st4{fill:#FDB9A9;}
	.st5{fill:#823C84;}
	.st6{fill:#FFFFFF;}
	.st7{fill:#473F47;}
	.st8{opacity:0.1;fill:#020202;enable-background:new    ;}
	.st9{fill:#2F3554;}
	.st10{fill:#EFAC88;}
	.st11{fill:#8B2F0C;}
	.st12{fill:url(#SVGID_00000002379984042620916310000011832630872313124252_);}
	.st13{fill:#FDC099;}
	.st14{fill:#8A3C1F;}
	.st15{fill:#A67C52;}
	.st16{fill:#262836;}
	.st17{fill:url(#SVGID_00000029019535018578107530000008360516118884570546_);}
	.st18{fill:#DD8049;}
	.st19{fill:#DE9F93;}
</style>
<g>
	
		<linearGradient id="SVGID_1_" gradientUnits="userSpaceOnUse" x1="137.3817" y1="1568.5165" x2="137.3817" y2="1657.4865" gradientTransform="matrix(1.0253 0 0 1.0253 30.6147 -1415.243)">
		<stop  offset="1.000000e-02" style="stop-color:#000000"/>
		<stop  offset="8.000000e-02" style="stop-color:#000000;stop-opacity:0.69"/>
		<stop  offset="0.21" style="stop-color:#000000;stop-opacity:0.32"/>
		<stop  offset="1" style="stop-color:#000000;stop-opacity:0"/>
	</linearGradient>
	<path class="st0" d="M228.7,243.8c1.6,0.4,3.1,1.1,4.3,2.2c3.2,3.1,1.7,9-1.9,11.6c-3.6,2.7-8.3,3.1-12.8,3.5
		c-14.8,1.3-29.5,3.3-44.1,6.2c-14.2,2.8-28.6,6.3-43.2,5.8c-5.1-0.2-17.7-0.4-21.4-4.6c-4.8-5.4,5.4-11.6,9.6-14.5
		c17.4-12.1,37.9-9.4,58-12.4C194.2,239,212,238.4,228.7,243.8z"/>
	
		<linearGradient id="SVGID_00000116236576382133100720000009261172347336580029_" gradientUnits="userSpaceOnUse" x1="278.975" y1="1562.6562" x2="288.545" y2="1640.3662" gradientTransform="matrix(1.0253 0 0 1.0253 30.6147 -1415.243)">
		<stop  offset="1.000000e-02" style="stop-color:#000000"/>
		<stop  offset="8.000000e-02" style="stop-color:#000000;stop-opacity:0.69"/>
		<stop  offset="0.21" style="stop-color:#000000;stop-opacity:0.32"/>
		<stop  offset="1" style="stop-color:#000000;stop-opacity:0"/>
	</linearGradient>
	<path style="fill:url(#SVGID_00000116236576382133100720000009261172347336580029_);" d="M300.7,214.6c-2.4,0.7-4.8,1.9-6.1,4
		c-0.6,1.3-1.1,2.6-1.5,3.9c-1.7,4.8-5.5,8.6-10.3,10.3c-1.4,0.5-2.9,0.9-3.7,2.1c-0.8,1.3-0.8,3,0.1,4.2c0.9,1.2,2.1,2.2,3.5,2.7
		c5,2.3,10.8,2.3,16.2,1.3c5.4-1.1,10.6-3.1,15.8-4.8c6.8-2.1,13.8-3.6,20.9-4.5c5.6-0.6,11.3-0.9,16.7-2.6
		c5.4-1.7,10.5-5.2,12.6-10.5c-6.7-6.9-17.4-7.7-27-7C325.8,214.8,312.7,210.9,300.7,214.6z"/>
	
		<linearGradient id="SVGID_00000026879556141297957740000008087017215153810323_" gradientUnits="userSpaceOnUse" x1="47.1702" y1="1553.0068" x2="56.7402" y2="1630.7168" gradientTransform="matrix(1.0253 0 0 1.0253 30.6147 -1415.243)">
		<stop  offset="1.000000e-02" style="stop-color:#000000"/>
		<stop  offset="8.000000e-02" style="stop-color:#000000;stop-opacity:0.69"/>
		<stop  offset="0.21" style="stop-color:#000000;stop-opacity:0.32"/>
		<stop  offset="1" style="stop-color:#000000;stop-opacity:0"/>
	</linearGradient>
	<path style="fill:url(#SVGID_00000026879556141297957740000008087017215153810323_);" d="M63.1,204.7c-2.4,0.7-4.8,1.9-6.1,4
		c-0.6,1.3-1.1,2.6-1.5,3.9c-1.7,4.8-5.5,8.6-10.3,10.3c-1.3,0.5-2.9,0.9-3.7,2.1c-0.8,1.3-0.8,3,0.1,4.2c0.9,1.2,2.1,2.2,3.5,2.7
		c5,2.3,10.8,2.3,16.2,1.3s10.6-3.1,15.8-4.8c6.8-2.1,13.8-3.6,20.9-4.5c5.6-0.6,11.3-0.9,16.7-2.6c5.4-1.7,10.5-5.2,12.6-10.5
		c-6.7-6.9-17.4-7.7-27-7C88.2,204.9,75,201,63.1,204.7z"/>
	
		<linearGradient id="SVGID_00000054945808175029378710000002768058560621905059_" gradientUnits="userSpaceOnUse" x1="-1602.6628" y1="531.3481" x2="-1615.2229" y2="361.7581" gradientTransform="matrix(1.0253 0 0 -1.0253 1846.0446 664.1292)">
		<stop  offset="1.000000e-02" style="stop-color:#000000"/>
		<stop  offset="8.000000e-02" style="stop-color:#000000;stop-opacity:0.69"/>
		<stop  offset="0.21" style="stop-color:#000000;stop-opacity:0.32"/>
		<stop  offset="1" style="stop-color:#000000;stop-opacity:0"/>
	</linearGradient>
	<path style="fill:url(#SVGID_00000054945808175029378710000002768058560621905059_);" d="M162.1,191c-6.3,1.1-12.7,2.4-18.1,5.7
		c-1.9,1.1-3.7,2.8-3.9,4.9c-0.3,2.4,1.5,4.6,3.7,5.6c2.3,0.8,4.7,1.2,7.1,1l28.2,0.2l20.8,0.1c2.5,0,5.4-0.4,7.9,0
		c4.5,0.8,8.5,3,13.3,3.2c6.2,0.3,12.5-0.9,18.6-2.1c3.8-0.7,7.7-1.5,11.1-3.5c1.3-0.8,2.7-2.1,2.6-3.6c-0.1-0.9-0.6-1.8-1.3-2.5
		c-4.7-4.9-12.5-4.5-19.2-6c-7.1-1.6-13.5-5.7-20.6-6.9c-3.3-0.4-6.6-0.6-9.9-0.4c-5.9,0.1-11.9-0.6-17.7,0.3
		C177,188.3,169.6,189.7,162.1,191z"/>
	<path class="st4" d="M200.3,181.2c-5.2-1.2-4.2,6.3-5.6,9c-0.9,1.4-2,2.7-3.2,3.7c-1.3,1.1-2.1,2.6-2.4,4.2c0,0.3,0,0.6,0.2,0.9
		c0.3,0.3,0.6,0.6,1,0.6c3,0.9,6.2,0.6,9-0.9c1.3-0.6,2.4-1.6,3.1-2.9c0.6-1.3,0.8-2.8,0.8-4.2C203.3,188.6,204.7,182.2,200.3,181.2
		z"/>
	<path class="st5" d="M195.6,196.5c0,0-14.9,0.6-8.6,5.3c6.3,4.7,15.8-1.1,16.7-2.3c0.9-1.1,0.2-2.9,0.2-2.9L195.6,196.5z"/>
	<path class="st6" d="M203.1,198.6c-1.3,1.6-8.4,3.8-11.5,3.6c-3.1-0.2-5.9-1.7-5.6-3.7c0.3-2,5.8-6.7,6.8-6.7c1,0,1.8,2.4,3.9,2.9
		c1.9,0.3,3.8-0.4,5-1.8c0.4-0.5,1.1-0.7,1.7-0.4C204.4,194.5,204.2,196.8,203.1,198.6z"/>
	<path class="st4" d="M218.3,184.2c-5.2-1.2-4.2,6.2-5.6,9c-0.9,1.4-2,2.7-3.2,3.7c-1.3,1.1-2.1,2.6-2.4,4.2c0,0.3,0,0.6,0.2,0.9
		c0.3,0.3,0.6,0.6,1,0.6c3,0.9,6.2,0.5,9-0.9c1.3-0.6,2.4-1.6,3.1-2.9c0.6-1.3,0.8-2.8,0.8-4.2C221.3,191.5,222.7,185.1,218.3,184.2
		z"/>
	<path class="st5" d="M213.7,199.4c0,0-14.9,0.6-8.6,5.3c6.3,4.7,15.8-1.1,16.7-2.2c0.9-1.1,0.2-2.9,0.2-2.9L213.7,199.4z"/>
	<path class="st6" d="M221.1,201.5c-1.3,1.6-8.3,3.8-11.5,3.6c-3.1-0.2-5.9-1.7-5.6-3.7c0.3-2,5.8-6.7,6.8-6.7s1.9,2.4,3.9,2.9
		c1.9,0.3,3.8-0.4,5.1-1.8c0.4-0.5,1.1-0.7,1.7-0.4C222.4,197.3,222.3,199.6,221.1,201.5z"/>
	<path class="st7" d="M204.8,116.4l7,73.8l10.1-1.3c4-18,3-71.9,3-71.9L204.8,116.4z"/>
	<path class="st7" d="M211.8,114.4l-7,73.8l-10.2-1.2c-5.8-46.7-1-75.9-1-75.9L211.8,114.4z"/>
	<path class="st6" d="M194.5,87.7c-0.1-1.4-0.5-2.7-0.6-4.1c-0.3-2.8-0.3-5.6,0.2-8.4c0.5-3,1.4-5.8,2.6-8.5
		c1.2-2.3,3.3-3.3,5.6-4.5c2-1.1,4.1-1.8,6.4-2.2c1.6-0.1,3.2-0.1,4.7,0.3c4.8,0.9,11.1,3.4,14.4,7.2c2.5,2.8,2.7,6.9,2.8,10.6
		c0.1,5.2,0,10.3-0.3,15.5c0,0.7-0.1,1.5-0.1,2.2c-0.4,5.6-0.9,11.5-2.5,17c-0.5,1.7-1,3.4-2.6,4.4c-3.7,2.2-9.4,1-13.5,0.4
		c-5.3-0.8-10.8-1.5-15.6-4.1c-1-0.4-1.8-1.2-2.3-2.2c-0.4-1.2,0.1-2.4,0.5-3.6c1.6-5.3,0.4-10.8,0.4-16.2c0-1,0.1-2,0.1-2.9
		C194.6,88.2,194.5,88,194.5,87.7z"/>
	<path class="st8" d="M207.5,66.9c0.5-1,1.2-2,1.9-2.8c0.1-0.1,0.2-0.2,0.3-0.3c0.1,0,0.3,0,0.4,0l4.6,0.7c0.2,0,0.4,0.1,0.6,0.2
		c0.1,0.1,0.3,0.3,0.3,0.5c0.3,1.1,0.1,2.3-0.4,3.3c-1.3,2.6-2.9,5-4.7,7.2c-1,1.4-1.9,2.9-2.6,4.4c-0.3,0.8-0.5,1.7-0.8,2.5
		c-0.3,0.8-1,0.4-1.6,0.2l-7.1-1.5l-3.5-0.7c-0.5-0.1-0.9-0.1-0.6-0.7c0.2-0.4,0.5-0.6,0.9-0.7c0.6-0.1,1.1-0.2,1.7-0.3
		c1.2-0.3,2.3-0.8,3.2-1.6c0.8-0.5,1.5-1,2.1-1.6C204.7,73.4,205.9,69.9,207.5,66.9z"/>
	<path class="st6" d="M199.8,62.4c0.5-0.6,1.1-1.2,1.9-1.5c1.7-0.6,3.3,0.8,5.1,1.2c1.3,0.3,2.9,0.1,3.7,1.2c0.5,0.9,0.5,2,0,3
		c-1.4,4.6-3.2,9.2-5.3,13.5c-0.8,1.8-1.9,3.3-2.8,5c-1,1.9-1.2,3.8-2.7,5.5s-4.1,2.8-6.2,2c-1.1-0.5-2-1.2-2.6-2.2
		c-2.7-3.9-0.8-8,0.7-11.9C192.4,75.5,199.3,62.9,199.8,62.4z"/>
	<path class="st8" d="M222.9,117.7c-1.8,0.3-3.9,1.6-5.8,1.3c-2.1-1-4.3-1.6-6.6-1.8c-3.1-0.4-6.3-1.8-9.2-2.7
		c-1.2-0.3-2.4-0.9-3.4-1.7c-1.8-1.9-1.3-4.9-0.9-7.4c0.5-3.7,0.5-7.6-0.2-11.3c-0.3-1.8-0.7-3.5-1.4-5.1c-0.6-1.3-1.4-2.1-1.2-3.7
		c0.2-1.4,1.1-2.9,2.6-3.1c0.8,0,1.6,0.3,2.3,0.7c1.9,1,4,1.8,6.2,2.2c5.3,0.7,10.6-1.8,13.5-6.4c1.4-2.2,2.8-12.4,6.7-11
		c2.6,1.1,4.5,3.3,5.3,5.9c0.8,2.7,1.1,5.4,0.9,8.2c-0.1,7.2-1.5,14.5-2.4,21.6c-0.4,2.7-0.8,12.7-4.3,13.6
		C224.3,117.3,223.6,117.6,222.9,117.7z"/>
	<path class="st4" d="M197.4,77.8c-1.3-0.8-3-0.9-4.4-0.3c-1.4,0.7-2.3,2.1-2.3,3.7c0.1,1.1,0.4,2.1,1,2.9c0.3,0.6,0.8,1.1,1.3,1.4
		c0.8,0.5,1.8,0.7,2.8,0.6c0.9,0,1.7-0.3,2.5-0.7c1.1-0.6,2.6-2.5,2.3-3.9C199.9,80,198.8,78.7,197.4,77.8z"/>
	<path class="st6" d="M229.1,68.9c4.3,7.2,5.8,15.6,7.3,23.9c0.2,1,0.3,2.1,0.1,3.1c-0.5,1.8-2,3.3-3.9,3.7
		c-1.8,0.4-3.7,0.5-5.6,0.3c-4-0.3-8.8-0.6-12.2-2.9c-1.2-0.8-2.2-1.8-3.4-2.6c-1.2-0.7-2.4-1.3-3.6-1.8c-2.4-1.1-4.7-2.4-6.8-4
		c-0.7-0.5-1.3-1.1-1.8-1.8c-0.7-1.4-0.2-3.1,0.4-4.5c0.1-0.4,0.3-0.7,0.6-0.9c0.4-0.2,0.9-0.2,1.3,0c5.8,1.7,11.6,3,17.6,3.9
		c1.6,0.3,0.9-1.5,0.7-2.5c-0.4-1.3-0.6-2.6-0.9-4c-0.4-3.9,1.1-7.8,4.1-10.3c0.8-0.7,1.7-1.2,2.7-1.3
		C227,67.3,228.2,67.9,229.1,68.9z"/>
	<path class="st4" d="M207.2,52.1c-0.2-0.7-0.3-1.4-0.3-2.2c-0.3-3.1-0.6-6.3,0.9-8.9c1.9-3.5,6.3-4.7,9.8-2.7
		c1.2,0.6,2.1,1.6,2.7,2.7c0.9,1.7,1.3,3.5,1.1,5.4c-0.2,1.9-0.5,3.7-1,5.5c-0.5,1.9-1.7,3.1-2.5,4.8c-0.2,0.8-0.4,1.5-0.3,2.3
		c0.1,1.2,0.1,2.4,0,3.6c-1.2,0.8-2.5,1.2-3.9,1.4c-0.7,0-1.3-0.1-1.9-0.3c-0.3-0.1-0.7-0.3-0.9-0.6c-0.1-0.3-0.1-0.5-0.1-0.8
		c0-0.3,0.1-0.5,0.1-0.8c0.1-1.3,0.1-2.6-0.1-3.8c-0.4-1-1.1-1.9-2-2.5C207.9,54.4,207.4,53.3,207.2,52.1z"/>
	<path class="st8" d="M207.9,53.5c1.4-0.2,2.8-0.5,4.1-0.8c0.5-0.1,1-0.2,1.4,0.1c0.2,0.2,0.3,0.4,0.3,0.6c0.2,0.5,0.2,0.9,0.2,1.4
		c-0.1,0.4-0.2,0.8-0.3,1.2c-0.1,0.4-0.1,0.8,0.1,1.2c0.3,0.5,1,0.6,1.2,1.1c0.2,0.5-0.2,0.8-0.4,1.1c-0.1,0.5-0.2,0.9-0.3,1.4
		c0,0.5-0.1,1.1-0.2,1.6c-0.2,0.5-0.7,1-1.3,1.1c-0.6,0.1-1.2,0-1.7-0.3c-0.6-0.6-1-1.5-1-2.3l-0.6-2.8c-0.2-1-0.4-1.9-0.7-2.8
		c-0.3-0.6-0.7-1.2-1.1-1.8L207.9,53.5z"/>
	<path class="st9" d="M120.6,106.4c0,0,0.6,2.6-5.5,4.5c-6.1,1.9-8.4-4.5-8.4-4.5S118.4,101.9,120.6,106.4z"/>
	<path class="st10" d="M89.3,171.5l0.7-2.7l1.8-7c0.1-0.3,0.2-0.6,0.4-0.9c0.3-0.2,1.1,2.4,1.5,2.4c2-0.1,4,0,6,0.4
		c0.5,0.1-1.6,30.2-1.8,33.2c-0.4,6.8-0.1,20.1,0.9,20.1c-2,0.2-6,0.4-6.9-0.5c-1.5-1.5,1.1-11.5-1.8-23.1c-0.7-2.9-1.1-5.8-1.2-8.7
		C88.9,180.3,88.2,175.6,89.3,171.5z"/>
	<path class="st10" d="M103.4,204.9c0.2-0.4,0.4-0.8,0.6-1.3c0.5-1.5,0.1-3.1,0.2-4.6c0.1-0.8,0.1-1.6,0-2.4
		c-0.2-2.1-0.4-4.1-0.7-6.2c-0.4-3.5-1.3-7.1-1.3-10.6c0-2.7,2.2-11.2,2.2-11.2l-2.2-11h11c0,0,1.4,9.2,1,10.3
		c-0.8,2.1-1.3,4.3-1.4,6.5c0,4-0.5,8-0.8,11.9c-0.3,4.3-0.7,8.7-1,13c-0.1,1.6-0.3,3.1-0.4,4.7c-0.1,2.3,0.3,4.6,1.2,6.7
		c0.3,1,0.7,2.1,0.1,2.9s-2.1,0.5-3.1,0c-1.4-0.9-2.8-1.7-4.3-2.3c-0.6-0.1-1.2-0.4-1.7-0.7c-1-0.8-1-2.3-0.6-3.5
		C102.7,206.4,103,205.7,103.4,204.9z"/>
	<path class="st9" d="M110.5,75.8c0,0-1.3-3.3,1.6,0s7.4,22.8,7.4,22.8s-6.4,5.9-8.2,4.7C109.5,102.1,110.5,75.8,110.5,75.8z"/>
	<path class="st11" d="M107.8,44.6c3.6,1.5,4.4,6.8,4.2,10.1c-0.3,4.2-3.8,8.4-2.6,12.6c0.8,2.2,1.2,4.4,1.1,6.7
		c-0.2,2.3-1.6,4.6-3.9,5.1c-0.5,0.1-1.1,0.2-1.5,0.4c-0.6,0.5-1.1,1.1-1.4,1.8c-2.1,4.2-5.7,7.4-10.2,8.9
		c-4.4,1.3-9.6,0.3-12.8-3.1c-3.1-3.4-3.6-9.1-0.6-12.7c0.9-1,2-2,2.1-3.3c0-0.6-0.1-1.2-0.3-1.8c-0.3-2.3,0.9-4.6,3-5.7
		c1.7-0.8,3.8-0.8,5.1-2.1c1.4-1.5,1.1-3.9,1-5.9C90.2,45.1,98.3,40.8,107.8,44.6z"/>
	<path class="st5" d="M84.5,134.7c-0.9,8.4,0.6,17,2.1,25.4c0.3,2,0.8,4.1,2.2,5.5c1.2,0.9,2.5,1.5,4,1.8c9.6,2.2,19.6,1.2,28.5-3
		l-2.3-20.9c-0.6-5.6-1.2-11.3-3.2-16.5c-0.4-1-6.2-10.7-4.8-11.5c-2.7,1.7-5.9,1.4-9,2.2c-3.7,0.9-7.3,2.2-10.6,4.1
		c-3.5,1.5-5.9,4.8-6.3,8.5C84.9,131.7,84.6,133.2,84.5,134.7z"/>
	
		<linearGradient id="SVGID_00000103229459416958207810000007472994310730613922_" gradientUnits="userSpaceOnUse" x1="36.7632" y1="1521.524" x2="88.0032" y2="1517.8641" gradientTransform="matrix(1.0253 0 0 1.0253 30.6147 -1415.243)">
		<stop  offset="1.000000e-02" style="stop-color:#000000"/>
		<stop  offset="8.000000e-02" style="stop-color:#000000;stop-opacity:0.69"/>
		<stop  offset="0.21" style="stop-color:#000000;stop-opacity:0.32"/>
		<stop  offset="1" style="stop-color:#000000;stop-opacity:0"/>
	</linearGradient>
	<path style="fill:url(#SVGID_00000103229459416958207810000007472994310730613922_);" d="M84.5,134.7c-0.9,8.4,0.6,17,2.1,25.4
		c0.3,2,0.8,4.1,2.2,5.5c1.2,0.9,2.5,1.5,4,1.8c9.6,2.2,19.6,1.2,28.5-3l-2.3-20.9c-0.6-5.6-1.2-11.3-3.2-16.5
		c-0.4-1-6.2-10.7-4.8-11.5c-2.7,1.7-5.9,1.4-9,2.2c-3.7,0.9-7.3,2.2-10.6,4.1c-3.5,1.5-5.9,4.8-6.3,8.5
		C84.9,131.7,84.6,133.2,84.5,134.7z"/>
	<path class="st10" d="M107.6,66.9c0,0-2.8,3.5-2.8,5.7c0,1.4-0.2,2.9-0.6,4.2c0,0-0.4,2.6-1.9,1.6c-1.4-1-6.5-7.8-6.5-7.8l5.5-7.3
		L107.6,66.9z"/>
	<path class="st9" d="M116.2,129.2c0,0-1.1-12.6-3.2-17.6c-0.6-1.8-0.7-3.8-0.4-5.6c0.4-4.4,1.8-8.7,2.5-13.1c0.2-2,0.1-4-0.4-5.9
		c-0.8-3.8-1.7-7.6-2.7-11.4c-0.1-0.5-0.3-0.9-0.6-1.3c-0.3-0.3-0.8-0.6-1.2-0.7l-5.5-2.1c0.6,1.8,1.1,3.7,0.3,5.4
		c-0.2,0.5-0.6,0.9-1,1.1c-1,0.4-2.1-0.3-2.9-1c-1.2-1.2-2.2-2.7-2.8-4.3c-0.3-0.8-0.5-1.7-0.6-2.6c-0.1-0.6,0.1-1.6-0.4-2
		c-0.8,1.4-2.4,2.1-3.6,3c-1.2,1-2.8,2.1-4.3,3.1c-1.2,0.7-2.2,1.7-2.9,2.9c-0.3,1-0.3,2.2,0,3.2c0.3,1.2,0.7,2.3,0.9,3.5
		c0.2,1.5,0.3,3,0.4,4.5c0.2,2.2,0.6,4.5,1.2,6.7c0.2,1.3,0.3,2.7,0.4,4c0,0,2.1,7.6,1.6,9.5c-0.4,1.9-4.2,9.1-4.5,12.2
		s1.2,9.8,1.2,9.8s3.5,0.2,7.5,0.4c4.6,0.2,13-1.8,13.7-2.4c0.8-0.8,1.3-6.7,1.2-10.6c1.9,6.1,3.3,11.2,3.3,11.2H116.2z"/>
	<path class="st13" d="M88.9,136.8c0.8,0.2,1,0.9,1.6,1.8c0.8,1.2,1.5,2.4,2.1,3.7c0.2,0.2,0.2,0.5,0,0.7c-0.1,0.1-0.2,0.1-0.3,0.1
		c-0.7,0.2-1.4,0.3-2.1,0.2c-0.3,1.6,0,3.3,0.7,4.8c0.2,0.4,0.4,0.8,0.1,1.1c-0.1,0.1-0.3,0.2-0.5,0.2c-1.5,0.1-2.9-0.3-4.2-1
		c-0.7-0.3-1.4-0.8-2-1.3c-0.8-0.9-1.3-2-1.7-3.2c0-0.7,0.1-1.5,0.2-2.2c0-0.3,0.3-4.8,0.5-4.8l4.8-0.2
		C88.4,136.7,88.6,136.8,88.9,136.8z"/>
	<polygon class="st6" points="88.9,135.1 89.3,137 82.7,138.2 82.7,135.9 	"/>
	<path class="st9" d="M88.9,109.9c0,0,5.3-12.7,4.5-17.1c-0.7-4.5-3.7-14.9-6-14.8c-2.2,0.1-2.9,3.1-2.9,5.8s-4.5,27.7-4.8,30
		c-0.3,2.3,2.5,23.6,2.5,23.6l7.5-1.7L88.9,109.9z"/>
	<path class="st13" d="M109,48.2c0.1,0.1,0.2,0.2,0.3,0.3c0.5,0.9,0.9,1.9,1,3c1.4,5.1,3.4,10,0.6,15.1c-0.2,0.4-0.5,0.8-0.9,1.1
		c-0.4,0.3-0.8,0.4-1.2,0.5c-2.1,0.4-4.2,0.1-6.1-1c-1.1-0.5-2.1-1.1-3.1-1.7c-0.4-0.3-0.8-0.7-1-1.2c-0.2-0.5-0.6-1-0.4-1.5
		c0.1-0.4,0.3-0.7,0.4-1.1c0.1-0.6,0-1.3-0.3-1.8c-0.1-0.2-0.2-0.5-0.1-0.8c0.2-0.4,0.8-0.4,1.3-0.5c0.8-0.3,1.4-0.9,1.7-1.7
		c0.5-0.9,0.8-1.9,1-2.9c0.1-0.9,0.4-1.7,0.7-2.5c0.7-1.1,1.7-2,2.9-2.5C106.6,48.4,108.1,47.6,109,48.2z"/>
	<path class="st14" d="M111.3,55.6l0.5-0.4c0,0,0.1,0.3,0.3,0.3c0.1,0,0.3-0.1,0.4-0.2c0,0-0.3,0.4-0.4,0.4
		C111.8,55.7,111.6,55.7,111.3,55.6L111.3,55.6z"/>
	<path class="st14" d="M111.7,55.2l0.2-0.3c0,0,0.2,0.1,0.3,0.1c0.1-0.1,0.2-0.1,0.2-0.2c0,0-0.1,0.3-0.2,0.3
		C112.1,55.2,111.9,55.2,111.7,55.2L111.7,55.2z"/>
	<polygon class="st5" points="134.2,88.4 115,88.4 98.6,109.2 116.7,108.5 	"/>
	<path class="st10" d="M122.8,105.4c0-0.2,0.1-0.4,0.1-0.6c0.2-1.3,0.2-2.6-0.1-3.9c-0.3-1.3-1.1-2.4-2.2-3.1
		c-0.1-0.1-0.2-0.1-0.3-0.1c-0.3,0-0.6,0.2-0.6,0.5c0,0.3,0.1,0.6,0.2,0.9c0.3,0.8,0.6,1.7,0.7,2.6l-1-1.1c-0.3-0.4-0.6-0.6-1-0.8
		c-0.4-0.2-0.9,0-1.1,0.5c0,0.3,0,0.5,0.1,0.7l0.9,2.6c-0.4-0.8-1.1-1.5-1.9-2c-0.3,0.5-0.3,1.1,0,1.6c0.3,0.5,0.6,1,0.8,1.5
		c-0.2-0.3-0.4-0.5-0.6-0.8c-0.2-0.3-0.6-0.4-0.9-0.2s-0.2,0.5-0.1,0.8c0.6,2,0.9,4,0.7,6.1l1.1-0.3c0.9-0.3,1.8-0.7,2.6-1.3
		C121.7,108.3,122.6,107,122.8,105.4z"/>
	<path class="st15" d="M242.5,103.7c0.3-0.3,0.9-0.5,1.2-0.2c0.2,0.2,0.3,0.6,0.3,0.9v1.8c3.1-1,5.5-3.5,7.8-5.8
		c0.5-0.5,1.2-1,1.8-0.7c0.4,0.3,0.6,0.9,0.5,1.4c-0.2,0.5-0.3,1-0.4,1.5c0,0.8,0.6,1.6,0.7,2.4c0.1,1-0.6,1.9-0.7,3v1
		c-0.2,0.6-0.5,1.2-0.9,1.7c-1,1.6-2.4,2.9-4,3.8c-1.1,0.5-2.3,0.8-3.5,0.9l-3.7,0.6c-0.4,0.1-0.7,0.1-1.1,0
		c-1.1-0.4-1.5-2.2-1.4-3.2c0.2-0.9,0.5-1.8,1-2.6C240.9,108.2,240.6,105.3,242.5,103.7z"/>
	<path class="st15" d="M132.4,92.4c-0.2-0.4-0.7-0.8-1.1-0.6c-0.3,0.2-0.5,0.4-0.5,0.8l-0.6,1.7c-2.7-1.8-4.2-4.9-5.7-7.8
		c-0.3-0.6-0.8-1.3-1.5-1.2c-0.5,0.2-0.8,0.7-0.8,1.2c0,0.5,0,1-0.1,1.6c-0.2,0.8-1,1.3-1.4,2.1c-0.4,0.9,0,2.1-0.2,3.1
		c-0.1,0.3-0.2,0.6-0.3,1c0,0.6,0.1,1.3,0.4,1.9c0.5,1.8,1.4,3.5,2.7,4.8c0.9,0.8,1.9,1.4,3,1.9l3.4,1.7c0.3,0.2,0.7,0.3,1,0.3
		c1.2,0,2.1-1.7,2.3-2.6c0.1-0.9,0.1-1.9-0.2-2.8C132.6,97.2,133.7,94.5,132.4,92.4z"/>
	<path class="st16" d="M164.4,259.2c0,0.1,0,0.2,0.1,0.2c0.5,1.2,1.9,1.6,3.2,1.7c1.2,0.1,2.4,0.2,3.6,0.2c0.6,0,1.1-0.1,1.7-0.2
		c0.5-0.2,1-0.5,1.4-0.9l3.4-2.5c1-0.7,1.8-1.4,2.6-2.3c0.8-0.9,1.2-2,1.1-3.2c-0.1-1.2-0.9-2.2-2.1-2.5c-0.7-0.1-1.4-0.1-2.2,0.1
		c-1.5,0.1-3.5-0.5-4.1-2.1c-0.2-0.6-0.5-1.2-1-1.7c-0.5-0.2-1.1-0.3-1.6-0.2c-1.2,0-2.4,0.3-3.5,0.7c-1.1,0.4-2,1.3-2.4,2.5
		c-0.1,0.5-0.2,1.1-0.2,1.6c0.1,1.1,0.1,2.2,0,3.3c-0.2,1.4-0.2,2.8-0.2,4.2C164.3,258.5,164.3,258.9,164.4,259.2z"/>
	<path class="st16" d="M197.7,259.7c-2.3,1.1-4.7,2-7.1,2.7c-1,0.4-2.1,0.5-3.1,0.2c-0.8-0.4-1.4-1.2-1.6-2.1
		c-0.2-0.9-0.3-1.8-0.3-2.7c0-1.5,0.6-2.6,0.9-4c0.2-1.2,0.4-2.5,0.6-3.7c0.2-1.8,0.5-3.5,0.7-5.3l6.2,1.3c0.6,0.1,1.3,2.6,1.6,3.1
		c0.6,0.8,1.5,1.3,2.5,1.3c1,0.1,2.1-0.4,3.2-0.3c1.4,0.3,2.4,1.6,2.4,3c0,1.4-0.6,2.8-1.7,3.7c-1,0.9-2.2,1.7-3.5,2.2L197.7,259.7z
		"/>
	<path class="st5" d="M197.7,252.8c-1.6,0.9-3.3,1.7-5,2.4l-0.2,0.1c-2.9,1.1-6-3.4-6-3.4s-4-24.9-3.8-35.2
		c0.1-7.1-1.5-17.2-4.1-35.5c-0.6,18.7-3.8,26.9-3,33.6c1.2,10.2-0.2,35.5-0.2,35.5s-2.7,4.9-5.7,4.3h-0.2c-1.8-0.4-3.5-0.9-5.2-1.6
		c0,0-3.4-34.9-3.4-44.1c0-9.2,0.4-17.4,0.4-17.4l-1.8-29.1l7.7-11.1l0.6-0.3l0.6-0.6l8.5-6.2c0,0,0,1.5-0.2,3.9l6.6,3.5l0.6,0.5
		l0.6,0.2l11.1,1.9c0,0,2.9,44.7,3.8,53.8C200.4,217.2,197.7,252.8,197.7,252.8z"/>
	
		<linearGradient id="SVGID_00000056409220482052997660000010118074960879586446_" gradientUnits="userSpaceOnUse" x1="104.9926" y1="1522.037" x2="200.7226" y2="1656.067" gradientTransform="matrix(1.0253 0 0 1.0253 30.6147 -1415.243)">
		<stop  offset="1.000000e-02" style="stop-color:#000000"/>
		<stop  offset="8.000000e-02" style="stop-color:#000000;stop-opacity:0.69"/>
		<stop  offset="0.21" style="stop-color:#000000;stop-opacity:0.32"/>
		<stop  offset="1" style="stop-color:#000000;stop-opacity:0"/>
	</linearGradient>
	<path style="fill:url(#SVGID_00000056409220482052997660000010118074960879586446_);" d="M197.7,252.8c-1.6,0.9-3.3,1.7-5,2.4
		l-0.2,0.1c-2.9,1.1-6-3.4-6-3.4s-4-24.9-3.8-35.2c0.1-7.1-1.5-17.2-4.1-35.5c-0.6,18.7-3.8,26.9-3,33.6c1.2,10.2-0.2,35.5-0.2,35.5
		s-2.7,4.9-5.7,4.3h-0.2c-1.8-0.4-3.5-0.9-5.2-1.6c0,0-3.4-34.9-3.4-44.1c0-9.2,0.4-17.4,0.4-17.4l-1.8-29.1l7.7-11.1l0.6-0.3
		l0.6-0.6l8.5-6.2c0,0,0,1.5-0.2,3.9l6.6,3.5l0.6,0.5l0.6,0.2l11.1,1.9c0,0,2.9,44.7,3.8,53.8C200.4,217.2,197.7,252.8,197.7,252.8z
		"/>
	<path class="st15" d="M188.5,76.5c0.7,0.7,1.7,1.4,1.5,2.3c-0.2,0.5-0.7,0.8-1,1.1c-1,1-1.6,2.4-1.5,3.8c0,1.4-0.2,2.8-0.6,4.1
		c-0.5,1.4-1.9,2.2-3.3,2c-0.8-0.2-1.6-0.9-2.4-0.6c-0.6,0.3-0.8,1-1.1,1.5c-0.9,1.3-2.5,2.1-4.1,1.8c-1.6-0.2-3.1-0.7-4.5-1.5
		c-0.6-0.2-1.1-0.6-1.5-1.1c-0.2-0.5-0.3-1.1-0.2-1.6c0.3-1.6,1.4-3,2.3-4.4c1.7-2.6,2.7-5.6,3-8.7c0.2-2.2,0-4.5,1.4-6.2
		c1.9-2.3,6.4-2.2,8.7-0.6C187.9,70.3,186.4,74.2,188.5,76.5z"/>
	<path class="st9" d="M185.8,66.7c-0.3,0.5-0.7,1-1.2,1.3c-1,0.6-1.9,1.3-2.9,2c-0.9,0.6-1.6,1.6-1.8,2.7c-0.4,2.1,0.7,4.2,0,6.2
		c-0.2,0.4-0.9,0.2-1.2-0.2c-0.3-0.4-0.4-0.9-0.8-1.1c-0.7-0.4-1.5,0.3-1.8,1c-0.6,1.8,0.2,3.7,2,4.4c-0.1,0.6-0.9,0.9-1.5,0.8
		c-0.6-0.2-1.3-0.3-1.9-0.2c-1.5,0.3-2.1,2.4-3.5,2.6c-1-0.1-2-0.6-2.5-1.5l-1.8-2.1c-0.3-0.4-0.6-0.7-0.9-1c-0.4-0.3-1-0.3-1.4-0.7
		s0-1.3-0.4-1.7c-0.2-0.2-0.4-0.3-0.6-0.4c-1.1-0.5-1.6-1.7-1.3-2.9c0-0.1,0-0.3,0-0.4c-0.1-0.2-0.3-0.3-0.5-0.4
		c-1.1-0.7-1.6-2.1-1-3.4c0.3-0.7,0.7-1.3,1.2-1.8c0.4-0.6,1.1-0.9,1.8-0.8l0.3-2.6c0-0.5,0.1-1,0.4-1.5c0.6-1,1.9-1.3,3.1-1.4
		l-0.5-2.1c-0.1-0.3-0.1-0.6,0-0.8c0.2-0.2,0.4-0.3,0.6-0.4c0.7-0.2,1.4-0.3,2.1-0.3c-0.3-0.6-0.5-1.2-0.6-1.8c0-0.1,0-0.2,0-0.4
		c0.1-0.2,0.4-0.4,0.6-0.3c0.3,0.1,0.5,0.1,0.8,0c0,0-0.4-1.8-0.4-1.9c-0.1-0.6,0-1.2,0.3-1.6c0.4-0.5,1.1-0.7,1.7-0.6
		c0.6,0.1,1.3,0.3,1.8,0.7c-0.1-0.7,0.8-1,1.5-1.1c2.7-0.2,5.2,1.1,6.8,3.3c0.1,0.2,0.3,0.4,0.4,0.5c0.3,0.2,0.7,0.4,1,0.5
		c1.1,0.5,2,1.5,2.3,2.7c0.3,1.2,0.4,2.4,0.4,3.6c0,0.9-0.1,1.8-0.3,2.7C186,66.1,185.9,66.4,185.8,66.7z"/>
	<path class="st6" d="M176,88.9c1.6,0.7,3.2,1.5,4.7,2.4c0.5,0.2,0.9,0.6,1.2,1c0.3,0.5,0.4,1.1,0.2,1.6c-0.4,0.7-1.4,0.5-2.1,0.2
		c-3.5-1.4-7.2-1.5-10.7-1.5c-0.5,0.1-1-0.1-1.3-0.5c-0.2-0.5-0.1-1,0.1-1.5C170,86.9,173,87.5,176,88.9z"/>
	<path class="st6" d="M243,117.7c-0.7,1.8-1.8,3.4-3.1,4.7c-1.3,1.4-2.6,2.8-3.9,4.1c-3.2,3.1-6.6,6-10.2,8.8
		c-2.5,2-5.2,3.9-8.4,4.5c-1.3,0.3-2.6,0.2-3.8-0.2c-1-0.5-1.9-1.2-2.6-2.1c-0.9-0.9-11.4-12.9-11.5-12.9c-0.6,0.3-1,0.8-1.3,1.5
		c-1.5,3.1-2.5,6.5-2.8,10c-0.1,1.5-0.1,3.1,0,4.7c0.4,5.3,2.3,10.7,0.4,15.6c-0.4,1.1-1,2-1.8,2.8c-0.8,0.7-1.7,1.2-2.6,1.5
		c-1.7,0.7-3.4,1.2-5.2,1.5c-1,0.2-2,0.3-3.1,0.3c-3.8,0.1-7.6-0.6-11.5-0.4c-3.3,0.2-6.5,1-9.7,0.9c-1.2,0.1-2.4-0.4-3.3-1.2
		c-0.4-0.6-0.6-1.2-0.7-1.9c-1.3-7-1.9-14-2-21.1c0-3.3-0.5-15.2-1.6-17.4c-0.1-0.3-0.3-0.4-0.4-0.4c-3.6,1-11.5,3.1-15.2,3.7
		c-0.5,0.1-1.1,0.2-1.6,0.1c-0.6-0.1-1.1-0.4-1.5-0.8c-4.6-3.4-7.2-8.4-8.8-13.7c-0.3-1-0.6-2.1-0.9-3.1c-0.6-1.1-0.1-2.5,1-3.1
		c0,0,0,0,0,0c0.1,0,0.1-0.1,0.2-0.1l6.9-4.4l5.1,6.5c1,1.3,2.2,2.6,3.8,2.8c2.2,0.2,3.9-1.8,5.3-3.5c4.5-5.6,10.2-10.1,16.7-13
		c1-0.5,2-0.8,3-1l0.3-0.1c0.1,0,0.3-0.1,0.5-0.1c1.3-0.1,2.7,0,4,0.2c8.7,1.5,17.4,3.5,25.9,5.9c2.1,0.3,3.9,1.6,4.8,3.4
		c2.4,3.6,4.7,7.2,7.1,10.8c2.1,3.1,4.1,7,7.2,9.2c6.7-2.7,12.9-6.2,18.7-10.5c0.8-0.6,1.8-1.3,2.8-0.9c0.3,0.1,0.6,0.3,0.8,0.6
		C242.2,112.3,244.2,114.4,243,117.7z"/>
	<path class="st6" d="M292.8,93.6c-0.9,0.8-2,1.3-3.2,1.5c-1.1,0-2.2-0.1-3.1-0.6l-15.3-5.1c-2.4,1.9-2.9,5.2-1.3,7.8
		c1.3,1.8,3.5,2.6,5.6,3.4l10.5,3.8c2.1,0.8,4.2,1.4,6.4,1.7c3.1,0.2,6.1-0.8,9-1.8c3.1-1,6.6-2.3,8-5.3c1.5-2.9,0.4-6.8,0.9-10.3
		c0.3-2.2,1.3-4.4,1.2-6.6c-0.1-1.9-1.6-4.8-3.9-4.4c-2,0.3-3.3,3.8-4.3,5.2C300.4,87,296.8,90.7,292.8,93.6z"/>
	<path class="st4" d="M269.3,88.7c-0.2-0.4-0.4-0.8-0.7-1.1c-0.3-0.3-0.8-0.4-1.2-0.3c-0.4,0.3-0.6,0.7-0.6,1.2c0,0.2,0,0.3-0.1,0.5
		c-0.1,0.1-0.3,0.1-0.5,0.1c-1.7-0.3-3.5-0.6-5.2-0.8c-0.1,0-0.3,0-0.4,0c-0.6,0.2-0.9,0.8-0.7,1.5c0.2,0.6,0.5,1.1,0.9,1.6
		c0.9,1.5,1.2,3.4,2.7,4.4c0.9,0.5,1.9,0.7,2.9,0.6c1-0.1,2-0.2,3-0.2c0.7,0.1,1.4,0.1,2-0.2c0.5-0.4,0.7-0.9,0.7-1.5
		c-0.1-0.9-0.4-1.8-1-2.5C270.3,90.8,269.8,89.7,269.3,88.7z"/>
	<path class="st4" d="M311.9,203.5c-5.8-1.3-4.7,7-6.2,10c-1,1.6-2.2,2.9-3.6,4.1c-1.3,1.3-2.6,2.9-2.6,4.7c0,0.4,0,0.7,0.2,1
		c0.3,0.4,0.7,0.6,1.2,0.7c3.3,1,6.9,0.6,10-1c1.4-0.7,2.6-1.8,3.4-3.2c0.6-1.5,0.9-3.1,0.9-4.7
		C315.2,211.8,316.7,204.6,311.9,203.5z"/>
	<path class="st5" d="M306.7,220.6c0,0-16.6,0.7-9.6,5.9c7,5.2,17.6-1.3,18.6-2.5c1-1.2,0.2-3.2,0.2-3.2L306.7,220.6z"/>
	<path class="st6" d="M315,222.9c-1.5,1.8-9.3,4.2-12.8,4c-3.5-0.2-6.6-1.9-6.2-4.1c0.3-2.2,6.4-7.4,7.6-7.4c1.1,0,2.1,2.7,4.4,3.2
		c2.1,0.3,4.2-0.4,5.6-2.1c0.4-0.6,1.2-0.8,1.9-0.5C316.3,217.2,316.4,221.1,315,222.9z"/>
	<path class="st4" d="M331.9,206.8c-5.8-1.4-4.7,6.9-6.2,10c-1,1.6-2.2,3-3.6,4.2c-1.3,1.3-2.6,2.9-2.6,4.7c0,0.4,0,0.7,0.2,1
		c0.3,0.4,0.7,0.6,1.2,0.7c3.3,1,6.9,0.6,10-1c1.4-0.7,2.6-1.8,3.4-3.2c0.6-1.5,0.9-3.1,0.9-4.7C335.2,215,336.8,207.8,331.9,206.8z
		"/>
	<path class="st5" d="M326.7,223.8c0,0-16.6,0.7-9.6,5.9c7,5.2,17.6-1.3,18.6-2.5c1-1.2,0.2-3.2,0.2-3.2L326.7,223.8z"/>
	<path class="st6" d="M335,226c-1.5,1.8-9.3,4.2-12.8,4c-3.5-0.2-6.6-1.9-6.2-4.1s6.4-7.4,7.6-7.4c1.1,0,2.1,2.7,4.4,3.2
		c2.1,0.3,4.2-0.4,5.6-2.1c0.4-0.6,1.2-0.8,1.9-0.5C336.3,220.4,336.5,224.2,335,226z"/>
	<path class="st7" d="M316.8,131.4l7.8,82.2l11.3-1.4c4.4-20.1,3.4-80.1,3.4-80.1L316.8,131.4z"/>
	<path class="st7" d="M324.6,129.2l-7.8,82.2l-11.3-1.4c-6.4-52-1.1-84.4-1.1-84.4L324.6,129.2z"/>
	<path class="st6" d="M305.4,99.4c-0.1-1.5-0.5-3-0.7-4.5c-0.4-3.1-0.3-6.2,0.2-9.3c0.5-3.3,1.5-6.5,2.9-9.5c1.3-2.6,3.6-3.7,6.3-5
		c2.2-1.2,4.6-2,7.1-2.4c1.8-0.2,3.5-0.1,5.2,0.3c5.3,1,12.3,3.8,15.9,7.9c2.7,3.1,3.1,7.6,3.1,11.8c0.1,5.7,0,11.5-0.4,17.2
		c0,0.8-0.1,1.7-0.2,2.5c-0.5,6.3-1,12.8-2.8,18.9c-0.6,1.9-1.2,3.8-2.9,4.8c-4.1,2.4-10.5,1.1-15,0.5c-6-0.9-12.1-1.7-17.3-4.6
		c-1.1-0.5-2-1.3-2.5-2.4c-0.5-1.3,0.1-2.7,0.5-4c1.8-5.9,0.4-12,0.4-18c0-1.1,0.1-2.2,0.1-3.3C305.4,100,305.4,99.7,305.4,99.4z"/>
	<path class="st8" d="M322.1,127c0-0.6,0.1-1.3,0.4-1.8c0.7-0.8,2-0.7,3-0.4l6.7,1.7c2.5,0.6,6.4,3.1,7.1,5.6
		c2.6-1.8,3.2-4.8,3.7-7.9c0.5-3.1,0.5-9.2,1-12.3c-3.3,2.4-7.2,3.7-11.2,3.8c-3.8,0.1-8.6,0-10-4.1c-1.6-4.8-2.1-9.8-3.2-14.8
		c0-0.4-0.3-0.8-0.7-0.8c-0.1,0-0.1,0-0.2,0l-14.5,0.2c-0.2,0-0.5,0-0.7,0.1c-0.4,0.3-0.4,0.9-0.3,1.3c0.5,3.3,2.2,6.3,4.6,8.5
		c1.2,1,1.9,1.7,2.2,3.2c0.3,1.8,0.2,3.7,0.4,5.6c0.3,3.9,1.2,7.7,2.5,11.3C315.1,131.4,321.7,135.4,322.1,127z"/>
	<polygon class="st5" points="318.1,131.2 296.6,131.2 293.9,97.7 315.4,97.7 	"/>
	<path class="st4" d="M316.9,60.4c0-1.6,0.1-3.2,0.3-4.7c0.1-1.4,0.4-2.7,0.6-4.1c0-0.8,0.4-1.5,1-2.1c2.1-1.3,4.6-2,7-1.9
		c3.1-0.5,6,1.6,6.5,4.7c0,0.3,0.1,0.6,0.1,0.9c0.4,3.5-0.5,6.9-1,10.3c-0.4,2.7-0.5,5.4-0.4,8c-1.3,0.9-2.8,1.4-4.3,1.5
		c-0.7,0-1.4-0.1-2.1-0.4c-0.4-0.1-0.7-0.3-1-0.6c-0.1-0.3-0.1-0.6-0.1-0.9c0-0.3,0.1-0.6,0.1-0.8l0,0c0.1-1.6,0.1-3.2-0.1-4.7
		c0-0.1,0-0.3-0.1-0.4c-0.1,0-0.2,0-0.3,0h-0.4c-0.8,0.1-1.6,0.1-2.3,0c-0.9-0.1-1.8-0.5-2.5-1.2C317,63,316.7,61.7,316.9,60.4z"/>
	<path class="st18" d="M320,50.2c-0.5,0.2-1.2,0.2-1.7,0c-0.6-0.3-1-0.8-1.4-1.3c-1.3-2-0.8-4.7,1.2-6.1c1.5-1,3.3-1.5,5.1-1.1
		c0.5-0.3,1-0.5,1.5-0.6c2.1-0.6,4.4-0.8,6.5-0.4c1.2,0.4,2.4,0.9,3.4,1.7c1,0.7,1.8,1.5,2.5,2.5c0.6,1.3,1,2.7,1.2,4.1
		c0.3,1.5,0.5,3.1,0.5,4.6c0,0.7-0.1,1.4-0.4,2c-0.3,0.7-0.8,1.3-1.3,1.9c-0.8,0.8-1.7,1.5-2.7,2.1c-0.7,0.4-1.5,0.8-1.7,1.6
		c-0.1,0.4-0.1,0.7-0.1,1.1c0,0.5-0.3,1-0.6,1.4c-0.2,0.3-0.7,0.9-1,1c-0.4,0.1-0.7-0.3-0.8-0.7c-0.4-1.6-0.3-3.2,0.3-4.7
		c0.5-0.7,0.7-1.5,0.8-2.4c-0.1-0.8-1.2-1.5-1.8-1s-0.6,1.7-1.3,1.5c0.8-2.4-0.2-5.4-2.5-6.4c-1.2-0.4-2.5-0.6-3.8-0.5
		C321.3,50.4,320.7,50.3,320,50.2L320,50.2z"/>
	<path class="st19" d="M322.5,65.2c1.8-0.3,3.6-0.9,5.3-1.6c0.2,5.5-4.4,6.7-4.4,6.7l0,0c0.1-1.6,0.1-3.2-0.1-4.7
		c0-0.1,0-0.3-0.1-0.4c-0.1,0-0.2,0-0.3,0L322.5,65.2L322.5,65.2z"/>
	<path class="st6" d="M349.2,96.6l2.6,11.2c0.3,0.9,0.4,1.9,0.3,2.9c-0.2,1.8-1.4,3.3-2.6,4.7c-1.5,1.9-3.3,3.6-5.4,4.8
		c-1.5,0.6-3,1.1-4.6,1.2c-4.2,0.6-8.4,0.9-12.7,0.7c-0.3,0-0.7-0.1-1-0.2c-0.3-0.2-0.6-0.5-0.7-0.8c-1.5-2.2-2.8-4.6-3.8-7.1
		c3.4-2.3,7.1-4,11-5.2c0.8-0.1,1.5-0.5,2.1-1c0.4-0.5,0.7-1.1,0.8-1.7c1.7-7.2-2.2-15.2,0.9-21.9c1.8-3.8,5.5-7.9,8.2-2.8
		C346.9,86,348,91.5,349.2,96.6z"/>
	<path class="st4" d="M318.4,114.1c-0.5-0.3-1-0.7-1.5-0.9c-0.5-0.3-1.2-0.2-1.7,0.1c-0.2,0.2-0.4,0.4-0.7,0.5c-0.2,0-0.4,0-0.6,0
		l-3.4-0.3c-0.5-0.1-1.1,0-1.6,0.3c-0.4,0.5-0.2,1.3,0.1,1.9c0.9,1.8,1.9,3.5,2.9,5.2c0.2,0.3,0.4,0.7,0.7,0.9
		c0.4,0.3,0.8,0.5,1.3,0.6c1.8,0.4,3.6,0.3,5.3-0.2c1.7-0.6,3.3-1.4,4.7-2.6c0.2-0.1,0.4-0.3,0.5-0.5c0.1-0.3,0.2-0.5,0.2-0.8
		c0.2-1.3-0.3-3.5-2-3.4C321.4,115.2,319.7,114.9,318.4,114.1z"/>
	<path class="st16" d="M102.3,207.5c0.1-0.1,0.2-0.2,0.3-0.3c0.3-0.1,0.6,0.2,0.7,0.4c1.8,2.1,4.4,3.1,7,4c0.2,0.1,0.3,0.1,0.5,0
		c0.1-0.1,0.1-0.2,0.2-0.3c0.2-0.3,0.5-0.4,0.8-0.2c0.3,0.1,0.5,0.3,0.7,0.6c1,0.9,2.5,1.3,3.6,2.2c0.3,0.2,0.5,0.5,0.6,0.8
		c0.1,0.4,0,0.8-0.3,1c-0.3,0.3-0.6,0.5-1,0.5c-0.7,0.1-1.4,0.2-2.1,0.1c-3.5-0.3-7.1-0.6-10.6-1.1c-0.3,0-0.5-0.1-0.8-0.2
		c-0.6-0.4-0.8-1.1-0.7-1.8c0-0.9,0.1-1.8,0.3-2.7C101.5,209.3,101.8,208.3,102.3,207.5z"/>
	<path class="st16" d="M92.3,213.8c0.4,0.2,0.9,0.4,1.3,0.5c0.8,0.2,1.6,0.2,2.5,0.1c0.8-0.2,1.5-0.8,1.7-1.6c0-0.2,0.2-0.6,0.4-0.5
		c0,0,0.1,0.1,0.1,0.1c0.6,1.1,0.9,2.3,0.9,3.5c0.1,0.7,0.1,1.3-0.2,2c-0.4,0.7-1,1.2-1.8,1.3c-0.8,0.1-1.5,0.1-2.3,0
		c-0.7-0.1-1.3-0.2-1.9-0.4c-0.3,0-0.6-0.2-0.8-0.3c-0.2-0.2-0.3-0.4-0.4-0.7c-0.5-1.2-0.7-2.6-0.6-3.9c0-0.3,0.1-0.6,0.1-0.8
		c0-0.1,0.1-0.7,0.3-0.6c0.2,0.1,0.1,0.1,0.1,0.3c0,0.1,0,0.3,0.1,0.4C91.9,213.5,92.1,213.7,92.3,213.8z"/>
	<path class="st9" d="M205.3,38.4c-0.2-0.8,0-1.6,0.4-2.2c0.3-0.4,0.8-0.7,1.3-0.8c0.5-0.2,1-0.3,1.6-0.4c0.3,0,0.5-0.1,0.8-0.2
		c0.2-0.2,0.4-0.4,0.5-0.6c0.8-0.9,2-1.3,3.2-1.2c1.2,0,2.3,0.3,3.5,0.4c1.2,0.1,2.6-0.2,3.7,0.5c0.8,0.6,1.4,1.5,1.6,2.5
		c0.4-0.1,0.8,0,1.2,0.3c0.6,0.6,0,1.8,0.6,2.5c0.3,0.3,0.7,0.5,1,0.8c0.2,0.3,0.2,0.7,0.2,1.1c0,0.4-0.1,0.8-0.2,1.2
		c-0.3,1.1-1,2.1-1.4,3.2c-0.2,0.6-0.2,1.2-0.4,1.8c-0.4,1.3-1,2.5-1.9,3.6c0.6-2.7,0.7-5.5,0.2-8.2c0-0.3-0.1-0.5-0.4-0.6
		c-0.2,0-0.3,0-0.5,0.1c-2.7,1.1-5.7,1.2-8.6,0.3c-0.8-0.4-1.7-0.5-2.5-0.4c-0.3,0.1-0.7,0.2-1,0.4c-0.4,0.1-0.7,0.1-1.1,0
		c-0.1,0.2-0.1,0.3-0.1,0.5c-0.7-0.2-0.6-1.1-0.8-1.7C205.7,40.3,205.5,39.4,205.3,38.4z"/>
	<path class="st4" d="M223,48.1c0.1,0.1,0.1,0.2,0.1,0.3c0.1,0.7,0,1.4-0.4,2.1c-0.4,0.6-0.9,1.1-1.5,1.4c-0.3,0.2-0.7,0.2-1.1,0.1
		c-0.4-0.2-0.6-0.6-0.6-1.1c-0.2-0.9,0-1.8,0.6-2.5c0.5-0.5,1.1-0.7,1.8-0.7C222.3,47.7,222.7,47.8,223,48.1z"/>
	<path class="st4" d="M212.8,57.9c0.1,0.4-0.3,0.8-0.3,1.2c0,0.4,0,0.9,0,1.4c0,0.6-0.2,1.1-0.6,1.6c-0.4,0.4-0.9,0.7-1.5,0.8
		c-1.2,0.4-2.4,0.7-3.6,0.7c-0.5,0-1-0.1-1.5-0.2c-0.8-0.1-2.9-0.1-3.1-1.2c0-0.6,0.2-1.2,0.5-1.7c0.1-0.3,0.2-0.6,0.3-0.9
		c0.1-0.3,0.2-0.7,0.3-1.1c0.4-1.8,0.7-3.7,2.1-4.9c0.3-0.3,0.9-0.5,1.3-0.2c0.3,0.3,0.2,0.9,0.6,0.9c0.1,0,0.3,0,0.4-0.1
		c1.4-0.6,2.9-0.9,4.4-0.8c0.6,0,1.1,0.4,1.4,0.9c0.4,1-0.9,2.1-0.6,3.1C212.8,57.5,212.8,57.7,212.8,57.9z"/>
	<path class="st6" d="M209.8,97.3c-0.3-0.3-0.6-0.5-0.9-0.7c0.2,3.8,0.8,7.8,3.2,10.8c0.6,0.7,1.2,1.4,1.7,2.2c1,1.7,1.1,4,2.4,5.5
		c1.2,1.1,2.6,1.8,4.2,2.1c1.4,0.5,2.9,0.4,4.2-0.2c1.1-0.8,1.8-1.9,2.2-3.2c0.9-2.1,2.5-5.2,1.2-7.5c-1-1.6-4-2.9-5.8-2.9
		c-2.5-0.6-5-1.5-7.4-2.6c-1.2-0.4-2.3-1-3.3-1.8C210.9,98.5,210.4,97.8,209.8,97.3z"/>
	<path class="st8" d="M155.4,113c-0.7,2.3-1,4.7-0.9,7.2c0,0.4,0,0.7-0.1,1.1c-0.1-0.3-0.3-0.4-0.4-0.4c-3.6,1-11.5,3.1-15.2,3.7
		c-0.5,0.1-1.1,0.2-1.6,0.1c-0.6-0.1-1.1-0.4-1.5-0.8c-4.6-3.4-7.2-8.4-8.8-13.7c0.1-0.9,0.3-1.8,0.6-2.7c2.2,1.2,3.3,3.6,4.7,5.7
		c1.3,2,2.9,3.8,4.8,5.4c0.4,0.3,0.8,0.6,1.3,0.8c0.6,0.1,1.2,0.1,1.7-0.1C145.5,118.2,151.4,117,155.4,113z"/>
	<path class="st8" d="M236,126.6c-3.2,3.1-6.6,6-10.2,8.8c-2.5,2-5.2,3.9-8.4,4.5c-1.3,0.3-2.6,0.2-3.8-0.2c-1-0.5-1.9-1.2-2.6-2.1
		c-0.9-0.9-11.4-12.9-11.5-12.9c-0.6,0.3-1,0.8-1.3,1.5c-1.5,3.1-2.5,6.5-2.8,10c-0.1,1.5-0.1,3.1,0,4.7c0.4,5.3,2.3,10.7,0.4,15.6
		c-0.4,1.1-1,2-1.8,2.8c-0.8,0.7-1.7,1.2-2.6,1.5c-2.1,0.8-4.2,1.5-6.3,2.1c-1,0.3-2.1,0.4-3.2,0.2c-0.6-0.1-2.2-1.2-2.6-1.2
		c3.2-0.5,5.8-2.7,6.9-5.8c0.7-2.4,0.4-4.9,0.4-7.4c0.1-2.9,0.4-5.7,1-8.6l2.2-12c0.7-4.1,2.2-9.9,6.5-11.8c0.9-0.4,1.8,0.2,2.5,0.8
		c4.9,3.9,10,7.8,13.5,13c1,1.4,2,3.1,3.6,3.7c1.6,0.7,3.7,0.1,5.5-0.6c2.6-1.1,5.2-2.3,7.6-3.7c1.8-1,4.3-3.4,6.6-3.1
		C235.8,126.5,235.9,126.6,236,126.6z"/>
</g>
</svg>
