<svg xmlns="http://www.w3.org/2000/svg" viewBox="0 0 553.24 304.95"><defs><style>.cls-1{fill:#3b5976;}.cls-2{fill:#a655ab;}.cls-3{fill:#b832c1;}.cls-4{fill:#9c39a2;}.cls-5{fill:#395672;}.cls-12,.cls-6{opacity:0.3;}.cls-7{fill:#6ca3d8;}.cls-8{fill:#394472;}.cls-9{fill:#d16fde;}.cls-10{fill:#5b9ede;}.cls-11{fill:#673972;}.cls-13{fill:#b15bb6;}.cls-14{fill:#3d6084;}</style></defs><g id="Capa_2" data-name="Capa 2"><g id="Capa_1-2" data-name="Capa 1"><polygon class="cls-1" points="165.72 304.31 170.54 268.79 273.56 263.88 280.82 304.41 165.72 304.31"/><path class="cls-2" d="M262.24,157l30.91,34.3c5.1,5.66,8.78,10.81,16.11,12.88,5.14,1.45,16,2.05,18.69-1.32,3.74-4.63,6.07-12.64.82-22.7-3.41-6.55-33.4-33.33-33.4-33.33L262.24,157"/><path class="cls-3" d="M272.42,162.73c.18,1.69,8.26,18.55,8.26,18.55L307.21,164s-17.08-40.58-29.55-43.3Z"/><path class="cls-2" d="M317.85,115.43l.38-12.9-.86-16.42-2.61-13.66s-.69-1.34-2.41-.32-.23,8.46-.23,8.46l.27,5.61s-1,4.32-1.34,4-1.4-7.93-1.4-7.93L306.52,66a2.16,2.16,0,0,0-2.74-1.12c-1.11.35-1.83,2-1.7,4.37s1.19,6.47,1.3,7.84,1,9.27,1,9.27l-5.48-18.17s-1-5.92-3.48-5.06-.82,5.09-.71,6.92,3.68,14.2,3.38,17.65-.85,1.73-.85,1.73-1.42-5.69-2.55-10.18-2.82-7.09-4.77-7.42.67,10.08.67,10.08l3.29,14.53-.82,4.62-3.24-4.16s-.09-5.45-3.5-7.73-4.29.28-4.29.28l6.35,21.12c1.51,3.45,11.24,10.16,11.24,10.16l1.74,21.17,21.63-.43Z"/><path class="cls-4" d="M310.26,107.81a24.87,24.87,0,0,1-2.88-2.43c-1.73-1.43-4.47-3.42-7.92-3.27a6.43,6.43,0,0,0-3.91,1.42l-.36.32-.31-.42c-1.39-1.83-2.88-3.42-3.76-4.57s-1.39-1.92-1.29-2a12.06,12.06,0,0,1,1.7,1.62,59.16,59.16,0,0,1,4.11,4.46l-.68-.1a7.07,7.07,0,0,1,4.46-1.7,9.69,9.69,0,0,1,5.05,1.21,15.53,15.53,0,0,1,3.36,2.51C309.51,106.54,310.35,107.73,310.26,107.81Z"/><polygon class="cls-2" points="304.66 189.13 300.07 123.26 318.39 117.52 331.68 189.13 304.66 189.13"/><path class="cls-1" d="M265,38.63a7.68,7.68,0,0,0,8.4-5.31A7.69,7.69,0,0,0,269,24.43a7.91,7.91,0,0,0,1.84-8.83,7.92,7.92,0,0,0-7.8-4.53,9.42,9.42,0,0,0-4.36-8,9.42,9.42,0,0,0-9.09-.36,10.36,10.36,0,0,0-12.73-1,7.58,7.58,0,0,0-8.09,3.39,7.57,7.57,0,0,0,.87,8.73"/><path class="cls-2" d="M265.91,79.93c.58-8.13.42-25,.09-40.2A31.44,31.44,0,0,0,236.42,9l-1.62-.09c-17.59,0-27.42,14.91-26.94,32.49l-2.7,67.69,10.61,9.59a20,20,0,0,0,31.12-5.45h0l.82-14.88S264.71,96.76,265.91,79.93Z"/><path class="cls-4" d="M247.86,98.37a41,41,0,0,1-21.69-7.76s4.47,12.42,21.37,11.9Z"/><path class="cls-1" d="M258.56,53.94a2.42,2.42,0,0,1-2.47,2.29,2.31,2.31,0,0,1-2.35-2.32,2.42,2.42,0,0,1,2.46-2.29A2.32,2.32,0,0,1,258.56,53.94Z"/><path class="cls-1" d="M261.89,47.76c-.31.3-2.06-1.16-4.64-1.31s-4.57,1-4.83.71c-.13-.15.21-.7,1.07-1.25a6.49,6.49,0,0,1,3.89-.95,6.25,6.25,0,0,1,3.67,1.43C261.81,47,262.05,47.63,261.89,47.76Z"/><path class="cls-1" d="M234.8,53.94a2.41,2.41,0,0,1-2.46,2.29A2.3,2.3,0,0,1,230,53.91a2.41,2.41,0,0,1,2.46-2.29A2.31,2.31,0,0,1,234.8,53.94Z"/><path class="cls-1" d="M236.43,46.74c-.32.3-2.07-1.16-4.65-1.3s-4.56,1-4.83.7c-.13-.15.21-.7,1.07-1.25a6.66,6.66,0,0,1,3.89-1,6.32,6.32,0,0,1,3.67,1.43C236.34,46,236.58,46.61,236.43,46.74Z"/><path class="cls-1" d="M244.69,66.49c0-.15,1.62-.33,4.24-.51.67,0,1.3-.13,1.44-.57a3.39,3.39,0,0,0-.33-2c-.52-1.63-1.07-3.35-1.65-5.14C246.1,51,244.48,45,244.77,44.86s2.4,5.77,4.69,13.1q.82,2.7,1.57,5.17a3.77,3.77,0,0,1,.19,2.61,1.67,1.67,0,0,1-1.14.9,4.21,4.21,0,0,1-1.13.09C246.32,66.72,244.69,66.64,244.69,66.49Z"/><path class="cls-1" d="M237,67.83c.43,0,.27,2.81,2.55,4.94s5.3,2,5.3,2.4c0,.18-.7.51-2,.47a7,7,0,0,1-4.43-1.84,6.08,6.08,0,0,1-1.95-4.14C236.42,68.48,236.77,67.8,237,67.83Z"/><path class="cls-1" d="M237.69,36.64c-.29.69-2.86.2-5.92.39s-5.56.87-5.93.21c-.16-.31.31-1,1.34-1.57a9.8,9.8,0,0,1,4.46-1.27,9.91,9.91,0,0,1,4.56.81C237.29,35.73,237.82,36.31,237.69,36.64Z"/><path class="cls-1" d="M261.38,40.21c-.49.56-2.23-.15-4.38-.31s-4,.16-4.36-.47c-.17-.31.16-.89,1-1.4a6.37,6.37,0,0,1,7.05.64C261.39,39.32,261.6,39.94,261.38,40.21Z"/><path class="cls-1" d="M264.83,31.91s-3.82-10.8-8.76-13.57c-6-3.34-9,3.26-14.8,1.28s-11.47-5.19-17.74-1c-6.85,4.57-4,8.24-4.83,15.69-3.43,30.2-9.47,38.44-10.2,24.07-.08-1.57-4.35-3.07-4.6-9.71-.33-8.62,0-19,2.23-25,1.91-5,5-8.4,10.51-12,8.63-5.67,20-5.13,27.66-3.9S266.32,18.75,264.83,31.91Z"/><path class="cls-2" d="M209.6,58a4.58,4.58,0,0,0-4.68-4.7c-3.15.12-6.76,1.69-6.93,8.2-.31,11.53,11.33,9.46,11.36,9.13S209.51,62.81,209.6,58Z"/><path class="cls-4" d="M207,66.21c-.05,0-.21.13-.55.28a2,2,0,0,1-1.5,0C203.7,66,202.73,64,202.73,62a6.57,6.57,0,0,1,.64-2.86,2.3,2.3,0,0,1,1.55-1.5,1,1,0,0,1,1.17.58c.15.33.07.56.13.58s.25-.19.17-.66a1.31,1.31,0,0,0-.43-.74,1.52,1.52,0,0,0-1.11-.32,2.79,2.79,0,0,0-2.14,1.73,6.75,6.75,0,0,0-.79,3.19c0,2.33,1.15,4.54,2.8,5.07a2.18,2.18,0,0,0,1.85-.26C206.93,66.48,207,66.23,207,66.21Z"/><path class="cls-1" d="M211.14,35.68a10.86,10.86,0,0,0,4.74,2.54c1.8.29,3.92-.62,4.33-2.39.18-.8,0-1.74.6-2.32s1.82-.41,2.78-.25a7.36,7.36,0,0,0,7.94-4.82c.78,1.33,2.77,1.39,4.11.64A16.69,16.69,0,0,0,239,25.91c1.08-1.1,2.56-2.05,4.06-1.75a10.84,10.84,0,0,0,2.48.7c1.52,0,2.36-1.77,2.68-3.26s.59-3.22,1.92-4,2.75-.16,4.13.13,3.19.06,3.63-1.28a2.74,2.74,0,0,0-.39-2.12A7.48,7.48,0,0,0,248.85,11,10.12,10.12,0,0,0,230.4,8a10.27,10.27,0,0,0-16.62,2.77,7.45,7.45,0,0,0-9,10.32c-2.14,1.06-4,3-4.22,5.39s2,4.89,4.34,4.4a4.13,4.13,0,0,0,6.88,4.53"/><path class="cls-5" d="M249.51,14.47s0,.07,0,.21a4.49,4.49,0,0,1-.11.61,7,7,0,0,1-1,2.17A8.27,8.27,0,0,1,245.7,20a7.7,7.7,0,0,1-4.79,1.07l.21-.25A4.18,4.18,0,0,1,240.7,24a12.21,12.21,0,0,1-2.14,2.72A8.32,8.32,0,0,1,237.19,28a3.9,3.9,0,0,1-1.86.57A4.21,4.21,0,0,1,231.7,27l.44-.09a8.61,8.61,0,0,1-4,5.75,6.3,6.3,0,0,1-3.85,1,11.18,11.18,0,0,1-3.68-1l.32-.11A9.06,9.06,0,0,1,218,35.92a4.81,4.81,0,0,1-4.07.85,6.35,6.35,0,0,1-4.59-5.25l.25.14a5.93,5.93,0,0,1-4,.35,6.6,6.6,0,0,1-2.69-1.39,5.6,5.6,0,0,1-1.2-1.49,3.57,3.57,0,0,1-.26-.61A6.82,6.82,0,0,0,203,30.47a6.46,6.46,0,0,0,2.63,1.27,5.75,5.75,0,0,0,3.77-.4l.22-.11,0,.25A6,6,0,0,0,214,36.35a4.36,4.36,0,0,0,3.7-.82,8.58,8.58,0,0,0,2.76-3.22l.1-.21.22.09a10.7,10.7,0,0,0,3.51,1,5.83,5.83,0,0,0,3.56-.94,8.19,8.19,0,0,0,3.8-5.43l.1-.54.34.44a3.73,3.73,0,0,0,3.2,1.37,3.69,3.69,0,0,0,1.65-.49,8.75,8.75,0,0,0,1.29-1.17,11.65,11.65,0,0,0,2.09-2.6,3.8,3.8,0,0,0,.42-2.86l-.08-.28.29,0a7.37,7.37,0,0,0,4.59-1,8.26,8.26,0,0,0,2.69-2.42A8.94,8.94,0,0,0,249.51,14.47Z"/><path class="cls-3" d="M274.39,179.53l1.21-12.27,4.23-45c-2.17-2.29-10.92-5.88-10.92-5.88l-21.73-7.81s-2.09,6-18.41,6.21c-16.7.24-23.61-10.2-23.61-10.2-8.35,2.68-26.56,9.6-26.56,9.6l-6.22,58.51L172.07,192l-3.84,98.37s109.4-4.65,111-4.93L274.83,250Z"/><polygon class="cls-6" points="242.99 150.65 242.99 173.67 255.51 183.89 268.57 173.76 269.29 151.29 242.99 150.65"/><path class="cls-6" d="M170.53,231.45l-.32,8.18s69.11-12.53,81.18-17.4c14.91-6,22.91-11.1,22.91-11.1l.25-6.23Z"/><path class="cls-2" d="M175.33,119.12s-15.59,2.49-18.8,22.35c-2.07,12.81-8.33,69.24.23,84.4,9.91,17.54,99.38-11.89,99.38-11.89l3.06-22.7-68.95,4.56L181.6,148Z"/><path class="cls-3" d="M150.34,185.84H194L182.08,113S157,118,153.76,144.2C150.45,170.6,150.34,185.84,150.34,185.84Z"/><path class="cls-1" d="M155.83,185.84l.2,0,.57,0,2.21,0,8.14-.07,27.08-.07-.22.24c-.05-.57-.1-1.18-.16-1.79-.91-11-1.74-20.94-2.35-28.18-.27-3.58-.5-6.49-.66-8.55-.07-1-.12-1.75-.16-2.32,0-.25,0-.45,0-.61a.67.67,0,0,1,0-.21.71.71,0,0,1,0,.21l.07.6c.06.57.14,1.34.24,2.32.2,2,.47,5,.81,8.53.64,7.24,1.51,17.19,2.48,28.17.05.62.11,1.23.15,1.79l0,.25H194L167,186l-8.14-.07-2.21,0-.57,0C155.9,185.86,155.83,185.85,155.83,185.84Z"/><path class="cls-1" d="M277.66,141.57a9,9,0,0,1,0,1.49c0,1-.07,2.34-.15,4.05-.18,3.42-.54,8.13-1,13.33s-1,9.9-1.43,13.3c-.2,1.7-.38,3.07-.52,4a9.42,9.42,0,0,1-.25,1.47,9.69,9.69,0,0,1,.08-1.49c.1-1,.22-2.39.38-4,.34-3.48.79-8.15,1.29-13.31s.9-9.9,1.16-13.31c.12-1.65.22-3,.3-4A10.17,10.17,0,0,1,277.66,141.57Z"/><path class="cls-1" d="M194.71,133.63a3.72,3.72,0,0,1-.49-.81L193,130.55a34.89,34.89,0,0,0-4.69-7,16.07,16.07,0,0,0-6.89-4.62,19.5,19.5,0,0,0-3.43-.65,3.43,3.43,0,0,1,.95-.06,10.69,10.69,0,0,1,2.57.4,15.56,15.56,0,0,1,7.13,4.63,31.06,31.06,0,0,1,4.65,7.15c.48,1,.84,1.78,1.09,2.34A3.74,3.74,0,0,1,194.71,133.63Z"/><path class="cls-6" d="M189,189.13c-.08-.43,7.56-2.29,7.56-2.29L191,150.65l3,35.19h-5.58Z"/><path class="cls-7" d="M303.47,192.41,302.13,211,296,218.79l-15.12,20.06,18.31,1.2s21.48-5.34,24.64-12,3.35-35.68,3.35-35.68Z"/><path class="cls-7" d="M394,130.46l1-72.35c.67-17.22-7.89-32.12-25.12-32.31l-1.59.08A30.79,30.79,0,0,0,339,55.61c-.49,14.92-.85,31.43-.37,39.41,1,16.5,17.63,18.28,17.63,18.28,0,.51,0,4.62-.09,9.54l0,8.2Z"/><path class="cls-8" d="M356.18,113.3a39.87,39.87,0,0,0,21.19-7.38s-4.67,12.31-21.22,11.61Z"/><path class="cls-1" d="M365.93,64.05c.36.1,2-1.1,4.71-1.73s4.87-.35,5.11-.6-.29-.36-1.25-.5a11.56,11.56,0,0,0-4.15.26,10.42,10.42,0,0,0-3.69,1.6C365.94,63.62,365.75,64,365.93,64.05Z"/><path class="cls-1" d="M368.59,69.16a2.22,2.22,0,0,0,2.26,2.14,2.13,2.13,0,0,0,2.2-2.12A2.24,2.24,0,0,0,370.79,67,2.14,2.14,0,0,0,368.59,69.16Z"/><path class="cls-1" d="M359.11,82.07c0-.14-1.59-.34-4.16-.54-.65,0-1.27-.14-1.4-.58a3.32,3.32,0,0,1,.34-1.94c.54-1.59,1.1-3.27,1.68-5,2.33-7.15,4-13,3.69-13.11s-2.41,5.63-4.73,12.78c-.56,1.76-1.1,3.44-1.6,5a3.74,3.74,0,0,0-.22,2.56,1.65,1.65,0,0,0,1.11.9,5.12,5.12,0,0,0,1.11.1C357.51,82.28,359.1,82.22,359.11,82.07Z"/><path class="cls-1" d="M367.94,52.72c.26.61,2.48.21,5.12.41s4.8.84,5.12.26c.14-.27-.26-.85-1.14-1.42a8.5,8.5,0,0,0-3.85-1.19,8.27,8.27,0,0,0-3.95.68C368.3,51.9,367.84,52.42,367.94,52.72Z"/><path class="cls-1" d="M341.61,57.16c.28.51,2.45,0,5.06,0s4.76.38,5.05-.13c.13-.25-.29-.71-1.19-1.13a9.1,9.1,0,0,0-3.84-.73,9.41,9.41,0,0,0-3.86.84C341.92,56.45,341.49,56.92,341.61,57.16Z"/><path class="cls-7" d="M394.23,70.63c.29-.14,11.84-3.78,11.71,8.09s-12,9.29-12,9S394.23,70.63,394.23,70.63Z"/><path class="cls-8" d="M397.59,83.21c.05,0,.2.15.55.31a2,2,0,0,0,1.54,0c1.26-.45,2.34-2.43,2.42-4.56a6.79,6.79,0,0,0-.55-3,2.39,2.39,0,0,0-1.54-1.6,1,1,0,0,0-1.22.55c-.17.33-.09.57-.16.59s-.25-.2-.15-.69a1.3,1.3,0,0,1,.48-.74,1.55,1.55,0,0,1,1.14-.29,2.88,2.88,0,0,1,2.14,1.86,7,7,0,0,1,.69,3.32c-.11,2.39-1.35,4.61-3.07,5.09A2.22,2.22,0,0,1,398,83.8C397.6,83.5,397.54,83.23,397.59,83.21Z"/><path class="cls-1" d="M341.84,62.81c.25.27,2.29.14,4.91,1s4.36,2.19,4.69,2.11c.16,0-.07-.44-.82-1a12.26,12.26,0,0,0-3.7-1.9,10.67,10.67,0,0,0-4-.58C342.06,62.47,341.71,62.69,341.84,62.81Z"/><path class="cls-1" d="M345,68.88A2.24,2.24,0,0,0,347.26,71a2.13,2.13,0,0,0,2.2-2.12,2.23,2.23,0,0,0-2.25-2.15A2.14,2.14,0,0,0,345,68.88Z"/><path class="cls-1" d="M317,40.26a2.67,2.67,0,0,1,1.29-1.53,8.25,8.25,0,0,1,4.23-.58,23.7,23.7,0,0,0,10.37-2.32,11.74,11.74,0,0,1-3-2.2c-1.77-1.86-2.75-4.67-1.85-7.08A1.56,1.56,0,0,1,329,25.5c.74-.21,1.36.52,1.85,1.11,1.63,1.91,3.16,2.76,5.67,2.57A10,10,0,0,0,340.83,28l.14-.15c.6-.59,1.19-1.15,1.77-1.7h0c4.34-4.09,8.06-6.91,11.84-8.32,5.55-2.08,14.77-2.74,20.46-1.09s10.72,6.43,11.37,12.32c3.28-2.64,8.1-2.49,12-.82l.1,0c4.32,1.67,6.68,6.33,7.86,10.81.06.25.11.49.17.74a17.39,17.39,0,0,0,5.72,5.88c.42.25.89.57.93,1.05s-.37.87-.77,1.14a8.59,8.59,0,0,1-3.57,1.38,18.61,18.61,0,0,0,1.37,3.1c.47.85,1,1.86.58,2.71a1.83,1.83,0,0,1-1.95.79,5.17,5.17,0,0,1-2-1c.45,1.18.91,2.36,1.36,3.53a10.27,10.27,0,0,1-4.73-.43c-1,4.13-2.21,9.41-3.35,12.2-1.83-.06-3.54-.53-4.69.45-1.56,1.34-2.31,3.9-4.82,2.86-1.28-.53-2.39-3.27-2.79-4.6a64.32,64.32,0,0,1-2.09-27.27,20.59,20.59,0,0,0-6.26-4.77l.19.18c-4.56-1.71-9.73-3.42-14.15-1.37-3.43,1.59-5.51,5-8.11,7.79a24.4,24.4,0,0,1-18,8c-.77,4.95-.4,11.27-.76,15.9l-4.1-7.58v0a16.8,16.8,0,0,1-.8-1.66l-.08-.17v0a27.8,27.8,0,0,0-1.24-2.67l0,0c-2.57,2.15-6.19-1.33-4.14-4A6.5,6.5,0,0,1,329.66,50a4.57,4.57,0,0,1-4.4,1,3.6,3.6,0,0,1-2.45-3.62A3.06,3.06,0,0,1,324.7,45a10.3,10.3,0,0,1-5.84-1.45C317.71,42.82,316.6,41.7,317,40.26Z"/><path class="cls-5" d="M381.17,30.84a13.57,13.57,0,0,1,1.62,1.55,11.91,11.91,0,0,1,2.39,5.54,21.2,21.2,0,0,1,.31,4.19c0,1.52-.19,3.14-.35,4.85a41,41,0,0,0-.26,5.4,20.09,20.09,0,0,0,.29,2.86,6,6,0,0,0,1.1,2.79,2.47,2.47,0,0,0,2.3.84,3.62,3.62,0,0,0,2.12-1.13,8.58,8.58,0,0,0,1.7-4.14l-.35,0a13.46,13.46,0,0,0,1.92,3.5A4.91,4.91,0,0,0,397.12,59a3.06,3.06,0,0,0,1.7-.26,2.77,2.77,0,0,0,1.19-1.1,2.85,2.85,0,0,0,.38-1.46,2,2,0,0,0-.49-1.29l-.18.15a10.65,10.65,0,0,0,3.47,2.75,11.35,11.35,0,0,0,1.08.45,2.54,2.54,0,0,0,.39.11,1.57,1.57,0,0,0-.36-.17,10.36,10.36,0,0,1-1.05-.51,10.83,10.83,0,0,1-3.35-2.78l-.18.16a2.11,2.11,0,0,1,0,2.45,2.54,2.54,0,0,1-1.07,1,2.88,2.88,0,0,1-1.55.21,4.62,4.62,0,0,1-2.93-1.74,13.13,13.13,0,0,1-1.84-3.42l-.23-.54-.12.57a8.32,8.32,0,0,1-1.61,4,3.29,3.29,0,0,1-1.9,1,2.09,2.09,0,0,1-2-.71,5.63,5.63,0,0,1-1-2.61,19.31,19.31,0,0,1-.3-2.8,46.49,46.49,0,0,1,.24-5.36c.15-1.71.3-3.34.32-4.87a20.3,20.3,0,0,0-.37-4.26,11.66,11.66,0,0,0-2.54-5.58A6.85,6.85,0,0,0,381.17,30.84Z"/><path class="cls-5" d="M329.81,45.57s0,0,.13.12l.4.31a5.13,5.13,0,0,0,.69.46,9.22,9.22,0,0,0,1,.56,14.65,14.65,0,0,0,7,1.44,18.57,18.57,0,0,0,10-3.42,32.27,32.27,0,0,0,8.79-9.62c1.25-2,2.28-4,3.4-5.85a21.79,21.79,0,0,1,3.81-4.92,11.31,11.31,0,0,1,4.82-2.76,8,8,0,0,1,2.51-.22,8.71,8.71,0,0,1,2.28.49,9.61,9.61,0,0,1,3.38,2.16,9.49,9.49,0,0,1,1.8,2.46,11.64,11.64,0,0,1,.79,2.49s0-.06,0-.17,0-.31-.07-.51a8.55,8.55,0,0,0-.57-1.88,9.38,9.38,0,0,0-1.79-2.54,9.58,9.58,0,0,0-3.43-2.26,8.94,8.94,0,0,0-2.36-.54,8.33,8.33,0,0,0-2.61.21,11.57,11.57,0,0,0-5,2.81,21.87,21.87,0,0,0-3.89,5c-1.14,1.87-2.17,3.89-3.41,5.83a32.37,32.37,0,0,1-8.66,9.54A18.6,18.6,0,0,1,339,48.19a14.7,14.7,0,0,1-6.94-1.31A23.68,23.68,0,0,1,329.81,45.57Z"/><path class="cls-5" d="M328.49,38.29s.19.18.58.43a11.53,11.53,0,0,0,1.73.93,16.53,16.53,0,0,0,2.74,1,19.6,19.6,0,0,0,3.53.56,18.84,18.84,0,0,0,3.58-.15,16.36,16.36,0,0,0,2.84-.66,12.52,12.52,0,0,0,1.82-.73,2.37,2.37,0,0,0,.62-.35c0-.07-.95.38-2.52.82a19,19,0,0,1-2.81.57,22,22,0,0,1-3.5.12,21.85,21.85,0,0,1-3.47-.52,19.76,19.76,0,0,1-2.72-.89C329.39,38.78,328.53,38.23,328.49,38.29Z"/><path class="cls-8" d="M367.4,86.37s-6,1.74-8.28,2.57l.91,2.62A4.18,4.18,0,0,0,365.67,94a4.29,4.29,0,0,0,1.39-1.07A4.2,4.2,0,0,0,368,90,22.53,22.53,0,0,0,367.4,86.37Z"/><path class="cls-1" d="M359.12,88.94c-.08-.21,3.55-1.54,8.16-3l.44-.14.09.45c0,.07,0,.13,0,.2A20,20,0,0,1,368.4,90a4.06,4.06,0,0,1-.88,2.85c-1.13,1.35-2.31,1.43-2.3,1.35s1-.44,1.82-1.7.55-3.41,0-5.8c0-.07,0-.14,0-.2l.53.32C362.94,88.19,359.2,89.16,359.12,88.94Z"/><path class="cls-5" d="M318.17,305l116.93-.54-6.45-99.47-.48-29.65-6.85-53.74L395.19,116s-6.54,12-23.24,11.77c-16.32-.24-15.8-7.19-15.8-7.19L328.39,131s-15.22,7.4-18,14.58c-2.72,7-8,47.2-8,47.2l23.95-.29-2.19,76.08Z"/><path class="cls-1" d="M327.13,157.17a2.15,2.15,0,0,1,.06.52q0,.59.09,1.5c.06,1.31.11,3.2.12,5.54,0,4.67-.07,11.12-.29,18.25s-.51,13.58-.75,18.24c-.13,2.29-.23,4.16-.31,5.53-.05.61-.08,1.1-.11,1.5a2.75,2.75,0,0,1-.07.52,2.15,2.15,0,0,1,0-.53q0-.59,0-1.5l.17-5.53c.16-4.72.37-11.15.61-18.24s.38-13.58.42-18.25c0-2.33,0-4.22,0-5.52,0-.62,0-1.12,0-1.51A1.76,1.76,0,0,1,327.13,157.17Z"/><path class="cls-5" d="M420.51,122.28s11.76,1.24,18.06,9.49c5.8,7.59,17,31.48,16.67,32.07s-26.3,17.63-26.3,17.63l-6.43-11.85Z"/><path class="cls-1" d="M426.24,134a1.46,1.46,0,0,1,.07.45c0,.35.07.78.11,1.3.09,1.13.18,2.77.28,4.8.2,4.05.35,9.65.45,15.84s.19,11.79.31,15.84c.06,2,.1,3.6.14,4.8,0,.52,0,1,0,1.31a2.28,2.28,0,0,1,0,.45,1.46,1.46,0,0,1-.07-.45c0-.35-.06-.78-.11-1.3-.08-1.13-.18-2.77-.28-4.8-.2-4-.35-9.65-.44-15.84s-.2-11.79-.32-15.84c-.05-2-.1-3.6-.13-4.8,0-.53,0-1,0-1.31A2.19,2.19,0,0,1,426.24,134Z"/><path class="cls-9" d="M263.43,237.54s3.88,2.6,6.31,2.28,10.4-2.28,10.4-2.28.16.71,2.27,2.3,14.94,3.71,20.3,3.06,14.46-4.06,14.46-4.06l-2.73-15.35-24.14,3.8-26.87,6.19v4.06Z"/><path class="cls-7" d="M271.53,225s-2.11,9.25-1,10.55,2.57,1.63,3.39-.16a79.11,79.11,0,0,0,2.3-8.14l1-2.25s-1.3,15.26,1.3,16.08a5.46,5.46,0,0,0,4.06,0s5.2,3.89,5.52-2.28A89.45,89.45,0,0,1,290.3,225l1.21-2v3.47s-2.74,8.12-1.21,9.26,3.15,1.94,4.13.65a97.92,97.92,0,0,0,6.5-14.15s3.05,4.4,7.29,4.46c3.33,0,5.27-1.39,3.91-3.47s-4.71-3.81-4.71-3.81L303,209.19l-10.72-2.51H280.14Z"/><path class="cls-10" d="M254.14,218.45s10.24,6.1,14.95,7.24,30-3.35,29.7-4.94-3.55-3-5.82-3.35-8.94-1.46-8.94-1.46H301.9l8.61,5.44s3.05-1.23,2.06-3.72c-.53-1.33-7.26-6.59-7.26-6.59l-16.4-3.25-29.07-1.14Z"/><path class="cls-2" d="M263.73,191.09s29.07,4.88,29.72,5.69,8.12,9.26,8.12,9.26,11.2,3.85,9.75,6.33-4.71,1-4.71,1,4.55,7.15,2.44,8.61-4.39.49-6-1.62-6.34-9.91-6.34-9.91,3.9,15.92,1.95,16.4-5,.65-6.33-3.41a44.08,44.08,0,0,1-1.63-6.33l-6.17-10.23s2.44,18.68,1,20.22c0,0-3.74,1.22-5-2s-3.08-10.68-3.08-10.68l-3.09-8.16-.32,5.19s2.59,9.59,1,10.24a3.9,3.9,0,0,1-4.87-2.19,35.57,35.57,0,0,1-2.93-6.91c-.32-1.27-2-5.59-2-5.59l-6.17-.81Z"/><path class="cls-4" d="M299.52,203.55a44.75,44.75,0,0,1,3.86,5.09,45.84,45.84,0,0,1,3.49,5.34A45.42,45.42,0,0,1,303,208.9,47,47,0,0,1,299.52,203.55Z"/><path class="cls-4" d="M289.84,198.18a7.91,7.91,0,0,1,1.36,1.62,40.88,40.88,0,0,1,2.73,4.32,50.45,50.45,0,0,1,2.25,4.59,9.39,9.39,0,0,1,.72,2,11.18,11.18,0,0,1-1-1.86c-.58-1.17-1.39-2.77-2.35-4.51s-1.9-3.26-2.6-4.36A12.71,12.71,0,0,1,289.84,198.18Z"/><path class="cls-4" d="M281.28,199s.48.2,1,.81a7.88,7.88,0,0,1,1.54,2.76,14.4,14.4,0,0,1,.64,3.07,3.52,3.52,0,0,1,0,1.3,4,4,0,0,1-.34-1.25,24.58,24.58,0,0,0-.74-3,9.78,9.78,0,0,0-1.37-2.7A10.52,10.52,0,0,1,281.28,199Z"/><path class="cls-4" d="M271,199.92s.45.09,1,.51a5.8,5.8,0,0,1,2.42,4.89,2.16,2.16,0,0,1-.23,1.13,10.08,10.08,0,0,0-.77-3.68A10.24,10.24,0,0,0,271,199.92Z"/><path class="cls-6" d="M324.9,242.33c2.08,0,81.05-5.8,81.05-5.8l27.85-5.76-6.88-30.84-101.8,32.76Z"/><path class="cls-9" d="M314.44,223.49l73.1-16.81s66.55-38.79,67.57-39.42S450,206.68,450,206.68s-42.4,22.34-54.6,25.24c-6.65,1.58-80.4,7.71-80.4,7.71Z"/><path class="cls-1" d="M494.41,64c4.51-4.86,15.5-4,18.08-.77a8.39,8.39,0,0,1,11,3.76l11.68,2.68c2,.45,4.08,1,5.6,2.32s2.22,3.88.94,5.47c4.11,1.12,5.66,7.27,2.58,10.21a4.43,4.43,0,0,1-.73,6.41,44.2,44.2,0,0,1,7.42,13.11c.71,2,1.28,4.2.52,6.17s-3.37,3.31-5.07,2.06a5.18,5.18,0,0,1,.19,5.61c2,.06,2.54,3.13,1.17,4.56s-3.59,1.55-5.57,1.49-4.12-.19-5.76.92a1.84,1.84,0,0,0,.63,1.27,8.13,8.13,0,0,1,1.71,11.11l-.66.9c-1.16,1.62-4,3.08-5.79,4-4.5,2.29-7.16,1.83-12.17,2.5,1.34,3.24-6.85,10.3-16.07,3.19-18.59,4.8-32,6.56-51.16,6.42-2.74,0-6-.42-7.22-2.88a6.8,6.8,0,0,1-6.24-2.12,19.85,19.85,0,0,1-3.62-5.82,11.94,11.94,0,0,1-8.48-10.84,14.74,14.74,0,0,1-5.46-10.54A8.65,8.65,0,0,1,417,113.4a52.34,52.34,0,0,1,5.86-16.1c-3.14-.71-4.28-5-3-7.89s4.2-4.79,6.92-6.49c-2.35.61-4.37-2.36-3.78-4.72s2.72-4,4.82-5.2a43.92,43.92,0,0,1,9.77-4.24c1.15-4.13,6.48-8.78,10.37-10.57,15.68-7.24,26.63-9,46.38,5.77"/><path class="cls-9" d="M450.66,93.28c1.35-10.74,9.31-23.51,20-21.71l33,10.56a6.33,6.33,0,0,1,5.25,6.76l-5.59,71.76a19.74,19.74,0,0,1-17.25,18.06h0a19.74,19.74,0,0,1-22.17-20c.09-4.94.15-8.65.15-8.63S450.4,147,448.67,128.84C447.8,119.82,449.16,105.2,450.66,93.28Z"/><path class="cls-1" d="M456.69,107.86a2.3,2.3,0,0,0,2.07,2.46,2.2,2.2,0,0,0,2.51-1.92,2.31,2.31,0,0,0-2.08-2.47A2.2,2.2,0,0,0,456.69,107.86Z"/><path class="cls-1" d="M453.36,101.1c.27.31,2.1-.87,4.57-.71s4.22,1.51,4.51,1.23c.14-.13-.12-.69-.87-1.32A6.38,6.38,0,0,0,458,99a6,6,0,0,0-3.66.94C453.52,100.42,453.23,101,453.36,101.1Z"/><path class="cls-1" d="M479.42,108.82a2.31,2.31,0,0,0,2.07,2.46,2.22,2.22,0,0,0,2.51-1.93,2.33,2.33,0,0,0-2.08-2.47A2.21,2.21,0,0,0,479.42,108.82Z"/><path class="cls-1" d="M477.7,103.07c.27.32,2.1-.86,4.57-.7s4.22,1.51,4.51,1.22c.14-.12-.12-.68-.87-1.31a6.38,6.38,0,0,0-3.59-1.35,6.1,6.1,0,0,0-3.66.93C477.86,102.4,477.57,102.93,477.7,103.07Z"/><path class="cls-1" d="M467.56,120.9c0-.14-1.5-.51-4-1-.63-.1-1.22-.27-1.3-.71a3.27,3.27,0,0,1,.54-1.85l2.17-4.7c3-6.7,5.26-12.23,5-12.35s-2.94,5.22-6,11.92q-1.1,2.47-2.09,4.74a3.65,3.65,0,0,0-.49,2.46,1.59,1.59,0,0,0,1,1,4.27,4.27,0,0,0,1.06.22C466,120.93,467.54,121,467.56,120.9Z"/><path class="cls-11" d="M464,150.12a45.67,45.67,0,0,0,24.45-4.92s-6.6,12-24.47,9.18Z"/><path class="cls-1" d="M477.24,92.8c.2.69,2.7.52,5.58,1s5.19,1.47,5.62.89c.19-.28-.18-.93-1.09-1.65a9.41,9.41,0,0,0-4.09-1.72,9.53,9.53,0,0,0-4.44.24C477.73,92,477.16,92.47,477.24,92.8Z"/><path class="cls-1" d="M454.77,92.62c.4.59,2.14.11,4.2.21s3.77.61,4.2,0c.2-.27,0-.86-.77-1.44a6.11,6.11,0,0,0-6.77-.21C454.87,91.77,454.59,92.33,454.77,92.62Z"/><path class="cls-1" d="M442.43,101.78a12.3,12.3,0,0,1,3.12-7.69c1.07-1.11,2.43-2,3.39-3.16,2.07-2.63,1.84-6.32,2.76-9.54a13.59,13.59,0,0,1,8.57-9c3.4-1.14,7.21-.91,10.41-2.54,2.36-1.2,4.18-3.32,6.61-4.38,4.72-2.06,10.12.44,14.51,3.16.82,3.53-1.46,6.54-3.66,9.42a12.56,12.56,0,0,1-9.34,4.88c-2.81.12-6.08-.57-8.09,1.4s-1.37,5.8-3.12,8.19c-2.5,3.41-8,2-11.72,4.07-2.85,1.6-4.09,5-5.56,7.87s-4,5.94-7.24,5.73A36.71,36.71,0,0,1,442.43,101.78Z"/><path class="cls-1" d="M484.68,74.92a63.91,63.91,0,0,1,24,4.76c2.27.93,4.6,2.11,5.87,4.2a11.32,11.32,0,0,1,1.14,6.26c-.19,6.73-3.05,14.93-5.73,21.11l-8.5,4.89c-6.45-1.65-3.28-12.78-2.87-18.38a13.23,13.23,0,0,1-7.52-11.82A14.65,14.65,0,0,1,484.68,74.92Z"/><path class="cls-9" d="M501.62,113.72c.32-3.84,5.07-4.51,8.34-2.47,1.8,1.12,3.13,3.3,2.83,7.39-.82,10.89-11.59,7.83-11.59,7.51S501.24,118.23,501.62,113.72Z"/><path class="cls-11" d="M504.84,122.27c.05,0,.18.15.49.32a1.89,1.89,0,0,0,1.42.14c1.18-.34,2.29-2.09,2.49-4a6.37,6.37,0,0,0-.33-2.76,2.18,2.18,0,0,0-1.32-1.56,1,1,0,0,0-1.16.43c-.17.3-.12.52-.17.53s-.22-.2-.1-.64a1.23,1.23,0,0,1,.48-.65,1.46,1.46,0,0,1,1.07-.2,2.67,2.67,0,0,1,1.85,1.84,6.34,6.34,0,0,1,.43,3.08c-.23,2.19-1.51,4.16-3.12,4.5a2,2,0,0,1-1.71-.42C504.84,122.54,504.8,122.29,504.84,122.27Z"/><path class="cls-5" d="M510.07,129.21a8.92,8.92,0,0,0,1.76-.09,6.19,6.19,0,0,0,1.91-.54l-.13-.07a5.43,5.43,0,0,0,8.58,3.6l-.18,0a2.22,2.22,0,0,0,1.41,1,3.06,3.06,0,0,0,1.77-.11,2.86,2.86,0,0,0,1.44-1.13,3.88,3.88,0,0,0,.59-1.79,5.56,5.56,0,0,0-1.13-3.65,16.23,16.23,0,0,0-2.82-2.86l0,.26a3.86,3.86,0,0,0,1.78-2.56,5.57,5.57,0,0,0-.26-3.22,8.36,8.36,0,0,0-1.86-2.75,23.56,23.56,0,0,0-2.54-2.23v.24a4.09,4.09,0,0,0,1.14-3.14,6,6,0,0,0-1.18-3.26,14.56,14.56,0,0,0-5.25-3.81l.08.19a7.25,7.25,0,0,0-7.71-9.08l.17.19A6.26,6.26,0,0,0,506.24,89a6.16,6.16,0,0,0-4.57-2.35l.13.14a6.11,6.11,0,0,0-2.39-4.8,6,6,0,0,0-4.53-1.34l.12.11a6,6,0,0,0-.84-2.81,7.36,7.36,0,0,0-1.62-2,6.33,6.33,0,0,0-3.7-1.68l-.41,0-.38,0a6.69,6.69,0,0,0-.69.07,8.26,8.26,0,0,0-1.05.27l-.61.25a.93.93,0,0,0-.21.1l.22-.07.62-.22a9.14,9.14,0,0,1,1-.24,4.78,4.78,0,0,1,.68-.06h.38l.4,0a6.18,6.18,0,0,1,3.6,1.68,7.54,7.54,0,0,1,1.56,2,5.76,5.76,0,0,1,.79,2.72v.12h.13a5.8,5.8,0,0,1,4.35,1.31,5.88,5.88,0,0,1,2.27,4.6v.14h.13a6.23,6.23,0,0,1,5.66,7.34l-.05.21.21,0a6.92,6.92,0,0,1,7.36,8.68l0,.13.12.06a14.33,14.33,0,0,1,5.13,3.71,5.49,5.49,0,0,1,1.11,3.08,3.74,3.74,0,0,1-1,2.9l-.13.13.15.11c1.75,1.4,3.51,2.87,4.31,4.85a5.25,5.25,0,0,1,.24,3,3.53,3.53,0,0,1-1.62,2.36l-.19.11.17.14a16.3,16.3,0,0,1,2.78,2.79,5.28,5.28,0,0,1,1.08,3.46,2.93,2.93,0,0,1-1.83,2.68,2.4,2.4,0,0,1-2.88-.74l-.07-.12-.11.09a5.29,5.29,0,0,1-5.5.42,5.36,5.36,0,0,1-2.75-3.84v-.13l-.12.06a6.57,6.57,0,0,1-1.86.55,9.41,9.41,0,0,1-1.72.1,6.78,6.78,0,0,1-2.65-.56,2.56,2.56,0,0,1-1.25-1.09c-.16-.34-.19-.55-.21-.54l0,.15a1.41,1.41,0,0,0,.14.41,2.5,2.5,0,0,0,1.25,1.16"/><path class="cls-5" d="M547.72,115.92a3.56,3.56,0,0,0,.42-.65,5.65,5.65,0,0,0-.21-5.59A5.82,5.82,0,0,0,544,107.1l.09.13a7.46,7.46,0,0,0-.9-5.4,7.25,7.25,0,0,0-2.09-2.3,17.32,17.32,0,0,0-3-1.46,6,6,0,0,1-1.41-.87,3.71,3.71,0,0,1-1-1.36c-.46-1-.6-2.29-1.19-3.43A6.64,6.64,0,0,0,528,89l.19.19a8.74,8.74,0,0,0-9.51-10.07l.18.18A7.68,7.68,0,0,0,507,71.92l.18,0a10.78,10.78,0,0,0-3.77-2.39,15.86,15.86,0,0,0-3.9-1,18.32,18.32,0,0,0-6.48.32,13.34,13.34,0,0,0-3.87,1.53,7.21,7.21,0,0,0-.89.63,3,3,0,0,0-.29.24s.41-.31,1.23-.8a13.4,13.4,0,0,1,3.86-1.44,18.34,18.34,0,0,1,6.41-.26,15.65,15.65,0,0,1,3.83,1A10.17,10.17,0,0,1,507,72.14l.08.08.09-.06a7.37,7.37,0,0,1,11.33,7.1l0,.21.2,0a8.43,8.43,0,0,1,9.16,9.7l0,.22.22,0a6.3,6.3,0,0,1,6.26,3.23c.57,1.06.71,2.29,1.2,3.4a4,4,0,0,0,1,1.46,6.08,6.08,0,0,0,1.49.91A17.6,17.6,0,0,1,541,99.75a7.1,7.1,0,0,1,2,2.21,7.23,7.23,0,0,1,.9,5.22l0,.12.11,0a5.57,5.57,0,0,1,3.8,2.46,5.4,5.4,0,0,1,.86,3.33,5.82,5.82,0,0,1-.55,2.13C547.87,115.7,547.71,115.91,547.72,115.92Z"/><path class="cls-5" d="M443.36,117.11a1,1,0,0,0,.06-.89,2.23,2.23,0,0,0-.62-.92,3.85,3.85,0,0,0-1.34-.7,6.36,6.36,0,0,1-1.69-.74,3.4,3.4,0,0,1-1.2-1.77,6.57,6.57,0,0,1-.23-2.5c.05-.9.21-1.85.23-2.87.05-2.07-.79-4.18-1.28-6.47a9.21,9.21,0,0,1-.09-3.59,4.36,4.36,0,0,1,2-3,16.23,16.23,0,0,1,3.85-1.24,6.63,6.63,0,0,0,2-.87,4.39,4.39,0,0,0,1.41-1.7,21.81,21.81,0,0,0,1.22-4.28,7.27,7.27,0,0,1,.79-2.05,3.29,3.29,0,0,1,1.63-1.38,12.49,12.49,0,0,1,3-.37,4.6,4.6,0,0,0,1.54-.35,3,3,0,0,0,1.22-1,10.64,10.64,0,0,0,1.19-2.77,6.91,6.91,0,0,1,1.41-2.44A6.63,6.63,0,0,1,463.27,73a6.75,6.75,0,0,1,4.6,1.76l.14.13.09-.17a10.37,10.37,0,0,1,6.57-5.49,9.58,9.58,0,0,1,3.65-.25,8.75,8.75,0,0,1,3,.88,7.69,7.69,0,0,1,3.14,3,7.58,7.58,0,0,1,.52,1c.05.11.09.2.13.27s0,.09.05.09l0-.09c0-.08-.06-.17-.11-.28a6.32,6.32,0,0,0-.49-1.07,7.56,7.56,0,0,0-3.13-3.08,8.77,8.77,0,0,0-3-.94,9.82,9.82,0,0,0-3.74.23,10.63,10.63,0,0,0-6.77,5.58l.23,0a7,7,0,0,0-4.8-1.85,6.89,6.89,0,0,0-5,2.28,7,7,0,0,0-1.48,2.54,10.53,10.53,0,0,1-1.15,2.68,3.18,3.18,0,0,1-2.52,1.22,13,13,0,0,0-3.11.38,3.68,3.68,0,0,0-1.8,1.52,7.66,7.66,0,0,0-.83,2.15,21.18,21.18,0,0,1-1.19,4.21,4.16,4.16,0,0,1-1.31,1.59,6.29,6.29,0,0,1-1.87.83,16.42,16.42,0,0,0-3.91,1.27,4.29,4.29,0,0,0-1.46,1.41,5.68,5.68,0,0,0-.7,1.83,9.17,9.17,0,0,0,.1,3.7c.52,2.33,1.36,4.41,1.31,6.42,0,1-.15,1.94-.2,2.86a6.77,6.77,0,0,0,.27,2.57,3.5,3.5,0,0,0,1.28,1.84,6.18,6.18,0,0,0,1.74.73,3.74,3.74,0,0,1,1.31.66,2.09,2.09,0,0,1,.63.86A1.26,1.26,0,0,1,443.36,117.11Z"/><path class="cls-5" d="M422.48,99.86l.11-.2.31-.61c.28-.55.67-1.34,1.17-2.34s1.08-2.29,1.9-3.68a9.68,9.68,0,0,1,3.72-3.85c.89-.46,1.91-.76,2.95-1.2a6.62,6.62,0,0,0,1.5-.85,3.73,3.73,0,0,0,1.14-1.4c.53-1.12.57-2.41,1-3.57a3,3,0,0,1,1.08-1.47,5.74,5.74,0,0,1,1.76-.79,10.88,10.88,0,0,0,1.95-.7,3.52,3.52,0,0,0,1.51-1.52,16.07,16.07,0,0,0,1-4.21,5.12,5.12,0,0,1,.76-2,2.7,2.7,0,0,1,1.75-1.11c1.43-.28,3,.25,4.57,0a3.86,3.86,0,0,0,2.12-1.08,10.66,10.66,0,0,0,1.39-1.85,19.32,19.32,0,0,1,1.23-1.86A4.12,4.12,0,0,1,457,64.26a6.4,6.4,0,0,1,4.12.1,9.58,9.58,0,0,0,4.14.43,11.1,11.1,0,0,0,3.63-1.58,18.8,18.8,0,0,1,3.24-1.72,11.2,11.2,0,0,1,6.48-.1,12.1,12.1,0,0,1,4.75,2.55A13.66,13.66,0,0,1,486,67.12a14.62,14.62,0,0,1,1.09,2.36l.24.64a.93.93,0,0,0,.1.21l-.06-.22c-.06-.17-.13-.38-.21-.65a14.6,14.6,0,0,0-1.05-2.41,13.43,13.43,0,0,0-2.58-3.25,12.26,12.26,0,0,0-4.81-2.64,11.53,11.53,0,0,0-6.63.07,19.29,19.29,0,0,0-3.3,1.73,10.66,10.66,0,0,1-3.54,1.53,9.26,9.26,0,0,1-4-.43,13.47,13.47,0,0,0-2.12-.41,4.57,4.57,0,0,0-2.21.31,4.46,4.46,0,0,0-1.75,1.44,19.29,19.29,0,0,0-1.25,1.89,10,10,0,0,1-1.34,1.79,3.58,3.58,0,0,1-1.94,1c-1.49.22-3-.31-4.59,0a3.06,3.06,0,0,0-1.95,1.25,5.57,5.57,0,0,0-.81,2.11,15.7,15.7,0,0,1-1,4.13,3.09,3.09,0,0,1-1.38,1.39,10.15,10.15,0,0,1-1.89.69,6.18,6.18,0,0,0-1.85.84A3.34,3.34,0,0,0,436,82.06c-.45,1.23-.48,2.5-1,3.55a4.44,4.44,0,0,1-2.5,2.13c-1,.44-2,.75-2.95,1.23a9.93,9.93,0,0,0-3.77,4c-.81,1.41-1.36,2.69-1.86,3.71s-.84,1.81-1.11,2.37c-.11.26-.21.47-.28.62A.77.77,0,0,0,422.48,99.86Z"/><path class="cls-5" d="M434.28,88.64l-.2,0a1.18,1.18,0,0,0-.58.11,2.34,2.34,0,0,0-1.12,1.92,6,6,0,0,0,.2,1.63,6.42,6.42,0,0,1,.25,1.9,4.11,4.11,0,0,1-.8,2c-.43.65-1,1.28-1.43,2.06a3.12,3.12,0,0,0-.32,2.74c.33.94,1,1.72,1.31,2.67a4.08,4.08,0,0,1-.35,3c-.44,1-1.06,2-1.5,3a4.91,4.91,0,0,0-.38,1.76,4.36,4.36,0,0,0,.38,1.81,22.17,22.17,0,0,0,2,3.15,5,5,0,0,1,1.1,3.47,16.61,16.61,0,0,1-1.39,3.66,5.93,5.93,0,0,0-.44,2,4.58,4.58,0,0,0,.48,2,16.67,16.67,0,0,0,2.3,3.12,9.11,9.11,0,0,1,1.86,3.12,26.6,26.6,0,0,0,1.07,3.42,4.12,4.12,0,0,0,1.08,1.4,5.37,5.37,0,0,0,1.53.77,12.77,12.77,0,0,1,1.51.56,5.25,5.25,0,0,1,1.24.88,11.24,11.24,0,0,1,1.75,2.37c.49.82.94,1.62,1.45,2.35a7.48,7.48,0,0,0,3.75,2.86,8,8,0,0,0,3.56.4,7.22,7.22,0,0,0,2.18-.6,4.61,4.61,0,0,0,.69-.38,8.4,8.4,0,0,1-2.89.85,7.91,7.91,0,0,1-3.48-.45,7.34,7.34,0,0,1-3.62-2.82c-.49-.71-.94-1.52-1.42-2.34a10.94,10.94,0,0,0-1.78-2.44,5.64,5.64,0,0,0-1.31-.93,12.38,12.38,0,0,0-1.53-.59,4.77,4.77,0,0,1-1.44-.73,3.57,3.57,0,0,1-1-1.3,24.63,24.63,0,0,1-1-3.37,9,9,0,0,0-1.91-3.23,16.48,16.48,0,0,1-2.25-3.07,4.1,4.1,0,0,1-.44-1.82,5.17,5.17,0,0,1,.41-1.88,16.26,16.26,0,0,0,1.4-3.73,4.06,4.06,0,0,0-.23-2,8,8,0,0,0-.92-1.71,21.6,21.6,0,0,1-2-3.09,4.16,4.16,0,0,1-.36-1.68,4.7,4.7,0,0,1,.35-1.66c.42-1.07,1-2,1.49-3a4.37,4.37,0,0,0,.34-3.2c-.35-1-1-1.8-1.33-2.68a2.9,2.9,0,0,1,.28-2.54c.43-.75,1-1.39,1.41-2.06a4.45,4.45,0,0,0,.81-2.1,6.83,6.83,0,0,0-.28-1.94,5.65,5.65,0,0,1-.23-1.59,2.3,2.3,0,0,1,1-1.87A1.49,1.49,0,0,1,434.28,88.64Z"/><path class="cls-1" d="M547.45,115.56a4.34,4.34,0,0,0,.87-.07,6,6,0,0,0,2.32-.95,5.8,5.8,0,0,0,2.35-3.17,6.18,6.18,0,0,0-.79-5.17,16.28,16.28,0,0,0-2.14-2.28,7.3,7.3,0,0,1-2-2.62,4.88,4.88,0,0,1,.23-3.47c.44-1.16,1.1-2.29,1.53-3.58A10.7,10.7,0,0,0,542,80.49l.09.25a5.44,5.44,0,0,0,1-2.36,6.9,6.9,0,0,0-.11-2.6,7.54,7.54,0,0,0-1.05-2.42,8.87,8.87,0,0,0-1.82-2,16.74,16.74,0,0,0-7.12-3,25.77,25.77,0,0,0-7.33-.46l.17.16a7.77,7.77,0,0,0-4.26-6.79,7.9,7.9,0,0,0-3.82-.8,13,13,0,0,0-3.59.87,6.81,6.81,0,0,1-1.69.36,4.31,4.31,0,0,1-1.64-.2A13.28,13.28,0,0,1,508,60.06a11.77,11.77,0,0,0-2.73-1.31,9.34,9.34,0,0,0-2.75-.42,9.24,9.24,0,0,0-4.56,1.15,9.52,9.52,0,0,0-2.69,2.25,8.94,8.94,0,0,0-1.18,1.86,4.46,4.46,0,0,0-.29.71s.11-.24.34-.68a9.36,9.36,0,0,1,3.9-4,9,9,0,0,1,4.47-1.09,9.55,9.55,0,0,1,2.69.43,11.58,11.58,0,0,1,2.67,1.31,14.24,14.24,0,0,0,2.91,1.5,4.82,4.82,0,0,0,1.74.22,8.12,8.12,0,0,0,1.75-.36,12.41,12.41,0,0,1,3.53-.86,7.68,7.68,0,0,1,3.67.79,7.45,7.45,0,0,1,4.07,6.53v.17l.18,0a25.44,25.44,0,0,1,7.23.46,16.5,16.5,0,0,1,7,3,8.61,8.61,0,0,1,1.75,1.87,7.42,7.42,0,0,1,1,2.31,6.65,6.65,0,0,1,.11,2.47,5.13,5.13,0,0,1-.93,2.23l-.15.2.25,0a10.41,10.41,0,0,1,7.6,13.37c-.4,1.25-1,2.38-1.5,3.57a5.05,5.05,0,0,0-.21,3.64,7.45,7.45,0,0,0,2.07,2.71,15.77,15.77,0,0,1,2.12,2.24,5.92,5.92,0,0,1,.81,5,5.68,5.68,0,0,1-2.26,3.13,6.17,6.17,0,0,1-2.26,1C547.75,115.54,547.45,115.54,547.45,115.56Z"/><path class="cls-1" d="M430.57,81.08a.71.71,0,0,0,0-.21c0-.16,0-.36.07-.61.06-.56.14-1.35.26-2.35s.29-2.27.59-3.69a20.51,20.51,0,0,1,1.53-4.68,14,14,0,0,1,3.56-4.72,10.22,10.22,0,0,1,2.83-1.67,28.12,28.12,0,0,1,3.4-.92,9.86,9.86,0,0,0,3.47-1.46,15.81,15.81,0,0,0,2.83-2.72c.87-1,1.69-2.07,2.65-3a10.87,10.87,0,0,1,3.31-2.36A19.64,19.64,0,0,1,463,51.13a51.58,51.58,0,0,1,7.58.45,39,39,0,0,1,12.27,3.66,27.94,27.94,0,0,1,7,5c.35.37.68.69.95,1l.64.76.41.47.14.15s0-.06-.12-.18l-.37-.48-.63-.79c-.26-.3-.58-.62-.93-1A27,27,0,0,0,483,55a38.63,38.63,0,0,0-12.33-3.76,52.24,52.24,0,0,0-7.63-.46,19.76,19.76,0,0,0-8,1.56,11.49,11.49,0,0,0-3.41,2.42c-1,1-1.8,2.05-2.65,3.05a16.21,16.21,0,0,1-2.77,2.67,9.57,9.57,0,0,1-3.36,1.42,31,31,0,0,0-3.44.94,10.65,10.65,0,0,0-2.9,1.74,14.16,14.16,0,0,0-3.6,4.83,21,21,0,0,0-1.49,4.74,36.48,36.48,0,0,0-.54,3.71c-.11,1-.16,1.82-.2,2.36,0,.26,0,.46,0,.62Z"/><path class="cls-11" d="M478.23,126.63a4.09,4.09,0,0,0-2.36-3.46,3.6,3.6,0,0,0-4,.88,3.23,3.23,0,0,0-.21,3.87,3.52,3.52,0,0,0,1.56,1.37,4.42,4.42,0,0,0,2.64.28,3,3,0,0,0,1.9-1A2.86,2.86,0,0,0,478.23,126.63Z"/><path class="cls-1" d="M476.85,121.33c-.41,0-.19,2.74-2.37,4.87s-5.1,2.07-5.09,2.45c0,.18.69.48,1.92.41a6.8,6.8,0,0,0,4.27-1.9,6,6,0,0,0,1.81-4.06C477.4,122,477,121.3,476.85,121.33Z"/><path class="cls-3" d="M524.5,166.61l-21.17-8s-16.32,9.7-28.9,7.69c-9.74-1.56-10.54-6.57-10.54-6.57l-11.74,1.89s-17.76,14.76-21.47,29.77C428.49,200.23,428,211.84,428,222c0,4.08,5.19,20.19,5.19,20.19l2,23.33-9.82,38.87h102.4V196.85Z"/><polygon class="cls-3" points="409.91 230.77 395.04 193.54 437.71 163.81 452.15 161.59 448.4 214.29 409.91 230.77"/><path class="cls-1" d="M432.19,237.84a2.13,2.13,0,0,1-.27-.51c-.16-.35-.42-.85-.68-1.53a43,43,0,0,1-1.9-5.83A60.7,60.7,0,0,1,428,209.82a126.56,126.56,0,0,1,3.7-19.88c.65-2.5,1.21-4.52,1.61-5.91l.46-1.6a2.68,2.68,0,0,1,.2-.55,4.67,4.67,0,0,1-.11.57c-.1.42-.23,1-.38,1.62L432,190a138.17,138.17,0,0,0-3.57,19.84,63.24,63.24,0,0,0,1.18,20,47.69,47.69,0,0,0,1.75,5.85c.24.68.47,1.19.6,1.55A3.49,3.49,0,0,1,432.19,237.84Z"/><g class="cls-12"><path d="M427.32,217.25l.93-.67a104.3,104.3,0,0,1,5.55-34C426.88,192.87,423.93,205.78,427.32,217.25Z"/></g><path class="cls-6" d="M456.68,212.1s14.69,54.37,22.87,64.34,12.65,12.94,25.28,13.95,17.3-13.6,20.11-19.29,2.29-14.24,2.29-14.24L510,247.24l-13.61,22.43-35.07-58.54Z"/><path class="cls-9" d="M459,219.18s15,34.8,25.68,54.76c9.08,16.89,27.61,15,33.48,5.62S533.86,242,533.86,242l-31.25-5.49-3.48,9.9-23.69-30.2Z"/><path class="cls-9" d="M484.54,214.17l-2.3-10.41s-1.05-2.88-2.76-.34-.92,7.34-.92,7.34-3.24-24.76-6.08-27.46c-1-1-2.47.37-2.47.37s-.33-4.84-1.84-4.81-3,3.64-3,3.64a2.69,2.69,0,0,0-3.36.77c-1.33,1.61-1.34,15.07-1.34,15.07s-1.26-11.09-3.25-11.79c-3.18-1.12-3.18,3.1-3.18,3.1l.93,14.43a126.53,126.53,0,0,0,3.92,16c2.19,6.19,3.47,6.25,3.47,6.25l14.26-.38s3.22-2.94,5.75-5.22A6.87,6.87,0,0,0,484.54,214.17Z"/><path class="cls-11" d="M508.74,260.47a2,2,0,0,1-.24-.44c-.16-.33-.37-.75-.61-1.26l-1.11-1.93c-.46-.74-1-1.56-1.6-2.48-2.47-3.62-6.2-8.38-10.45-13.55s-8.16-9.78-10.91-13.19c-1.38-1.71-2.47-3.11-3.2-4.1l-.81-1.15a3.14,3.14,0,0,1-.26-.42,1.7,1.7,0,0,1,.33.36c.23.29.52.66.88,1.1.77,1,1.89,2.33,3.3,4,2.81,3.36,6.77,7.94,11,13.11s7.95,10,10.36,13.65c.58.94,1.12,1.77,1.55,2.53s.78,1.43,1.05,2,.4,1,.54,1.31A2.15,2.15,0,0,1,508.74,260.47Z"/><path class="cls-3" d="M521,165.68s17.06,3.49,21.35,22.8c3.95,17.75,2.73,55.52,2.73,55.52l-46.46-8.18,11.3-64.48Z"/><path class="cls-1" d="M505.21,196.49a1.47,1.47,0,0,1,0,.2c0,.16,0,.36-.07.6-.09.56-.2,1.32-.34,2.28-.33,2-.78,4.88-1.34,8.41-1.18,7.13-2.8,17-4.61,27.88l-.18-.26,1.52.27L529,241.08l8.73,1.62,2.37.47.61.13a.64.64,0,0,1,.21.06h-.21l-.63-.09-2.38-.38L529,241.39l-28.86-5.08-1.52-.27-.22,0,0-.22c1.86-10.91,3.53-20.73,4.74-27.85.62-3.52,1.12-6.37,1.48-8.39.18-.95.32-1.71.42-2.27.05-.23.09-.43.12-.58S505.2,196.49,505.21,196.49Z"/><path class="cls-1" d="M507.81,190.29a6.13,6.13,0,0,1,.35-1.11c.26-.7.65-1.71,1.17-2.94a28,28,0,0,1,5.58-8.82,16.68,16.68,0,0,1,4.75-3.31,19.25,19.25,0,0,1,4.5-1.43,17.45,17.45,0,0,1,3.16-.33,5.63,5.63,0,0,1,1.16.05c0,.1-1.67,0-4.26.59a18.1,18.1,0,0,0-9,4.75,29.86,29.86,0,0,0-5.61,8.63l-1.29,2.88A6,6,0,0,1,507.81,190.29Z"/><path class="cls-11" d="M465,200.51a14.31,14.31,0,0,1-.24-2.63c-.08-1.63-.18-3.89-.19-6.38a62.53,62.53,0,0,1,.26-6.38,11.81,11.81,0,0,1,.43-2.62,22.21,22.21,0,0,1-.11,2.64c-.09,1.62-.14,3.87-.13,6.36s0,4.6.06,6.37A15.36,15.36,0,0,1,465,200.51Z"/><path class="cls-11" d="M469.66,183.84a11.77,11.77,0,0,1,.14,2.16c0,1.32.09,3.16.2,5.18s.23,3.85.33,5.18a11.63,11.63,0,0,1,.09,2.15,8.86,8.86,0,0,1-.4-2.12c-.18-1.32-.37-3.16-.47-5.19s-.11-3.87-.07-5.2A9.43,9.43,0,0,1,469.66,183.84Z"/><path class="cls-3" d="M149.06,84.05C147.91,76.38,146,68,141,62.12a48.3,48.3,0,0,0-12-10.38c-5.11-3.09-9.63-4.11-15.12-4.69l-3.6,3.19C121.73,53,131.74,61,137.63,71.31a52.53,52.53,0,0,1,5.82,34.37c-1.26,7.66-4,15-6.15,22.44s-3.58,15.34-2.11,23c6.33-2.46,4.54,1.7,7.21-4.54s4.06-20,5.61-26.6C150.57,109,150.64,94.56,149.06,84.05Z"/><path class="cls-1" d="M142.86,67c-9.71-15.08-32.37-19.73-32.37-19.73C77.33,44.87,71.4,70.35,68.05,93.56,66,108,73.63,153.09,73.63,153.09L81.76,156l53.37,0c0-1,3.77-9.15,4.71-11.81C144.74,120.08,148.57,75.85,142.86,67Z"/><polygon class="cls-1" points="144.34 146.54 144.34 146.54 144.34 146.54 144.34 146.54"/><path class="cls-10" d="M115.21,55.88l-2.07-2-22.43,9A6.26,6.26,0,0,0,84.8,69l.2,73.07c0,5,1,9.24,4,13.19l3.15,4.16c7.18,9.48,22,8.7,27.63-1.75a7.91,7.91,0,0,0,.8-1.89,15.71,15.71,0,0,0,.33-1.63c.67-5.88.71-11,.71-11,.4-6.45.53-9.1.53-9s13.73-1.58,17.45-19.21c1.84-8.76,1.49-20.83,1-32.7C139.82,65.79,128.42,55.87,115.21,55.88Z"/><path class="cls-1" d="M111.16,93.18a2.29,2.29,0,0,1-2.31,2.19,2.19,2.19,0,0,1-2.25-2.18A2.29,2.29,0,0,1,108.91,91,2.19,2.19,0,0,1,111.16,93.18Z"/><path class="cls-1" d="M133.75,93.94a2.28,2.28,0,0,1-2.32,2.19A2.17,2.17,0,0,1,129.19,94a2.28,2.28,0,0,1,2.31-2.19A2.18,2.18,0,0,1,133.75,93.94Z"/><path class="cls-1" d="M138.19,86.92c-.3.28-2-1.08-4.41-1.2s-4.32,1-4.57.71c-.12-.14.19-.67,1-1.2a6.27,6.27,0,0,1,3.67-.93,6,6,0,0,1,3.49,1.32C138.11,86.24,138.34,86.79,138.19,86.92Z"/><path class="cls-1" d="M113.3,87.17c-.33.25-1.84-1.28-4.27-1.64s-4.39.57-4.61.23c-.11-.15.26-.64,1.12-1.08a6.3,6.3,0,0,1,3.75-.56,6.08,6.08,0,0,1,3.34,1.68C113.29,86.49,113.46,87.06,113.3,87.17Z"/><path class="cls-1" d="M121.87,105c0-.14,1.53-.32,4-.51.63,0,1.23-.13,1.35-.55a3.16,3.16,0,0,0-.32-1.88q-.77-2.33-1.61-4.86c-2.24-6.92-3.82-12.6-3.54-12.69s2.32,5.45,4.55,12.37c.53,1.71,1.05,3.33,1.53,4.89a3.61,3.61,0,0,1,.2,2.47,1.59,1.59,0,0,1-1.07.87,4.2,4.2,0,0,1-1.07.09C123.41,105.23,121.87,105.16,121.87,105Z"/><path class="cls-13" d="M122.11,134.13a45.27,45.27,0,0,1-23.48-7.54s5.36,12.6,23.23,11.83Z"/><path class="cls-13" d="M120.54,110.88a4.43,4.43,0,0,0-3.88-1.84,4,4,0,0,0-2.87,1.36,2.57,2.57,0,0,0-.34,2.91,3,3,0,0,0,3.18,1,9.43,9.43,0,0,0,3.23-1.72,2.83,2.83,0,0,0,.73-.69.82.82,0,0,0,0-.91"/><path class="cls-1" d="M114.57,106.36c.4,0,.27,2.66,2.45,4.66s5,1.86,5,2.23c0,.17-.66.48-1.86.46A6.68,6.68,0,0,1,116,112a5.82,5.82,0,0,1-1.89-3.9C114.05,107,114.38,106.33,114.57,106.36Z"/><path class="cls-1" d="M115.65,77.61c-.34.62-2.72-.06-5.62-.15s-5.32.33-5.61-.32c-.12-.31.37-.87,1.4-1.37a9.73,9.73,0,0,1,8.55.36C115.35,76.71,115.8,77.31,115.65,77.61Z"/><path class="cls-1" d="M137.84,76.38c-.46.53-2.12-.13-4.15-.26s-3.77.19-4.14-.41c-.16-.3.14-.84.92-1.33a6,6,0,0,1,6.67.54C137.83,75.53,138,76.12,137.84,76.38Z"/><path class="cls-1" d="M85.25,100.18s12.56,3.91,19.67-27.09c2.43-10.6,12.26-19.19,12.26-19.19l-4-1.19S88.42,59.68,88,60s-6.25,12.81-6.25,12.81Z"/><path class="cls-10" d="M88.35,99c.06-1.33-1.31-4.52-2.61-4.79-3.46-.72-9.77-.76-10.27,8.11-.69,12.11,11.61,10.3,11.66,10S88.13,103.6,88.35,99Z"/><path class="cls-13" d="M83.69,107.5s-.22.14-.59.28a2.12,2.12,0,0,1-1.58,0c-1.25-.55-2.21-2.64-2.15-4.83a6.91,6.91,0,0,1,.76-3,2.42,2.42,0,0,1,1.68-1.53A1.09,1.09,0,0,1,83,99c.14.34,0,.58.11.61s.27-.19.2-.7a1.29,1.29,0,0,0-.43-.78,1.59,1.59,0,0,0-1.15-.38,3,3,0,0,0-2.31,1.75,7.1,7.1,0,0,0-.92,3.34c-.06,2.44,1,4.8,2.78,5.4a2.26,2.26,0,0,0,2-.21C83.65,107.8,83.73,107.53,83.69,107.5Z"/><path class="cls-1" d="M93.77,94.25a17.19,17.19,0,0,0,1.82-.36,11,11,0,0,0,4.31-2.51,14.88,14.88,0,0,0,2.25-2.63A20.27,20.27,0,0,0,104,85.21a76.61,76.61,0,0,0,2.61-8.81,90.66,90.66,0,0,1,2.79-8.8,49.49,49.49,0,0,1,3.15-6.84,36.94,36.94,0,0,1,2.78-4.26c.35-.48.67-.83.86-1.07a4.16,4.16,0,0,1,.33-.36,2.6,2.6,0,0,1-.27.4c-.19.26-.48.62-.82,1.11a39.72,39.72,0,0,0-2.68,4.29,53,53,0,0,0-3.08,6.84c-1,2.65-1.9,5.62-2.75,8.77a73,73,0,0,1-2.65,8.84,20.12,20.12,0,0,1-1.88,3.58,14.88,14.88,0,0,1-2.32,2.65A10.7,10.7,0,0,1,95.62,94,6.54,6.54,0,0,1,93.77,94.25Z"/><path class="cls-5" d="M75,144.77a29.71,29.71,0,0,0,.27-4.23A65.81,65.81,0,0,0,74.12,129c-.44-2.4-.91-5-1.42-7.86a74.41,74.41,0,0,1-1.08-9.07,37.08,37.08,0,0,1,.73-10,26.15,26.15,0,0,1,1.7-5,23.89,23.89,0,0,1,2.87-4.65,55.42,55.42,0,0,1,7.63-7.68c2.65-2.3,5.2-4.56,7.46-6.87A93.78,93.78,0,0,0,102.9,64.59a90,90,0,0,0,5.9-10c.62-1.22,1.08-2.18,1.37-2.83.15-.32.26-.57.34-.75a1.82,1.82,0,0,0,.11-.26,2.55,2.55,0,0,0-.14.25l-.37.73c-.31.65-.79,1.59-1.42,2.8a96.43,96.43,0,0,1-6,9.87A95.34,95.34,0,0,1,91.79,77.62c-2.26,2.3-4.8,4.54-7.46,6.84a56.57,56.57,0,0,0-7.67,7.72,24.91,24.91,0,0,0-2.91,4.72A25.53,25.53,0,0,0,72,102a37.32,37.32,0,0,0-.72,10.11,74.38,74.38,0,0,0,1.12,9.11c.52,2.82,1,5.45,1.45,7.85a67.61,67.61,0,0,1,1.28,11.47c0,1.36,0,2.42-.08,3.14,0,.34,0,.61,0,.81S75,144.77,75,144.77Z"/><path class="cls-5" d="M71.12,145.91a29.9,29.9,0,0,0,.27-4.23,65.81,65.81,0,0,0-1.17-11.51c-.43-2.4-.91-5-1.41-7.86a74.35,74.35,0,0,1-1.09-9.07,37.08,37.08,0,0,1,.73-10,25.3,25.3,0,0,1,1.71-5A23.84,23.84,0,0,1,73,93.53a57.21,57.21,0,0,1,7.63-7.69c2.65-2.29,5.2-4.55,7.46-6.86A93.25,93.25,0,0,0,99,65.72a89.14,89.14,0,0,0,5.9-9.94c.62-1.22,1.08-2.18,1.38-2.83l.33-.75a1.82,1.82,0,0,0,.11-.26,1.57,1.57,0,0,0-.14.25l-.36.73c-.32.64-.8,1.59-1.43,2.8a97.86,97.86,0,0,1-6,9.87A95.47,95.47,0,0,1,87.89,78.76c-2.26,2.3-4.79,4.54-7.45,6.84a56.06,56.06,0,0,0-7.68,7.72A24.06,24.06,0,0,0,69.86,98a26.22,26.22,0,0,0-1.73,5.1,37.32,37.32,0,0,0-.72,10.11,74.38,74.38,0,0,0,1.12,9.11c.52,2.82,1,5.45,1.46,7.85a68.46,68.46,0,0,1,1.27,11.47c0,1.36,0,2.42-.08,3.14l-.05.81C71.12,145.82,71.12,145.91,71.12,145.91Z"/><path class="cls-1" d="M53.61,304.31s-1.13-10.09,5.31-26.93C64.21,263.57,70.41,256,70.41,256l83.53-5.5,6.44,53.86Z"/><path class="cls-14" d="M153,219.13c1.23-18.61,0-46.8,0-46.8l-13.8-23.15L121,146.33s0,12.72-9.55,14.82c-16.25,3.59-26.85-16-26.85-16-1.53,0-24.66,4.86-32,11.84-7.53,7.17-20,26.18-23.51,31.63h0S4.77,224.21,1.2,234a17.72,17.72,0,0,0,1.19,15.35c.74,2.2,23.28,34.52,40.72,47.43l1.36-2.57,9.06-15.53L30.07,240.11l27.21-28.66,5.35-5,1.54,6.76L70.77,245s-13.15,26.28-15,39.94c0,0,64.63,22.28,104.52,11.28C160.3,296.22,151.76,237.73,153,219.13Z"/><path class="cls-10" d="M85,271.67s-10.94-2.95-12-2.33-9.27,4.93-9.27,4.93a42.53,42.53,0,0,1-3.85,4.18s-2.8,2.66-4.74,2.74a8.52,8.52,0,0,1-3.07-.33l-7.57,13.32s4.49,4.27,6.87,4.23,15.55-5.58,15.55-5.58l3.19-.7s12,1.73,12.93-1.87l.11-1-11.74-2.3-4.48.26,7.93-2s11.19.54,12.25.36,2.4-1.67,2-2.59l-2.31-.55s2.72-1.48,2.8-3.1l-10.35-2.8S86,274,85,271.67Z"/><path class="cls-13" d="M88.05,282.34a3.61,3.61,0,0,1-1-.24c-.6-.17-1.48-.41-2.56-.69-2.18-.57-5.2-1.28-8.54-2-.43-.08-.84-.2-1.22-.23a3.68,3.68,0,0,0-1.15.08c-.74.2-1.5.46-2.2.7-1.4.48-2.64.95-3.67,1.4a24.55,24.55,0,0,0-2.38,1.16,6.21,6.21,0,0,1-.86.47,2.8,2.8,0,0,1,.76-.63A17.6,17.6,0,0,1,67.61,281c1-.49,2.27-1,3.67-1.51.71-.25,1.43-.51,2.24-.74a4.35,4.35,0,0,1,1.3-.1,10,10,0,0,1,1.28.25c3.36.74,6.37,1.51,8.53,2.16,1.08.33,1.94.62,2.53.85A3.77,3.77,0,0,1,88.05,282.34Z"/><path class="cls-13" d="M79.53,277c0,.07-.83-.38-2.21-.81a12.5,12.5,0,0,0-10.71,1.58c-1.19.81-1.82,1.47-1.88,1.41a6,6,0,0,1,1.68-1.69,11.59,11.59,0,0,1,11-1.62A5.82,5.82,0,0,1,79.53,277Z"/><polygon class="cls-14" points="209.14 193.8 166.49 162.05 150.57 151.57 138.81 149.18 143.8 198.9 154.85 198.9 202.4 219.57 260.64 224.51 261.5 206.45 209.14 193.8"/><path class="cls-1" d="M153.77,240.92a3.86,3.86,0,0,1-.07-.74c0-.52,0-1.23-.09-2.11-.07-1.84-.15-4.5-.21-7.79s-.1-7.21-.1-11.55,0-9.13,0-14.14a111.55,111.55,0,0,0-3.4-25.37c-.75-3.2-1.41-5.78-1.85-7.56-.21-.87-.38-1.55-.5-2.06a5.73,5.73,0,0,1-.15-.73,3.9,3.9,0,0,1,.24.71c.14.5.33,1.18.58,2,.49,1.77,1.19,4.34,2,7.53a107.26,107.26,0,0,1,3.54,25.44c.08,5,0,9.8,0,14.15s0,8.26,0,11.55.05,5.9.07,7.78v2.12A6.08,6.08,0,0,1,153.77,240.92Z"/><g class="cls-12"><path d="M153.49,199.83a39.68,39.68,0,0,0-9.15-37.1,129.48,129.48,0,0,1,9.26,36.37"/></g><path class="cls-3" d="M118.34,47.63C91.64,50,90.58,82.66,87,108.41c-5.07,36.78,21.85,44.68,21.85,44.68l-33.44-6.26s-18.29-7.41-18.16-27.71S60.6,74,81.9,55.07C100.28,38.76,116.66,46.51,118.34,47.63Z"/><path class="cls-3" d="M144.34,145.19c-2-1.82-1.24-2.52-7-3.05-6.52-.6-13.8,3.57-20.29,4.44s-13.42,0-18.86-3.63c-6.39-4.26-9.87-11.6-13.06-18.58l-15.68,12.9a12.64,12.64,0,0,0-4.7,10.2,4.23,4.23,0,0,0,.37,1.93c.91,1.38,7.64-1.87,9-.92,7.18,5,10.24,13,16.82,18.79,7.7,6.77,14.81,12.14,20.23,12s15.42-5.93,19-12.58c3.32-6.14,6.22-10.62,8.82-15.31,1.37-2.47,6.16,1,6.73-1.94A4.56,4.56,0,0,0,144.34,145.19Z"/><path class="cls-1" d="M57.28,183.55a2.88,2.88,0,0,1,.2.61c.11.44.27,1,.47,1.77.39,1.59.94,3.82,1.62,6.55,1.33,5.53,3.13,13.19,5,21.66s3.54,16.18,4.64,21.77c.54,2.79.94,5.06,1.2,6.64.11.75.19,1.35.26,1.81a5.07,5.07,0,0,1,.06.64,2.73,2.73,0,0,1-.15-.62c-.09-.46-.2-1.06-.34-1.8-.33-1.61-.79-3.86-1.34-6.61-1.18-5.57-2.87-13.25-4.77-21.73s-3.65-16.1-4.91-21.69c-.62-2.74-1.12-5-1.48-6.58l-.39-1.79A3.69,3.69,0,0,1,57.28,183.55Z"/><path class="cls-1" d="M144.34,148.57l-.18.12-.53.31c-.49.24-1.16.7-2.11,1.1a38.74,38.74,0,0,1-8.31,2.78,66.91,66.91,0,0,1-12.91,1.47c-4.9.15-10.28-.11-15.91-.47-2.81-.18-5.56-.46-8.2-.87s-5.15-.95-7.53-1.55A66.68,66.68,0,0,1,76.46,147a54.25,54.25,0,0,1-7.56-4.43c-.86-.57-1.48-1.1-1.92-1.42l-.48-.38a.75.75,0,0,1-.16-.15.9.9,0,0,1,.19.11l.51.35c.45.3,1.08.8,2,1.35a59.77,59.77,0,0,0,7.6,4.28,68.5,68.5,0,0,0,12.17,4.36c2.36.59,4.87,1.11,7.49,1.52s5.35.67,8.16.85c5.63.37,11,.63,15.87.5a67.72,67.72,0,0,0,12.85-1.36,40.84,40.84,0,0,0,8.3-2.63c1-.37,1.65-.8,2.14-1l.56-.27C144.27,148.59,144.33,148.56,144.34,148.57Z"/><path class="cls-1" d="M93.1,152.07l-.17-.11-.48-.34-1.79-1.35c-.78-.58-1.69-1.36-2.77-2.23-.53-.45-1.08-.95-1.67-1.47s-1.2-1.08-1.82-1.69a48.08,48.08,0,0,1-7.78-9.47,29.26,29.26,0,0,1-4.36-14.28,51.49,51.49,0,0,1,2-14.86c1.19-4.47,2.47-8.42,3.51-11.74s1.86-6,2.45-7.89c.27-.9.49-1.62.65-2.14.07-.23.13-.41.17-.56s.07-.19.08-.18,0,.06,0,.19l-.14.57-.57,2.17c-.51,1.88-1.29,4.59-2.31,7.93s-2.25,7.3-3.41,11.75a51.72,51.72,0,0,0-2,14.74A29.16,29.16,0,0,0,77,135.2a48.88,48.88,0,0,0,7.65,9.45q.91.93,1.8,1.71c.58.53,1.11,1,1.64,1.49,1,.89,1.94,1.68,2.7,2.29l1.75,1.41.44.38A.67.67,0,0,1,93.1,152.07Z"/><path class="cls-1" d="M118.34,47.63c0,.09-1.39.16-3.54.78a23.62,23.62,0,0,0-3.65,1.4A34.68,34.68,0,0,0,107,52.25a48.44,48.44,0,0,0-6.63,5.68c-1.57,1.6-2.49,2.64-2.54,2.6a3.89,3.89,0,0,1,.57-.8c.39-.5,1-1.19,1.74-2a41,41,0,0,1,6.61-5.83A29.9,29.9,0,0,1,111,49.44a21.7,21.7,0,0,1,3.74-1.34,13,13,0,0,1,1.5-.31,6.75,6.75,0,0,1,1.14-.14A3.21,3.21,0,0,1,118.34,47.63Z"/><g class="cls-12"><path d="M84.21,75.52a21.86,21.86,0,0,0,.5-2.46,1.34,1.34,0,0,0-2.59-.63q-2.66,7-5.29,14c-3.49,9.24-7,18.72-7.2,28.59s3,20.87,11.32,26.15l-2.43-4.33c-6.3-8.63-6.47-20.4-4.07-30.81S81.54,85.87,84.21,75.52Z"/></g><path class="cls-1" d="M144.82,150.94s.21-.39.39-1.15a5.25,5.25,0,0,0-.28-3.18,6.33,6.33,0,0,0-3.3-3.32,11.21,11.21,0,0,0-5.8-.87,44.93,44.93,0,0,0-5.92,1c-1.81.41-3.42.86-4.76,1.26s-2.42.77-3.16,1a7.3,7.3,0,0,1-1.17.36,5.57,5.57,0,0,1,1.11-.52c.73-.3,1.79-.71,3.13-1.16s2.94-.93,4.75-1.37a42.9,42.9,0,0,1,6-1.06,11.45,11.45,0,0,1,6,.95,6.6,6.6,0,0,1,3.42,3.57,5.29,5.29,0,0,1,.15,3.35,3.85,3.85,0,0,1-.37.84A1.06,1.06,0,0,1,144.82,150.94Z"/><g class="cls-12"><path d="M135.94,152.51a61.5,61.5,0,0,1-32.76,4.79c-11.09-1.44-20.32-4.64-29-11.65,0,0,13.87,8,35.42,8.19C127.48,154,135.94,152.51,135.94,152.51Z"/></g></g></g></svg>