<svg id="visual" viewBox="0 0 900 600" width="900" height="600" xmlns="http://www.w3.org/2000/svg" xmlns:xlink="http://www.w3.org/1999/xlink" version="1.1"><rect x="0" y="0" width="900" height="600" fill="#001220"></rect><path d="M0 414L21.5 417.7C43 421.3 86 428.7 128.8 441.3C171.7 454 214.3 472 257.2 479C300 486 343 482 385.8 487.3C428.7 492.7 471.3 507.3 514.2 498.8C557 490.3 600 458.7 642.8 456.2C685.7 453.7 728.3 480.3 771.2 480C814 479.7 857 452.3 878.5 438.7L900 425L900 601L878.5 601C857 601 814 601 771.2 601C728.3 601 685.7 601 642.8 601C600 601 557 601 514.2 601C471.3 601 428.7 601 385.8 601C343 601 300 601 257.2 601C214.3 601 171.7 601 128.8 601C86 601 43 601 21.5 601L0 601Z" fill="#ffffff"></path></svg>